<?xml version="1.0" encoding="UTF-8"?>
<svg version="1.1" xmlns="http://www.w3.org/2000/svg" width="320" height="180">
<path d="M0 0 C5.07282912 0.53933006 8.99915547 2.31765331 13.4375 4.6875 C57.71024485 27.4567777 109.40760518 30.26894749 156.625 15.25 C162.42159768 13.39724641 162.42159768 13.39724641 168 11 C171 10.8125 171 10.8125 174 11 C176 13 176 13 176.015625 14.8515625 C174.4718167 18.11731084 171.73543994 19.55080578 168.75 21.375 C168.11956787 21.7678418 167.48913574 22.16068359 166.83959961 22.56542969 C135.33550447 41.80108422 97.53152824 45.63218873 61.87890625 38.19140625 C46.25792245 34.34176621 31.27105808 28.0985786 18 19 C17.11054687 18.41347656 16.22109375 17.82695313 15.3046875 17.22265625 C9.44005281 13.26806313 4.17622797 8.81364195 -1 4 C-0.67 2.68 -0.34 1.36 0 0 Z " fill="#F69508" transform="translate(61,107)"/>
<path d="M0 0 C3.47681512 6.43073192 4.89916398 13.70866027 6.6875 20.75 C7.00783203 21.98105469 7.32816406 23.21210937 7.65820312 24.48046875 C10 33.59799773 10 33.59799773 10 37 C10.66 37 11.32 37 12 37 C12.24234375 35.89785156 12.4846875 34.79570313 12.734375 33.66015625 C13.62419945 29.62458284 14.52298107 25.59106451 15.42675781 21.55859375 C15.80243476 19.88180739 16.17683061 18.20473338 16.54980469 16.52734375 C17.06826721 14.20417833 17.59540482 11.88314962 18.125 9.5625 C18.28323242 8.84779541 18.44146484 8.13309082 18.60449219 7.39672852 C19.36873728 4.08620143 20.09108868 1.86336698 22 -1 C24.6015625 -1.29296875 24.6015625 -1.29296875 27.625 -1.1875 C29.12933594 -1.14689453 29.12933594 -1.14689453 30.6640625 -1.10546875 C31.43492187 -1.07066406 32.20578125 -1.03585938 33 -1 C36.03548917 5.29750738 37.51489361 11.76648934 39.0625 18.5625 C39.57175767 20.77270392 40.08340182 22.98235959 40.59765625 25.19140625 C40.81945557 26.16279541 41.04125488 27.13418457 41.26977539 28.13500977 C42.03769473 31.14789291 42.98367725 34.06253625 44 37 C46.91446063 29.82398794 48.52210432 22.60931775 50.10546875 15.04492188 C52.91359444 2.08640556 52.91359444 2.08640556 56 -1 C57.68608966 -1.07205511 59.37500659 -1.08386068 61.0625 -1.0625 C61.98160156 -1.05347656 62.90070313 -1.04445312 63.84765625 -1.03515625 C64.55792969 -1.02355469 65.26820313 -1.01195312 66 -1 C66.98884004 2.0880058 66.98965111 3.94208581 66.04370117 7.03076172 C65.809832 7.81192352 65.57596283 8.59308533 65.33500671 9.3979187 C65.07363419 10.2334024 64.81226166 11.06888611 64.54296875 11.9296875 C64.27994461 12.79763947 64.01692047 13.66559143 63.7459259 14.55984497 C62.90253688 17.33453924 62.04513984 20.10468147 61.1875 22.875 C60.62083805 24.73279659 60.05507253 26.59086685 59.49023438 28.44921875 C51.57024106 54.42975894 51.57024106 54.42975894 49 57 C47.14712498 57.07226502 45.29166122 57.0838122 43.4375 57.0625 C42.42558594 57.05347656 41.41367188 57.04445312 40.37109375 57.03515625 C39.19740234 57.01775391 39.19740234 57.01775391 38 57 C34.78193765 50.78581064 33.2483463 44.82302422 32.08154297 37.97265625 C31.13747042 32.48742592 29.78502523 27.26645743 28 22 C25.72616326 24.27383674 25.50873272 25.32640513 24.81640625 28.40234375 C24.61249268 29.28825195 24.4085791 30.17416016 24.19848633 31.08691406 C23.8836731 32.4979541 23.8836731 32.4979541 23.5625 33.9375 C23.12087632 35.84790731 22.67817721 37.75806635 22.234375 39.66796875 C22.02232422 40.58755371 21.81027344 41.50713867 21.59179688 42.45458984 C20.86905575 45.56321153 20.11445415 48.66083987 19.3125 51.75 C19.10238281 52.56984375 18.89226562 53.3896875 18.67578125 54.234375 C18 56 18 56 16 57 C14.12620395 57.07033769 12.24998898 57.0843022 10.375 57.0625 C9.37210938 57.05347656 8.36921875 57.04445312 7.3359375 57.03515625 C6.56507813 57.02355469 5.79421875 57.01195312 5 57 C2.76053602 52.7937198 1.20302592 48.74401271 -0.0859375 44.16015625 C-0.26959869 43.51614365 -0.45325989 42.87213104 -0.64248657 42.20860291 C-1.225615 40.16144629 -1.80093442 38.11221473 -2.375 36.0625 C-3.12847147 33.38547162 -3.88647045 30.7097787 -4.6484375 28.03515625 C-4.83573425 27.37432037 -5.02303101 26.7134845 -5.21600342 26.03262329 C-6.94608461 20.01088845 -8.97250584 14.10794377 -11.06884766 8.20483398 C-11.92489189 5.25850661 -12.20240604 3.03859385 -12 0 C-7.47502126 -2.46817022 -4.6469059 -2.15134532 0 0 Z " fill="#F1F2F3" transform="translate(132,35)"/>
<path d="M0 0 C5.83819623 7.96117667 5.5246259 17.03173986 5.625 26.5625 C5.65949594 29.14075229 5.70213459 31.71891175 5.75390625 34.296875 C5.76623291 35.42834961 5.77855957 36.55982422 5.79125977 37.72558594 C6.06324218 40.8209466 6.83220582 42.986223 8.0625 45.8125 C8.0625 48.375 8.0625 48.375 7.0625 50.8125 C4 53.125 4 53.125 1.0625 54.8125 C-2.30341866 53.36996343 -4.44797079 51.47985273 -6.9375 48.8125 C-7.5975 49.4725 -8.2575 50.1325 -8.9375 50.8125 C-9.9275 50.8125 -10.9175 50.8125 -11.9375 50.8125 C-11.9375 51.4725 -11.9375 52.1325 -11.9375 52.8125 C-17.92888235 56.00790392 -23.18961898 56.5577274 -29.9375 55.8125 C-35.17500797 53.96967312 -39.13608447 50.76027086 -42.0546875 45.984375 C-43.96184137 41.29243894 -43.81932939 35.50308171 -42.25 30.71484375 C-39.45715345 25.42007217 -35.4325604 21.71836992 -29.828125 19.68359375 C-25.27815525 18.66487562 -21.1385831 18.59031776 -16.5 18.6875 C-15.25959961 18.70103516 -15.25959961 18.70103516 -13.99414062 18.71484375 C-11.97513292 18.73818488 -9.95627644 18.77404712 -7.9375 18.8125 C-8.23304241 12.81066184 -8.23304241 12.81066184 -10.3125 7.25 C-17.79683305 3.15143666 -27.32514558 6.3674935 -35.06640625 8.3515625 C-36.01386719 8.50367188 -36.96132812 8.65578125 -37.9375 8.8125 C-38.5975 8.1525 -39.2575 7.4925 -39.9375 6.8125 C-39.77192067 3.66649271 -39.19824136 2.12911451 -37.1875 -0.3125 C-26.37181522 -9.32557065 -11.01692409 -8.20409241 0 0 Z M-28.9375 31.8125 C-30.08102916 34.09955831 -30.04084439 35.40514762 -30 37.9375 C-29.979375 39.21625 -29.95875 40.495 -29.9375 41.8125 C-29.2775 41.8125 -28.6175 41.8125 -27.9375 41.8125 C-27.9375 42.4725 -27.9375 43.1325 -27.9375 43.8125 C-23.59082457 46.42050526 -20.02619275 45.74182333 -15.31640625 44.6328125 C-11.775229 43.4117169 -10.05308244 41.88350677 -7.9375 38.8125 C-6.78791494 35.27198786 -6.78791494 35.27198786 -6.9375 31.8125 C-7.94075384 29.98384767 -7.94075384 29.98384767 -9.9375 28.8125 C-13.19422458 28.33409757 -13.19422458 28.33409757 -16.8125 28.4375 C-18.02679688 28.42976563 -19.24109375 28.42203125 -20.4921875 28.4140625 C-24.13820465 28.83571074 -26.03333288 29.61562082 -28.9375 31.8125 Z " fill="#E0E2E3" transform="translate(110.9375,38.1875)"/>
<path d="M0 0 C1.7734375 1.375 1.7734375 1.375 3 3 C3.1875 6.6875 3.1875 6.6875 3 10 C-3.39221259 10.1253375 -3.39221259 10.1253375 -6.38671875 9.5078125 C-9.18307532 8.96442482 -11.77811812 8.83210662 -14.625 8.8125 C-15.56601563 8.79832031 -16.50703125 8.78414062 -17.4765625 8.76953125 C-20.24704023 8.82039293 -20.24704023 8.82039293 -23 11 C-24.17612195 12.78671071 -24.17612195 12.78671071 -24 15 C-20.11777845 19.82010477 -16.26858801 21.29461835 -10.5625 23 C-3.94201707 24.98903592 1.28470951 27.02908385 5.3515625 32.9765625 C7.10520827 38.44878243 6.84558887 44.24377696 4.375 49.375 C-1.10540059 55.43228487 -5.64642888 58.70425291 -13.91015625 59.265625 C-15.29427068 59.27087283 -16.67846249 59.26550742 -18.0625 59.25 C-18.75666016 59.25773437 -19.45082031 59.26546875 -20.16601562 59.2734375 C-24.24035908 59.25796041 -27.33123441 58.7617993 -31 57 C-31.886875 56.690625 -32.77375 56.38125 -33.6875 56.0625 C-36 55 -36 55 -38 52 C-37.625 48.3125 -37.625 48.3125 -37 45 C-33.09547176 43.71279289 -31.11156853 44.69911439 -27.34765625 46.21875 C-21.69044274 48.10135017 -16.0992823 48.61530688 -10.375 46.9375 C-7.70835313 45.14437757 -7.70835313 45.14437757 -7.125 41.8125 C-7.08375 40.884375 -7.0425 39.95625 -7 39 C-10.96082885 35.83133692 -14.61354576 34.40729882 -19.5 33 C-25.95427162 31.09822941 -30.16790169 29.36244255 -34.375 23.9375 C-36.80556492 19.19891965 -36.79360731 14.18178891 -36 9 C-34.93991131 6.4141762 -33.92702903 5.09706101 -32 3 C-31.34 3 -30.68 3 -30 3 C-30 2.34 -30 1.68 -30 1 C-19.76536828 -3.87778193 -10.5669108 -4.711485 0 0 Z " fill="#D8DADC" transform="translate(239,35)"/>
<path d="M0 0 C3.63 0 7.26 0 11 0 C14.03548917 6.29750738 15.51489361 12.76648934 17.0625 19.5625 C17.57175767 21.77270392 18.08340182 23.98235959 18.59765625 26.19140625 C18.81945557 27.16279541 19.04125488 28.13418457 19.26977539 29.13500977 C20.03769473 32.14789291 20.98367725 35.06253625 22 38 C24.91446063 30.82398794 26.52210432 23.60931775 28.10546875 16.04492188 C30.91359444 3.08640556 30.91359444 3.08640556 34 0 C35.68608966 -0.07205511 37.37500659 -0.08386068 39.0625 -0.0625 C39.98160156 -0.05347656 40.90070313 -0.04445312 41.84765625 -0.03515625 C42.55792969 -0.02355469 43.26820313 -0.01195312 44 0 C44.98884004 3.0880058 44.98965111 4.94208581 44.04370117 8.03076172 C43.69289742 9.20250443 43.69289742 9.20250443 43.33500671 10.3979187 C42.94294792 11.65114426 42.94294792 11.65114426 42.54296875 12.9296875 C42.27994461 13.79763947 42.01692047 14.66559143 41.7459259 15.55984497 C40.90253688 18.33453924 40.04513984 21.10468147 39.1875 23.875 C38.62083805 25.73279659 38.05507253 27.59086685 37.49023438 29.44921875 C29.57024106 55.42975894 29.57024106 55.42975894 27 58 C25.14712498 58.07226502 23.29166122 58.0838122 21.4375 58.0625 C20.42558594 58.05347656 19.41367188 58.04445312 18.37109375 58.03515625 C17.19740234 58.01775391 17.19740234 58.01775391 16 58 C12.78193765 51.78581064 11.2483463 45.82302422 10.08154297 38.97265625 C9.13747042 33.48742592 7.78502523 28.26645743 6 23 C3.83656989 25.03268602 3.83656989 25.03268602 2 28 C2.41153737 23.02906176 2.79600832 18.55491614 5 14 C5.94875 14.20625 6.8975 14.4125 7.875 14.625 C8.90625 14.74875 9.9375 14.8725 11 15 C11.66 14.34 12.32 13.68 13 13 C12.01 10.03 11.02 7.06 10 4 C8.35 4 6.7 4 5 4 C5.33 3.01 5.66 2.02 6 1 C4.02 1 2.04 1 0 1 C0 0.67 0 0.34 0 0 Z " fill="#CFD1D3" transform="translate(154,34)"/>
<path d="M0 0 C5.07282912 0.53933006 8.99915547 2.31765331 13.4375 4.6875 C39.71661683 18.20273405 67.24614007 24.20897904 96.6875 24.3125 C97.5031543 24.31644775 98.31880859 24.32039551 99.15917969 24.32446289 C112.1255835 24.35371233 124.34253682 23.19874833 137.02734375 20.375 C139.37848703 19.92804999 141.61330535 19.84349543 144 20 C141.16287823 21.89141451 139.80064848 22.41193924 136.5703125 23.03515625 C135.26453247 23.28894043 135.26453247 23.28894043 133.93237305 23.54785156 C133.00593994 23.71768555 132.07950684 23.88751953 131.125 24.0625 C130.16827393 24.2387793 129.21154785 24.41505859 128.22583008 24.59667969 C121.13813398 25.86540187 114.20728586 26.81598419 107 27 C106.15630859 27.02578125 105.31261719 27.0515625 104.44335938 27.078125 C81.89380284 27.69297317 57.79563167 25.55619104 36.546875 17.35546875 C33.33705397 16.12880807 31.37122543 15.68394762 28 16 C28.33 16.99 28.66 17.98 29 19 C28.34 19.66 27.68 20.32 27 21 C27.96099609 21.38091797 27.96099609 21.38091797 28.94140625 21.76953125 C29.80636719 22.11371094 30.67132813 22.45789063 31.5625 22.8125 C32.4803125 23.17730469 33.398125 23.54210937 34.34375 23.91796875 C36.43749763 24.77086301 38.50558288 25.68675711 40.5625 26.625 C43.94669766 27.97867906 47.11789216 28.74344738 50.671875 29.46875 C54.54257836 30.35199775 58.24945751 31.71053438 62 33 C67.6620258 34.85302662 73.09131571 35.54822937 79 36 C79 36.66 79 37.32 79 38 C97.1629351 38.30569414 115.2215459 38.14830596 133 34 C133 33.34 133 32.68 133 32 C133.66 32 134.32 32 135 32 C135.33 30.68 135.66 29.36 136 28 C137.98 28 139.96 28 142 28 C142 28.66 142 29.32 142 30 C143.01320312 29.67515625 143.01320312 29.67515625 144.046875 29.34375 C144.93890625 29.0653125 145.8309375 28.786875 146.75 28.5 C147.63171875 28.2215625 148.5134375 27.943125 149.421875 27.65625 C152 27 152 27 156 27 C156 26.34 156 25.68 156 25 C159.44450737 22.70366176 161.93812283 22.45983515 166 22 C163.3410904 25.17913104 159.94247668 26.68766886 156.25 28.375 C155.58242676 28.68026611 154.91485352 28.98553223 154.22705078 29.30004883 C119.05035495 45.04568987 79.46830071 45.78635473 43.50024414 32.27001953 C34.32586021 28.70537933 26.13662982 24.57843734 18 19 C17.11054687 18.41347656 16.22109375 17.82695313 15.3046875 17.22265625 C9.44005281 13.26806313 4.17622797 8.81364195 -1 4 C-0.67 2.68 -0.34 1.36 0 0 Z M53 29 C55 30 55 30 55 30 Z " fill="#613F10" transform="translate(61,107)"/>
<path d="M0 0 C3.47681512 6.43073192 4.89916398 13.70866027 6.6875 20.75 C7.00783203 21.98105469 7.32816406 23.21210937 7.65820312 24.48046875 C10 33.59799773 10 33.59799773 10 37 C10.66 37 11.32 37 12 37 C12.66 33.7 13.32 30.4 14 27 C14.33 27 14.66 27 15 27 C16.35578772 32.17664403 15.50161034 34.38164246 13 39 C12.29241674 42.2366963 12.29241674 42.2366963 12 45 C9.36 45 6.72 45 4 45 C4.66 48.3 5.32 51.6 6 55 C9.3 55.33 12.6 55.66 16 56 C16 56.33 16 56.66 16 57 C12.37 57 8.74 57 5 57 C2.76053602 52.7937198 1.20302592 48.74401271 -0.0859375 44.16015625 C-0.26959869 43.51614365 -0.45325989 42.87213104 -0.64248657 42.20860291 C-1.225615 40.16144629 -1.80093442 38.11221473 -2.375 36.0625 C-3.12847147 33.38547162 -3.88647045 30.7097787 -4.6484375 28.03515625 C-4.83573425 27.37432037 -5.02303101 26.7134845 -5.21600342 26.03262329 C-6.94608461 20.01088845 -8.97250584 14.10794377 -11.06884766 8.20483398 C-11.92489189 5.25850661 -12.20240604 3.03859385 -12 0 C-7.47502126 -2.46817022 -4.6469059 -2.15134532 0 0 Z " fill="#D7D9DA" transform="translate(132,35)"/>
<path d="M0 0 C2.63848245 3.95772368 2.1897759 6.14865087 1.6640625 10.7578125 C-0.34557013 20.56954827 -4.75422099 29.09721645 -12 36 C-13.32 35.67 -14.64 35.34 -16 35 C-16.45748349 30.31079425 -15.51286875 28.11281201 -13.0234375 24.2109375 C-10.8428238 19.50014608 -10.58435841 14.1131361 -10 9 C-12.66673742 8.97272655 -15.33318869 8.95303052 -18 8.9375 C-18.74378906 8.92912109 -19.48757812 8.92074219 -20.25390625 8.91210938 C-24.04237534 8.89563777 -27.68284032 9.03766462 -31.4375 9.56640625 C-35 10 -35 10 -37 9 C-37 6.75 -37 6.75 -36 4 C-26.18457807 -3.22082162 -11.21184366 -4.03195147 0 0 Z " fill="#A87226" transform="translate(252,105)"/>
<path d="M0 0 C0.99 0.99 0.99 0.99 2 2 C1.6564145 5.59333174 0.8794968 6.1054403 -2 8.625 C-5.50980035 10.98903908 -8.84625146 11.91717683 -12.984375 12.640625 C-15.19513952 12.98460252 -15.19513952 12.98460252 -18 14 C-18 14.66 -18 15.32 -18 16 C-19.76949612 16.50471197 -21.54065223 17.00360685 -23.3125 17.5 C-24.29863281 17.7784375 -25.28476563 18.056875 -26.30078125 18.34375 C-29 19 -29 19 -32 19 C-32 18.34 -32 17.68 -32 17 C-33.98 17 -35.96 17 -38 17 C-37.505 15.515 -37.505 15.515 -37 14 C-34.69 14 -32.38 14 -30 14 C-30 13.34 -30 12.68 -30 12 C-31.00353516 12.29003906 -31.00353516 12.29003906 -32.02734375 12.5859375 C-46.09715701 16.40083989 -60.2719137 17.34173935 -74.78442383 17.26074219 C-77.06553595 17.24998568 -79.34586392 17.26074172 -81.62695312 17.2734375 C-95.61854183 17.28761509 -108.88803837 15.85938651 -122.3828125 12.0078125 C-125.92448168 11.02104074 -129.46909499 10.21158951 -133.0625 9.4375 C-137.468424 8.44996531 -141.1311319 7.32132086 -145 5 C-140.97170723 3.3502218 -137.7565478 4.82810539 -133.875 6.1875 C-101.79053558 16.77256143 -69.08726432 17.24387126 -36.16015625 10.5859375 C-33 10 -33 10 -30 10 C-30 9.34 -30 8.68 -30 8 C-29.34402832 7.79318604 -28.68805664 7.58637207 -28.01220703 7.37329102 C-25.049259 6.43807936 -22.08712279 5.50032202 -19.125 4.5625 C-18.09246094 4.23701172 -17.05992187 3.91152344 -15.99609375 3.57617188 C-15.00996094 3.26357422 -14.02382812 2.95097656 -13.0078125 2.62890625 C-12.09660645 2.34088135 -11.18540039 2.05285645 -10.24658203 1.75610352 C-6.4482641 0.477752 -4.14507811 -0.25906738 0 0 Z M-40 17 C-39.34 17.33 -38.68 17.66 -38 18 C-38.33 18.99 -38.66 19.98 -39 21 C-41.97 20.505 -41.97 20.505 -45 20 C-44.360625 19.690625 -43.72125 19.38125 -43.0625 19.0625 C-41.06389179 18.1654837 -41.06389179 18.1654837 -40 17 Z " fill="#F89606" transform="translate(235,118)"/>
<path d="M0 0 C3.63 0 7.26 0 11 0 C13.75354936 5.81304864 15.24693578 11.60565847 16.625 17.875 C16.8415625 18.81730469 17.058125 19.75960937 17.28125 20.73046875 C18.4228892 25.82556221 19.31896712 30.84239638 19.79150391 36.04394531 C20.00027918 38.00261917 20.37570072 39.94112037 20.75 41.875 C21 45 21 45 19.75 46.9375 C18 48 18 48 15 48 C15.56739868 52.12973628 15.56739868 52.12973628 17 56 C19.35599235 56.46751788 19.35599235 56.46751788 22.0625 56.625 C22.98160156 56.69976562 23.90070313 56.77453125 24.84765625 56.8515625 C25.55792969 56.90054688 26.26820313 56.94953125 27 57 C27 57.33 27 57.66 27 58 C23.37 58 19.74 58 16 58 C12.78193765 51.78581064 11.2483463 45.82302422 10.08154297 38.97265625 C9.13747042 33.48742592 7.78502523 28.26645743 6 23 C3.83656989 25.03268602 3.83656989 25.03268602 2 28 C2.41153737 23.02906176 2.79600832 18.55491614 5 14 C5.94875 14.20625 6.8975 14.4125 7.875 14.625 C8.90625 14.74875 9.9375 14.8725 11 15 C11.66 14.34 12.32 13.68 13 13 C12.01 10.03 11.02 7.06 10 4 C8.35 4 6.7 4 5 4 C5.33 3.01 5.66 2.02 6 1 C4.02 1 2.04 1 0 1 C0 0.67 0 0.34 0 0 Z " fill="#D0D2D5" transform="translate(154,34)"/>
<path d="M0 0 C0.33 0 0.66 0 1 0 C1.05395478 1.62463842 1.09277195 3.24978541 1.125 4.875 C1.14820313 5.77992187 1.17140625 6.68484375 1.1953125 7.6171875 C1 10 1 10 -1 12 C-0.505 12.7734375 -0.505 12.7734375 0 13.5625 C1.32010877 16.78026512 1.13242105 19.5570528 1 23 C0.34 23 -0.32 23 -1 23 C-1 21.02 -1 19.04 -1 17 C-3.58361518 16.94592433 -6.16609255 16.906293 -8.75 16.875 C-9.47960937 16.85824219 -10.20921875 16.84148437 -10.9609375 16.82421875 C-16.37118611 16.6487615 -16.37118611 16.6487615 -21 19 C-21.91599427 21.40404738 -21.91599427 21.40404738 -22.25 24.125 C-22.39953125 25.03507812 -22.5490625 25.94515625 -22.703125 26.8828125 C-22.80109375 27.58148438 -22.8990625 28.28015625 -23 29 C-22.34 29 -21.68 29 -21 29 C-21 29.66 -21 30.32 -21 31 C-22.32 30.67 -23.64 30.34 -25 30 C-24.96519531 29.37351562 -24.93039063 28.74703125 -24.89453125 28.1015625 C-24.86746094 27.28429687 -24.84039062 26.46703125 -24.8125 25.625 C-24.77769531 24.81289062 -24.74289063 24.00078125 -24.70703125 23.1640625 C-24.80371094 22.44992188 -24.90039062 21.73578125 -25 21 C-25.99 20.34 -26.98 19.68 -28 19 C-28.33 18.01 -28.66 17.02 -29 16 C-29.99 16 -30.98 16 -32 16 C-32 15.01 -32 14.02 -32 13 C-26.82109702 7.82109702 -21.78454664 5.92906868 -14.37890625 5.8046875 C-12.77331993 5.81779433 -11.16778755 5.84136787 -9.5625 5.875 C-8.32209961 5.88853516 -8.32209961 5.88853516 -7.05664062 5.90234375 C-5.03763292 5.92568488 -3.01877644 5.96154712 -1 6 C-0.67 4.02 -0.34 2.04 0 0 Z " fill="#D4D5D7" transform="translate(104,51)"/>
<path d="M0 0 C2.62187494 1.04874998 3.79371361 1.64931313 5.25 4.125 C5.4975 4.74375 5.745 5.3625 6 6 C6.33 6 6.66 6 7 6 C7 9.3 7 12.6 7 16 C8.32 16.66 9.64 17.32 11 18 C12.49545142 20.70605494 13.12342848 22.2388577 12.625 25.3125 C12.315625 26.1478125 12.315625 26.1478125 12 27 C6.47012832 27.55298717 2.47307205 26.14991167 -2 23 C-5.85697637 18.05824902 -5.70124714 12.02890399 -5 6 C-3.75261601 2.68535522 -3.07536932 2.05024621 0 0 Z " fill="#DFE0E1" transform="translate(73,65)"/>
<path d="M0 0 C-26.19214762 15.22080555 -56.84337542 21.66327761 -87 18 C-87 17.34 -87 16.68 -87 16 C-88.5778125 16.0309375 -88.5778125 16.0309375 -90.1875 16.0625 C-93.32704904 16.01103198 -95.96883396 15.73482813 -99 15 C-99 14.67 -99 14.34 -99 14 C-98.07703125 14.0721875 -97.1540625 14.144375 -96.203125 14.21875 C-75.09074915 15.72081627 -53.72825512 15.83659286 -33 11 C-33 10.34 -33 9.68 -33 9 C-32.34 9 -31.68 9 -31 9 C-30.67 7.68 -30.34 6.36 -30 5 C-28.02 5 -26.04 5 -24 5 C-24 5.66 -24 6.32 -24 7 C-23.32453125 6.7834375 -22.6490625 6.566875 -21.953125 6.34375 C-20.61507812 5.92609375 -20.61507812 5.92609375 -19.25 5.5 C-18.36828125 5.2215625 -17.4865625 4.943125 -16.578125 4.65625 C-14 4 -14 4 -10 4 C-10 3.34 -10 2.68 -10 2 C-6.70021068 -0.19985954 -3.76967739 -1.88483869 0 0 Z " fill="#B47C27" transform="translate(227,130)"/>
<path d="M0 0 C0.96228516 -0.00773437 1.92457031 -0.01546875 2.91601562 -0.0234375 C4.29370117 -0.01957031 4.29370117 -0.01957031 5.69921875 -0.015625 C6.95545044 -0.01224121 6.95545044 -0.01224121 8.23706055 -0.00878906 C10.3125 0.25 10.3125 0.25 12.3125 2.25 C12.578125 4.4921875 12.578125 4.4921875 12.5625 7.125 C12.56765625 7.98867187 12.5728125 8.85234375 12.578125 9.7421875 C12.30140649 12.35473577 11.6310995 14.0000088 10.3125 16.25 C9.9825 14.93 9.6525 13.61 9.3125 12.25 C8.3225 12.745 8.3225 12.745 7.3125 13.25 C6.65477572 16.27934491 6.65477572 16.27934491 6.3125 19.25 C6.9725 19.25 7.6325 19.25 8.3125 19.25 C7.6525 20.57 6.9925 21.89 6.3125 23.25 C5.9825 23.25 5.6525 23.25 5.3125 23.25 C5.26351562 22.17878906 5.21453125 21.10757813 5.1640625 20.00390625 C5.08904706 18.60674361 5.0134987 17.2096095 4.9375 15.8125 C4.9065625 15.10544922 4.875625 14.39839844 4.84375 13.66992188 C4.73969371 11.85760812 4.53330108 10.05182012 4.3125 8.25 C1.90708071 7.04729036 0.20883409 7.04683337 -2.4765625 6.93359375 C-3.41757813 6.89169922 -4.35859375 6.84980469 -5.328125 6.80664062 C-6.31296875 6.76732422 -7.2978125 6.72800781 -8.3125 6.6875 C-9.30507812 6.64431641 -10.29765625 6.60113281 -11.3203125 6.55664062 C-13.77589838 6.45038931 -16.23158703 6.34835036 -18.6875 6.25 C-18.3575 5.59 -18.0275 4.93 -17.6875 4.25 C-17.0275 4.25 -16.3675 4.25 -15.6875 4.25 C-15.6875 3.59 -15.6875 2.93 -15.6875 2.25 C-10.67459065 -0.44350353 -5.53132913 -0.04500064 0 0 Z " fill="#E39B2E" transform="translate(239.6875,104.75)"/>
<path d="M0 0 C2.04169485 2.90548882 3 4.40142046 3 8 C2.01 8 1.02 8 0 8 C-0.66 9.98 -1.32 11.96 -2 14 C-1.34 14 -0.68 14 0 14 C0.04254356 15.99954746 0.04080783 18.00041636 0 20 C-1.66684015 21.66684015 -3.65643069 21.21072764 -5.9375 21.25 C-6.83339844 21.27578125 -7.72929687 21.3015625 -8.65234375 21.328125 C-9.81443359 21.16570312 -9.81443359 21.16570312 -11 21 C-13.56616632 17.15075052 -13.55097676 14.5650696 -14 10 C-10.5657338 9.14143345 -8.38317487 9.02408417 -5 10 C-4.95101562 9.36191406 -4.90203125 8.72382812 -4.8515625 8.06640625 C-4.77679688 7.24011719 -4.70203125 6.41382812 -4.625 5.5625 C-4.55539063 4.73878906 -4.48578125 3.91507812 -4.4140625 3.06640625 C-4.27742187 2.38449219 -4.14078125 1.70257813 -4 1 C-2 0 -2 0 0 0 Z " fill="#F6F9F9" transform="translate(149,70)"/>
<path d="M0 0 C0.77988281 0.00386719 1.55976563 0.00773437 2.36328125 0.01171875 C3.50990234 0.00591797 3.50990234 0.00591797 4.6796875 0 C8.62347974 0.00681139 12.26303324 0.16645625 16.11328125 1.13671875 C16.11328125 2.45671875 16.11328125 3.77671875 16.11328125 5.13671875 C15.45328125 5.13671875 14.79328125 5.13671875 14.11328125 5.13671875 C14.44328125 6.12671875 14.77328125 7.11671875 15.11328125 8.13671875 C14.02789062 8.19730469 12.9425 8.25789063 11.82421875 8.3203125 C10.37889639 8.40477939 8.93358443 8.48942426 7.48828125 8.57421875 C6.77542969 8.61353516 6.06257813 8.65285156 5.328125 8.69335938 C2.06046579 8.88821979 -1.05410354 9.16615539 -4.28515625 9.734375 C-6.88671875 10.13671875 -6.88671875 10.13671875 -8.88671875 9.13671875 C-8.88671875 8.14671875 -8.88671875 7.15671875 -8.88671875 6.13671875 C-9.54671875 5.80671875 -10.20671875 5.47671875 -10.88671875 5.13671875 C-10.22671875 5.13671875 -9.56671875 5.13671875 -8.88671875 5.13671875 C-8.42265625 4.17765625 -8.42265625 4.17765625 -7.94921875 3.19921875 C-5.9651409 -0.65222649 -4.18819238 0.00728381 0 0 Z " fill="#F3F4F6" transform="translate(218.88671875,33.86328125)"/>
<path d="M0 0 C0.70511719 0.17402344 1.41023438 0.34804687 2.13671875 0.52734375 C5.20093804 1.03316985 7.73160701 0.89657273 10.8125 0.5625 C12.27623047 0.40974609 12.27623047 0.40974609 13.76953125 0.25390625 C14.87361328 0.12822266 14.87361328 0.12822266 16 0 C16.66 0.99 17.32 1.98 18 3 C18.66 2.34 19.32 1.68 20 1 C20.99 1.33 21.98 1.66 23 2 C23.6875 4.0625 23.6875 4.0625 24 6 C23.01 5.67 22.02 5.34 21 5 C20.34 5.66 19.68 6.32 19 7 C18.01 7 17.02 7 16 7 C16 7.66 16 8.32 16 9 C10.02116138 12.18871393 4.73606723 12.76983626 -2 12 C-7.55319149 9.89361702 -7.55319149 9.89361702 -9 7 C-7.948125 7.4640625 -7.948125 7.4640625 -6.875 7.9375 C-3.91063343 9.03302678 -1.12301892 9.56422992 2 10 C2.17942163 6.05272412 2.09350689 3.4019487 0 0 Z " fill="#A7ABAE" transform="translate(83,82)"/>
<path d="M0 0 C4.61810497 0.62696127 8.96922588 1.79032829 13.43701172 3.06958008 C24.21939105 6.15681054 34.89368593 8.47150727 46 10 C47.25296875 10.185625 48.5059375 10.37125 49.796875 10.5625 C71.24963762 13.17147833 92.91677092 9.73816118 114 6 C114.495 6.99 114.495 6.99 115 8 C100.28013472 12.25429632 85.45978856 13.34582312 70.21557617 13.26074219 C67.93446405 13.24998568 65.65413608 13.26074172 63.37304688 13.2734375 C49.38145817 13.28761509 36.11196163 11.85938651 22.6171875 8.0078125 C19.07551832 7.02104074 15.53090501 6.21158951 11.9375 5.4375 C7.531576 4.44996531 3.8688681 3.32132086 0 1 C0 0.67 0 0.34 0 0 Z " fill="#DC9B3B" transform="translate(90,122)"/>
<path d="M0 0 C4.41172531 0.62195376 7.81096445 2.26857822 11.75 4.3125 C17.09796182 7.05690443 22.47949887 9.62047365 28 12 C27.67 12.99 27.34 13.98 27 15 C27.33 15.66 27.66 16.32 28 17 C26.02 17.99 26.02 17.99 24 19 C24 18.01 24 17.02 24 16 C23.071875 15.87625 22.14375 15.7525 21.1875 15.625 C18 15 18 15 15 13 C13.4221875 12.6596875 13.4221875 12.6596875 11.8125 12.3125 C7.00032589 11.02719709 3.11120958 7.83042427 0 4 C0 2.68 0 1.36 0 0 Z " fill="#EE9418" transform="translate(62,109)"/>
<path d="M0 0 C3.0429118 0.61903477 6.08407097 1.24630353 9.125 1.875 C9.9809375 2.04902344 10.836875 2.22304687 11.71875 2.40234375 C15.20492701 3.1263959 18.52617303 3.82312181 21.8671875 5.0703125 C32.48902843 8.22242988 44.72626892 7.29488069 55.75 7.5625 C57.42969562 7.60580617 59.10938323 7.64942377 60.7890625 7.69335938 C64.85929183 7.79915786 68.92960567 7.900761 73 8 C73 8.33 73 8.66 73 9 C69.54184898 9.17059365 66.08345693 9.33573439 62.625 9.5 C61.65949219 9.54769531 60.69398438 9.59539062 59.69921875 9.64453125 C55.05028288 9.86293763 50.42777164 10.01866243 45.7734375 9.96875 C42.11056996 9.94295516 38.64752231 10.25669136 35.02734375 10.77294922 C31.1947091 11.20218215 27.3513836 11.10327198 23.5 11.0625 C22.67757812 11.05798828 21.85515625 11.05347656 21.0078125 11.04882812 C19.00517604 11.03718489 17.00257773 11.01925556 15 11 C15 9.68 15 8.36 15 7 C14.41992188 6.81824219 13.83984375 6.63648438 13.2421875 6.44921875 C8.60852707 4.9581894 4.30237645 3.31666424 0 1 C0 0.67 0 0.34 0 0 Z " fill="#F3960F" transform="translate(103,127)"/>
<path d="M0 0 C5.11791642 -0.10662326 9.92928099 0.28832014 15 1 C16.478746 5.436238 14.74833678 7.73405826 13 12 C9.7 12 6.4 12 3 12 C0.58314288 7.77050005 -0.34833144 4.87664009 0 0 Z " fill="#F7F9F9" transform="translate(168,79)"/>
<path d="M0 0 C0.33 0 0.66 0 1 0 C2.35578772 5.17664403 1.50161034 7.38164246 -1 12 C-1.70758326 15.2366963 -1.70758326 15.2366963 -2 18 C-4.64 18 -7.28 18 -10 18 C-9.34 21.3 -8.68 24.6 -8 28 C-4.7 28.33 -1.4 28.66 2 29 C2 29.33 2 29.66 2 30 C-1.63 30 -5.26 30 -9 30 C-13.18990027 23.14379955 -14.18946575 14.94298741 -14 7 C-13.01 6.67 -12.02 6.34 -11 6 C-8.48916886 7.25541557 -8.12874554 8.50063488 -7 11 C-6.01 9.68 -5.02 8.36 -4 7 C-4 7.99 -4 8.98 -4 10 C-3.34 10 -2.68 10 -2 10 C-1.34 6.7 -0.68 3.4 0 0 Z " fill="#B6B9BB" transform="translate(146,62)"/>
<path d="M0 0 C0 0.33 0 0.66 0 1 C-0.57967529 1.02505615 -1.15935059 1.0501123 -1.7565918 1.07592773 C-4.40042107 1.19246234 -7.04394409 1.31492682 -9.6875 1.4375 C-11.05551758 1.49647461 -11.05551758 1.49647461 -12.45117188 1.55664062 C-13.33740234 1.59853516 -14.22363281 1.64042969 -15.13671875 1.68359375 C-15.94842529 1.72025146 -16.76013184 1.75690918 -17.59643555 1.79467773 C-20.12144485 2.01037431 -22.52600697 2.45899452 -25 3 C-25 3.66 -25 4.32 -25 5 C-25 5.33 -25 5.66 -25 6 C-23.72382813 6.04898438 -22.44765625 6.09796875 -21.1328125 6.1484375 C-19.46351928 6.22346191 -17.79424954 6.29900988 -16.125 6.375 C-14.86236328 6.42140625 -14.86236328 6.42140625 -13.57421875 6.46875 C-12.76855469 6.50742188 -11.96289062 6.54609375 -11.1328125 6.5859375 C-10.38918457 6.6173584 -9.64555664 6.6487793 -8.87939453 6.68115234 C-7 7 -7 7 -5 9 C-6.27875 9.06058594 -7.5575 9.12117188 -8.875 9.18359375 C-10.5833411 9.26807216 -12.29167401 9.35271641 -14 9.4375 C-14.83917969 9.47681641 -15.67835938 9.51613281 -16.54296875 9.55664062 C-20.56117009 9.75910813 -24.51467034 10.03643103 -28.5 10.59765625 C-32 11 -32 11 -34 10 C-34 7.75 -34 7.75 -33 5 C-23.45000846 -2.02555487 -11.15637588 -1.94023928 0 0 Z " fill="#6B4718" transform="translate(249,104)"/>
<path d="M0 0 C2.32549415 1.0368717 3.59611235 1.9185109 5.12890625 3.94921875 C5.31640625 7.63671875 5.31640625 7.63671875 5.12890625 10.94921875 C-1.26767953 11.074642 -1.26767953 11.074642 -4.2578125 10.453125 C-7.06162671 9.91247921 -9.64284159 9.81635855 -12.49609375 9.82421875 C-13.43710938 9.82164063 -14.378125 9.8190625 -15.34765625 9.81640625 C-17.99786882 9.84373877 -17.99786882 9.84373877 -20.87109375 10.94921875 C-20.87109375 10.28921875 -20.87109375 9.62921875 -20.87109375 8.94921875 C-17.82896108 7.42815241 -14.59061803 7.57492537 -11.24609375 7.38671875 C-10.18648437 7.32194336 -10.18648437 7.32194336 -9.10546875 7.25585938 C-7.36090838 7.14977124 -5.61602678 7.04898986 -3.87109375 6.94921875 C-3.87109375 6.28921875 -3.87109375 5.62921875 -3.87109375 4.94921875 C-3.21109375 4.94921875 -2.55109375 4.94921875 -1.87109375 4.94921875 C-1.87109375 3.62921875 -1.87109375 2.30921875 -1.87109375 0.94921875 C-8.47109375 0.61921875 -15.07109375 0.28921875 -21.87109375 -0.05078125 C-14.56197891 -3.70533867 -7.60866329 -2.30824617 0 0 Z " fill="#979AA0" transform="translate(236.87109375,34.05078125)"/>
<path d="M0 0 C0.66 0.66 1.32 1.32 2 2 C1.8125 4 1.8125 4 1 6 C-2 8 -2 8 -4.1875 7.625 C-4.785625 7.41875 -5.38375 7.2125 -6 7 C-5.34 6.01 -4.68 5.02 -4 4 C-6.31 4.33 -8.62 4.66 -11 5 C-11 5.66 -11 6.32 -11 7 C-17.50422293 9.00865708 -23.1781317 10.38614349 -30 10 C-30 9.34 -30 8.68 -30 8 C-29.34402832 7.79318604 -28.68805664 7.58637207 -28.01220703 7.37329102 C-25.049259 6.43807936 -22.08712279 5.50032202 -19.125 4.5625 C-18.09246094 4.23701172 -17.05992187 3.91152344 -15.99609375 3.57617188 C-14.51689453 3.10727539 -14.51689453 3.10727539 -13.0078125 2.62890625 C-12.09660645 2.34088135 -11.18540039 2.05285645 -10.24658203 1.75610352 C-6.4482641 0.477752 -4.14507811 -0.25906738 0 0 Z " fill="#79501C" transform="translate(235,118)"/>
<path d="M0 0 C5.43451982 -0.32607119 8.2224926 0.56617547 13 3 C20.24081485 5.2384522 27.44536196 6.51529977 35 7 C35 7.66 35 8.32 35 9 C32.69 9 30.38 9 28 9 C30.31 9.33 32.62 9.66 35 10 C35 10.33 35 10.66 35 11 C29.0454664 11.20904931 23.94626222 10.5314164 18.1875 9.0625 C17.06311523 8.78889648 17.06311523 8.78889648 15.91601562 8.50976562 C12.90296214 7.76929225 9.94441376 6.98147125 7 6 C6.67 5.01 6.34 4.02 6 3 C2.99152582 1.77479736 2.99152582 1.77479736 0 1 C0 0.67 0 0.34 0 0 Z M9 0 C11 1 11 1 11 1 Z " fill="#D2871F" transform="translate(105,136)"/>
<path d="M0 0 C-0.33 0.99 -0.66 1.98 -1 3 C-0.34 3.66 0.32 4.32 1 5 C-3.28948295 6.8873725 -7.52879563 8.57734406 -12 10 C-12.99 10.33 -13.98 10.66 -15 11 C-15 10.34 -15 9.68 -15 9 C-17.43387753 7.78306124 -19.41838846 7.68040104 -22.125 7.4375 C-23.03507813 7.35371094 -23.94515625 7.26992187 -24.8828125 7.18359375 C-25.58148438 7.12300781 -26.28015625 7.06242188 -27 7 C-27 6.67 -27 6.34 -27 6 C-26.43152344 5.95101562 -25.86304688 5.90203125 -25.27734375 5.8515625 C-20.29841062 5.36946213 -15.81316093 4.41563557 -11 3 C-9.68 3 -8.36 3 -7 3 C-7 2.34 -7 1.68 -7 1 C-4 0 -4 0 0 0 Z " fill="#EC9713" transform="translate(231,122)"/>
<path d="M0 0 C1.98567708 0.29296875 3.97135417 0.5859375 5.95703125 0.87890625 C8.2025342 1.13904799 8.2025342 1.13904799 11 0 C17.04693561 -0.45457733 22.28039613 0.01057257 28 2 C28 4.31 28 6.62 28 9 C27.34 9 26.68 9 26 9 C26 7.02 26 5.04 26 3 C23.41638482 2.94592433 20.83390745 2.906293 18.25 2.875 C17.52039063 2.85824219 16.79078125 2.84148437 16.0390625 2.82421875 C10.62881389 2.6487615 10.62881389 2.6487615 6 5 C5.08400573 7.40404738 5.08400573 7.40404738 4.75 10.125 C4.60046875 11.03507812 4.4509375 11.94515625 4.296875 12.8828125 C4.19890625 13.58148438 4.1009375 14.28015625 4 15 C4.66 15 5.32 15 6 15 C6 15.66 6 16.32 6 17 C4.68 16.67 3.36 16.34 2 16 C2.03480469 15.37351562 2.06960937 14.74703125 2.10546875 14.1015625 C2.13253906 13.28429687 2.15960938 12.46703125 2.1875 11.625 C2.22230469 10.81289062 2.25710937 10.00078125 2.29296875 9.1640625 C2.19628906 8.44992188 2.09960938 7.73578125 2 7 C1.01 6.34 0.02 5.68 -1 5 C-0.67 3.35 -0.34 1.7 0 0 Z " fill="#BCBEC0" transform="translate(77,65)"/>
<path d="M0 0 C4.56881344 3.84742185 5.99138523 7.26641169 7 13 C7.21461596 15.58853797 7.35124009 18.18459019 7.4140625 20.78125 C7.43342865 21.48020386 7.4527948 22.17915771 7.4727478 22.89929199 C7.5318215 25.09940964 7.57863473 27.29958172 7.625 29.5 C7.66324657 31.00522929 7.70230201 32.51043825 7.7421875 34.015625 C7.83746125 37.6768957 7.92175356 41.33832122 8 45 C4.1262422 41.1262422 4.839731 35.07100783 4.68359375 29.8515625 C4.66281265 29.19417084 4.64203156 28.53677917 4.62062073 27.85946655 C4.55579247 25.78140638 4.49655436 23.70323144 4.4375 21.625 C4.39425112 20.20701989 4.35063491 18.78905093 4.30664062 17.37109375 C4.20018082 13.9141812 4.09873016 10.45714294 4 7 C3.01 7.33 2.02 7.66 1 8 C1 7.01 1 6.02 1 5 C0.34 5 -0.32 5 -1 5 C-0.67 4.34 -0.34 3.68 0 3 C0 2.01 0 1.02 0 0 Z " fill="#6B6F74" transform="translate(109,37)"/>
<path d="M0 0 C2.12966005 2.12966005 2.47624662 3.04068204 3.1875 5.875 C3.45626953 6.89207031 3.45626953 6.89207031 3.73046875 7.9296875 C4.02970718 10.22818556 3.69377386 11.80550964 3 14 C2.67 13.34 2.34 12.68 2 12 C1.01 12.495 1.01 12.495 0 13 C-2.56269497 11.95890517 -4.02610343 10.97389657 -6 9 C-6.66 9.66 -7.32 10.32 -8 11 C-7.42429187 7.11397015 -5.58424279 4.88827136 -3 2 C-2.01 1.34 -1.02 0.68 0 0 Z " fill="#FAF9F8" transform="translate(164,37)"/>
<path d="M0 0 C-24.33898519 13.73755047 -24.33898519 13.73755047 -31.39453125 12.62109375 C-31.92433594 12.41613281 -32.45414063 12.21117187 -33 12 C-31.02 11.67 -29.04 11.34 -27 11 C-27 9.68 -27 8.36 -27 7 C-24.91798472 6.49453964 -22.83432933 5.99583165 -20.75 5.5 C-19.58984375 5.2215625 -18.4296875 4.943125 -17.234375 4.65625 C-14 4 -14 4 -10 4 C-10 3.34 -10 2.68 -10 2 C-6.70021068 -0.19985954 -3.76967739 -1.88483869 0 0 Z " fill="#B07A2A" transform="translate(227,130)"/>
<path d="M0 0 C1.134375 0.020625 2.26875 0.04125 3.4375 0.0625 C3.01247973 2.1484151 2.57197954 4.23117991 2.125 6.3125 C1.88136719 7.47265625 1.63773438 8.6328125 1.38671875 9.828125 C0.48044167 12.91618022 -0.4551703 14.67773474 -2.5625 17.0625 C-4.96005352 6.23069572 -4.96005352 6.23069572 -4.5625 1.0625 C-3.5625 0.0625 -3.5625 0.0625 0 0 Z " fill="#E4E7E8" transform="translate(126.5625,34.9375)"/>
<path d="M0 0 C3.85025879 0.60355408 6.86101159 1.76772603 10.3125 3.5625 C11.19550781 4.01753906 12.07851562 4.47257812 12.98828125 4.94140625 C13.65214844 5.29074219 14.31601563 5.64007813 15 6 C15 6.33 15 6.66 15 7 C13.35 7.33 11.7 7.66 10 8 C10.33 9.32 10.66 10.64 11 12 C8.11288406 10.65864082 5.70586037 9.15056005 3.25 7.125 C2.63640625 6.63257812 2.0228125 6.14015625 1.390625 5.6328125 C0 4 0 4 0 0 Z " fill="#C19040" transform="translate(62,109)"/>
<path d="M0 0 C1.5 1.125 1.5 1.125 3 3 C3.1875 6.1875 3.1875 6.1875 3 9 C1.68 9.33 0.36 9.66 -1 10 C-4 6.25 -4 6.25 -4 4 C-5.65 4.66 -7.3 5.32 -9 6 C-9.99 5.01 -10.98 4.02 -12 3 C-10.3125 1.875 -10.3125 1.875 -8 1 C-5.25 1.875 -5.25 1.875 -3 3 C-2.67 2.34 -2.34 1.68 -2 1 C-1.67 1.33 -1.34 1.66 -1 2 C-0.67 1.34 -0.34 0.68 0 0 Z " fill="#F7F9F9" transform="translate(110,80)"/>
<path d="M0 0 C2.56400777 2.56400777 2.32633634 3.68782015 2.375 7.25 C2.25106623 13.18332942 0.76633372 16.28422591 -3.49609375 20.46875 C-7.42951389 24 -7.42951389 24 -11 24 C-11.33 23.01 -11.66 22.02 -12 21 C-10.68 20.67 -9.36 20.34 -8 20 C-8 19.34 -8 18.68 -8 18 C-6.68 17.67 -5.36 17.34 -4 17 C-3.896875 16.360625 -3.79375 15.72125 -3.6875 15.0625 C-3.3471875 14.0415625 -3.3471875 14.0415625 -3 13 C-2.01 12.67 -1.02 12.34 0 12 C0.33 9.03 0.66 6.06 1 3 C0.34 2.67 -0.32 2.34 -1 2 C-0.67 1.34 -0.34 0.68 0 0 Z " fill="#979B9F" transform="translate(243,68)"/>
<path d="M0 0 C1.65 0 3.3 0 5 0 C6 1 6 1 6.0625 4.5625 C6.041875 5.696875 6.02125 6.83125 6 8 C5.360625 8.20625 4.72125 8.4125 4.0625 8.625 C1.65074923 9.89538209 1.65074923 9.89538209 1.25 13.125 C1.1675 14.07375 1.085 15.0225 1 16 C1.66 16 2.32 16 3 16 C2.34 17.32 1.68 18.64 1 20 C0.67 20 0.34 20 0 20 C0 13.4 0 6.8 0 0 Z " fill="#F59308" transform="translate(245,108)"/>
<path d="M0 0 C1.98 0 3.96 0 6 0 C6 2.64 6 5.28 6 8 C4.02 8.33 2.04 8.66 0 9 C-0.33 10.32 -0.66 11.64 -1 13 C-1.66 13 -2.32 13 -3 13 C-2.69128878 11.20767663 -2.37790936 9.41615679 -2.0625 7.625 C-1.88847656 6.62726562 -1.71445313 5.62953125 -1.53515625 4.6015625 C-1 2 -1 2 0 0 Z " fill="#F6F9FA" transform="translate(188,35)"/>
<path d="M0 0 C-2.9840427 2.9840427 -6.6001996 3.0106615 -10.625 3.625 C-11.46716064 3.75688721 -12.30932129 3.88877441 -13.17700195 4.0246582 C-21.1600444 5.18415183 -28.94578286 5.29995016 -37 5 C-37 4.67 -37 4.34 -37 4 C-35.329375 3.83564453 -35.329375 3.83564453 -33.625 3.66796875 C-24.34668682 2.71569121 -15.28784316 1.41615106 -6.16015625 -0.51171875 C-3 -1 -3 -1 0 0 Z " fill="#CD9037" transform="translate(205,129)"/>
<path d="M0 0 C0.66 0.66 1.32 1.32 2 2 C1.8125 4 1.8125 4 1 6 C-2 8 -2 8 -4.1875 7.625 C-4.785625 7.41875 -5.38375 7.2125 -6 7 C-5.34 6.01 -4.68 5.02 -4 4 C-6.97 4 -9.94 4 -13 4 C-8.39791078 0.93194052 -5.67394186 -0.49338625 0 0 Z " fill="#AF7C32" transform="translate(235,118)"/>
<path d="M0 0 C0.99 0.33 1.98 0.66 3 1 C4.56159771 6.93407129 3.75526917 13.48946166 1 19 C0.34 19 -0.32 19 -1 19 C-1.33 19.66 -1.66 20.32 -2 21 C-2 20.34 -2 19.68 -2 19 C-2.66 19 -3.32 19 -4 19 C-4 16.36 -4 13.72 -4 11 C-1 11 -1 11 1 12 C1.02698189 10.37509046 1.04638757 8.75005367 1.0625 7.125 C1.07410156 6.22007813 1.08570313 5.31515625 1.09765625 4.3828125 C1.16249257 1.9831415 1.16249257 1.9831415 0 0 Z " fill="#A66813" transform="translate(250,105)"/>
<path d="M0 0 C2 1 2 1 4 3 C4.66 2.34 5.32 1.68 6 1 C6.99 1.33 7.98 1.66 9 2 C9.6875 4.0625 9.6875 4.0625 10 6 C9.01 5.67 8.02 5.34 7 5 C6.34 5.66 5.68 6.32 5 7 C2.375 7.625 2.375 7.625 0 8 C0 7.01 0 6.02 0 5 C-1.32 4.34 -2.64 3.68 -4 3 C-2.68 2.01 -1.36 1.02 0 0 Z " fill="#C1C4C7" transform="translate(97,82)"/>
<path d="M0 0 C2 2 2 2 2 4.375 C0.6042509 8.03884139 -1.67734418 9.09124027 -5 11 C-6.32 10.34 -7.64 9.68 -9 9 C-9 8.01 -9 7.02 -9 6 C-7.35 6.33 -5.7 6.66 -4 7 C-4 5.02 -4 3.04 -4 1 C-3.01 1.66 -2.02 2.32 -1 3 C-0.67 2.01 -0.34 1.02 0 0 Z " fill="#B4BABE" transform="translate(117,82)"/>
<path d="M0 0 C6.6 0.33 13.2 0.66 20 1 C20 1.66 20 2.32 20 3 C17.69 3 15.38 3 13 3 C15.31 3.33 17.62 3.66 20 4 C20 4.33 20 4.66 20 5 C13.71739294 5.23268915 8.11980533 4.40454548 2 3 C2 2.34 2 1.68 2 1 C1.34 0.67 0.68 0.34 0 0 Z " fill="#AB741D" transform="translate(120,142)"/>
<path d="M0 0 C2.0625 1.625 2.0625 1.625 4 4 C3.75 7.25 3.75 7.25 3 10 C0.125 10.125 0.125 10.125 -3 10 C-3.66 9.34 -4.32 8.68 -5 8 C-4.175 7.236875 -3.35 6.47375 -2.5 5.6875 C0.34055197 3.24565858 0.34055197 3.24565858 0 0 Z " fill="#F2F5F3" transform="translate(82,82)"/>
<path d="M0 0 C1.35949488 4.07848463 0.14486103 7.17680945 -0.9375 11.1875 C-1.13279297 11.93708984 -1.32808594 12.68667969 -1.52929688 13.45898438 C-2.01214375 15.30793459 -2.50510633 17.15423776 -3 19 C-3.66 18.67 -4.32 18.34 -5 18 C-4.67 16.02 -4.34 14.04 -4 12 C-4.66 12 -5.32 12 -6 12 C-5.49396008 9.83125748 -5.00016187 8.00032373 -4 6 C-3.01 6 -2.02 6 -1 6 C-0.67 4.02 -0.34 2.04 0 0 Z " fill="#AFAFB3" transform="translate(153,72)"/>
<path d="M0 0 C3.3 0 6.6 0 10 0 C11.04692525 4.18770101 10.85469996 5.32171213 9.5625 9.25 C9.27503906 10.14203125 8.98757812 11.0340625 8.69140625 11.953125 C8.46324219 12.62859375 8.23507813 13.3040625 8 14 C7.20439236 11.08500057 6.74677501 8.25438581 6.4375 5.25 C6.35371094 4.45078125 6.26992187 3.6515625 6.18359375 2.828125 C6.12300781 2.22484375 6.06242188 1.6215625 6 1 C4.02 1 2.04 1 0 1 C0 0.67 0 0.34 0 0 Z " fill="#989CA1" transform="translate(188,34)"/>
<path d="M0 0 C0 2.31 0 4.62 0 7 C-0.66 7 -1.32 7 -2 7 C-2 5.02 -2 3.04 -2 1 C-8.27 1 -14.54 1 -21 1 C-17.86147448 -5.27705104 -5.30696388 -1.84590048 0 0 Z " fill="#494C52" transform="translate(105,67)"/>
<path d="M0 0 C0 0.66 0 1.32 0 2 C0.99 2.33 1.98 2.66 3 3 C0.35261084 4.4606285 -0.89448334 5 -4 5 C-4 4.34 -4 3.68 -4 3 C-6.0162233 3.71563266 -6.0162233 3.71563266 -8 5 C-8.80528889 7.05000871 -8.80528889 7.05000871 -9 9 C-9.99 9 -10.98 9 -12 9 C-12 8.01 -12 7.02 -12 6 C-5.42857143 0 -5.42857143 0 0 0 Z " fill="#C9CACC" transform="translate(84,58)"/>
<path d="M0 0 C3.63 0 7.26 0 11 0 C13.45489316 5.12325529 14.50341703 9.33895411 15 15 C12.77174356 12.77174356 12.30760631 11.34238372 11.375 8.375 C11.11460937 7.55773438 10.85421875 6.74046875 10.5859375 5.8984375 C10.39257812 5.27195312 10.19921875 4.64546875 10 4 C8.35 4 6.7 4 5 4 C5.33 3.01 5.66 2.02 6 1 C4.02 1 2.04 1 0 1 C0 0.67 0 0.34 0 0 Z " fill="#83888E" transform="translate(154,34)"/>
<path d="M0 0 C-2.36947306 1.32340798 -4.74475856 2.63371607 -7.125 3.9375 C-8.12273437 4.49727539 -8.12273437 4.49727539 -9.140625 5.06835938 C-13.10418806 7.22500398 -16.43272113 8.55180908 -21 9 C-18.64046906 6.64046906 -17.22104383 6.50858587 -14 6 C-14 5.34 -14 4.68 -14 4 C-12.68 4 -11.36 4 -10 4 C-10 3.34 -10 2.68 -10 2 C-6.70021068 -0.19985954 -3.76967739 -1.88483869 0 0 Z " fill="#835A1E" transform="translate(227,130)"/>
<path d="M0 0 C0.80050781 0.20882812 1.60101563 0.41765625 2.42578125 0.6328125 C3.23402344 0.83648437 4.04226562 1.04015625 4.875 1.25 C5.48988281 1.41757813 6.10476562 1.58515625 6.73828125 1.7578125 C3.69131835 3.45215168 0.91006659 4.25248362 -2.51171875 4.8828125 C-3.84976563 5.13417969 -3.84976563 5.13417969 -5.21484375 5.390625 C-5.8903125 5.51179687 -6.56578125 5.63296875 -7.26171875 5.7578125 C-5.73122512 2.22590413 -4.32168678 -0.4627713 0 0 Z " fill="#F79715" transform="translate(210.26171875,131.2421875)"/>
<path d="M0 0 C-0.33 0.33 -0.66 0.66 -1 1 C0.49853516 1.07347656 0.49853516 1.07347656 2.02734375 1.1484375 C3.96287109 1.26058594 3.96287109 1.26058594 5.9375 1.375 C7.86916016 1.47941406 7.86916016 1.47941406 9.83984375 1.5859375 C11.40412109 1.79089844 11.40412109 1.79089844 13 2 C13.33 2.66 13.66 3.32 14 4 C2.615 3.505 2.615 3.505 -9 3 C-4.5 -1.5 -4.5 -1.5 0 0 Z " fill="#EB9D22" transform="translate(230,108)"/>
<path d="M0 0 C0.66 0.33 1.32 0.66 2 1 C1.67 1.66 1.34 2.32 1 3 C0.34 3 -0.32 3 -1 3 C-1.2165625 3.928125 -1.2165625 3.928125 -1.4375 4.875 C-2 7 -2 7 -3 9 C-3.66 9 -4.32 9 -5 9 C-4.34 13.62 -3.68 18.24 -3 23 C-5 22 -5 22 -6 19 C-6.98144504 8.7511395 -6.98144504 8.7511395 -4.125 4.3125 C-3.42375 3.549375 -2.7225 2.78625 -2 2 C-1.34 2 -0.68 2 0 2 C0 1.34 0 0.68 0 0 Z " fill="#92939B" transform="translate(209,36)"/>
<path d="M0 0 C-0.33 0.99 -0.66 1.98 -1 3 C-0.34 3.66 0.32 4.32 1 5 C-1.3125 6.125 -1.3125 6.125 -4 7 C-4.99 6.34 -5.98 5.68 -7 5 C-7 3.68 -7 2.36 -7 1 C-4 0 -4 0 0 0 Z " fill="#D48519" transform="translate(231,122)"/>
<path d="M0 0 C3.12754976 0.612668 6.25146367 1.24221462 9.375 1.875 C10.70917969 2.13603516 10.70917969 2.13603516 12.0703125 2.40234375 C12.92109375 2.57636719 13.771875 2.75039062 14.6484375 2.9296875 C15.43395996 3.08679199 16.21948242 3.24389648 17.02880859 3.40576172 C19 4 19 4 21 6 C13.00088158 5.75612444 6.89999866 5.19411683 0 1 C0 0.67 0 0.34 0 0 Z " fill="#EC961F" transform="translate(103,127)"/>
<path d="M0 0 C0.33 0 0.66 0 1 0 C2.34458794 5.13388123 1.57543553 7.44346021 -1 12 C-1.68636625 14.23525035 -1.68636625 14.23525035 -2 16 C-2.66 16 -3.32 16 -4 16 C-4.33 13.03 -4.66 10.06 -5 7 C-4.67 7.99 -4.34 8.98 -4 10 C-3.34 10 -2.68 10 -2 10 C-1.34 6.7 -0.68 3.4 0 0 Z " fill="#42484E" transform="translate(146,62)"/>
<path d="M0 0 C0.33 0 0.66 0 1 0 C3.27678571 8.03571429 3.27678571 8.03571429 2 12 C1.34 11.01 0.68 10.02 0 9 C-0.66 10.65 -1.32 12.3 -2 14 C-3.25127906 10.45332822 -2.72285053 8.27746562 -1.5625 4.75 C-1.27503906 3.85796875 -0.98757812 2.9659375 -0.69140625 2.046875 C-0.46324219 1.37140625 -0.23507813 0.6959375 0 0 Z " fill="#32363E" transform="translate(159,48)"/>
<path d="M0 0 C4.56454251 0.54339792 7.9728176 1.79463821 12 4 C11.67 4.99 11.34 5.98 11 7 C11.33 7.66 11.66 8.32 12 9 C10.02 9.99 10.02 9.99 8 11 C7.67 9.68 7.34 8.36 7 7 C7.66 7 8.32 7 9 7 C9 6.34 9 5.68 9 5 C8.34 5 7.68 5 7 5 C7 4.34 7 3.68 7 3 C4.69 2.34 2.38 1.68 0 1 C0 0.67 0 0.34 0 0 Z " fill="#E79A2B" transform="translate(78,117)"/>
<path d="M0 0 C2.3828125 -0.29296875 2.3828125 -0.29296875 5.125 -0.1875 C6.03507813 -0.16042969 6.94515625 -0.13335937 7.8828125 -0.10546875 C8.58148438 -0.07066406 9.28015625 -0.03585938 10 0 C10 0.99 10 1.98 10 3 C6.04 3 2.08 3 -2 3 C-1.34 2.01 -0.68 1.02 0 0 Z " fill="#F29409" transform="translate(230,107)"/>
<path d="M0 0 C3.125 0.375 3.125 0.375 6 1 C6.33 2.32 6.66 3.64 7 5 C4.36 5 1.72 5 -1 5 C-1.33 4.01 -1.66 3.02 -2 2 C-1.34 1.34 -0.68 0.68 0 0 Z " fill="#F6FAF9" transform="translate(77,61)"/>
<path d="M0 0 C0 0.33 0 0.66 0 1 C-2.64 1.33 -5.28 1.66 -8 2 C-8 4.97 -8 7.94 -8 11 C-11.00617269 7.99382731 -10.59585316 5.17618402 -11 1 C-6.92630576 -1.03684712 -4.41062136 -1.0257259 0 0 Z " fill="#4C5258" transform="translate(131,34)"/>
<path d="M0 0 C4.37702633 1.22556737 8.69677317 2.53060547 13 4 C13 4.33 13 4.66 13 5 C5.375 6.25 5.375 6.25 2 4 C1.34 3.34 0.68 2.68 0 2 C0 1.34 0 0.68 0 0 Z " fill="#EC9112" transform="translate(88,122)"/>
<path d="M0 0 C2 3 2 3 3 6 C3.66 5.01 4.32 4.02 5 3 C4.25 10.75 4.25 10.75 2 13 C0.54815522 8.46298506 -0.23509196 4.81938524 0 0 Z " fill="#252831" transform="translate(173,66)"/>
<path d="M0 0 C2 2 2 2 2 6 C2.66 6 3.32 6 4 6 C4 6.66 4 7.32 4 8 C2.35 8 0.7 8 -1 8 C-1.93065133 5.39417629 -2.14917407 4.35801776 -1.0625 1.75 C-0.711875 1.1725 -0.36125 0.595 0 0 Z " fill="#EDEFF0" transform="translate(140,72)"/>
<path d="M0 0 C0.33 0 0.66 0 1 0 C0.91297874 2.27155498 0.80480478 4.54230743 0.6875 6.8125 C0.62949219 8.07707031 0.57148438 9.34164062 0.51171875 10.64453125 C0 14 0 14 -1.54296875 15.94921875 C-2.02378906 16.29597656 -2.50460938 16.64273438 -3 17 C-2.36934845 11.2190275 -1.34844868 5.6556294 0 0 Z " fill="#7C8084" transform="translate(150,45)"/>
<path d="M0 0 C2.86724686 0.57344937 3.8614515 0.8614515 6 3 C6 4.32 6 5.64 6 7 C5.01 7 4.02 7 3 7 C0.64276511 4.46815512 0 3.52809907 0 0 Z " fill="#B97B22" transform="translate(67,113)"/>
<path d="M0 0 C4.0042343 3.49087093 5.62671065 5.64951939 6 11 C5.34 9.68 4.68 8.36 4 7 C3.01 7.33 2.02 7.66 1 8 C1 7.01 1 6.02 1 5 C0.34 5 -0.32 5 -1 5 C-0.67 4.34 -0.34 3.68 0 3 C0 2.01 0 1.02 0 0 Z " fill="#8E9296" transform="translate(109,37)"/>
<path d="M0 0 C1 3 1 3 0.0390625 5.04296875 C-0.42757812 5.75066406 -0.89421875 6.45835937 -1.375 7.1875 C-1.83648437 7.90292969 -2.29796875 8.61835938 -2.7734375 9.35546875 C-3.17820313 9.89816406 -3.58296875 10.44085938 -4 11 C-4.33 11 -4.66 11 -5 11 C-5.36666667 5.5 -5.36666667 5.5 -3.625 3.125 C-2 2 -2 2 0 2 C0 1.34 0 0.68 0 0 Z " fill="#9A6720" transform="translate(249,124)"/>
<path d="M0 0 C-2 3 -2 3 -5.375 3.75 C-8.36642578 3.95630523 -10.23443285 3.99560417 -13 3 C-8.37802694 0.78145293 -5.23175837 -0.38281159 0 0 Z " fill="#7A541A" transform="translate(235,118)"/>
<path d="M0 0 C0.598125 0.20625 1.19625 0.4125 1.8125 0.625 C0.3275 2.11 0.3275 2.11 -1.1875 3.625 C-0.1975 3.955 0.7925 4.285 1.8125 4.625 C-0.8275 4.625 -3.4675 4.625 -6.1875 4.625 C-5.03076352 1.15479057 -3.91311293 -0.67081936 0 0 Z " fill="#BE8E53" transform="translate(222.1875,108.375)"/>
<path d="M0 0 C2.63829259 1.31914629 2.98263229 2.23857335 4 5 C4.0777346 7.33203812 4.08967728 9.66839059 4 12 C3.34 12 2.68 12 2 12 C2.1546875 10.6696875 2.1546875 10.6696875 2.3125 9.3125 C1.90501428 4.99315142 0.2277297 3.74357025 -3 1 C-2.01 0.67 -1.02 0.34 0 0 Z " fill="#5F6267" transform="translate(230,68)"/>
<path d="M0 0 C0.8353125 0.2475 0.8353125 0.2475 1.6875 0.5 C4.18691249 1.04041351 6.45045662 1.07082065 9 1 C7.68 2.32 6.36 3.64 5 5 C3.0625 4.1875 3.0625 4.1875 1 3 C0.67 2.01 0.34 1.02 0 0 Z " fill="#7B868B" transform="translate(107,88)"/>
<path d="M0 0 C2.31 0.33 4.62 0.66 7 1 C5.8125 2.5625 5.8125 2.5625 4 4 C1.3125 3.6875 1.3125 3.6875 -1 3 C-0.67 2.01 -0.34 1.02 0 0 Z " fill="#F19E28" transform="translate(221,126)"/>
<path d="M0 0 C0.33 0 0.66 0 1 0 C0.125 7.625 0.125 7.625 -1 11 C-1.66 10.67 -2.32 10.34 -3 10 C-3 7.36 -3 4.72 -3 2 C-2.01 2.33 -1.02 2.66 0 3 C0 2.01 0 1.02 0 0 Z " fill="#707177" transform="translate(151,80)"/>
<path d="M0 0 C-1.32 0.33 -2.64 0.66 -4 1 C-4 1.66 -4 2.32 -4 3 C-6.64 3 -9.28 3 -12 3 C-3.33333333 -1.66666667 -3.33333333 -1.66666667 0 0 Z " fill="#D9963B" transform="translate(228,122)"/>
<path d="M0 0 C2.8125 0.1875 2.8125 0.1875 6 1 C7.875 3.5625 7.875 3.5625 9 6 C5.88802644 4.50164236 2.91164984 2.86022073 0 1 C0 0.67 0 0.34 0 0 Z " fill="#A06E29" transform="translate(73,121)"/>
<path d="M0 0 C0.33 0.66 0.66 1.32 1 2 C0.67 2.99 0.34 3.98 0 5 C0.99 5.33 1.98 5.66 3 6 C3 6.33 3 6.66 3 7 C1.35 7 -0.3 7 -2 7 C-2 5.02 -2 3.04 -2 1 C-1.34 0.67 -0.68 0.34 0 0 Z " fill="#F2F7F8" transform="translate(75,38)"/>
<path d="M0 0 C0.185625 0.9590625 0.185625 0.9590625 0.375 1.9375 C0.684375 2.9584375 0.684375 2.9584375 1 4 C1.66 4.33 2.32 4.66 3 5 C2.34 5 1.68 5 1 5 C1 5.66 1 6.32 1 7 C0.34 7 -0.32 7 -1 7 C-1.33 7.99 -1.66 8.98 -2 10 C-1.125 2.25 -1.125 2.25 0 0 Z " fill="#83878D" transform="translate(153,35)"/>
<path d="M0 0 C0 0.99 0 1.98 0 3 C-5.75 2.25 -5.75 2.25 -8 0 C-5.13822943 -1.43088528 -3.06624227 -0.59991697 0 0 Z " fill="#9F6D23" transform="translate(112,138)"/>
<path d="M0 0 C0.33 0 0.66 0 1 0 C1 2.97 1 5.94 1 9 C1.66 9 2.32 9 3 9 C2.34 10.32 1.68 11.64 1 13 C0.67 13 0.34 13 0 13 C0 8.71 0 4.42 0 0 Z " fill="#ED910F" transform="translate(245,115)"/>
<path d="M0 0 C-2.35968744 2.09749995 -3.54616994 2.96905704 -6.75 3.1875 C-7.86375 3.0946875 -7.86375 3.0946875 -9 3 C-6.07868595 -0.19953443 -4.37453972 -1.45817991 0 0 Z " fill="#E39317" transform="translate(230,108)"/>
<path d="M0 0 C0.66 0.33 1.32 0.66 2 1 C1.01 2.485 1.01 2.485 0 4 C-0.33 4.99 -0.66 5.98 -1 7 C-1.99 7 -2.98 7 -4 7 C-4 4 -4 4 -2 1.8125 C-1.34 1.214375 -0.68 0.61625 0 0 Z " fill="#919694" transform="translate(76,60)"/>
<path d="M0 0 C0.99 0.33 1.98 0.66 3 1 C3.33 2.98 3.66 4.96 4 7 C3.54625 6.505 3.0925 6.01 2.625 5.5 C1.12364481 3.77390663 1.12364481 3.77390663 -1 4 C-1.33 3.01 -1.66 2.02 -2 1 C-1.34 0.67 -0.68 0.34 0 0 Z " fill="#9FAAAE" transform="translate(130,35)"/>
<path d="M0 0 C2.97 0 5.94 0 9 0 C9 0.99 9 1.98 9 3 C7.68 3 6.36 3 5 3 C5 2.34 5 1.68 5 1 C3.35 1 1.7 1 0 1 C0 0.67 0 0.34 0 0 Z " fill="#EF980C" transform="translate(135,142)"/>
</svg>
