<?xml version="1.0" encoding="UTF-8"?>
<svg version="1.1" xmlns="http://www.w3.org/2000/svg" width="259" height="194">
<path d="M0 0 C0.82902832 0.47671143 1.65805664 0.95342285 2.51220703 1.44458008 C4.34888062 2.50551264 6.18069522 3.57488882 8.00830078 4.65136719 C10.76587401 6.26402952 13.53987988 7.84389055 16.32307434 9.41181946 C18.76685387 10.79249588 21.20098141 12.18960586 23.6333313 13.59030151 C24.82333816 14.27277555 26.01622967 14.95024745 27.21212769 15.62234497 C35.19101878 20.12188831 42.05560919 24.41682757 45.0625 33.4375 C45.17065467 35.28122041 45.22131389 37.12854143 45.23950195 38.9753418 C45.25875481 40.67807503 45.25875481 40.67807503 45.27839661 42.41520691 C45.28578354 43.64330582 45.29317047 44.87140472 45.30078125 46.13671875 C45.31288887 48.03294731 45.31288887 48.03294731 45.32524109 49.96748352 C45.33908355 52.64657251 45.35009881 55.32553841 45.35766602 58.00463867 C45.36869983 61.41975612 45.40306807 64.83421649 45.44283772 68.24910259 C45.47543661 71.52407548 45.47979466 74.79910837 45.48828125 78.07421875 C45.50578934 79.2921965 45.52329742 80.51017426 45.54133606 81.76506042 C45.52159692 89.53042375 44.76058408 95.38802166 39.40527344 101.25219727 C32.93999075 105.68774543 26.14631421 109.54252311 19.3125 113.375 C17.49893112 114.3987183 15.68626226 115.42401362 13.87380981 116.44970703 C12.68132746 117.12384128 11.48803372 117.79654237 10.29391479 118.46777344 C5.38609875 121.23160373 0.55124657 124.10962537 -4.26416016 127.03100586 C-10.46138467 130.2914817 -15.99410111 131.1074875 -22.71484375 129.2734375 C-27.85984798 127.61859482 -32.27734738 125.24343491 -36.875 122.4375 C-38.52447801 121.45528977 -40.17422596 120.47353273 -41.82421875 119.4921875 C-42.66259277 118.98913086 -43.5009668 118.48607422 -44.36474609 117.96777344 C-46.94362527 116.43385669 -49.53937633 114.93411228 -52.14453125 113.4453125 C-52.98959229 112.96191406 -53.83465332 112.47851562 -54.70532227 111.98046875 C-56.3129196 111.06211276 -57.92142444 110.14534282 -59.53100586 109.23046875 C-75.06404173 100.29723365 -75.06404173 100.29723365 -77.52700806 92.59365845 C-78.01483779 90.03127391 -78.09526525 87.61054075 -78.13037109 85.00146484 C-78.14643402 83.91288177 -78.16249695 82.82429871 -78.17904663 81.70272827 C-78.22373993 76.72158578 -78.26457355 71.74057379 -78.28759766 66.75927734 C-78.30413201 64.13874414 -78.33138819 61.51825556 -78.36962891 58.89794922 C-78.42463712 55.1062089 -78.44631123 51.31552414 -78.4609375 47.5234375 C-78.48360687 46.36266693 -78.50627625 45.20189636 -78.52963257 44.00595093 C-78.5074276 35.37732037 -76.8902881 28.39617335 -70.6418457 22.13842773 C-69.4830188 21.41828491 -69.4830188 21.41828491 -68.30078125 20.68359375 C-67.43018066 20.13300293 -66.55958008 19.58241211 -65.66259766 19.01513672 C-61.19029403 16.42599266 -56.69643579 13.91040806 -52.125 11.5 C-45.82677204 8.13471601 -39.64261813 4.7211663 -33.625 0.875 C-21.71207085 -6.55124155 -12.24077381 -7.27094225 0 0 Z " fill="#F7D63C" transform="translate(146.9375,33.5625)"/>
<path d="M0 0 C0.00364563 0.74422714 0.00729126 1.48845428 0.01104736 2.25523376 C0.04906448 9.30173383 0.1060711 16.3477726 0.18390274 23.39392757 C0.22325196 27.01564669 0.2555012 30.63712725 0.27099609 34.2590332 C0.28624655 37.76067303 0.32083721 41.26165647 0.36830902 44.7630024 C0.39015817 46.73520513 0.3924665 48.70759352 0.39434814 50.67991638 C0.53643468 59.47509484 1.70063009 66.0060259 7.375 72.875 C12.79118831 77.25953339 17.18408156 78.69007998 24.11328125 78.47265625 C29.92721203 77.52071359 34.63373771 74.69643843 38.51171875 70.27734375 C42.03136028 64.46067301 41.91785614 57.55611528 41 51 C38.93602699 44.80808096 34.92468482 41.84116553 29.28125 38.91015625 C26.61206986 37.76535837 26.61206986 37.76535837 22 37 C22 32.71 22 28.42 22 24 C27.93541074 24.46491468 32.0175773 26.26664723 37.125 29.25 C37.81464844 29.63285156 38.50429687 30.01570313 39.21484375 30.41015625 C46.21482164 34.41205565 51.46028543 39.17537778 54 47 C54.56452263 50.85087594 54.60534965 54.61328468 54.5625 58.5 C54.59827148 59.99080078 54.59827148 59.99080078 54.63476562 61.51171875 C54.61949781 69.21687695 52.69914928 74.05288577 47.44482422 79.65942383 C40.80853221 86.10396086 30.99044142 91.66091841 21.6875 92.1875 C15.02117583 91.84853436 9.99378503 89.6942119 4.375 86.1875 C2.74691406 85.18783203 2.74691406 85.18783203 1.0859375 84.16796875 C-4.83541095 80.00803408 -9.5510274 75.25356507 -11 68 C-11.16251978 65.98613592 -11.27814399 63.96829258 -11.36401367 61.94970703 C-11.41623581 60.72808868 -11.46845795 59.50647034 -11.52226257 58.24783325 C-11.69895061 53.40940466 -11.85819604 48.57078466 -11.99140453 43.73095894 C-12.09288172 40.0595645 -12.21393638 36.39116542 -12.38208008 32.72216797 C-12.54469977 29.16478547 -12.65743156 25.60900179 -12.73552895 22.04879379 C-12.79202582 20.04131702 -12.8986738 18.03545352 -13.00614929 16.03005981 C-13.05780081 12.41581737 -13.01669129 9.47063466 -12 6 C-8.76438266 2.78193186 -4.71079841 0 0 0 Z " fill="#090602" transform="translate(109,38)"/>
<path d="M0 0 C-0.33 0.99 -0.66 1.98 -1 3 C-3.31 3.33 -5.62 3.66 -8 4 C-7.67 21.49 -7.34 38.98 -7 57 C-5.84188612 54.05270463 -5.84188612 54.05270463 -6 51 C-5.67 51.66 -5.34 52.32 -5 53 C-4.34 53 -3.68 53 -3 53 C-3 51.68 -3 50.36 -3 49 C-3.66 49 -4.32 49 -5 49 C-5 44.38 -5 39.76 -5 35 C-3.68 34.34 -2.36 33.68 -1 33 C-0.67 34.65 -0.34 36.3 0 38 C0.99 37.505 0.99 37.505 2 37 C2.40729228 34.67843403 2.74438677 32.3431213 3 30 C3.99 30 4.98 30 6 30 C6.02685938 32.14576637 6.04633088 34.29162645 6.0625 36.4375 C6.07410156 37.63246094 6.08570312 38.82742187 6.09765625 40.05859375 C6 43 6 43 5 44 C6.98 44.33 8.96 44.66 11 45 C11 39.72 11 34.44 11 29 C11.33 29 11.66 29 12 29 C12 33.29 12 37.58 12 42 C13.155 42.04125 14.31 42.0825 15.5 42.125 C22.19470349 42.979643 26.36086218 46.99205617 30.5 52.0625 C33.4043299 57.89709131 32.92515107 65.22587377 31.41015625 71.40625 C28.72951 77.82991843 23.01065415 80.99467292 17 84 C9.94997312 84.72399266 3.72559543 84.48525857 -2 80 C-7.69740178 74.03612731 -10.20198003 67.99208855 -10.35400391 59.70678711 C-10.39250961 57.86974464 -10.39250961 57.86974464 -10.43179321 55.99559021 C-10.44656708 54.68606888 -10.46134094 53.37654755 -10.4765625 52.02734375 C-10.48471355 51.35506807 -10.49286461 50.6827924 -10.50126266 49.99014473 C-10.54280097 46.43769729 -10.57149224 42.88540053 -10.59033203 39.33276367 C-10.61253661 35.67114651 -10.68145965 32.01193555 -10.76067543 28.35117245 C-10.81299405 25.52608282 -10.82971245 22.70157094 -10.83689499 19.87603951 C-10.8513297 17.87216163 -10.90418945 15.86867929 -10.95767212 13.86546326 C-10.91537767 5.03564085 -10.91537767 5.03564085 -8.23162842 1.9992981 C-2.96268566 -1.48134283 -2.96268566 -1.48134283 0 0 Z " fill="#F1CF38" transform="translate(119,33)"/>
<path d="M0 0 C-0.33 0.99 -0.66 1.98 -1 3 C-3.31 3.33 -5.62 3.66 -8 4 C-7.93868562 12.24117842 -7.86150591 20.48199285 -7.76428509 28.72281837 C-7.71963123 32.54972843 -7.68036445 36.37653325 -7.65356445 40.20361328 C-7.62748125 43.89965759 -7.58704424 47.59529587 -7.53681374 51.2910881 C-7.52017875 52.69836741 -7.50864352 54.10571689 -7.50238609 55.5130806 C-7.49270919 57.49011701 -7.46292214 59.46702359 -7.43237305 61.44384766 C-7.42126999 62.56747711 -7.41016693 63.69110657 -7.39872742 64.8487854 C-6.62552827 70.95951756 -3.65437773 75.10331167 1 79 C7.78807476 82.16776822 14.8510823 81.19148628 22 80 C22 79.34 22 78.68 22 78 C22.66 78 23.32 78 24 78 C24.495 76.02 24.495 76.02 25 74 C25.99 74 26.98 74 28 74 C28 72.68 28 71.36 28 70 C28.99 70 29.98 70 31 70 C29.05612587 76.18505404 24.76687843 80.2351357 19.08203125 83.26953125 C13.42757604 85.2533645 7.16352098 84.84986341 1.6875 82.5 C-4.6998286 78.80138262 -7.99352248 72.91017492 -10 66 C-10.29434204 62.95835876 -10.29434204 62.95835876 -10.35400391 59.70678711 C-10.39250961 57.86974464 -10.39250961 57.86974464 -10.43179321 55.99559021 C-10.44656708 54.68606888 -10.46134094 53.37654755 -10.4765625 52.02734375 C-10.48471355 51.35506807 -10.49286461 50.6827924 -10.50126266 49.99014473 C-10.54280097 46.43769729 -10.57149224 42.88540053 -10.59033203 39.33276367 C-10.61253661 35.67114651 -10.68145965 32.01193555 -10.76067543 28.35117245 C-10.81299405 25.52608282 -10.82971245 22.70157094 -10.83689499 19.87603951 C-10.8513297 17.87216163 -10.90418945 15.86867929 -10.95767212 13.86546326 C-10.91537767 5.03564085 -10.91537767 5.03564085 -8.23162842 1.9992981 C-2.96268566 -1.48134283 -2.96268566 -1.48134283 0 0 Z " fill="#C7B24D" transform="translate(119,33)"/>
<path d="M0 0 C0.99 0 1.98 0 3 0 C1.05612587 6.18505404 -3.23312157 10.2351357 -8.91796875 13.26953125 C-14.64050235 15.27724942 -20.8791579 14.84760949 -26.375 12.375 C-30.14978925 10.21575841 -32.45879013 7.49416357 -35 4 C-34.01 4 -33.02 4 -32 4 C-30.8553125 5.175625 -30.8553125 5.175625 -29.6875 6.375 C-25.69291745 10.27668528 -22.57270394 10.92510934 -17.0625 11.1875 C-13.31427421 11.0936138 -9.69584502 10.61597417 -6 10 C-6 9.34 -6 8.68 -6 8 C-5.34 8 -4.68 8 -4 8 C-3.67 6.68 -3.34 5.36 -3 4 C-2.01 4 -1.02 4 0 4 C0 2.68 0 1.36 0 0 Z " fill="#DBC450" transform="translate(147,103)"/>
<path d="M0 0 C3.23269347 3.23269347 3.13401198 6.17267712 3.17700195 10.5378418 C3.18983719 11.67299728 3.20267242 12.80815277 3.21589661 13.97770691 C3.22328354 15.20580582 3.23067047 16.43390472 3.23828125 17.69921875 C3.246353 18.96337112 3.25442474 20.2275235 3.26274109 21.52998352 C3.27658355 24.20907251 3.28759881 26.88803841 3.29516602 29.56713867 C3.30619983 32.98225612 3.34056807 36.39671649 3.38033772 39.81160259 C3.41293661 43.08657548 3.41729466 46.36160837 3.42578125 49.63671875 C3.44328934 50.8546965 3.46079742 52.07267426 3.47883606 53.32756042 C3.45936875 60.98598467 2.89659479 66.92594842 -2.63505554 72.70951843 C-3.31070305 73.34830681 -3.31070305 73.34830681 -4 74 C-4.66 73.67 -5.32 73.34 -6 73 C-4.625 70.5 -4.625 70.5 -3 68 C-2.34 68 -1.68 68 -1 68 C-0.855625 67.195625 -0.71125 66.39125 -0.5625 65.5625 C0 63 0 63 1 62 C1.1231517 60.25161165 1.17787811 58.49835496 1.20532227 56.74584961 C1.22526749 55.62476303 1.24521271 54.50367645 1.26576233 53.34861755 C1.29083107 51.51896202 1.29083107 51.51896202 1.31640625 49.65234375 C1.33718735 48.41078018 1.35796844 47.16921661 1.37937927 45.89002991 C1.43383609 42.58400877 1.48404205 39.27797755 1.53222656 35.97186279 C1.58239856 32.60032509 1.63810701 29.22887947 1.69335938 25.85742188 C1.80070038 19.23835449 1.90244198 12.6192184 2 6 C1.34 6 0.68 6 0 6 C0 4.02 0 2.04 0 0 Z " fill="#EFD45E" transform="translate(189,62)"/>
<path d="M0 0 C0.99 0 1.98 0 3 0 C3 1.65 3 3.3 3 5 C3.66 5 4.32 5 5 5 C6.35787193 9.7631441 6.26193576 14.45341383 6.3125 19.375 C6.34150391 20.30828125 6.37050781 21.2415625 6.40039062 22.203125 C6.45456319 28.08709927 6.07896521 31.61386228 2 36 C-0.1394043 36.64990234 -0.1394043 36.64990234 -2 37 C-1.34773437 35.91976562 -0.69546875 34.83953125 -0.0234375 33.7265625 C2.66463641 28.33855204 2.51947349 23.29080926 2.375 17.375 C2.37306641 15.8590625 2.37306641 15.8590625 2.37109375 14.3125 C2.31036502 9.17080047 2.0492583 4.80346145 0 0 Z " fill="#EFD34F" transform="translate(160,79)"/>
<path d="M0 0 C0.33 0 0.66 0 1 0 C1 4.29 1 8.58 1 13 C2.7325 13.061875 2.7325 13.061875 4.5 13.125 C11.19470349 13.979643 15.36086218 17.99205617 19.5 23.0625 C22.1581355 28.21555216 21.30412315 34.38216965 21 40 C20.67 40 20.34 40 20 40 C19.83564453 38.80503906 19.83564453 38.80503906 19.66796875 37.5859375 C18.81087298 31.85802918 17.98272693 27.0576674 15 22 C14.67 21.01 14.34 20.02 14 19 C11.27501769 18.00231094 11.27501769 18.00231094 8.0625 17.375 C2.11134904 16.05567452 2.11134904 16.05567452 0 15 C0 10.05 0 5.1 0 0 Z " fill="#DDC957" transform="translate(130,62)"/>
<path d="M0 0 C0.99 0 1.98 0 3 0 C3 4.29 3 8.58 3 13 C1.35 13.66 -0.3 14.32 -2 15 C-3 14 -3 14 -3.0625 10.9375 C-3.041875 9.968125 -3.02125 8.99875 -3 8 C-2.34 7.67 -1.68 7.34 -1 7 C-0.59270772 4.67843403 -0.25561323 2.3431213 0 0 Z " fill="#756220" transform="translate(122,63)"/>
<path d="M0 0 C0.33 0 0.66 0 1 0 C1 4.95 1 9.9 1 15 C1.66 15.33 2.32 15.66 3 16 C-0.69418201 17.231394 -3.2056261 16.64432764 -7 16 C-5.68 15.34 -4.36 14.68 -3 14 C-3 9.71 -3 5.42 -3 1 C-2.67 1 -2.34 1 -2 1 C-2 5.62 -2 10.24 -2 15 C-1.34 15 -0.68 15 0 15 C0 10.05 0 5.1 0 0 Z " fill="#F6D953" transform="translate(129,62)"/>
<path d="M0 0 C0.33 0 0.66 0 1 0 C1 4.29 1 8.58 1 13 C3.01822917 13.16276042 5.03645833 13.32552083 7.0546875 13.48828125 C9 14 9 14 11 17 C9.54119891 16.85892253 8.08296449 16.71197585 6.625 16.5625 C5.40683594 16.44068359 5.40683594 16.44068359 4.1640625 16.31640625 C2 16 2 16 0 15 C0 10.05 0 5.1 0 0 Z " fill="#C6AF46" transform="translate(130,62)"/>
<path d="M0 0 C0 0.99 0 1.98 0 3 C-0.66 3 -1.32 3 -2 3 C-2 3.66 -2 4.32 -2 5 C-7.94 5 -13.88 5 -20 5 C-20 4.34 -20 3.68 -20 3 C-19.2265625 3.03480469 -18.453125 3.06960937 -17.65625 3.10546875 C-10.96287095 3.27943033 -6.08969979 2.81063067 0 0 Z " fill="#D6BF4F" transform="translate(142,126)"/>
<path d="M0 0 C1.32 0 2.64 0 4 0 C4 0.66 4 1.32 4 2 C5.65 1.67 7.3 1.34 9 1 C11.125 5.625 11.125 5.625 10 9 C9.278125 8.2575 8.55625 7.515 7.8125 6.75 C5.31407427 4.30709485 2.76356798 2.1318953 0 0 Z " fill="#E3CA4D" transform="translate(149,69)"/>
<path d="M0 0 C3.3 1.65 6.6 3.3 10 5 C8.68 5.99 7.36 6.98 6 8 C4.5 6.625 4.5 6.625 3 5 C3 4.34 3 3.68 3 3 C1.68 2.34 0.36 1.68 -1 1 C-0.67 0.67 -0.34 0.34 0 0 Z " fill="#E3CA4E" transform="translate(107,120)"/>
<path d="M0 0 C0 0.66 0 1.32 0 2 C-0.99 2.66 -1.98 3.32 -3 4 C-3.58592634 7.11610554 -3.58592634 7.11610554 -3.6875 10.625 C-3.75324219 11.81351563 -3.81898437 13.00203125 -3.88671875 14.2265625 C-3.92410156 15.14179687 -3.96148437 16.05703125 -4 17 C-4.33 17 -4.66 17 -5 17 C-5.08076963 14.54101345 -5.14037143 12.08466258 -5.1875 9.625 C-5.21263672 8.92632812 -5.23777344 8.22765625 -5.26367188 7.5078125 C-5.29296875 5.4765625 -5.29296875 5.4765625 -5 2 C-2 0 -2 0 0 0 Z " fill="#F5DA54" transform="translate(118,64)"/>
<path d="M0 0 C2.0625 0.4375 2.0625 0.4375 4 1 C2.54462432 1.83848804 1.08559627 2.67063934 -0.375 3.5 C-1.59316406 4.19609375 -1.59316406 4.19609375 -2.8359375 4.90625 C-5 6 -5 6 -7 6 C-7.33 5.01 -7.66 4.02 -8 3 C-6.865625 2.690625 -5.73125 2.38125 -4.5625 2.0625 C-1.21224901 1.37075469 -1.21224901 1.37075469 0 0 Z " fill="#EDD455" transform="translate(150,153)"/>
<path d="M0 0 C2.31 0 4.62 0 7 0 C4.14693203 2.32472205 1.45925163 3.7508258 -2 5 C-1.34 3.35 -0.68 1.7 0 0 Z " fill="#F2D45C" transform="translate(156,148)"/>
<path d="M0 0 C0.66 0 1.32 0 2 0 C2 0.66 2 1.32 2 2 C2.99 1.67 3.98 1.34 5 1 C5.33 2.98 5.66 4.96 6 7 C3 6 3 6 1.3125 2.9375 C0.879375 1.968125 0.44625 0.99875 0 0 Z " fill="#EED85B" transform="translate(71,128)"/>
<path d="M0 0 C0.66 0.33 1.32 0.66 2 1 C1.67 1.99 1.34 2.98 1 4 C-2.0625 5.1875 -2.0625 5.1875 -5 6 C-3.63016497 2.83884224 -3.0109362 2.0072908 0 0 Z " fill="#EFD55D" transform="translate(79,54)"/>
</svg>
