<?xml version="1.0" encoding="UTF-8"?>
<svg version="1.1" xmlns="http://www.w3.org/2000/svg" width="666" height="375">
<path d="M0 0 C6.94451429 0.98685203 11.69204954 5.19468404 16.06640625 10.51171875 C19.89125887 15.8537363 23 20.26885932 23 27 C23.69738281 26.84144531 24.39476562 26.68289062 25.11328125 26.51953125 C34.23497281 24.87787363 42.85657966 25.37341186 51 30 C53.625 32.25 53.625 32.25 55 34 C53.13102126 41.89124357 48.19128153 48.83863946 41.5625 53.4375 C36.79433528 56.29196623 31.98633551 58.93431813 26.3359375 59.05859375 C23.04769529 59.2080593 20.95447175 59.50548651 18 61 C14.97127366 65.37365027 12.94911882 70.00152624 10.89990234 74.89453125 C6.68141771 84.76436616 1.1036843 93.01387044 -6 101 C-6.46599609 101.53689453 -6.93199219 102.07378906 -7.41210938 102.62695312 C-24.97560789 122.83541707 -50.28654458 135.92648126 -77 139 C-78.44926662 139.1845202 -79.89848144 139.3694476 -81.34765625 139.5546875 C-107.97922405 142.85057715 -137.23984507 141.41283199 -159.25 124.4375 C-165.38422639 119.10513327 -169.20394784 113.12203244 -173 106 C-173.70382813 104.80310547 -173.70382813 104.80310547 -174.421875 103.58203125 C-181.47537947 90.93361737 -184.14575716 75.61903606 -184.3125 61.3125 C-184.34150391 60.47138672 -184.37050781 59.63027344 -184.40039062 58.76367188 C-184.46331826 52.65969156 -184.46331826 52.65969156 -182.23046875 49.48046875 C-178.18005654 46.79201651 -174.45074757 46.87834389 -169.66390991 46.89320374 C-168.36025482 46.89471939 -167.05659973 46.89623505 -165.71343994 46.89779663 C-164.27038538 46.90452541 -162.82733119 46.91133349 -161.38427734 46.91821289 C-159.86298725 46.92176972 -158.341696 46.92485552 -156.82040405 46.92750549 C-153.54431151 46.9340557 -150.26824626 46.94361511 -146.99216843 46.95540047 C-141.80554551 46.97370695 -136.61892919 46.98329672 -131.43228149 46.99131775 C-116.68317762 47.01545619 -101.93411402 47.05125002 -87.18505859 47.09594727 C-79.0391592 47.12055642 -70.89327579 47.13788254 -62.74734461 47.14750665 C-57.59852413 47.1540252 -52.44983558 47.16953405 -47.30106044 47.19182408 C-44.08621258 47.20361635 -40.87139609 47.20692512 -37.65652847 47.20792198 C-36.17393832 47.21005617 -34.69134821 47.21560153 -33.20878601 47.2249527 C-25.99505497 47.26866232 -19.08174951 47.17241138 -12.03699684 45.43007565 C-10 45 -10 45 -6 45 C-6.433125 43.78376953 -6.433125 43.78376953 -6.875 42.54296875 C-10.55659989 31.56208576 -11.77697862 21.83879976 -7 11 C-4.83186322 7.21298776 -2.48724841 3.58436346 0 0 Z " fill="#0191E4" transform="translate(188,134)"/>
<path d="M0 0 C1.01449219 0.00128906 2.02898437 0.00257812 3.07421875 0.00390625 C10.59402375 0.09402375 10.59402375 0.09402375 12.875 2.375 C13.11791992 4.66577148 13.11791992 4.66577148 13.10546875 7.49609375 C13.10353516 8.51380859 13.10160156 9.53152344 13.09960938 10.58007812 C13.08736328 11.64677734 13.07511719 12.71347656 13.0625 13.8125 C13.0615332 15.40674805 13.0615332 15.40674805 13.06054688 17.03320312 C13.0154591 24.95362271 13.0154591 24.95362271 11.875 28.375 C12.205 28.705 12.535 29.035 12.875 29.375 C12.97858779 30.89886231 13.01351138 32.42746986 13.02026367 33.95483398 C13.02664352 34.92931992 13.03302338 35.90380585 13.03959656 36.90782166 C13.04070938 37.96820145 13.0418222 39.02858124 13.04296875 40.12109375 C13.04796135 41.74326561 13.04796135 41.74326561 13.05305481 43.39820862 C13.05812877 45.69067966 13.06046299 47.98315812 13.06030273 50.27563477 C13.06248845 53.79390567 13.08063728 57.31186281 13.09960938 60.83007812 C13.10254328 63.05208225 13.10452809 65.27408788 13.10546875 67.49609375 C13.11265427 68.55444931 13.11983978 69.61280487 13.12724304 70.70323181 C13.12416641 71.6808699 13.12108978 72.658508 13.11791992 73.66577148 C13.11934494 74.52879379 13.12076996 75.3918161 13.12223816 76.2809906 C12.875 78.375 12.875 78.375 10.875 80.375 C8.58422852 80.63378906 8.58422852 80.63378906 5.75390625 80.640625 C4.73619141 80.64320313 3.71847656 80.64578125 2.66992188 80.6484375 C1.60322266 80.64070313 0.53652344 80.63296875 -0.5625 80.625 C-2.15674805 80.63660156 -2.15674805 80.63660156 -3.78320312 80.6484375 C-4.80220703 80.64585937 -5.82121094 80.64328125 -6.87109375 80.640625 C-8.27379517 80.63724121 -8.27379517 80.63724121 -9.70483398 80.63378906 C-12.125 80.375 -12.125 80.375 -15.125 78.375 C-15.785 79.035 -16.445 79.695 -17.125 80.375 C-19.59936523 80.63378906 -19.59936523 80.63378906 -22.68359375 80.640625 C-23.79154297 80.64320313 -24.89949219 80.64578125 -26.04101562 80.6484375 C-27.20310547 80.64070313 -28.36519531 80.63296875 -29.5625 80.625 C-30.72072266 80.63273437 -31.87894531 80.64046875 -33.07226562 80.6484375 C-34.18150391 80.64585937 -35.29074219 80.64328125 -36.43359375 80.640625 C-37.96197876 80.63724121 -37.96197876 80.63724121 -39.52124023 80.63378906 C-42.125 80.375 -42.125 80.375 -45.125 78.375 C-45.785 79.035 -46.445 79.695 -47.125 80.375 C-49.41577148 80.63378906 -49.41577148 80.63378906 -52.24609375 80.640625 C-53.26380859 80.64320313 -54.28152344 80.64578125 -55.33007812 80.6484375 C-56.39677734 80.64070313 -57.46347656 80.63296875 -58.5625 80.625 C-60.15674805 80.63660156 -60.15674805 80.63660156 -61.78320312 80.6484375 C-62.80220703 80.64585937 -63.82121094 80.64328125 -64.87109375 80.640625 C-66.27379517 80.63724121 -66.27379517 80.63724121 -67.70483398 80.63378906 C-70.125 80.375 -70.125 80.375 -73.125 78.375 C-74.115 79.365 -74.115 79.365 -75.125 80.375 C-77.5234375 80.63378906 -77.5234375 80.63378906 -80.5 80.640625 C-81.56734375 80.64320313 -82.6346875 80.64578125 -83.734375 80.6484375 C-85.41273437 80.63683594 -85.41273437 80.63683594 -87.125 80.625 C-88.24390625 80.63273437 -89.3628125 80.64046875 -90.515625 80.6484375 C-91.58296875 80.64585937 -92.6503125 80.64328125 -93.75 80.640625 C-94.73226562 80.63836914 -95.71453125 80.63611328 -96.7265625 80.63378906 C-99.125 80.375 -99.125 80.375 -101.125 78.375 C-101.38378906 76.16015625 -101.38378906 76.16015625 -101.390625 73.4375 C-101.39320312 72.46039063 -101.39578125 71.48328125 -101.3984375 70.4765625 C-101.39070313 69.45304687 -101.38296875 68.42953125 -101.375 67.375 C-101.38273437 66.35148437 -101.39046875 65.32796875 -101.3984375 64.2734375 C-101.39585938 63.29632813 -101.39328125 62.31921875 -101.390625 61.3125 C-101.38836914 60.41402344 -101.38611328 59.51554687 -101.38378906 58.58984375 C-101.125 56.375 -101.125 56.375 -99.125 54.375 C-96.83422852 54.11621094 -96.83422852 54.11621094 -94.00390625 54.109375 C-92.98619141 54.10679687 -91.96847656 54.10421875 -90.91992188 54.1015625 C-89.85322266 54.10929687 -88.78652344 54.11703125 -87.6875 54.125 C-86.09325195 54.11339844 -86.09325195 54.11339844 -84.46679688 54.1015625 C-82.93829102 54.10542969 -82.93829102 54.10542969 -81.37890625 54.109375 C-79.97620483 54.11275879 -79.97620483 54.11275879 -78.54516602 54.11621094 C-76.125 54.375 -76.125 54.375 -73.125 56.375 C-71.64 55.88 -71.64 55.88 -70.125 55.375 C-70.785 54.385 -71.445 53.395 -72.125 52.375 C-72.38378906 49.95483398 -72.38378906 49.95483398 -72.390625 47.12109375 C-72.39320312 46.10208984 -72.39578125 45.08308594 -72.3984375 44.03320312 C-72.39070313 42.97037109 -72.38296875 41.90753906 -72.375 40.8125 C-72.38273437 39.74580078 -72.39046875 38.67910156 -72.3984375 37.58007812 C-72.39585938 36.56236328 -72.39328125 35.54464844 -72.390625 34.49609375 C-72.38836914 33.5620874 -72.38611328 32.62808105 -72.38378906 31.66577148 C-72.125 29.375 -72.125 29.375 -70.125 27.375 C-66.33153509 26.92017233 -62.50508871 27.0509665 -58.6875 27.0625 C-57.62466797 27.04638672 -56.56183594 27.03027344 -55.46679688 27.01367188 C-53.93829102 27.01270508 -53.93829102 27.01270508 -52.37890625 27.01171875 C-51.44377197 27.00873779 -50.5086377 27.00575684 -49.54516602 27.00268555 C-46.73376598 27.43518681 -45.86364591 28.18276278 -44.125 30.375 C-43.57013916 29.88749268 -43.01527832 29.39998535 -42.44360352 28.89770508 C-39.70880245 27.10166904 -38.26773099 27.00076249 -35.02734375 27.01171875 C-34.06119141 27.01236328 -33.09503906 27.01300781 -32.09960938 27.01367188 C-30.59624023 27.0378418 -30.59624023 27.0378418 -29.0625 27.0625 C-27.55333008 27.05766602 -27.55333008 27.05766602 -26.01367188 27.05273438 C-18.52586753 27.10775498 -18.52586753 27.10775498 -15.125 29.375 C-14.135 27.89 -14.135 27.89 -13.125 26.375 C-14.115 25.385 -14.115 25.385 -15.125 24.375 C-15.60015885 21.1047891 -15.49537049 17.80084408 -15.5 14.5 C-15.52449219 13.58863281 -15.54898438 12.67726563 -15.57421875 11.73828125 C-15.59085764 7.950161 -15.5298477 5.17040667 -13.796875 1.765625 C-9.37465033 -0.53600071 -4.89912878 -0.11918495 0 0 Z M-45.125 36.375 C-45.125 39.345 -45.125 42.315 -45.125 45.375 C-44.795 45.375 -44.465 45.375 -44.125 45.375 C-44.125 42.405 -44.125 39.435 -44.125 36.375 C-44.455 36.375 -44.785 36.375 -45.125 36.375 Z M-45.125 49.375 C-45.785 51.355 -46.445 53.335 -47.125 55.375 C-45.64 56.365 -45.64 56.365 -44.125 57.375 C-43.135 56.055 -42.145 54.735 -41.125 53.375 C-42.445 52.055 -43.765 50.735 -45.125 49.375 Z M-16.125 50.375 C-16.785 52.025 -17.445 53.675 -18.125 55.375 C-16.145 56.365 -16.145 56.365 -14.125 57.375 C-13.465 56.055 -12.805 54.735 -12.125 53.375 C-13.445 52.385 -14.765 51.395 -16.125 50.375 Z M-73.125 62.375 C-73.125 66.665 -73.125 70.955 -73.125 75.375 C-72.795 75.375 -72.465 75.375 -72.125 75.375 C-72.125 71.085 -72.125 66.795 -72.125 62.375 C-72.455 62.375 -72.785 62.375 -73.125 62.375 Z " fill="#0A8DD2" transform="translate(125.125,99.625)"/>
<path d="M0 0 C2.71123555 2.2327642 3.87093195 4.06324317 4.35269165 7.55978394 C4.48126597 10.8685569 4.47502885 14.15389523 4.42578125 17.46484375 C4.42084908 19.30218834 4.42084908 19.30218834 4.41581726 21.176651 C4.40007046 25.0972917 4.35606824 29.01708045 4.3125 32.9375 C4.30100509 35.54231065 4.29122099 38.14712945 4.28320312 40.75195312 C4.2697603 43.2812586 4.25483224 45.8105567 4.23828125 48.33984375 C4.23089432 49.4987059 4.22350739 50.65756805 4.21589661 51.85154724 C4.02170144 68.8572998 3.3324093 81.83433189 -8.6953125 94.83203125 C-10.38773038 96.38669418 -12.10110139 97.70713286 -14 99 C-14.58523438 99.4125 -15.17046875 99.825 -15.7734375 100.25 C-23.41108626 104.59712024 -33.53143315 104.31257522 -42 103 C-50.12060695 100.75190141 -57.511989 96.23485385 -62 89 C-62.45761719 88.27554688 -62.91523438 87.55109375 -63.38671875 86.8046875 C-68.95351088 77.39377816 -70.36565647 68.06770165 -68.53515625 57.25390625 C-65.99984757 47.63773545 -60.23500073 39.58182268 -52 34 C-43.12534741 29.60277003 -33.47255822 27.11657289 -23.61328125 29.6015625 C-21.7094413 30.31958214 -19.8512434 31.15557319 -18 32 C-16.33598072 32.6732474 -14.6698084 33.34124197 -13 34 C-13.01571045 33.17798096 -13.0314209 32.35596191 -13.04760742 31.5090332 C-13.11005073 27.77692572 -13.14902136 24.04492828 -13.1875 20.3125 C-13.21263672 19.01892578 -13.23777344 17.72535156 -13.26367188 16.39257812 C-13.27333984 15.14541016 -13.28300781 13.89824219 -13.29296875 12.61328125 C-13.3086792 11.46641846 -13.32438965 10.31955566 -13.34057617 9.13793945 C-12.96174455 5.64752878 -12.06219697 3.80904498 -10 1 C-6.62771107 -1.55828815 -3.95120002 -1.23475 0 0 Z M-45 50 C-45.886875 50.70125 -46.77375 51.4025 -47.6875 52.125 C-51.29934818 56.61540585 -53.13102275 61.54783524 -52.91015625 67.3671875 C-51.92419289 72.79468104 -49.58470248 77.78337882 -46 82 C-45.34 82 -44.68 82 -44 82 C-44 82.66 -44 83.32 -44 84 C-36.92783917 86.79877003 -31.22910351 87.85519214 -24 85 C-18.51437507 81.77994865 -14.82538926 77.0918316 -13 71 C-12.08516258 65.07713503 -12.68414686 60.05724321 -15.65625 54.82421875 C-18.65968453 50.74688176 -22.18493707 47.60502098 -27 46 C-34.01808758 45.38224626 -39.52166877 45.05614011 -45 50 Z " fill="#0490E0" transform="translate(318,151)"/>
<path d="M0 0 C0.56332031 0.43183594 1.12664063 0.86367187 1.70703125 1.30859375 C10.19206796 8.12989777 14.35112368 15.1521295 16 26 C16.35426656 31.30743791 16.35426656 31.30743791 15.046875 33.86328125 C12.44656644 36.76904774 10.83680002 38.38470228 7 39 C5.47351214 39.08384385 3.94382176 39.11781972 2.41503906 39.11352539 C1.51440735 39.11344986 0.61377563 39.11337433 -0.31414795 39.11329651 C-1.27782288 39.10813522 -2.2414978 39.10297394 -3.234375 39.09765625 C-4.22753723 39.0962413 -5.22069946 39.09482635 -6.24395752 39.09336853 C-9.41266912 39.08777588 -12.58130979 39.0752247 -15.75 39.0625 C-17.89973856 39.05748405 -20.04947823 39.05292131 -22.19921875 39.04882812 C-27.46616999 39.03780886 -32.73307993 39.021078 -38 39 C-36.2068421 43.79800119 -34.68011694 45.47081778 -30.2734375 47.984375 C-23.94394517 50.81198326 -18.38947219 50.36211177 -11.99609375 47.96875 C-9.76721661 46.9812751 -9.76721661 46.9812751 -7.3125 44.8125 C-5 43 -5 43 -2 42.4375 C2.10389613 43.20698052 3.53959272 44.67121368 6 48 C6.75910122 51.17442329 6.62007859 52.91184652 4.99609375 55.76171875 C0.12566162 62.15849714 -7.12821838 65.79078053 -15 67 C-27.0774219 68.35736032 -35.94918592 65.48520025 -45.48046875 58.0703125 C-52.5570976 51.45837785 -56.66749575 44.0106537 -57.203125 34.328125 C-57.43138458 22.49329934 -56.1200795 14.00189809 -48 5 C-39.60399795 -3.67941141 -31.71486493 -6.5944145 -19.6640625 -7.1015625 C-12.03236583 -6.89002293 -6.03523901 -4.69407478 0 0 Z M-39 19 C-39 19.99 -39 20.98 -39 22 C-27.12 22 -15.24 22 -3 22 C-5.02757748 16.85728955 -5.02757748 16.85728955 -8.9375 13.75 C-9.62714844 13.24984375 -10.31679688 12.7496875 -11.02734375 12.234375 C-20.83241195 6.09892638 -32.30034359 10.62542949 -39 19 Z " fill="#0490E0" transform="translate(587,187)"/>
<path d="M0 0 C3.62603305 1.18670173 5.14364396 2.1253421 7.4375 5.125 C8.35806715 7.88670144 8.58550149 9.64678855 8.64282227 12.50463867 C8.66276749 13.38532516 8.68271271 14.26601166 8.70326233 15.17338562 C8.71997482 16.12034805 8.73668732 17.06731049 8.75390625 18.04296875 C8.77468735 19.01534988 8.79546844 19.98773102 8.81687927 20.98957825 C8.88228748 24.09714665 8.94121929 27.20479985 9 30.3125 C9.04319351 32.41862858 9.08680807 34.52474856 9.13085938 36.63085938 C9.23795999 41.79548591 9.33925219 46.96019778 9.4375 52.125 C18.48198677 46.5390244 27.43497512 40.93646447 36.00390625 34.63476562 C39.77630738 31.95396932 42.66323416 30.31762168 47.4375 30.125 C50.31622577 31.4989373 52.18739437 32.87489437 54.4375 35.125 C54.875 38.4375 54.875 38.4375 54.4375 42.125 C50.61379203 46.69845463 45.88411682 49.58743714 40.875 52.6875 C34.17610892 56.79547621 34.17610892 56.79547621 28.4375 62.125 C29.19933594 62.93582031 29.96117187 63.74664062 30.74609375 64.58203125 C36.56486045 70.80946439 42.20884258 77.0904116 47.5234375 83.7578125 C49.119037 85.73114576 50.7761884 87.57886514 52.5 89.4375 C54.4375 92.125 54.4375 92.125 55 95.1875 C54.30312979 98.82671111 53.04073039 100.52176961 50.4375 103.125 C47.25856775 104.18464408 45.51120907 104.10081 42.3359375 103.109375 C37.26818656 100.48165229 34.03156738 95.03620519 30.875 90.4375 C28.92864738 87.6225796 26.76669434 85.6240956 24.05078125 83.51171875 C21.432066 81.26076497 19.27729281 78.62305404 17.05078125 75.9921875 C15.57830217 74.28796232 14.05113306 72.69475784 12.4375 71.125 C10.35083707 72.24975379 10.35083707 72.24975379 8.4375 74.125 C7.87556226 76.74490125 7.87556226 76.74490125 8.00390625 79.7109375 C7.99423828 80.80664062 7.98457031 81.90234375 7.97460938 83.03125 C7.99147951 85.33596992 8.01228607 87.64066452 8.03710938 89.9453125 C7.94294193 99.38421386 7.94294193 99.38421386 5.12890625 102.41015625 C2.4375 104.125 2.4375 104.125 -1.1875 104.1875 C-4.5625 103.125 -4.5625 103.125 -6.4375 101.3125 C-8.87389351 96.57506817 -8.72781186 91.82609405 -8.75537109 86.59619141 C-8.76354858 85.73717728 -8.77172607 84.87816315 -8.78015137 83.99311829 C-8.80493703 81.15427337 -8.82150159 78.31547813 -8.8359375 75.4765625 C-8.84126118 74.50582165 -8.84658485 73.5350808 -8.85206985 72.53492355 C-8.87876845 67.39926697 -8.8981561 62.26363445 -8.91259766 57.12792969 C-8.92595058 52.87933895 -8.9538329 48.63122694 -8.99462891 44.3828125 C-9.04391991 39.24937484 -9.06871385 34.11637219 -9.07582474 28.98270798 C-9.0825391 27.0282758 -9.09776597 25.0738534 -9.12171555 23.11955643 C-9.15334092 20.38338824 -9.1534083 17.64890069 -9.14599609 14.91259766 C-9.1706041 13.70605782 -9.1706041 13.70605782 -9.19570923 12.47514343 C-9.15097771 8.43498264 -8.75438019 5.83504904 -6.24868774 2.58358765 C-3.5625 0.125 -3.5625 0.125 0 0 Z " fill="#0390E1" transform="translate(476.5625,149.875)"/>
<path d="M0 0 C8.09152436 5.78161284 13.98423179 13.63450963 16.18359375 23.4140625 C17.75180837 36.29928985 15.39012261 46.59660733 7.625 57.1640625 C1.34471432 64.36022318 -7.02434755 67.99410784 -16.36328125 68.9140625 C-26.08113581 69.43997509 -33.16376771 68.04316527 -41.4375 62.52734375 C-42.04980469 62.13289063 -42.66210938 61.7384375 -43.29296875 61.33203125 C-50.5701897 55.98168372 -54.94080085 47.25808877 -56.4375 38.52734375 C-57.53587503 26.14011424 -55.36685012 16.95108557 -47.7421875 7.078125 C-35.08027463 -6.93582264 -16.22545486 -9.80287898 0 0 Z M-33.25 15.21484375 C-37.81498775 20.04068794 -40.3204554 25.85580163 -40.4375 32.52734375 C-39.23860345 39.49356369 -35.80920171 44.95591597 -30.4375 49.52734375 C-24.3690206 52.58641356 -17.52145999 52.51653846 -11.125 50.46484375 C-6.32413601 47.00375576 -1.80948425 42.42687601 -0.4375 36.52734375 C0.45559622 28.4894778 -1.12284031 23.32347513 -5.65234375 16.76953125 C-9.23208894 12.47383702 -13.17009139 11.31234164 -18.62109375 10.578125 C-24.25250749 10.47658772 -28.49714036 12.36312797 -33.25 15.21484375 Z " fill="#038FE1" transform="translate(381.4375,185.47265625)"/>
<path d="M0 0 C1.28970703 0.03480469 1.28970703 0.03480469 2.60546875 0.0703125 C10.95094857 0.47555583 17.62280151 3.56580959 23.83203125 9.1640625 C25.37465364 11.20535739 25.67551376 12.45866906 25.8125 15 C25.125 18.875 25.125 18.875 23.5625 21.375 C20.06653695 23.52636188 18.19353391 23.4752755 14.125 22.875 C11.80661065 21.7074658 9.61031923 20.39166168 7.37890625 19.06640625 C2.37752784 16.42269669 -2.16948452 16.44905239 -7.5625 18.0625 C-13.43687665 20.34361533 -16.5995826 22.75853512 -19.25 28.5625 C-21.35502501 34.38126832 -21.28449905 38.98892352 -19.18359375 44.78125 C-16.74433804 49.76914508 -12.92778098 53.56936208 -7.875 55.875 C0.24078552 57.17437773 5.94050773 55.80414459 12.625 51.125 C15.125 49.875 15.125 49.875 18.1875 49.875 C21.93961541 51.15231588 23.1510809 52.45860155 25.125 55.875 C25.875 58.75 25.875 58.75 25.125 61.875 C19.55280251 68.6380893 11.66373363 72.47585069 3.125 73.875 C-7.29491646 74.86505437 -16.76744781 72.44180178 -24.9609375 65.765625 C-33.51775663 57.31358325 -37.91723167 48.81626352 -38.25 36.875 C-37.98919659 26.76886779 -35.26306821 20.5667556 -28.875 12.875 C-28.09125 11.823125 -27.3075 10.77125 -26.5 9.6875 C-19.00711663 1.65941067 -10.69329239 -0.57200375 0 0 Z " fill="#0391E3" transform="translate(438.875,180.125)"/>
<path d="M0 0 C2.375 1.4375 2.375 1.4375 4 3 C4 3.66 4 4.32 4 5 C4.46664062 4.6390625 4.93328125 4.278125 5.4140625 3.90625 C11.75646697 -0.12778818 17.79721129 -0.58054273 25.125 -0.6875 C26.06682129 -0.7184375 27.00864258 -0.749375 27.97900391 -0.78125 C34.12879773 -0.7380253 37.75208184 0.51145661 42.55908203 4.35766602 C44 6 44 6 44.75 9.625 C43.88507652 13.51715568 43.30642153 14.79571898 40 17 C36.10569048 17.88817586 33.80573129 18.2685771 30 17 C22.82373185 16.29280718 16.96664881 16.72341182 11 21 C6.22598575 25.93314806 5.71034938 31.58441433 5.69140625 38.1875 C5.66625514 39.78906628 5.64085699 41.39062869 5.61523438 42.9921875 C5.58647594 45.50031607 5.56243742 48.00837786 5.54370117 50.51660156 C5.52200969 52.94890763 5.48258182 55.38045704 5.44140625 57.8125 C5.44129044 58.55846436 5.44117462 59.30442871 5.4410553 60.07299805 C5.35621794 64.55205195 4.74030971 67.42425568 2 71 C-0.337006 72.7138044 -1.54038283 73.01178506 -4.4375 72.9375 C-7.96234223 71.64792357 -10.19057764 70.28656002 -12 67 C-12.76174197 62.38139179 -12.67601827 57.79662317 -12.62890625 53.125 C-12.62973558 51.7540671 -12.63219736 50.3831343 -12.63621521 49.01220703 C-12.63906872 46.14389998 -12.62441791 43.27637574 -12.59692383 40.40820312 C-12.56283995 36.73935294 -12.56886245 33.07190181 -12.5875864 29.40298462 C-12.59817655 26.57353135 -12.58920069 23.74440128 -12.57420158 20.91497803 C-12.56652867 18.90703632 -12.57386085 16.89905536 -12.58143616 14.89111328 C-12.56559982 13.66634277 -12.54976349 12.44157227 -12.53344727 11.1796875 C-12.52724869 10.10444824 -12.52105011 9.02920898 -12.5146637 7.92138672 C-11.87731532 4.30360464 -10.52097357 2.62294979 -8 0 C-5.05854616 -1.47072692 -3.14695372 -0.75526889 0 0 Z " fill="#0391E3" transform="translate(618,181)"/>
<path d="M0 0 C3.73112464 2.79834348 6.73317867 5.48501399 9.421875 9.31640625 C9.091875 9.97640625 8.761875 10.63640625 8.421875 11.31640625 C7.431875 10.65640625 6.441875 9.99640625 5.421875 9.31640625 C5.421875 8.65640625 5.421875 7.99640625 5.421875 7.31640625 C4.761875 7.31640625 4.101875 7.31640625 3.421875 7.31640625 C2.761875 6.65640625 2.101875 5.99640625 1.421875 5.31640625 C-0.14084689 9.70894398 -0.14084689 9.70894398 -0.578125 14.31640625 C-1.568125 14.64640625 -2.558125 14.97640625 -3.578125 15.31640625 C-3.578125 15.97640625 -3.578125 16.63640625 -3.578125 17.31640625 C-2.918125 17.31640625 -2.258125 17.31640625 -1.578125 17.31640625 C1.60866249 21.33894438 1.9665614 25.16291188 1.921875 30.12890625 C1.91760498 30.84087158 1.91333496 31.55283691 1.90893555 32.28637695 C1.71537571 38.25800576 0.42134171 41.96533807 -3.578125 46.31640625 C-4.7846875 47.77046875 -4.7846875 47.77046875 -6.015625 49.25390625 C-11.59755619 53.74668013 -19.71307376 52.68367237 -26.578125 52.31640625 C-31.27757371 51.32704863 -32.92960322 50.22612888 -35.578125 46.31640625 C-37.063125 45.82140625 -37.063125 45.82140625 -38.578125 45.31640625 C-40.265625 42.25390625 -40.265625 42.25390625 -41.578125 39.31640625 C-42.2175 40.12078125 -42.856875 40.92515625 -43.515625 41.75390625 C-45.578125 44.31640625 -45.578125 44.31640625 -46.578125 45.31640625 C-46.79138903 50.92117715 -46.79138903 50.92117715 -45.578125 56.31640625 C-49.81587171 54.90382401 -51.46395717 52.05896224 -53.578125 48.31640625 C-57.78263006 38.82718731 -58.16503525 27.59117279 -54.73828125 17.7890625 C-49.83048785 7.32901798 -42.02288185 -0.34577372 -31.265625 -4.62109375 C-20.43534445 -7.67725757 -9.39364802 -6.13433681 0 0 Z M-33.390625 15.00390625 C-37.95561275 19.82975044 -40.4610804 25.64486413 -40.578125 32.31640625 C-39.37922845 39.28262619 -35.94982671 44.74497847 -30.578125 49.31640625 C-24.5096456 52.37547606 -17.66208499 52.30560096 -11.265625 50.25390625 C-6.46476101 46.79281826 -1.95010925 42.21593851 -0.578125 36.31640625 C0.31497122 28.2785403 -1.26346531 23.11253763 -5.79296875 16.55859375 C-9.37271394 12.26289952 -13.31071639 11.10140414 -18.76171875 10.3671875 C-24.39313249 10.26565022 -28.63776536 12.15219047 -33.390625 15.00390625 Z " fill="#0391E2" transform="translate(381.578125,185.68359375)"/>
<path d="M0 0 C0.33 0.99 0.66 1.98 1 3 C1.66 2.67 2.32 2.34 3 2 C3.33 1.01 3.66 0.02 4 -1 C7.81248426 -1.02887236 11.6249407 -1.04675492 15.4375 -1.0625 C16.52611328 -1.07087891 17.61472656 -1.07925781 18.73632812 -1.08789062 C19.77080078 -1.09111328 20.80527344 -1.09433594 21.87109375 -1.09765625 C22.82943115 -1.10289307 23.78776855 -1.10812988 24.77514648 -1.11352539 C27 -1 27 -1 28 0 C29.4490351 6.92316771 29.08788058 13.9597887 29 21 C25.58382503 21.1972935 22.16705407 21.38112295 18.75 21.5625 C17.78191406 21.61857422 16.81382813 21.67464844 15.81640625 21.73242188 C14.41455078 21.80493164 14.41455078 21.80493164 12.984375 21.87890625 C11.69611816 21.94960327 11.69611816 21.94960327 10.38183594 22.02172852 C8.07335735 22.00066921 6.20243733 21.66206871 4 21 C4 19.68 4 18.36 4 17 C3.24460937 17.81855469 2.48921875 18.63710937 1.7109375 19.48046875 C-2.8052314 23.24394283 -7.77451921 22.54735887 -13.375 22.3125 C-14.39722656 22.28994141 -15.41945313 22.26738281 -16.47265625 22.24414062 C-18.98329581 22.18548082 -21.49087379 22.10345928 -24 22 C-25.62094359 18.75811282 -25.4653048 15.19197361 -25.6875 11.625 C-25.74744141 10.85671875 -25.80738281 10.0884375 -25.86914062 9.296875 C-26.06422325 6.2076214 -26.13834663 3.56416677 -25.3984375 0.546875 C-19.93304676 -5.49864101 -6.49161652 -3.24580826 0 0 Z " fill="#0191E5" transform="translate(108,130)"/>
<path d="M0 0 C1.01513672 -0.01224609 2.03027344 -0.02449219 3.07617188 -0.03710938 C4.05005859 -0.03904297 5.02394531 -0.04097656 6.02734375 -0.04296875 C7.36720337 -0.04913208 7.36720337 -0.04913208 8.73413086 -0.05541992 C11.0625 0.1875 11.0625 0.1875 14.0625 2.1875 C14.43481445 4.40234375 14.43481445 4.40234375 14.42578125 7.125 C14.42513672 8.10210937 14.42449219 9.07921875 14.42382812 10.0859375 C14.40771484 11.10945312 14.39160156 12.13296875 14.375 13.1875 C14.37983398 14.72277344 14.37983398 14.72277344 14.38476562 16.2890625 C14.32939161 23.92060839 14.32939161 23.92060839 12.0625 26.1875 C8.08094664 26.64344946 4.06714871 26.51153413 0.0625 26.5 C-1.61585938 26.52416992 -1.61585938 26.52416992 -3.328125 26.54882812 C-4.92914063 26.54979492 -4.92914063 26.54979492 -6.5625 26.55078125 C-7.54476562 26.55376221 -8.52703125 26.55674316 -9.5390625 26.55981445 C-10.33054688 26.43695068 -11.12203125 26.31408691 -11.9375 26.1875 C-14.01536782 23.07069828 -14.18705914 22.38033758 -14.16796875 18.84375 C-14.16603516 18.00972656 -14.16410156 17.17570312 -14.16210938 16.31640625 C-14.14374023 15.01509766 -14.14374023 15.01509766 -14.125 13.6875 C-14.12435547 12.81996094 -14.12371094 11.95242187 -14.12304688 11.05859375 C-14.07819283 4.60957848 -14.07819283 4.60957848 -12.9375 1.1875 C-9.06494304 -0.74877848 -4.2591696 0.00269397 0 0 Z " fill="#0091E6" transform="translate(152.9375,153.8125)"/>
<path d="M0 0 C1.04317383 -0.01836914 1.04317383 -0.01836914 2.10742188 -0.03710938 C6.79857677 -0.05024986 10.92397214 0.34928644 15.3125 2.1875 C17.7349302 5.93186579 17.67097248 9.93344586 17.75 14.3125 C17.78996094 15.53195313 17.82992187 16.75140625 17.87109375 18.0078125 C17.3125 21.1875 17.3125 21.1875 15.421875 23.09765625 C10.95740653 24.66246366 6.81971658 24.58377439 2.125 24.5 C0.75311523 24.50483398 0.75311523 24.50483398 -0.64648438 24.50976562 C-7.42022414 24.45477586 -7.42022414 24.45477586 -9.6875 22.1875 C-9.91455078 20.03271484 -9.91455078 20.03271484 -9.8828125 17.3984375 C-9.87636719 16.45742187 -9.86992188 15.51640625 -9.86328125 14.546875 C-9.84652344 13.56203125 -9.82976562 12.5771875 -9.8125 11.5625 C-9.80347656 10.56992188 -9.79445313 9.57734375 -9.78515625 8.5546875 C-9.76154116 6.09871866 -9.72860799 3.64322832 -9.6875 1.1875 C-6.60561519 -0.3534424 -3.37877677 0.00304669 0 0 Z " fill="#0191E4" transform="translate(92.6875,154.8125)"/>
<path d="M0 0 C12.87 0.495 12.87 0.495 26 1 C26.061875 3.701875 26.12375 6.40375 26.1875 9.1875 C26.21481201 10.02949951 26.24212402 10.87149902 26.27026367 11.73901367 C26.30707097 15.06868883 26.06424969 17.78414359 25.109375 20.9921875 C21.63758156 24.29682052 17.68414313 23.86227156 13.0625 23.9375 C12.15564453 23.97939453 11.24878906 24.02128906 10.31445312 24.06445312 C5.88344929 24.21117511 2.91465646 24.2691472 -1 22 C-1.02895225 18.70835171 -1.0467823 15.41673601 -1.0625 12.125 C-1.07506836 10.71927734 -1.07506836 10.71927734 -1.08789062 9.28515625 C-1.09111328 8.38925781 -1.09433594 7.49335937 -1.09765625 6.5703125 C-1.10289307 5.74289551 -1.10812988 4.91547852 -1.11352539 4.06298828 C-1 2 -1 2 0 0 Z " fill="#0491E1" transform="translate(111,102)"/>
<path d="M0 0 C0 0.66 0 1.32 0 2 C1.60681641 1.98259766 1.60681641 1.98259766 3.24609375 1.96484375 C4.64322743 1.95546701 6.04036299 1.94636669 7.4375 1.9375 C8.14455078 1.92912109 8.85160156 1.92074219 9.58007812 1.91210938 C11.38693559 1.90346412 13.19387603 1.94779989 15 2 C16 3 16 3 16.11352539 5.13305664 C16.10828857 6.04949951 16.10305176 6.96594238 16.09765625 7.91015625 C16.09443359 8.89951172 16.09121094 9.88886719 16.08789062 10.90820312 C16.07951172 11.94912109 16.07113281 12.99003906 16.0625 14.0625 C16.05798828 15.10728516 16.05347656 16.15207031 16.04882812 17.22851562 C16.03699913 19.8190666 16.02051689 22.40950559 16 25 C12.5625177 25.02901394 9.12506688 25.04680335 5.6875 25.0625 C4.71103516 25.07087891 3.73457031 25.07925781 2.72851562 25.08789062 C1.79072266 25.09111328 0.85292969 25.09433594 -0.11328125 25.09765625 C-0.97735596 25.10289307 -1.84143066 25.10812988 -2.73168945 25.11352539 C-5 25 -5 25 -8 24 C-8.92188461 21.23434618 -9.11785222 19.61716298 -9.09765625 16.76953125 C-9.09282227 15.56586914 -9.09282227 15.56586914 -9.08789062 14.33789062 C-9.07951172 13.50451172 -9.07113281 12.67113281 -9.0625 11.8125 C-9.05798828 10.96751953 -9.05347656 10.12253906 -9.04882812 9.25195312 C-9.03705403 7.16793845 -9.0191189 5.08396023 -9 3 C-3.375 0 -3.375 0 0 0 Z " fill="#0191E5" transform="translate(121,154)"/>
<path d="M0 0 C1.77117187 0.13148438 1.77117187 0.13148438 3.578125 0.265625 C6.75 0.75 6.75 0.75 10.75 2.75 C10.75 5.72 10.75 8.69 10.75 11.75 C10.42 11.75 10.09 11.75 9.75 11.75 C9.42 15.05 9.09 18.35 8.75 21.75 C7.76 21.75 6.77 21.75 5.75 21.75 C5.75 22.41 5.75 23.07 5.75 23.75 C-0.85 23.75 -7.45 23.75 -14.25 23.75 C-15.45029908 21.34940183 -15.36459743 19.85639351 -15.34765625 17.1796875 C-15.34443359 16.28378906 -15.34121094 15.38789063 -15.33789062 14.46484375 C-15.32951172 13.52769531 -15.32113281 12.59054688 -15.3125 11.625 C-15.30798828 10.68011719 -15.30347656 9.73523438 -15.29882812 8.76171875 C-15.28702357 6.42441613 -15.27055759 4.08723939 -15.25 1.75 C-9.88594604 0.21403741 -5.62661792 -0.4709504 0 0 Z " fill="#0290E5" transform="translate(70.25,155.25)"/>
<path d="M0 0 C2.62527189 -0.05382106 5.24944713 -0.09358313 7.875 -0.125 C8.62136719 -0.14175781 9.36773437 -0.15851563 10.13671875 -0.17578125 C12.09194461 -0.1933959 14.04742021 -0.10320189 16 0 C18 2 18 2 18.01171875 5.73828125 C17.91446186 7.26374893 17.80590385 8.78852786 17.6875 10.3125 C17.63916016 11.07240234 17.59082031 11.83230469 17.54101562 12.61523438 C17.27137656 16.54377317 16.77914252 20.10428739 16 24 C8.41 24 0.82 24 -7 24 C-7.08635392 16.57356288 -6.91319289 9.3707712 -6 2 C-4.02 2 -2.04 2 0 2 C0 1.34 0 0.68 0 0 Z " fill="#0190E5" transform="translate(62,127)"/>
<path d="M0 0 C0.92683594 0.05671875 1.85367188 0.1134375 2.80859375 0.171875 C5.08160878 0.31247387 7.35336963 0.46378752 9.625 0.625 C9.625 0.955 9.625 1.285 9.625 1.625 C9.06103516 1.6343457 8.49707031 1.64369141 7.91601562 1.65332031 C5.31818008 1.70757486 2.72204081 1.79110683 0.125 1.875 C-1.2053125 1.89626953 -1.2053125 1.89626953 -2.5625 1.91796875 C-7.98333594 2.11726419 -11.90307002 2.92041086 -16.60351562 5.67871094 C-18.375 6.625 -18.375 6.625 -20.53710938 7.06347656 C-21.14361328 7.2487793 -21.75011719 7.43408203 -22.375 7.625 C-22.705 8.615 -23.035 9.605 -23.375 10.625 C-24.365 11.285 -25.355 11.945 -26.375 12.625 C-27.0587045 13.94967746 -27.72464186 15.28363633 -28.375 16.625 C-28.87 17.099375 -29.365 17.57375 -29.875 18.0625 C-31.77403312 20.0406595 -32.47399031 22.06058782 -33.375 24.625 C-34.035 24.625 -34.695 24.625 -35.375 24.625 C-35.40417228 27.85414752 -35.42185663 31.08326083 -35.4375 34.3125 C-35.44587891 35.22451172 -35.45425781 36.13652344 -35.46289062 37.07617188 C-35.46772461 38.40551758 -35.46772461 38.40551758 -35.47265625 39.76171875 C-35.47789307 40.57342529 -35.48312988 41.38513184 -35.48852539 42.22143555 C-35.36657243 44.80342894 -35.05853776 47.13055905 -34.375 49.625 C-33.715 49.955 -33.055 50.285 -32.375 50.625 C-32.04166667 51.95833333 -31.70833333 53.29166667 -31.375 54.625 C-30.715 54.955 -30.055 55.285 -29.375 55.625 C-28.941875 56.3675 -28.50875 57.11 -28.0625 57.875 C-26.18037393 60.9421684 -23.94486707 63.12102695 -21.375 65.625 C-20.715 66.615 -20.055 67.605 -19.375 68.625 C-26.77997299 65.60815915 -32.80551851 57.44841263 -36.48828125 50.53515625 C-39.85204364 41.97430126 -39.78382492 31.19213035 -36.421875 22.64453125 C-34.5062954 18.94917807 -32.02514377 15.81598944 -29.375 12.625 C-28.59125 11.573125 -27.8075 10.52125 -27 9.4375 C-19.27800825 1.16393741 -10.96396482 -0.78202317 0 0 Z " fill="#1885BE" transform="translate(439.375,180.375)"/>
<path d="M0 0 C1.01513672 -0.01224609 2.03027344 -0.02449219 3.07617188 -0.03710938 C4.05005859 -0.03904297 5.02394531 -0.04097656 6.02734375 -0.04296875 C7.36720337 -0.04913208 7.36720337 -0.04913208 8.73413086 -0.05541992 C11.0625 0.1875 11.0625 0.1875 14.0625 2.1875 C14.43481445 4.40234375 14.43481445 4.40234375 14.42578125 7.125 C14.42513672 8.10210937 14.42449219 9.07921875 14.42382812 10.0859375 C14.40771484 11.10945312 14.39160156 12.13296875 14.375 13.1875 C14.37983398 14.72277344 14.37983398 14.72277344 14.38476562 16.2890625 C14.32939161 23.92060839 14.32939161 23.92060839 12.0625 26.1875 C8.08094664 26.64344946 4.06714871 26.51153413 0.0625 26.5 C-1.61585938 26.52416992 -1.61585938 26.52416992 -3.328125 26.54882812 C-4.92914063 26.54979492 -4.92914063 26.54979492 -6.5625 26.55078125 C-7.54476562 26.55376221 -8.52703125 26.55674316 -9.5390625 26.55981445 C-10.33054688 26.43695068 -11.12203125 26.31408691 -11.9375 26.1875 C-14.01536782 23.07069828 -14.18705914 22.38033758 -14.16796875 18.84375 C-14.16603516 18.00972656 -14.16410156 17.17570312 -14.16210938 16.31640625 C-14.14374023 15.01509766 -14.14374023 15.01509766 -14.125 13.6875 C-14.12435547 12.81996094 -14.12371094 11.95242187 -14.12304688 11.05859375 C-14.07819283 4.60957848 -14.07819283 4.60957848 -12.9375 1.1875 C-9.06494304 -0.74877848 -4.2591696 0.00269397 0 0 Z M-11.9375 3.1875 C-11.9375 9.7875 -11.9375 16.3875 -11.9375 23.1875 C-9.50033785 24.40608107 -7.90475943 24.31675575 -5.18359375 24.3203125 C-4.24708984 24.32160156 -3.31058594 24.32289063 -2.34570312 24.32421875 C-1.36537109 24.32035156 -0.38503906 24.31648438 0.625 24.3125 C2.10129883 24.31830078 2.10129883 24.31830078 3.60742188 24.32421875 C5.01024414 24.32228516 5.01024414 24.32228516 6.44140625 24.3203125 C7.3032251 24.31918457 8.16504395 24.31805664 9.05297852 24.31689453 C11.06040032 24.40966915 11.06040032 24.40966915 12.0625 23.1875 C12.14935603 21.62577255 12.16952219 20.06020656 12.16015625 18.49609375 C12.15532227 17.07973633 12.15532227 17.07973633 12.15039062 15.63476562 C12.14201172 14.64154297 12.13363281 13.64832031 12.125 12.625 C12.12048828 11.62791016 12.11597656 10.63082031 12.11132812 9.60351562 C12.09950007 7.13145151 12.08301849 4.65950482 12.0625 2.1875 C8.43751666 2.15856068 4.81256287 2.14072208 1.1875 2.125 C0.15496094 2.11662109 -0.87757813 2.10824219 -1.94140625 2.09960938 C-2.92753906 2.09638672 -3.91367188 2.09316406 -4.9296875 2.08984375 C-5.84089355 2.08460693 -6.75209961 2.07937012 -7.69091797 2.07397461 C-9.97437509 2.03864435 -9.97437509 2.03864435 -11.9375 3.1875 Z " fill="#1E86A9" transform="translate(152.9375,153.8125)"/>
<path d="M0 0 C3.97915159 -0.02886984 7.95827653 -0.04675406 11.9375 -0.0625 C13.07380859 -0.07087891 14.21011719 -0.07925781 15.38085938 -0.08789062 C16.46044922 -0.09111328 17.54003906 -0.09433594 18.65234375 -0.09765625 C20.15269165 -0.10551147 20.15269165 -0.10551147 21.68334961 -0.11352539 C24 0 24 0 25 1 C25.09319449 2.5348297 25.117458 4.07392082 25.11352539 5.61157227 C25.11344986 6.59251358 25.11337433 7.5734549 25.11329651 8.5841217 C25.10813522 9.6507756 25.10297394 10.7174295 25.09765625 11.81640625 C25.0962413 12.9025975 25.09482635 13.98878876 25.09336853 15.1078949 C25.08775048 18.59279075 25.07519492 22.07762342 25.0625 25.5625 C25.05748733 27.91861887 25.05292402 30.27473874 25.04882812 32.63085938 C25.03777519 38.42059464 25.02101951 44.21029281 25 50 C24.67 50 24.34 50 24 50 C23.67 43.07 23.34 36.14 23 29 C18.05 28.67 13.1 28.34 8 28 C8 27.34 8 26.68 8 26 C7.05125 26.515625 6.1025 27.03125 5.125 27.5625 C4.09375 28.036875 3.0625 28.51125 2 29 C1.34 28.67 0.68 28.34 0 28 C2.46449666 24.18003018 2.46449666 24.18003018 4.85253906 23.37719727 C6.99088671 23.00160073 8.9402855 22.88591125 11.109375 22.90234375 C12.1298291 22.90609009 12.1298291 22.90609009 13.17089844 22.90991211 C14.02200195 22.91901611 14.87310547 22.92812012 15.75 22.9375 C18.4725 22.958125 21.195 22.97875 24 23 C23.34 16.07 22.68 9.14 22 2 C14.74 1.67 7.48 1.34 0 1 C0 0.67 0 0.34 0 0 Z " fill="#108DC7" transform="translate(113,128)"/>
<path d="M0 0 C3.62603305 1.18670173 5.14364396 2.1253421 7.4375 5.125 C8.35806715 7.88670144 8.58550149 9.64678855 8.64282227 12.50463867 C8.66276749 13.38532516 8.68271271 14.26601166 8.70326233 15.17338562 C8.71997482 16.12034805 8.73668732 17.06731049 8.75390625 18.04296875 C8.77468735 19.01534988 8.79546844 19.98773102 8.81687927 20.98957825 C8.88228748 24.09714665 8.94121929 27.20479985 9 30.3125 C9.04319351 32.41862858 9.08680807 34.52474856 9.13085938 36.63085938 C9.23795999 41.79548591 9.33925219 46.96019778 9.4375 52.125 C11.0875 51.465 12.7375 50.805 14.4375 50.125 C13.8125 52.0625 13.8125 52.0625 12.4375 54.125 C9.3515625 54.75390625 9.3515625 54.75390625 6.4375 55.125 C6.42536972 54.28054825 6.42536972 54.28054825 6.41299438 53.41903687 C6.3267677 47.54622256 6.2272566 41.67373876 6.12011719 35.80126953 C6.0818942 33.61122194 6.04702978 31.421113 6.015625 29.23095703 C5.96982957 26.07822788 5.91185851 22.92591862 5.8515625 19.7734375 C5.84001129 18.79821136 5.82846008 17.82298523 5.81655884 16.81820679 C5.70984038 11.87427023 5.37183896 7.76062635 3.4375 3.125 C0.7975 3.455 -1.8425 3.785 -4.5625 4.125 C-5.2225 5.775 -5.8825 7.425 -6.5625 9.125 C-7.2225 8.135 -7.8825 7.145 -8.5625 6.125 C-4.54489824 0.15947011 -4.54489824 0.15947011 0 0 Z " fill="#1F81A1" transform="translate(476.5625,149.875)"/>
<path d="M0 0 C0.33 0 0.66 0 1 0 C1 8.58 1 17.16 1 26 C-10 24 -10 24 -11 23 C-19.35858364 22.63330085 -27.70374172 22.90684597 -36 24 C-36.33 24.99 -36.66 25.98 -37 27 C-39 28 -41 29 -43 30 C-43.33 30.99 -43.66 31.98 -44 33 C-44.66 33 -45.32 33 -46 33 C-46 33.66 -46 34.32 -46 35 C-46.99 35 -47.98 35 -49 35 C-46.07741329 28.3365023 -40.35820109 24.30347204 -33.75 21.625 C-23.94092944 18.03250601 -14.61825513 17.61272573 -5 22 C-2.525 22.99 -2.525 22.99 0 24 C0 16.08 0 8.16 0 0 Z " fill="#1382B5" transform="translate(305,161)"/>
<path d="M0 0 C0.99386719 0.00902344 1.98773438 0.01804688 3.01171875 0.02734375 C4.15060547 0.04474609 4.15060547 0.04474609 5.3125 0.0625 C5.3125 0.3925 5.3125 0.7225 5.3125 1.0625 C4.61125 1.02125 3.91 0.98 3.1875 0.9375 C-0.29443676 1.08888855 -2.54270834 1.51090305 -5.6875 3.0625 C-8.7382844 7.4230177 -10.73408613 12.05836626 -12.78320312 16.95263672 C-16.77555998 26.26741749 -22.04766943 34.42238327 -28.6875 42.0625 C-29.1825 40.5775 -29.1825 40.5775 -29.6875 39.0625 C-28.40685253 37.58975541 -27.11726445 36.11913241 -25.71875 34.7578125 C-24.39938146 33.03104432 -24.39938146 33.03104432 -25.234375 30.63671875 C-25.6875 28.0625 -25.6875 28.0625 -24.359375 25.82421875 C-23.72515625 25.13972656 -23.0909375 24.45523438 -22.4375 23.75 C-21.81359375 23.05261719 -21.1896875 22.35523438 -20.546875 21.63671875 C-18.6875 20.0625 -18.6875 20.0625 -15.6875 20.0625 C-15.3575 18.0825 -15.0275 16.1025 -14.6875 14.0625 C-14.0275 14.0625 -13.3675 14.0625 -12.6875 14.0625 C-12.0275 11.0925 -11.3675 8.1225 -10.6875 5.0625 C-10.0275 5.0625 -9.3675 5.0625 -8.6875 5.0625 C-8.6875 3.7425 -8.6875 2.4225 -8.6875 1.0625 C-5.53819107 0.01273036 -3.29935544 -0.03881595 0 0 Z " fill="#0491E4" transform="translate(211.6875,191.9375)"/>
<path d="M0 0 C3.082898 4.624347 3.30409205 9.51186247 3 15 C1.70972854 17.94446565 0.56757901 18.88887948 -2 21 C-4.89419233 21.97651992 -7.54445526 22.12206614 -10.58496094 22.11352539 C-11.48559265 22.11344986 -12.38622437 22.11337433 -13.31414795 22.11329651 C-14.27782288 22.10813522 -15.2414978 22.10297394 -16.234375 22.09765625 C-17.22753723 22.0962413 -18.22069946 22.09482635 -19.24395752 22.09336853 C-22.41266912 22.08777588 -25.58130979 22.0752247 -28.75 22.0625 C-30.89973856 22.05748405 -33.04947823 22.05292131 -35.19921875 22.04882812 C-40.46616999 22.03780886 -45.73307993 22.021078 -51 22 C-51.33 21.34 -51.66 20.68 -52 20 C-51.40058594 20.01160156 -50.80117188 20.02320313 -50.18359375 20.03515625 C-42.97963947 20.10688837 -35.81996283 19.83961625 -28.625 19.5 C-20.07175132 19.0973151 -11.56414453 18.86641716 -3 19 C-2.34 17.68 -1.68 16.36 -1 15 C-0.34 15 0.32 15 1 15 C0.505 7.575 0.505 7.575 0 0 Z " fill="#268CAE" transform="translate(600,204)"/>
<path d="M0 0 C3.125 -0.1875 3.125 -0.1875 6 0 C5.34894287 0.54277588 4.69788574 1.08555176 4.02709961 1.64477539 C1.51762593 4.56045557 1.52492062 5.88996318 1.56640625 9.68359375 C1.55673828 10.77607422 1.54707031 11.86855469 1.53710938 12.99414062 C1.55400789 15.28583968 1.57482797 17.57751325 1.59960938 19.86914062 C1.50559411 29.25407638 1.50559411 29.25407638 -1.30859375 32.28125 C-4 34 -4 34 -7.625 34.0625 C-11 33 -11 33 -13 31.125 C-14 29 -14 29 -13 26 C-12.814375 26.639375 -12.62875 27.27875 -12.4375 27.9375 C-11.05753944 30.42126213 -11.05753944 30.42126213 -7.375 30.75 C-6.26125 30.8325 -5.1475 30.915 -4 31 C-4 30.34 -4 29.68 -4 29 C-3.34 29 -2.68 29 -2 29 C-2.01047363 28.22809326 -2.02094727 27.45618652 -2.03173828 26.66088867 C-2.07326454 23.16979212 -2.09931557 19.67874751 -2.125 16.1875 C-2.14175781 14.97255859 -2.15851563 13.75761719 -2.17578125 12.50585938 C-2.18222656 11.34248047 -2.18867188 10.17910156 -2.1953125 8.98046875 C-2.20578613 7.90692139 -2.21625977 6.83337402 -2.22705078 5.72729492 C-2 3 -2 3 0 0 Z " fill="#1C81B2" transform="translate(483,220)"/>
<path d="M0 0 C0.33 0 0.66 0 1 0 C1.02505615 0.60062256 1.0501123 1.20124512 1.07592773 1.82006836 C1.1915528 4.52611437 1.31442936 7.23178283 1.4375 9.9375 C1.47681641 10.88302734 1.51613281 11.82855469 1.55664062 12.80273438 C1.59853516 13.70185547 1.64042969 14.60097656 1.68359375 15.52734375 C1.72025146 16.35999756 1.75690918 17.19265137 1.79467773 18.05053711 C1.79367103 20.00338858 1.79367103 20.00338858 3 21 C6.26326643 21.25134544 9.54069716 21.18522634 12.8125 21.1875 C13.72837891 21.19974609 14.64425781 21.21199219 15.58789062 21.22460938 C16.91530273 21.22750977 16.91530273 21.22750977 18.26953125 21.23046875 C19.08010986 21.23457764 19.89068848 21.23868652 20.72583008 21.24291992 C23.40019804 21.09130459 23.40019804 21.09130459 27 19 C27 13.39 27 7.78 27 2 C27.99 2 28.98 2 30 2 C30.33 8.27 30.66 14.54 31 21 C38.59 21.33 46.18 21.66 54 22 C54 22.33 54 22.66 54 23 C50.22923111 23.05799124 46.45857666 23.09359306 42.6875 23.125 C41.61564453 23.14175781 40.54378906 23.15851563 39.43945312 23.17578125 C38.41142578 23.18222656 37.38339844 23.18867188 36.32421875 23.1953125 C35.37635498 23.20578613 34.42849121 23.21625977 33.4519043 23.22705078 C31 23 31 23 28 21 C27.34 21.66 26.68 22.32 26 23 C23.49389648 23.24291992 23.49389648 23.24291992 20.37109375 23.23046875 C19.25412109 23.22853516 18.13714844 23.22660156 16.98632812 23.22460938 C15.2296582 23.20624023 15.2296582 23.20624023 13.4375 23.1875 C12.26251953 23.18685547 11.08753906 23.18621094 9.87695312 23.18554688 C1.14012141 23.14012141 1.14012141 23.14012141 0 22 C-0.08700342 20.36527118 -0.10701063 18.72685945 -0.09765625 17.08984375 C-0.09443359 16.10048828 -0.09121094 15.11113281 -0.08789062 14.09179688 C-0.07951172 13.05087891 -0.07113281 12.00996094 -0.0625 10.9375 C-0.05798828 9.89271484 -0.05347656 8.84792969 -0.04882812 7.77148438 C-0.03699913 5.1809334 -0.02051689 2.59049441 0 0 Z " fill="#148ECA" transform="translate(82,157)"/>
<path d="M0 0 C2.3125 1.375 2.3125 1.375 4.3125 4.375 C4.75 6.8125 4.75 6.8125 4.3125 9.375 C2.1875 11.8125 2.1875 11.8125 -0.6875 13.375 C-5.76067073 12.30182927 -5.76067073 12.30182927 -7.6875 10.375 C-8.18902618 5.19256281 -8.18902618 5.19256281 -7.6875 2.375 C-4.94914488 -0.28511641 -3.7428163 -0.8704224 0 0 Z " fill="#1780B0" transform="translate(638.6875,240.625)"/>
<path d="M0 0 C1.27875 -0.061875 2.5575 -0.12375 3.875 -0.1875 C4.95394531 -0.23970703 4.95394531 -0.23970703 6.0546875 -0.29296875 C6.69664062 -0.19628906 7.33859375 -0.09960938 8 0 C8.66 0.99 9.32 1.98 10 3 C12.05003955 4.19232613 12.05003955 4.19232613 14 5 C14 5.66 14 6.32 14 7 C14.66 7 15.32 7 16 7 C19.18678749 11.02253813 19.5446864 14.84650563 19.5 19.8125 C19.49572998 20.52446533 19.49145996 21.23643066 19.48706055 21.9699707 C19.29333602 27.94668049 17.9953092 31.6424787 14 36 C13.195625 36.99 12.39125 37.98 11.5625 39 C8.46515916 41.41743676 6.83590422 41.44603537 3 41 C3.99 40.34 4.98 39.68 6 39 C10.9890941 35.3908681 14.14590195 31.96852911 16 26 C17.07055364 19.12879347 15.9055206 13.73064951 12 8 C8.35546473 3.46895615 5.50079989 2.18644704 0 1 C0 0.67 0 0.34 0 0 Z " fill="#1886B7" transform="translate(364,196)"/>
<path d="M0 0 C2.875 2.5625 2.875 2.5625 5 5 C4.01 5.33 3.02 5.66 2 6 C1.67 5.01 1.34 4.02 1 3 C-2.86986958 2.92557943 -6.2735915 2.95297814 -10 4 C-10.04647641 11.44133772 -10.08194662 18.8826438 -10.10362434 26.32409763 C-10.11403205 29.78000096 -10.12813566 33.23580449 -10.15087891 36.69165039 C-10.1768997 40.67072325 -10.18649772 44.64975663 -10.1953125 48.62890625 C-10.20563507 49.86145645 -10.21595764 51.09400665 -10.22659302 52.36390686 C-10.22747447 59.1365199 -10.0718354 64.8563292 -7 71 C-8.9375 70.3125 -8.9375 70.3125 -11 69 C-12.0149706 65.3645448 -12.14079213 61.85470921 -12.17700195 58.09570312 C-12.18983719 56.93099487 -12.20267242 55.76628662 -12.21589661 54.56628418 C-12.22328354 53.3172229 -12.23067047 52.06816162 -12.23828125 50.78125 C-12.246353 49.49061646 -12.25442474 48.19998291 -12.26274109 46.87023926 C-12.27771985 44.14347468 -12.28758281 41.41673571 -12.29516602 38.68994141 C-12.30625552 35.20285164 -12.34070437 31.71639554 -12.38033772 28.22953033 C-12.41279592 24.89262901 -12.41727953 21.55579698 -12.42578125 18.21875 C-12.44328934 16.96968872 -12.46079742 15.72062744 -12.47883606 14.43371582 C-12.47591049 13.26900757 -12.47298492 12.10429932 -12.4699707 10.90429688 C-12.47877007 9.37138 -12.47877007 9.37138 -12.48774719 7.80749512 C-11.87035054 4.25373176 -10.46619207 2.5813501 -8 0 C-4.99054157 -1.50472922 -3.20590237 -0.88005163 0 0 Z " fill="#2591C3" transform="translate(618,181)"/>
<path d="M0 0 C0.33 0 0.66 0 1 0 C1.1746107 5.95812573 1.34051664 11.91645008 1.5 17.875 C1.52400879 18.76926697 1.54801758 19.66353394 1.57275391 20.5848999 C1.94802234 34.86328945 2.08996909 49.12695603 1.96289062 63.40966797 C1.95451172 64.72080566 1.94613281 66.03194336 1.9375 67.3828125 C1.92589844 68.52121582 1.91429687 69.65961914 1.90234375 70.83251953 C1.99925439 73.97581627 2.40824144 76.91481781 3 80 C1.52128601 78.96305847 1.52128601 78.96305847 0 77 C-0.28041229 74.4474452 -0.37936916 72.14189342 -0.34057617 69.59106445 C-0.34123329 68.46386993 -0.34123329 68.46386993 -0.34190369 67.31390381 C-0.33981367 64.83009863 -0.31647326 62.3469685 -0.29296875 59.86328125 C-0.28737354 58.14121367 -0.28310309 56.41914132 -0.28010559 54.69706726 C-0.26865091 50.16448788 -0.23917845 45.63219688 -0.20599365 41.09973145 C-0.17530615 36.47473044 -0.16160308 31.84968284 -0.14648438 27.22460938 C-0.11430928 18.14961288 -0.06310545 9.07483042 0 0 Z " fill="#0F94C0" transform="translate(468,168)"/>
<path d="M0 0 C1.32 0 2.64 0 4 0 C4.66 1.32 5.32 2.64 6 4 C6.66 4 7.32 4 8 4 C8 4.66 8 5.32 8 6 C9.98 6 11.96 6 14 6 C14.28875 7.093125 14.5775 8.18625 14.875 9.3125 C15.96029763 11.83467055 16.6215594 12.79973294 19.07421875 14.09765625 C24.92903653 15.92671235 30.89514041 16.62331717 37 17 C37 17.33 37 17.66 37 18 C25.44197592 19.01982565 17.72009976 17.54800954 8 11 C4.32711656 7.76356523 2.10253317 4.38664874 0 0 Z " fill="#0B89C9" transform="translate(254,236)"/>
<path d="M0 0 C-0.33 0.99 -0.66 1.98 -1 3 C-4.0625 4.1875 -4.0625 4.1875 -7 5 C-7 4.34 -7 3.68 -7 3 C-8.32 3 -9.64 3 -11 3 C-11.96338808 5.89016424 -12.12877169 7.74175255 -12.1328125 10.74609375 C-12.13474609 12.12571289 -12.13474609 12.12571289 -12.13671875 13.53320312 C-12.13285156 14.49162109 -12.12898437 15.45003906 -12.125 16.4375 C-12.12886719 17.39205078 -12.13273438 18.34660156 -12.13671875 19.33007812 C-12.13542969 20.25111328 -12.13414063 21.17214844 -12.1328125 22.12109375 C-12.13168457 22.9608374 -12.13055664 23.80058105 -12.12939453 24.66577148 C-12.00478395 26.91369942 -11.58923123 28.83524711 -11 31 C-10.87794671 33.67540816 -10.95532687 36.31961238 -11 39 C-15.15909301 31.32839567 -15.23065028 22.60751709 -15.375 14.0625 C-15.40094238 13.23355225 -15.42688477 12.40460449 -15.45361328 11.55053711 C-15.47177768 5.62228344 -15.47177768 5.62228344 -13.08984375 2.48046875 C-8.90281945 -0.48566622 -5.04372904 -0.09699479 0 0 Z " fill="#1B7CA3" transform="translate(19,181)"/>
<path d="M0 0 C3.51005335 1.6380249 6.45543849 3.03134491 9 6 C6.84791422 15.08658439 0.99717505 22.00897433 -6.7890625 26.84375 C-10.27436698 28.66645341 -13.02937981 30 -17 30 C-17 29.34 -17 28.68 -17 28 C-16.36191406 27.89042969 -15.72382813 27.78085938 -15.06640625 27.66796875 C-14.24011719 27.50941406 -13.41382813 27.35085937 -12.5625 27.1875 C-11.73878906 27.03667969 -10.91507813 26.88585937 -10.06640625 26.73046875 C-9.38449219 26.48941406 -8.70257813 26.24835938 -8 26 C-7.67 25.01 -7.34 24.02 -7 23 C-6.34 23 -5.68 23 -5 23 C-5 22.34 -5 21.68 -5 21 C-4.21625 20.5875 -3.4325 20.175 -2.625 19.75 C0.6733333 17.55111113 1.07871568 15.76889042 2 12 C1.34 12 0.68 12 0 12 C0 11.34 0 10.68 0 10 C1.65 9.34 3.3 8.68 5 8 C5 7.01 5 6.02 5 5 C3.35178756 3.96986723 1.68496298 2.96885372 0 2 C0 1.34 0 0.68 0 0 Z " fill="#1580B7" transform="translate(234,162)"/>
<path d="M0 0 C0.33 0.66 0.66 1.32 1 2 C0.01 3.485 0.01 3.485 -1 5 C-1.38499891 6.65549531 -1.72793135 8.3222433 -2 10 C-2.66 10 -3.32 10 -4 10 C-4.02887236 13.81248426 -4.04675492 17.6249407 -4.0625 21.4375 C-4.07087891 22.52611328 -4.07925781 23.61472656 -4.08789062 24.73632812 C-4.09111328 25.77080078 -4.09433594 26.80527344 -4.09765625 27.87109375 C-4.10289307 28.82943115 -4.10812988 29.78776855 -4.11352539 30.77514648 C-4.2505313 32.97285339 -4.2505313 32.97285339 -3 34 C-2.54540142 36.65463121 -2.29756762 39.32189138 -2 42 C-2.66 42 -3.32 42 -4 42 C-8.23636554 30.10413426 -10.02910908 19.92448911 -5 8 C-3.48100801 5.21970216 -1.82796835 2.58661134 0 0 Z " fill="#16469E" transform="translate(186,137)"/>
<path d="M0 0 C18.95344746 -1.03174008 18.95344746 -1.03174008 24.1875 2.5625 C26.70498405 5.03325581 27.00317896 6.01536495 27.75 9.625 C26.88507652 13.51715568 26.30642153 14.79571898 23 17 C17.39635126 18.50867466 13.40911015 17.61324338 8 16 C8 15.67 8 15.34 8 15 C9.48113281 15.03480469 9.48113281 15.03480469 10.9921875 15.0703125 C12.91417969 15.09738281 12.91417969 15.09738281 14.875 15.125 C16.15117188 15.14820313 17.42734375 15.17140625 18.7421875 15.1953125 C22.08593338 15.35641524 22.08593338 15.35641524 24 13 C23.67582137 9.19090105 23.14418558 7.21627837 21 4 C18.79027582 3.30927772 18.79027582 3.30927772 16.2109375 3.05078125 C15.26992188 2.92509766 14.32890625 2.79941406 13.359375 2.66992188 C12.37453125 2.55197266 11.3896875 2.43402344 10.375 2.3125 C9.38242187 2.18294922 8.38984375 2.05339844 7.3671875 1.91992188 C4.91273246 1.60131473 2.45735893 1.29522481 0 1 C0 0.67 0 0.34 0 0 Z " fill="#207FA6" transform="translate(635,181)"/>
<path d="M0 0 C2.475 0.495 2.475 0.495 5 1 C5 1.66 5 2.32 5 3 C5.99 3 6.98 3 8 3 C8 3.99 8 4.98 8 6 C8.78375 6.144375 9.5675 6.28875 10.375 6.4375 C13 7 13 7 15 8 C18.72374963 8.24286211 22.45672048 8.18520696 26.1875 8.1875 C27.73147461 8.20586914 27.73147461 8.20586914 29.30664062 8.22460938 C34.94126182 8.23543824 39.68311892 7.90264627 45 6 C40.73878729 10.82937441 34.88527026 11.61827771 28.72265625 12.43359375 C19.05034393 12.96671333 11.93423549 10.41160916 4 5 C1.6015625 2.26171875 1.6015625 2.26171875 0 0 Z " fill="#1D7CA2" transform="translate(540,242)"/>
<path d="M0 0 C1.125 3.75 1.125 3.75 0 6 C-0.09892058 8.94725146 -0.13891102 11.86568198 -0.125 14.8125 C-0.12886719 15.62009766 -0.13273437 16.42769531 -0.13671875 17.25976562 C-0.16248101 23.20214632 -0.16248101 23.20214632 1 29 C1.66 29.33 2.32 29.66 3 30 C3.5 32 3.5 32 4 34 C4.66 34.33 5.32 34.66 6 35 C6.433125 35.7425 6.86625 36.485 7.3125 37.25 C9.19462607 40.3171684 11.43013293 42.49602695 14 45 C14.66 45.99 15.32 46.98 16 48 C8.59502701 44.98315915 2.56948149 36.82341263 -1.11328125 29.91015625 C-4.9207377 20.22008935 -3.90406207 9.43481666 0 0 Z " fill="#1D7BA5" transform="translate(404,201)"/>
<path d="M0 0 C1.32 0.33 2.64 0.66 4 1 C-9.77625225 11.69518812 -26.07239992 19.78241306 -43 24 C-43.66 23.67 -44.32 23.34 -45 23 C-43.7625 22.54625 -42.525 22.0925 -41.25 21.625 C-38.98514396 20.78365383 -36.88924057 19.94154363 -34.75 18.8125 C-33 18 -33 18 -29 18 C-29 17.34 -29 16.68 -29 16 C-28.29875 15.76925781 -27.5975 15.53851563 -26.875 15.30078125 C-20.69035187 13.17480845 -15.37007557 10.72359014 -10 7 C-7 5 -7 5 -4 5 C-4 4.34 -4 3.68 -4 3 C-3.01 3 -2.02 3 -1 3 C-0.67 2.01 -0.34 1.02 0 0 Z " fill="#2382A1" transform="translate(166,247)"/>
<path d="M0 0 C0.70125 0.845625 1.4025 1.69125 2.125 2.5625 C2.723125 3.0575 3.32125 3.5525 3.9375 4.0625 C5.125 5.5625 5.125 5.5625 5.125 10.5625 C-7.085 10.5625 -19.295 10.5625 -31.875 10.5625 C-31.875 10.2325 -31.875 9.9025 -31.875 9.5625 C-19.995 9.5625 -8.115 9.5625 4.125 9.5625 C-1.16794346 1.94302891 -1.16794346 1.94302891 -8.875 -1.4375 C-12.53995143 -2.00803334 -16.16989851 -2.30128303 -19.875 -2.4375 C-19.875 -2.7675 -19.875 -3.0975 -19.875 -3.4375 C-12.53612526 -4.77184086 -5.93656166 -5.03317184 0 0 Z " fill="#2B8AA0" transform="translate(579.875,199.4375)"/>
<path d="M0 0 C6.94451429 0.98685203 11.69204954 5.19468404 16.06640625 10.51171875 C23.37079059 20.71345804 23.37079059 20.71345804 22.625 25.3125 C22.315625 26.1478125 22.315625 26.1478125 22 27 C21.67386719 26.31292969 21.34773438 25.62585938 21.01171875 24.91796875 C20.35623047 23.56638672 20.35623047 23.56638672 19.6875 22.1875 C19.25824219 21.29417969 18.82898438 20.40085938 18.38671875 19.48046875 C17.10605032 17.18969564 15.87034833 15.79154152 14 14 C13.690625 13.175 13.38125 12.35 13.0625 11.5 C11.81720976 8.56990531 10.76060768 7.54269253 8 6 C6.68 6 5.36 6 4 6 C3.34 6.66 2.68 7.32 2 8 C1.87625 7.360625 1.7525 6.72125 1.625 6.0625 C1.315625 5.0415625 1.315625 5.0415625 1 4 C0.34 3.67 -0.32 3.34 -1 3 C-0.67 2.01 -0.34 1.02 0 0 Z " fill="#1E7CA4" transform="translate(188,134)"/>
<path d="M0 0 C-0.33 0.66 -0.66 1.32 -1 2 C-3.1262207 2.50244141 -3.1262207 2.50244141 -5.92578125 2.8515625 C-6.95123047 2.98046875 -7.97667969 3.109375 -9.03320312 3.2421875 C-10.11537109 3.36851562 -11.19753906 3.49484375 -12.3125 3.625 C-13.35212891 3.7590625 -14.39175781 3.893125 -15.46289062 4.03125 C-25.75349548 5.28168928 -35.72549683 5.36993376 -46 4 C-46 3.67 -46 3.34 -46 3 C-45.39937744 2.97494385 -44.79875488 2.9498877 -44.17993164 2.92407227 C-41.47388563 2.8084472 -38.76821717 2.68557064 -36.0625 2.5625 C-35.11697266 2.52318359 -34.17144531 2.48386719 -33.19726562 2.44335938 C-32.29814453 2.40146484 -31.39902344 2.35957031 -30.47265625 2.31640625 C-29.22367554 2.26141968 -29.22367554 2.26141968 -27.94946289 2.20532227 C-25.99661142 2.20632897 -25.99661142 2.20632897 -25 1 C-23.65730372 0.84357839 -22.30720743 0.74936082 -20.95703125 0.68359375 C-20.13009766 0.64169922 -19.30316406 0.59980469 -18.45117188 0.55664062 C-17.58041016 0.51732422 -16.70964844 0.47800781 -15.8125 0.4375 C-14.96107422 0.39431641 -14.10964844 0.35113281 -13.23242188 0.30664062 C-8.81725221 0.09151635 -4.42182148 -0.05065917 0 0 Z " fill="#146AC5" transform="translate(119,270)"/>
<path d="M0 0 C4.18986804 0.53487677 6.50005304 1.8389696 9.75 4.5 C10.52859375 5.1290625 11.3071875 5.758125 12.109375 6.40625 C13.0991833 7.24063385 14.0845993 8.0845993 15 9 C15.57971014 16.07246377 15.57971014 16.07246377 13.4375 19.5 C9.94153695 21.65136188 8.06853391 21.6002755 4 21 C0.85388013 19.55218369 -2.0780949 17.85517784 -5 16 C-3.109375 15.41015625 -3.109375 15.41015625 -1 15 C-0.13375 15.7115625 -0.13375 15.7115625 0.75 16.4375 C4.14865282 18.79767557 6.92065177 18.20396741 11 18 C11.66 15.36 12.32 12.72 13 10 C12.01 9.67 11.02 9.34 10 9 C9.21625 8.195625 8.4325 7.39125 7.625 6.5625 C5.07572514 4.07392216 3.34786879 3.05218733 0 2 C0 1.34 0 0.68 0 0 Z " fill="#2181AB" transform="translate(449,182)"/>
<path d="M0 0 C3.96 0 7.92 0 12 0 C12.33 0.66 12.66 1.32 13 2 C5.25 2.125 5.25 2.125 3 1 C2.67 1.99 2.34 2.98 2 4 C1.34 4 0.68 4 0 4 C0.01571045 4.55985596 0.0314209 5.11971191 0.04760742 5.6965332 C0.10999848 8.2350859 0.14900218 10.77347729 0.1875 13.3125 C0.21263672 14.19357422 0.23777344 15.07464844 0.26367188 15.98242188 C0.27333984 16.82998047 0.28300781 17.67753906 0.29296875 18.55078125 C0.3086792 19.33106689 0.32438965 20.11135254 0.34057617 20.9152832 C0 23 0 23 -3 26 C-3.33 18.74 -3.66 11.48 -4 4 C-4.66 4 -5.32 4 -6 4 C-5.67 3.34 -5.34 2.68 -5 2 C-3.515 2.99 -3.515 2.99 -2 4 C-1.01 3.67 -0.02 3.34 1 3 C0.67 2.01 0.34 1.02 0 0 Z " fill="#2883A7" transform="translate(54,152)"/>
<path d="M0 0 C0.66 0.99 1.32 1.98 2 3 C1.38511719 2.96519531 0.77023437 2.93039063 0.13671875 2.89453125 C-1.07564453 2.85392578 -1.07564453 2.85392578 -2.3125 2.8125 C-3.11300781 2.77769531 -3.91351563 2.74289063 -4.73828125 2.70703125 C-7.00403009 2.83016554 -7.00403009 2.83016554 -8.609375 4.07617188 C-10.71514172 6.98934633 -10.43910014 9.51590674 -10.51171875 13.07421875 C-10.53864555 14.09996758 -10.53864555 14.09996758 -10.56611633 15.1464386 C-10.62022075 17.32673 -10.6541134 19.50680256 -10.6875 21.6875 C-10.7206732 23.16734817 -10.75516287 24.64716745 -10.79101562 26.12695312 C-10.87594524 29.75109169 -10.94275635 33.37530652 -11 37 C-11.99 37 -12.98 37 -14 37 C-13.01 36.505 -13.01 36.505 -12 36 C-12.04600342 35.11739502 -12.09200684 34.23479004 -12.1394043 33.32543945 C-12.30315259 30.03641339 -12.45241496 26.74737983 -12.59204102 23.45727539 C-12.65529384 22.03610901 -12.72423471 20.61518352 -12.79907227 19.19458008 C-12.90593252 17.1470229 -12.99199609 15.09945798 -13.07421875 13.05078125 C-13.13182373 11.82012939 -13.18942871 10.58947754 -13.2487793 9.3215332 C-12.97516323 5.66839627 -12.17771181 3.9041666 -10 1 C-6.63179398 -1.55519077 -3.96419993 -1.12031737 0 0 Z " fill="#1293CF" transform="translate(318,151)"/>
<path d="M0 0 C1.29787296 3.89361887 1.06686114 7.5732148 1 11.625 C0.95428793 14.42257853 0.95286107 17.20112575 1 20 C1.33 20.33 1.66 20.66 2 21 C2.04080783 22.99958364 2.04254356 25.00045254 2 27 C2.66 27 3.32 27 4 27 C4 27.99 4 28.98 4 30 C4.99 30.33 5.98 30.66 7 31 C8.1875 34.0625 8.1875 34.0625 9 37 C4.76225329 35.58741776 3.11416783 32.74255599 1 29 C-3.08369159 19.78344704 -3.54275756 9.42853405 0 0 Z " fill="#238AB3" transform="translate(327,205)"/>
<path d="M0 0 C1.875 1.1875 1.875 1.1875 3 3 C3.5 6.375 3.5 6.375 3 10 C0.13191114 13.68754281 -2.55568412 15.60321501 -7 17 C-5.75 14.5 -5.75 14.5 -4 12 C-2.68 12 -1.36 12 0 12 C0 11.01 0 10.02 0 9 C0.66 9 1.32 9 2 9 C0.73053486 4.17557816 0.73053486 4.17557816 -3 1 C-6.68242287 1.15669885 -8.42315273 1.42315273 -11.0625 4.0625 C-13 6 -13 6 -15.75 6.25 C-16.4925 6.1675 -17.235 6.085 -18 6 C-12.80545089 0.17580858 -7.61316566 -3.80658283 0 0 Z " fill="#207CAC" transform="translate(528,182)"/>
<path d="M0 0 C5.28 0 10.56 0 16 0 C16.84941019 3.39764076 17.11761783 5.7697327 17.09765625 9.203125 C17.09443359 10.1828125 17.09121094 11.1625 17.08789062 12.171875 C17.07951172 13.18765625 17.07113281 14.2034375 17.0625 15.25 C17.05798828 16.28125 17.05347656 17.3125 17.04882812 18.375 C17.03706088 20.91672573 17.02062011 23.45833319 17 26 C16.67 26 16.34 26 16 26 C15.97494385 25.36908447 15.9498877 24.73816895 15.92407227 24.08813477 C15.80845863 21.24603175 15.68557684 18.40428917 15.5625 15.5625 C15.52318359 14.56927734 15.48386719 13.57605469 15.44335938 12.55273438 C15.38051758 11.13637695 15.38051758 11.13637695 15.31640625 9.69140625 C15.27974854 8.81685791 15.24309082 7.94230957 15.20532227 7.04125977 C15.21818934 5.0072598 15.21818934 5.0072598 14 4 C11.81707226 3.76518307 9.62796826 3.58636677 7.4375 3.4375 C5.64119141 3.31181641 5.64119141 3.31181641 3.80859375 3.18359375 C2.88175781 3.12300781 1.95492187 3.06242188 1 3 C0.67 2.01 0.34 1.02 0 0 Z " fill="#1F8CB6" transform="translate(121,152)"/>
<path d="M0 0 C0.99 0.33 1.98 0.66 3 1 C2.67 1.66 2.34 2.32 2 3 C1.87947078 5.63839579 1.81437278 8.2549487 1.7890625 10.89453125 C1.76098814 12.50586943 1.73232363 14.11719742 1.703125 15.72851562 C1.66190614 18.2696091 1.62502063 20.81051345 1.59863281 23.35180664 C1.57096003 25.80394876 1.52508393 28.25522474 1.4765625 30.70703125 C1.47330963 31.46240677 1.47005676 32.21778229 1.46670532 32.99604797 C1.36230983 37.494859 0.75725719 40.40861102 -2 44 C-4.56555038 45.88140361 -5.56848415 46.05884307 -8.75 45.625 C-9.4925 45.41875 -10.235 45.2125 -11 45 C-11 44.67 -11 44.34 -11 44 C-9.88625 43.7525 -8.7725 43.505 -7.625 43.25 C-3.95384802 42.38994661 -3.95384802 42.38994661 -2.5625 39.875 C-2.2840625 38.946875 -2.2840625 38.946875 -2 38 C-1.34 38 -0.68 38 0 38 C0 25.46 0 12.92 0 0 Z " fill="#387683" transform="translate(622,208)"/>
<path d="M0 0 C1.15628906 -0.00515625 2.31257813 -0.0103125 3.50390625 -0.015625 C6.4375 0.25 6.4375 0.25 8.4375 2.25 C7.303125 2.188125 6.16875 2.12625 5 2.0625 C-1.04117047 2.0732113 -6.13312918 3.90034955 -11.375 6.8125 C-15.86625939 11.81704618 -17.8659757 18.63301914 -18.5625 25.25 C-18.8925 25.25 -19.2225 25.25 -19.5625 25.25 C-20.23357051 17.1971539 -18.1940828 12.46053248 -14 5.75 C-13.525625 5.255 -13.05125 4.76 -12.5625 4.25 C-11.5725 4.25 -10.5825 4.25 -9.5625 4.25 C-9.5625 3.59 -9.5625 2.93 -9.5625 2.25 C-5.97967765 -0.13854824 -4.24856967 -0.01898802 0 0 Z " fill="#1B88BA" transform="translate(435.5625,194.75)"/>
<path d="M0 0 C1.670625 0.061875 1.670625 0.061875 3.375 0.125 C3.375 0.785 3.375 1.445 3.375 2.125 C1.395 2.125 -0.585 2.125 -2.625 2.125 C-2.448479 2.69573242 -2.27195801 3.26646484 -2.09008789 3.85449219 C-1.58400817 6.32511759 -1.74222274 7.98144735 -2.18359375 10.453125 C-2.32216797 11.25234375 -2.46074219 12.0515625 -2.60351562 12.875 C-2.75498047 13.7 -2.90644531 14.525 -3.0625 15.375 C-3.21009766 16.21546875 -3.35769531 17.0559375 -3.50976562 17.921875 C-3.8741936 19.99088544 -4.24862541 22.05812939 -4.625 24.125 C-4.955 24.125 -5.285 24.125 -5.625 24.125 C-5.68287784 20.50006666 -5.7185542 16.87525143 -5.75 13.25 C-5.76675781 12.21746094 -5.78351562 11.18492187 -5.80078125 10.12109375 C-5.80722656 9.13496094 -5.81367187 8.14882812 -5.8203125 7.1328125 C-5.83078613 6.22160645 -5.84125977 5.31040039 -5.85205078 4.37158203 C-5.43817577 0.27644457 -3.90943309 0.13480804 0 0 Z " fill="#198BB5" transform="translate(58.625,126.875)"/>
<path d="M0 0 C0.33 0 0.66 0 1 0 C1.0269501 2.93756119 1.04681474 5.87487555 1.0625 8.8125 C1.07087891 9.64587891 1.07925781 10.47925781 1.08789062 11.33789062 C1.09272461 12.54155273 1.09272461 12.54155273 1.09765625 13.76953125 C1.10551147 14.87711792 1.10551147 14.87711792 1.11352539 16.00708008 C1 18 1 18 0 21 C-8.91 21 -17.82 21 -27 21 C-26.67 19.02 -26.34 17.04 -26 15 C-25.67 15 -25.34 15 -25 15 C-25 16.65 -25 18.3 -25 20 C-17.41 20 -9.82 20 -2 20 C-1.71104956 14.16649479 -1.71104956 14.16649479 -1.43188477 8.33251953 C-1.39377686 7.60661621 -1.35566895 6.88071289 -1.31640625 6.1328125 C-1.27974854 5.38918457 -1.24309082 4.64555664 -1.20532227 3.87939453 C-1 2 -1 2 0 0 Z " fill="#0F7AD6" transform="translate(80,131)"/>
<path d="M0 0 C3.24946775 2.40178051 4.74181107 3.92030082 5.6875 7.875 C4.72747236 12.23876201 2.33982008 15.07549434 -1 18 C-1.66 18 -2.32 18 -3 18 C-3 17.34 -3 16.68 -3 16 C-2.34 16 -1.68 16 -1 16 C-1 15.01 -1 14.02 -1 13 C0.32 12.67 1.64 12.34 3 12 C2.87625 10.700625 2.7525 9.40125 2.625 8.0625 C2.55539062 7.33160156 2.48578125 6.60070312 2.4140625 5.84765625 C2.27742187 5.23792969 2.14078125 4.62820312 2 4 C-1.04300316 2.47849842 -3.654085 2.76100607 -7 3 C-7.99 4.485 -7.99 4.485 -9 6 C-10.32 5.67 -11.64 5.34 -13 5 C-5.51660517 -1.19926199 -5.51660517 -1.19926199 0 0 Z " fill="#1F84B1" transform="translate(588,230)"/>
<path d="M0 0 C0.33 0 0.66 0 1 0 C1.02505615 0.60062256 1.0501123 1.20124512 1.07592773 1.82006836 C1.1915528 4.52611437 1.31442936 7.23178283 1.4375 9.9375 C1.47681641 10.88302734 1.51613281 11.82855469 1.55664062 12.80273438 C1.59853516 13.70185547 1.64042969 14.60097656 1.68359375 15.52734375 C1.72025146 16.35999756 1.75690918 17.19265137 1.79467773 18.05053711 C1.79367103 20.00338858 1.79367103 20.00338858 3 21 C6.26326643 21.25134544 9.54069716 21.18522634 12.8125 21.1875 C13.72837891 21.19974609 14.64425781 21.21199219 15.58789062 21.22460938 C16.91530273 21.22750977 16.91530273 21.22750977 18.26953125 21.23046875 C19.08010986 21.23457764 19.89068848 21.23868652 20.72583008 21.24291992 C23.23043941 20.97538516 24.78562196 20.15362552 27 19 C27.99 19 28.98 19 30 19 C29 21 29 21 26 23 C23.38037109 23.24291992 23.38037109 23.24291992 20.2734375 23.23046875 C18.6028125 23.22756836 18.6028125 23.22756836 16.8984375 23.22460938 C15.73570313 23.21236328 14.57296875 23.20011719 13.375 23.1875 C11.61929688 23.1865332 11.61929688 23.1865332 9.828125 23.18554688 C1.14019224 23.14019224 1.14019224 23.14019224 0 22 C-0.08700342 20.36527118 -0.10701063 18.72685945 -0.09765625 17.08984375 C-0.09443359 16.10048828 -0.09121094 15.11113281 -0.08789062 14.09179688 C-0.07951172 13.05087891 -0.07113281 12.00996094 -0.0625 10.9375 C-0.05798828 9.89271484 -0.05347656 8.84792969 -0.04882812 7.77148438 C-0.03699913 5.1809334 -0.02051689 2.59049441 0 0 Z " fill="#248FB8" transform="translate(82,157)"/>
<path d="M0 0 C3.08428062 4.62642093 3.15534624 9.51849702 3 15 C1.5625 18.1875 1.5625 18.1875 -1 20 C-6.6266718 21.23977514 -12.25503414 21.11968679 -18 21 C-17.67 20.34 -17.34 19.68 -17 19 C-12.38 19 -7.76 19 -3 19 C-2.34 17.68 -1.68 16.36 -1 15 C-0.34 15 0.32 15 1 15 C0.67 10.05 0.34 5.1 0 0 Z " fill="#1D82B0" transform="translate(600,204)"/>
<path d="M0 0 C0.99386719 0.00902344 1.98773438 0.01804688 3.01171875 0.02734375 C4.15060547 0.04474609 4.15060547 0.04474609 5.3125 0.0625 C5.3125 0.3925 5.3125 0.7225 5.3125 1.0625 C4.61125 1.02125 3.91 0.98 3.1875 0.9375 C-0.31216745 1.08965945 -2.53144093 1.48654955 -5.6875 3.0625 C-8.96588364 7.16080184 -10.80349476 12.20339591 -12.78466797 17.01708984 C-14.18146131 20.18159352 -15.91692404 23.09338031 -17.6875 26.0625 C-18.6875 24.0625 -18.6875 24.0625 -17.91015625 21.6796875 C-17.52730469 20.77476562 -17.14445313 19.86984375 -16.75 18.9375 C-16.36972656 18.02742188 -15.98945313 17.11734375 -15.59765625 16.1796875 C-15.29730469 15.48101562 -14.99695313 14.78234375 -14.6875 14.0625 C-14.0275 14.0625 -13.3675 14.0625 -12.6875 14.0625 C-12.0275 11.0925 -11.3675 8.1225 -10.6875 5.0625 C-10.0275 5.0625 -9.3675 5.0625 -8.6875 5.0625 C-8.6875 3.7425 -8.6875 2.4225 -8.6875 1.0625 C-5.53819107 0.01273036 -3.29935544 -0.03881595 0 0 Z " fill="#2288AB" transform="translate(211.6875,191.9375)"/>
<path d="M0 0 C1.61648437 0.04060547 1.61648437 0.04060547 3.265625 0.08203125 C4.08546875 0.11683594 4.9053125 0.15164062 5.75 0.1875 C5.75 0.5175 5.75 0.8475 5.75 1.1875 C-0.685 1.6825 -0.685 1.6825 -7.25 2.1875 C-8.53162626 10.30446631 -7.9476874 18.04065786 -7.25 26.1875 C-9.4977975 24.13516315 -10.2522242 23.18082739 -11.25 20.1875 C-11.2642839 17.33072086 -11.20279539 14.53620988 -11.0625 11.6875 C-11.04380859 10.91535156 -11.02511719 10.14320313 -11.00585938 9.34765625 C-10.84300071 6.05048259 -10.72617223 3.76674951 -8.58984375 1.16796875 C-5.58348324 -0.09179167 -3.25050001 -0.10599457 0 0 Z " fill="#167DA3" transform="translate(91.25,126.8125)"/>
<path d="M0 0 C9.64194924 2.15405249 18.37825671 6.56738506 24 15 C23.67 15.66 23.34 16.32 23 17 C22.01 16.34 21.02 15.68 20 15 C20 14.34 20 13.68 20 13 C19.34 13 18.68 13 18 13 C17.34 12.01 16.68 11.02 16 10 C15.01 9.67 14.02 9.34 13 9 C12.67 8.34 12.34 7.68 12 7 C10.00967415 6.05766495 7.98212971 5.19285188 5.9375 4.375 C4.83277344 3.92898437 3.72804688 3.48296875 2.58984375 3.0234375 C1.73519531 2.68570313 0.88054687 2.34796875 0 2 C0 1.34 0 0.68 0 0 Z " fill="#177196" transform="translate(367,180)"/>
<path d="M0 0 C3.15353929 0.84094381 5.46501019 1.50067618 7.875 3.75 C9.48164399 6.96328797 9.76781637 8.4401241 9 12 C5.64248247 15.87344812 2.15868172 19.10536376 -3 20 C-3 19.34 -3 18.68 -3 18 C-1.2984375 17.195625 -1.2984375 17.195625 0.4375 16.375 C3.34622941 14.71202945 3.87210134 14.3757023 5 11.0625 C5 8.19895912 4.73128428 5.76262952 4 3 C2.68 2.67 1.36 2.34 0 2 C0 1.34 0 0.68 0 0 Z " fill="#2284AE" transform="translate(455,230)"/>
<path d="M0 0 C0.83789062 0.14695312 1.67578125 0.29390625 2.5390625 0.4453125 C6.14377312 1.02304264 9.74944662 1.44890404 13.375 1.875 C19.03318376 2.61084262 23.80609961 3.66804472 29 6 C29 6.33 29 6.66 29 7 C23.2376072 7.19358542 18.36472249 6.6233031 12.8125 5.125 C12.12736328 4.95097656 11.44222656 4.77695312 10.73632812 4.59765625 C7.039398 3.63695256 3.50792548 2.51215428 0 1 C0 0.67 0 0.34 0 0 Z " fill="#19769F" transform="translate(42,266)"/>
<path d="M0 0 C1.32 0 2.64 0 4 0 C4.1080023 2.10304477 4.18558987 4.20766909 4.25 6.3125 C4.29640625 7.48425781 4.3428125 8.65601563 4.390625 9.86328125 C4.26171875 10.89839844 4.1328125 11.93351563 4 13 C2.68 13.99 1.36 14.98 0 16 C0 10.72 0 5.44 0 0 Z " fill="#0C8ED7" transform="translate(108,134)"/>
<path d="M0 0 C0.91120605 0.01047363 1.82241211 0.02094727 2.76123047 0.03173828 C3.74736328 0.03818359 4.73349609 0.04462891 5.74951172 0.05126953 C7.29832031 0.07640625 7.29832031 0.07640625 8.87841797 0.10205078 C9.91869141 0.11107422 10.95896484 0.12009766 12.03076172 0.12939453 C14.60520889 0.15301331 17.17920009 0.18594929 19.75341797 0.22705078 C20.41341797 1.54705078 21.07341797 2.86705078 21.75341797 4.22705078 C18.35729383 4.08754548 14.96160339 3.93932756 11.56591797 3.78955078 C10.60621094 3.75023438 9.64650391 3.71091797 8.65771484 3.67041016 C7.72636719 3.62851563 6.79501953 3.58662109 5.83544922 3.54345703 C4.98184814 3.50679932 4.12824707 3.4701416 3.2487793 3.43237305 C0.68887203 3.22173984 -1.73991446 2.77863542 -4.24658203 2.22705078 C-2.24658203 0.22705078 -2.24658203 0.22705078 0 0 Z " fill="#1577AA" transform="translate(116.24658203125,99.77294921875)"/>
<path d="M0 0 C0.8971875 0.309375 0.8971875 0.309375 1.8125 0.625 C0.45125 1.49125 0.45125 1.49125 -0.9375 2.375 C-5.15528839 5.29500735 -8.1488361 7.86811756 -10.1875 12.625 C-10.5175 11.305 -10.8475 9.985 -11.1875 8.625 C-11.8475 8.625 -12.5075 8.625 -13.1875 8.625 C-11.85416667 5.95833333 -10.52083333 3.29166667 -9.1875 0.625 C-8.5275 0.625 -7.8675 0.625 -7.1875 0.625 C-7.1875 1.615 -7.1875 2.605 -7.1875 3.625 C-6.5275 3.625 -5.8675 3.625 -5.1875 3.625 C-5.1875 2.965 -5.1875 2.305 -5.1875 1.625 C-2.1875 -0.375 -2.1875 -0.375 0 0 Z " fill="#0B8BCE" transform="translate(277.1875,197.375)"/>
<path d="M0 0 C0.33 0.66 0.66 1.32 1 2 C-1.46721848 4.17115226 -3.14507644 5.03761241 -6.375 5.875 C-9.71977137 6.91303249 -10.75722134 7.45410468 -13.1875 9.6875 C-14.115625 10.450625 -15.04375 11.21375 -16 12 C-18.17578125 11.64453125 -18.17578125 11.64453125 -20 11 C-13.79018083 5.54149228 -7.91228265 2.38107945 0 0 Z " fill="#1780AF" transform="translate(355,180)"/>
<path d="M0 0 C7.77153025 0.63701068 7.77153025 0.63701068 11 4 C16.92979995 5.8725684 22.81644034 6.5184933 29 7 C29 7.33 29 7.66 29 8 C17.28976157 9.03325633 9.97829464 7.02695146 0 1 C0 0.67 0 0.34 0 0 Z " fill="#1677AD" transform="translate(262,246)"/>
<path d="M0 0 C1.32 0.33 2.64 0.66 4 1 C-1.64717889 6.80852686 -7.12653404 11.59667612 -15 14 C-15.99 13.67 -16.98 13.34 -18 13 C-17.484375 12.7525 -16.96875 12.505 -16.4375 12.25 C-14.36554929 11.18746118 -12.38020179 10.05551546 -10.375 8.875 C-7 7 -7 7 -5 7 C-5 6.34 -5 5.68 -5 5 C-4.01 5 -3.02 5 -2 5 C-2 4.34 -2 3.68 -2 3 C-1.34 3 -0.68 3 0 3 C0 2.01 0 1.02 0 0 Z " fill="#1C7CA7" transform="translate(386,240)"/>
<path d="M0 0 C0 0.66 0 1.32 0 2 C-0.99 2 -1.98 2 -3 2 C-3.226875 2.639375 -3.45375 3.27875 -3.6875 3.9375 C-5 6 -5 6 -7.625 6.75 C-8.800625 6.87375 -8.800625 6.87375 -10 7 C-10.04125 7.61875 -10.0825 8.2375 -10.125 8.875 C-10.558125 9.926875 -10.558125 9.926875 -11 11 C-13.8125 12.125 -13.8125 12.125 -17 13 C-18.34721283 13.63815344 -19.68747118 14.29325371 -21 15 C-19.60963998 11.65991919 -18.19107892 10.14070286 -15.15625 8.203125 C-14.40472656 7.71972656 -13.65320313 7.23632812 -12.87890625 6.73828125 C-12.09386719 6.24714844 -11.30882812 5.75601563 -10.5 5.25 C-9.71496094 4.74339844 -8.92992187 4.23679688 -8.12109375 3.71484375 C-2.28348214 0 -2.28348214 0 0 0 Z " fill="#198ABA" transform="translate(510,188)"/>
<path d="M0 0 C0.75410156 0.00322266 1.50820312 0.00644531 2.28515625 0.00976562 C3.06246094 0.01814453 3.83976562 0.02652344 4.640625 0.03515625 C5.43339844 0.03966797 6.22617188 0.04417969 7.04296875 0.04882812 C8.99222008 0.0605706 10.94143238 0.07850479 12.890625 0.09765625 C12.890625 0.42765625 12.890625 0.75765625 12.890625 1.09765625 C7.940625 1.42765625 2.990625 1.75765625 -2.109375 2.09765625 C-2.109375 2.75765625 -2.109375 3.41765625 -2.109375 4.09765625 C2.180625 4.09765625 6.470625 4.09765625 10.890625 4.09765625 C10.890625 4.42765625 10.890625 4.75765625 10.890625 5.09765625 C6.270625 5.09765625 1.650625 5.09765625 -3.109375 5.09765625 C-3.109375 4.43765625 -3.109375 3.77765625 -3.109375 3.09765625 C-4.058125 3.61328125 -5.006875 4.12890625 -5.984375 4.66015625 C-7.015625 5.13453125 -8.046875 5.60890625 -9.109375 6.09765625 C-9.769375 5.76765625 -10.429375 5.43765625 -11.109375 5.09765625 C-8.64487834 1.27768643 -8.64487834 1.27768643 -6.25683594 0.47485352 C-4.11848829 0.09925698 -2.1690895 -0.0164325 0 0 Z " fill="#0A8ED3" transform="translate(124.109375,150.90234375)"/>
<path d="M0 0 C0.33 0 0.66 0 1 0 C1 8.58 1 17.16 1 26 C-2.63 25.34 -6.26 24.68 -10 24 C-9.67 22.68 -9.34 21.36 -9 20 C-4.545 21.98 -4.545 21.98 0 24 C0 16.08 0 8.16 0 0 Z " fill="#0E8091" transform="translate(305,161)"/>
<path d="M0 0 C-0.33 1.32 -0.66 2.64 -1 4 C-5.24551856 5.09587955 -8.9592839 4.92865836 -13.3125 4.5625 C-14.56675781 4.46066406 -15.82101563 4.35882813 -17.11328125 4.25390625 C-18.06589844 4.17011719 -19.01851562 4.08632812 -20 4 C-20 3.67 -20 3.34 -20 3 C-19.15695313 2.86722656 -18.31390625 2.73445312 -17.4453125 2.59765625 C-16.34960938 2.42105469 -15.25390625 2.24445313 -14.125 2.0625 C-12.48917969 1.80146484 -12.48917969 1.80146484 -10.8203125 1.53515625 C-2.44931663 -0.05324601 -2.44931663 -0.05324601 0 0 Z " fill="#1282B5" transform="translate(182,179)"/>
<path d="M0 0 C0.66 0 1.32 0 2 0 C1.34 1.65 0.68 3.3 0 5 C-1.1446875 4.7525 -1.1446875 4.7525 -2.3125 4.5 C-5.47626434 4.071015 -8.32110578 3.96530538 -11.5 4 C-15.45754901 4.0431929 -19.11298581 3.8404355 -23 3 C-23 2.67 -23 2.34 -23 2 C-22.00818726 1.96241577 -22.00818726 1.96241577 -20.99633789 1.92407227 C-18.01817695 1.80846898 -15.0403608 1.68558246 -12.0625 1.5625 C-10.50112305 1.50352539 -10.50112305 1.50352539 -8.90820312 1.44335938 C-7.42416992 1.38051758 -7.42416992 1.38051758 -5.91015625 1.31640625 C-4.53549194 1.26141968 -4.53549194 1.26141968 -3.13305664 1.20532227 C-1.0179272 1.22996136 -1.0179272 1.22996136 0 0 Z " fill="#2580AD" transform="translate(107,150)"/>
<path d="M0 0 C0.33 0.66 0.66 1.32 1 2 C0.01 3.485 0.01 3.485 -1 5 C-1.38499891 6.65549531 -1.72793135 8.3222433 -2 10 C-2.66 10 -3.32 10 -4 10 C-4.33 17.59 -4.66 25.18 -5 33 C-5.33 33 -5.66 33 -6 33 C-7.17218319 8.96122779 -7.17218319 8.96122779 -1.3125 1.37890625 C-0.879375 0.92386719 -0.44625 0.46882812 0 0 Z " fill="#128FCC" transform="translate(186,137)"/>
<path d="M0 0 C0.33 0 0.66 0 1 0 C1.02887814 3.47914941 1.04675687 6.95826831 1.0625 10.4375 C1.07087891 11.43072266 1.07925781 12.42394531 1.08789062 13.44726562 C1.09272461 14.86362305 1.09272461 14.86362305 1.09765625 16.30859375 C1.10551147 17.62041626 1.10551147 17.62041626 1.11352539 18.95874023 C1 21 1 21 0 22 C-2.53049402 22.07313567 -5.03304837 22.09247527 -7.5625 22.0625 C-8.27341797 22.05798828 -8.98433594 22.05347656 -9.71679688 22.04882812 C-11.47790013 22.03700864 -13.23896036 22.01907263 -15 22 C-15 21.67 -15 21.34 -15 21 C-14.15695313 20.97421875 -13.31390625 20.9484375 -12.4453125 20.921875 C-11.34960938 20.86515625 -10.25390625 20.8084375 -9.125 20.75 C-8.03445312 20.70359375 -6.94390625 20.6571875 -5.8203125 20.609375 C-2.98531294 20.28974725 -2.98531294 20.28974725 -1.65625 18.46875 C-0.71425344 14.92504864 -0.529545 11.39468624 -0.375 7.75 C-0.31699219 6.63238281 -0.31699219 6.63238281 -0.2578125 5.4921875 C-0.16394892 3.6618476 -0.08090282 1.83095857 0 0 Z " fill="#188EC8" transform="translate(137,104)"/>
<path d="M0 0 C0.33 0 0.66 0 1 0 C1.05384521 2.29141286 1.09272087 4.58318188 1.125 6.875 C1.14820312 8.15117187 1.17140625 9.42734375 1.1953125 10.7421875 C1 14 1 14 -1 16 C-3.33837891 16.22705078 -3.33837891 16.22705078 -6.2265625 16.1953125 C-7.7734375 16.18564453 -7.7734375 16.18564453 -9.3515625 16.17578125 C-10.43179688 16.15902344 -11.51203125 16.14226562 -12.625 16.125 C-13.71296875 16.11597656 -14.8009375 16.10695312 -15.921875 16.09765625 C-18.61480152 16.07403409 -21.30729255 16.04109556 -24 16 C-24.33 15.34 -24.66 14.68 -25 14 C-17.74 14.33 -10.48 14.66 -3 15 C-3 14.34 -3 13.68 -3 13 C-2.01 13 -1.02 13 0 13 C0 8.71 0 4.42 0 0 Z " fill="#2090C1" transform="translate(79,164)"/>
<path d="M0 0 C1.11503906 -0.01417969 2.23007813 -0.02835938 3.37890625 -0.04296875 C6.32241377 0.17882811 7.9581192 0.6537999 10.4375 2.1875 C9.4375 3.1875 9.4375 3.1875 7.39624023 3.30102539 C6.52169189 3.29578857 5.64714355 3.29055176 4.74609375 3.28515625 C3.80185547 3.28193359 2.85761719 3.27871094 1.88476562 3.27539062 C0.89154297 3.26701172 -0.10167969 3.25863281 -1.125 3.25 C-2.12208984 3.24548828 -3.11917969 3.24097656 -4.14648438 3.23632812 C-6.61854849 3.22450007 -9.09049518 3.20801849 -11.5625 3.1875 C-11.5625 2.5275 -11.5625 1.8675 -11.5625 1.1875 C-7.6636916 0.27656346 -4.00078023 0.02317949 0 0 Z " fill="#177FB9" transform="translate(222.5625,159.8125)"/>
<path d="M0 0 C0.66 0 1.32 0 2 0 C2.26979937 13.48996832 2.26979937 13.48996832 -1.3125 17.75 C-3.56706445 19.63754233 -5.38297791 20.77239902 -8 22 C-7.59007812 21.50113281 -7.18015625 21.00226563 -6.7578125 20.48828125 C-1.87575147 13.98275973 -0.71835842 8.01341208 0 0 Z " fill="#1F87AC" transform="translate(305,212)"/>
<path d="M0 0 C0.33 0 0.66 0 1 0 C1.19389096 2.4788213 1.38040123 4.95780931 1.5625 7.4375 C1.61857422 8.14455078 1.67464844 8.85160156 1.73242188 9.58007812 C1.86190993 11.38427837 1.93521608 13.19231952 2 15 C1 16 1 16 -1.31665039 16.11352539 C-2.31688232 16.10828857 -3.31711426 16.10305176 -4.34765625 16.09765625 C-5.42724609 16.09443359 -6.50683594 16.09121094 -7.61914062 16.08789062 C-8.75544922 16.07951172 -9.89175781 16.07113281 -11.0625 16.0625 C-12.20267578 16.05798828 -13.34285156 16.05347656 -14.51757812 16.04882812 C-17.34510351 16.03699747 -20.1725264 16.0205141 -23 16 C-23.33 15.34 -23.66 14.68 -24 14 C-16.41 14 -8.82 14 -1 14 C-0.67 9.38 -0.34 4.76 0 0 Z " fill="#108DCB" transform="translate(165,163)"/>
<path d="M0 0 C13.67886064 -0.74050975 13.67886064 -0.74050975 18.4296875 2.58984375 C21.59553663 5.43280777 24.73764371 8.37576476 27 12 C26.67 12.99 26.34 13.98 26 15 C25.443125 14.278125 24.88625 13.55625 24.3125 12.8125 C19.99509662 7.561604 15.85592922 2.6337851 8.88671875 1.48828125 C7.83097656 1.43027344 6.77523438 1.37226563 5.6875 1.3125 C4.08455078 1.21388672 4.08455078 1.21388672 2.44921875 1.11328125 C1.64097656 1.07589844 0.83273437 1.03851563 0 1 C0 0.67 0 0.34 0 0 Z " fill="#2480A7" transform="translate(279,196)"/>
<path d="M0 0 C1.79281163 2.68921744 2.77177132 4.87531209 3.875 7.875 C5.41793585 11.87498841 7.28022431 14.67582971 10 18 C9.67 18.99 9.34 19.98 9 21 C3.61159373 14.60017767 0 8.536235 0 0 Z " fill="#1D83A7" transform="translate(530,221)"/>
<path d="M0 0 C0.66 0.33 1.32 0.66 2 1 C-3.29046704 6.44162325 -7.88581218 10.36511562 -15 13 C-15.99 13 -16.98 13 -18 13 C-18 12.34 -18 11.68 -18 11 C-17.36191406 10.89042969 -16.72382813 10.78085938 -16.06640625 10.66796875 C-15.24011719 10.50941406 -14.41382813 10.35085937 -13.5625 10.1875 C-12.73878906 10.03667969 -11.91507813 9.88585937 -11.06640625 9.73046875 C-10.38449219 9.48941406 -9.70257813 9.24835938 -9 9 C-8.67 8.01 -8.34 7.02 -8 6 C-7.34 6 -6.68 6 -6 6 C-6 5.34 -6 4.68 -6 4 C-4.36368108 2.95107762 -2.69514137 1.95093297 -1 1 C-0.67 0.67 -0.34 0.34 0 0 Z " fill="#1F81A1" transform="translate(235,179)"/>
<path d="M0 0 C2.875 2.5625 2.875 2.5625 5 5 C4.01 5.33 3.02 5.66 2 6 C1.67 5.01 1.34 4.02 1 3 C-4.57830016 2.87530901 -4.57830016 2.87530901 -10 4 C-7.61180667 -1.28814237 -5.58899654 -1.53423434 0 0 Z " fill="#1A74B1" transform="translate(618,181)"/>
<path d="M0 0 C3.59433961 1.17632933 5.17357789 2.13662282 7.4375 5.125 C7.4375 5.785 7.4375 6.445 7.4375 7.125 C6.7775 7.125 6.1175 7.125 5.4375 7.125 C5.1075 6.135 4.7775 5.145 4.4375 4.125 C1.4675 4.125 -1.5025 4.125 -4.5625 4.125 C-5.2225 5.775 -5.8825 7.425 -6.5625 9.125 C-7.2225 8.135 -7.8825 7.145 -8.5625 6.125 C-4.54489824 0.15947011 -4.54489824 0.15947011 0 0 Z " fill="#217EAF" transform="translate(476.5625,149.875)"/>
<path d="M0 0 C-9.5161406 3.46792109 -18.34405159 4.4332261 -28 1 C-28 0.67 -28 0.34 -28 0 C-27.07719238 0.00785522 -27.07719238 0.00785522 -26.13574219 0.01586914 C-23.34050524 0.03669371 -20.54528464 0.04967759 -17.75 0.0625 C-16.78191406 0.07087891 -15.81382812 0.07925781 -14.81640625 0.08789062 C-13.88183594 0.09111328 -12.94726562 0.09433594 -11.984375 0.09765625 C-10.69611816 0.10551147 -10.69611816 0.10551147 -9.38183594 0.11352539 C-7.0178517 0.08532467 -7.0178517 0.08532467 -4.87597656 -0.56860352 C-3 -1 -3 -1 0 0 Z " fill="#2078A3" transform="translate(452,251)"/>
<path d="M0 0 C1.27875 -0.061875 2.5575 -0.12375 3.875 -0.1875 C4.95394531 -0.23970703 4.95394531 -0.23970703 6.0546875 -0.29296875 C6.69664062 -0.19628906 7.33859375 -0.09960938 8 0 C8.66 0.99 9.32 1.98 10 3 C10.639375 3.268125 11.27875 3.53625 11.9375 3.8125 C15.00498216 5.57862609 15.76678399 7.7546947 17 11 C16.57421875 13.1953125 16.57421875 13.1953125 16 15 C15.68546875 14.46890625 15.3709375 13.9378125 15.046875 13.390625 C10.63783195 5.90092291 10.63783195 5.90092291 3.25 1.75 C2.1775 1.5025 1.105 1.255 0 1 C0 0.67 0 0.34 0 0 Z " fill="#1D89AA" transform="translate(364,196)"/>
<path d="M0 0 C0 0.66 0 1.32 0 2 C-0.99 2 -1.98 2 -3 2 C-3.33 2.99 -3.66 3.98 -4 5 C-6 6 -8 7 -10 8 C-10.33 8.99 -10.66 9.98 -11 11 C-11.66 11 -12.32 11 -13 11 C-13 11.66 -13 12.32 -13 13 C-13.99 13 -14.98 13 -16 13 C-14.57646476 9.66863403 -12.8664687 7.72335243 -10.125 5.375 C-9.44695312 4.78460938 -8.76890625 4.19421875 -8.0703125 3.5859375 C-5.49216326 1.61097789 -3.3091516 0 0 0 Z " fill="#1879A8" transform="translate(272,183)"/>
<path d="M0 0 C4.29 0 8.58 0 13 0 C13.33 1.65 13.66 3.3 14 5 C9.71 4.34 5.42 3.68 1 3 C0.67 2.01 0.34 1.02 0 0 Z " fill="#1482B7" transform="translate(66,152)"/>
<path d="M0 0 C0 1.65 0 3.3 0 5 C-2.64 5.33 -5.28 5.66 -8 6 C-8 4.35 -8 2.7 -8 1 C-5.10765685 0.17361624 -3.11257569 0 0 0 Z " fill="#0591DF" transform="translate(641,245)"/>
<path d="M0 0 C0.92683594 0.05671875 1.85367187 0.1134375 2.80859375 0.171875 C5.08160878 0.31247387 7.35336963 0.46378752 9.625 0.625 C9.625 0.955 9.625 1.285 9.625 1.625 C9.03485107 1.64481934 8.44470215 1.66463867 7.83666992 1.68505859 C5.16149904 1.78034659 2.48710502 1.89000939 -0.1875 2 C-1.5806543 2.04640625 -1.5806543 2.04640625 -3.00195312 2.09375 C-3.89462891 2.13242188 -4.78730469 2.17109375 -5.70703125 2.2109375 C-6.52921143 2.2423584 -7.3513916 2.2737793 -8.19848633 2.30615234 C-10.66452937 2.50873622 -10.66452937 2.50873622 -13.375 4.625 C-16.0625 4.25 -16.0625 4.25 -18.375 3.625 C-13.26323971 -1.48676029 -6.65077571 -0.47437773 0 0 Z " fill="#1D779F" transform="translate(439.375,180.375)"/>
<path d="M0 0 C1.32 0.33 2.64 0.66 4 1 C2.43902526 2.1063219 0.87614673 3.20995785 -0.6875 4.3125 C-1.55761719 4.92738281 -2.42773438 5.54226562 -3.32421875 6.17578125 C-8.58579272 9.76286891 -8.58579272 9.76286891 -11 11 C-11.99 10.67 -12.98 10.34 -14 10 C-12.90241493 9.15801693 -11.79664683 8.32669329 -10.6875 7.5 C-10.07261719 7.0359375 -9.45773438 6.571875 -8.82421875 6.09375 C-7 5 -7 5 -4 5 C-4 4.34 -4 3.68 -4 3 C-3.01 3 -2.02 3 -1 3 C-0.67 2.01 -0.34 1.02 0 0 Z " fill="#1D79B0" transform="translate(166,247)"/>
<path d="M0 0 C3.65316671 1.24976756 4.78065836 1.67098753 7 5 C7.4375 7.4375 7.4375 7.4375 7 10 C4.5 12.3125 4.5 12.3125 2 14 C0.68 13.34 -0.64 12.68 -2 12 C-1.01 12 -0.02 12 1 12 C1 11.34 1 10.68 1 10 C2.32 10 3.64 10 5 10 C4.67 7.69 4.34 5.38 4 3 C2.68 2.67 1.36 2.34 0 2 C0 1.34 0 0.68 0 0 Z " fill="#1D687E" transform="translate(636,240)"/>
<path d="M0 0 C0.7425 0.763125 1.485 1.52625 2.25 2.3125 C7.26194646 7.21053858 10.67996857 8.98540918 17.6875 9.5625 C18.68136719 9.64628906 19.67523438 9.73007813 20.69921875 9.81640625 C21.45847656 9.87699219 22.21773438 9.93757812 23 10 C23 10.33 23 10.66 23 11 C7.95162883 11.43830207 7.95162883 11.43830207 2.125 6.625 C0 4 0 4 0 0 Z " fill="#2485A9" transform="translate(344,227)"/>
<path d="M0 0 C0.33 1.32 0.66 2.64 1 4 C1.66 4 2.32 4 3 4 C3.33 3.34 3.66 2.68 4 2 C4.33 2.99 4.66 3.98 5 5 C3.25 7.6875 3.25 7.6875 1 10 C0.01 10 -0.98 10 -2 10 C-1.85950482 8.52031676 -1.71245174 7.04125484 -1.5625 5.5625 C-1.48128906 4.73878906 -1.40007812 3.91507813 -1.31640625 3.06640625 C-1 1 -1 1 0 0 Z " fill="#0A87DC" transform="translate(329,200)"/>
<path d="M0 0 C4.40114397 0.50298788 6.71195019 2.08772731 10 5 C9.67 5.66 9.34 6.32 9 7 C7.824375 6.690625 7.824375 6.690625 6.625 6.375 C5.325625 6.189375 5.325625 6.189375 4 6 C3.34 6.66 2.68 7.32 2 8 C1.87625 7.360625 1.7525 6.72125 1.625 6.0625 C1.315625 5.0415625 1.315625 5.0415625 1 4 C0.34 3.67 -0.32 3.34 -1 3 C-0.67 2.01 -0.34 1.02 0 0 Z " fill="#1489C3" transform="translate(188,134)"/>
<path d="M0 0 C-1.40398279 4.10110762 -3.37087038 6.98089159 -6.125 10.3125 C-6.84945312 11.19550781 -7.57390625 12.07851562 -8.3203125 12.98828125 C-9.15175781 13.98408203 -9.15175781 13.98408203 -10 15 C-10.33 14.01 -10.66 13.02 -11 12 C-9.8203125 10.31640625 -9.8203125 10.31640625 -8.125 8.5625 C-5.68553172 6.02658763 -4.79342251 4.39729093 -4 1 C-2 0 -2 0 0 0 Z " fill="#257B9F" transform="translate(193,219)"/>
<path d="M0 0 C0.99 0.33 1.98 0.66 3 1 C-1.9000081 4.33455096 -6.20644472 6.67231025 -12 8 C-12 7.34 -12 6.68 -12 6 C-10.75539217 5.32332002 -9.50403104 4.65905281 -8.25 4 C-7.55390625 3.62875 -6.8578125 3.2575 -6.140625 2.875 C-4 2 -4 2 0 2 C0 1.34 0 0.68 0 0 Z " fill="#197099" transform="translate(305,246)"/>
<path d="M0 0 C0.66 0.33 1.32 0.66 2 1 C2 5.62 2 10.24 2 15 C1.01 15.33 0.02 15.66 -1 16 C-0.67 10.72 -0.34 5.44 0 0 Z " fill="#1191DC" transform="translate(108,161)"/>
<path d="M0 0 C1.32 0.33 2.64 0.66 4 1 C1.03 4.3 -1.94 7.6 -5 11 C-6 9 -6 9 -5.25 6.4375 C-4 4 -4 4 -1 3 C-0.67 2.01 -0.34 1.02 0 0 Z " fill="#147EBB" transform="translate(176,236)"/>
<path d="M0 0 C0.33 0 0.66 0 1 0 C1.55353075 14.78132118 1.55353075 14.78132118 -2 21 C-2.33 21 -2.66 21 -3 21 C-3 19.35 -3 17.7 -3 16 C-2.34 16 -1.68 16 -1 16 C-0.67 10.72 -0.34 5.44 0 0 Z " fill="#1F86B2" transform="translate(320,213)"/>
<path d="M0 0 C0.99386719 0.00902344 1.98773438 0.01804688 3.01171875 0.02734375 C4.15060547 0.04474609 4.15060547 0.04474609 5.3125 0.0625 C5.3125 0.3925 5.3125 0.7225 5.3125 1.0625 C4.20841797 1.19205078 4.20841797 1.19205078 3.08203125 1.32421875 C-3.19712258 2.22835054 -6.78058626 2.94309578 -10.6875 8.0625 C-10.6875 7.0725 -10.6875 6.0825 -10.6875 5.0625 C-10.0275 5.0625 -9.3675 5.0625 -8.6875 5.0625 C-8.6875 3.7425 -8.6875 2.4225 -8.6875 1.0625 C-5.53819107 0.01273036 -3.29935544 -0.03881595 0 0 Z " fill="#1678AA" transform="translate(211.6875,191.9375)"/>
<path d="M0 0 C3.49355371 3.02774655 4.90106142 5.51266745 6 10 C6.125 12.875 6.125 12.875 6 15 C4 14 4 14 2.9296875 11.34765625 C2.40761719 9.72150391 2.40761719 9.72150391 1.875 8.0625 C1.52179688 6.98097656 1.16859375 5.89945313 0.8046875 4.78515625 C0 2 0 2 0 0 Z " fill="#1C81BF" transform="translate(391,197)"/>
<path d="M0 0 C3.21043882 1.38188453 5.04936365 2.92421903 7.25 5.625 C8.03117188 6.57246094 8.03117188 6.57246094 8.828125 7.5390625 C9.40820312 8.26222656 9.40820312 8.26222656 10 9 C9.67 9.66 9.34 10.32 9 11 C8.34 10.67 7.68 10.34 7 10 C7 9.34 7 8.68 7 8 C6.34 8 5.68 8 5 8 C5 7.34 5 6.68 5 6 C4.01 5.67 3.02 5.34 2 5 C0.8125 2.4375 0.8125 2.4375 0 0 Z " fill="#1982AF" transform="translate(588,189)"/>
<path d="M0 0 C0.9075 0.639375 1.815 1.27875 2.75 1.9375 C7.798784 4.88349149 13.2826243 4.81223725 19 5 C19 5.33 19 5.66 19 6 C5.18223235 6.55353075 5.18223235 6.55353075 0 3 C0 2.01 0 1.02 0 0 Z " fill="#1F83B6" transform="translate(424,232)"/>
<path d="M0 0 C0.99 0.33 1.98 0.66 3 1 C2.2575 1.495 1.515 1.99 0.75 2.5 C-2.65862674 5.59875158 -4.18726063 8.82766134 -6 13 C-6.33 13 -6.66 13 -7 13 C-7.3125 10.3125 -7.3125 10.3125 -7 7 C-4.625 4.125 -4.625 4.125 -2 2 C-1.34 2 -0.68 2 0 2 C0 1.34 0 0.68 0 0 Z " fill="#1A749A" transform="translate(349,198)"/>
<path d="M0 0 C2.125 -0.4375 2.125 -0.4375 5 0 C7.276147 2.12689146 9.1458722 4.5023433 11 7 C10.67 7.66 10.34 8.32 10 9 C9.01 8.34 8.02 7.68 7 7 C7 6.34 7 5.68 7 5 C6.34 5 5.68 5 5 5 C4.34 4.01 3.68 3.02 3 2 C2.01 1.34 1.02 0.68 0 0 Z " fill="#157FB5" transform="translate(380,188)"/>
<path d="M0 0 C-0.66 1.32 -1.32 2.64 -2 4 C-2.33 3.34 -2.66 2.68 -3 2 C-7.95 2 -12.9 2 -18 2 C-15.36589914 -0.63410086 -13.79508236 -0.41381415 -10.125 -0.6875 C-8.55105469 -0.81705078 -8.55105469 -0.81705078 -6.9453125 -0.94921875 C-4.35471258 -0.99388427 -2.44574373 -0.78570994 0 0 Z " fill="#0E85D0" transform="translate(375,195)"/>
<path d="M0 0 C0.33 0.99 0.66 1.98 1 3 C0.01 3.33 -0.98 3.66 -2 4 C-2 9.94 -2 15.88 -2 22 C-2.33 22 -2.66 22 -3 22 C-3.08710289 18.89601022 -3.14042309 15.79233452 -3.1875 12.6875 C-3.21263672 11.80642578 -3.23777344 10.92535156 -3.26367188 10.01757812 C-3.27333984 9.17001953 -3.28300781 8.32246094 -3.29296875 7.44921875 C-3.3086792 6.66893311 -3.32438965 5.88864746 -3.34057617 5.0847168 C-2.91847304 2.50096147 -1.98510058 1.63707833 0 0 Z " fill="#176790" transform="translate(7,183)"/>
<path d="M0 0 C0 3.56172735 -0.74670717 4.36534757 -2.875 7.125 C-3.40867187 7.82882813 -3.94234375 8.53265625 -4.4921875 9.2578125 C-6 11 -6 11 -8 12 C-7.34 10.35 -6.68 8.7 -6 7 C-5.34 7 -4.68 7 -4 7 C-3.8453125 5.824375 -3.8453125 5.824375 -3.6875 4.625 C-3 2 -3 2 0 0 Z " fill="#167FA3" transform="translate(316,234)"/>
<path d="M0 0 C0.99 0.33 1.98 0.66 3 1 C2.855625 1.804375 2.71125 2.60875 2.5625 3.4375 C1.90311661 7.61359481 1.43908647 11.79598059 1 16 C0.67 16 0.34 16 0 16 C0 10.72 0 5.44 0 0 Z " fill="#1493D1" transform="translate(395,211)"/>
<path d="M0 0 C0.33 0.66 0.66 1.32 1 2 C-0.90401138 3.90401138 -2.33425686 4.93520439 -5.046875 5.19921875 C-7.03233273 5.1886578 -9.0169914 5.09915043 -11 5 C-7.63576723 2.03947516 -4.30840713 1.07710178 0 0 Z " fill="#147B8D" transform="translate(355,180)"/>
<path d="M0 0 C0.33 0 0.66 0 1 0 C1.16789217 3.27077164 1.33410238 6.54162664 1.5 9.8125 C1.54769531 10.74126953 1.59539062 11.67003906 1.64453125 12.62695312 C1.68964844 13.51962891 1.73476562 14.41230469 1.78125 15.33203125 C1.82314453 16.15421143 1.86503906 16.9763916 1.90820312 17.82348633 C1.98092498 19.54772929 2 21.27422415 2 23 C1.34 22.67 0.68 22.34 0 22 C0 14.74 0 7.48 0 0 Z " fill="#1481CA" transform="translate(82,157)"/>
<path d="M0 0 C3.34373475 0.55728913 6.03312999 1.35173889 9 3 C8.67 3.99 8.34 4.98 8 6 C7.01 6.33 6.02 6.66 5 7 C5 5.68 5 4.36 5 3 C3.35 2.67 1.7 2.34 0 2 C0 1.34 0 0.68 0 0 Z " fill="#1579BA" transform="translate(103,127)"/>
<path d="M0 0 C0.99 0 1.98 0 3 0 C2.67 1.65 2.34 3.3 2 5 C-0.31 5 -2.62 5 -5 5 C-4 3 -4 3 -1 2 C-0.67 1.34 -0.34 0.68 0 0 Z " fill="#037DEA" transform="translate(19,181)"/>
<path d="M0 0 C0.66 0.99 1.32 1.98 2 3 C1.31292969 2.90460938 0.62585938 2.80921875 -0.08203125 2.7109375 C-0.98308594 2.60007813 -1.88414062 2.48921875 -2.8125 2.375 C-3.70582031 2.25898438 -4.59914063 2.14296875 -5.51953125 2.0234375 C-8.25690391 1.76499257 -8.25690391 1.76499257 -11 4 C-10.1875 2.0625 -10.1875 2.0625 -9 0 C-5.46474216 -1.17841928 -3.5797952 -0.91399027 0 0 Z " fill="#2487A6" transform="translate(318,151)"/>
<path d="M0 0 C0.66 0 1.32 0 2 0 C3.47265625 1.64453125 3.47265625 1.64453125 5.0625 3.8125 C5.85333984 4.87404297 5.85333984 4.87404297 6.66015625 5.95703125 C8 8 8 8 9 11 C5.55984676 9.59600584 4.12265041 8.12216166 2.25 4.9375 C1.82203125 4.22464844 1.3940625 3.51179687 0.953125 2.77734375 C0 1 0 1 0 0 Z " fill="#1C6D94" transform="translate(18,244)"/>
<path d="M0 0 C3.72940389 1.24313463 4.84656811 2.76985216 7 6 C6.67 6.99 6.34 7.98 6 9 C4.99105628 8.07213211 3.99309093 7.13231567 3 6.1875 C2.1646875 5.40439453 2.1646875 5.40439453 1.3125 4.60546875 C0 3 0 3 0 0 Z " fill="#247696" transform="translate(491,220)"/>
<path d="M0 0 C-1.28716647 1.00578589 -2.57988658 2.00446798 -3.875 3 C-4.95394531 3.8353125 -4.95394531 3.8353125 -6.0546875 4.6875 C-8 6 -8 6 -10 6 C-9.375 3.625 -9.375 3.625 -8 1 C-2.7826087 -1.39130435 -2.7826087 -1.39130435 0 0 Z " fill="#1E81AC" transform="translate(516,203)"/>
<path d="M0 0 C4 0 4 0 6.75 2.6875 C8.54982067 5.00470031 8.98492666 5.8613253 9.3125 8.875 C9.1578125 9.926875 9.1578125 9.926875 9 11 C8.608125 10.443125 8.21625 9.88625 7.8125 9.3125 C5.96458999 6.85930004 5.96458999 6.85930004 3.375 4.375 C1 2 1 2 0 0 Z " fill="#1987B2" transform="translate(576,199)"/>
<path d="M0 0 C0.33 0.66 0.66 1.32 1 2 C-0.27514492 4.55028983 -1.40341297 4.93081711 -4 6 C-4.99 6 -5.98 6 -7 6 C-7 5.01 -7 4.02 -7 3 C-4.69 2.01 -2.38 1.02 0 0 Z " fill="#137EB2" transform="translate(632,181)"/>
<path d="M0 0 C0.66 0 1.32 0 2 0 C2 1.32 2 2.64 2 4 C3.32 4 4.64 4 6 4 C5.67 5.32 5.34 6.64 5 8 C4.34 8 3.68 8 3 8 C0.8125 5.6875 0.8125 5.6875 -1 3 C-0.67 2.01 -0.34 1.02 0 0 Z " fill="#1F81B4" transform="translate(110,147)"/>
<path d="M0 0 C0.33 0.66 0.66 1.32 1 2 C0.01 3.485 0.01 3.485 -1 5 C-1.38499891 6.65549531 -1.72793135 8.3222433 -2 10 C-2.66 10 -3.32 10 -4 10 C-4 10.66 -4 11.32 -4 12 C-4.66 12 -5.32 12 -6 12 C-4.68139111 7.38486888 -2.78644563 3.90102388 0 0 Z " fill="#1E739F" transform="translate(186,137)"/>
<path d="M0 0 C0.99 0.33 1.98 0.66 3 1 C2.67 1.66 2.34 2.32 2 3 C4.31 3 6.62 3 9 3 C8.67 3.66 8.34 4.32 8 5 C5.03 5 2.06 5 -1 5 C-0.67 3.35 -0.34 1.7 0 0 Z " fill="#0783DC" transform="translate(113,266)"/>
<path d="M0 0 C3.31529273 0.98562757 4.74949379 1.65447419 6.8125 4.5 C8 7 8 7 8 9 C4.46766245 7.82255415 4.13691925 7.04394359 2.3125 3.9375 C1.87550781 3.20402344 1.43851562 2.47054687 0.98828125 1.71484375 C0.49908203 0.86599609 0.49908203 0.86599609 0 0 Z " fill="#177FBA" transform="translate(328,233)"/>
<path d="M0 0 C0.66 0 1.32 0 2 0 C1.875 1.75 1.875 1.75 1 4 C-2.0625 6.25 -2.0625 6.25 -5 8 C-5.66 7.67 -6.32 7.34 -7 7 C-5.75 5 -5.75 5 -4 3 C-2.68 3 -1.36 3 0 3 C0 2.01 0 1.02 0 0 Z " fill="#1680B5" transform="translate(528,191)"/>
<path d="M0 0 C1 3 1 3 0.5 5.125 C-1 7 -1 7 -4.625 7.75 C-5.73875 7.8325 -6.8525 7.915 -8 8 C-8.33 7.34 -8.66 6.68 -9 6 C-7.88625 5.7525 -6.7725 5.505 -5.625 5.25 C-1.95384802 4.38994661 -1.95384802 4.38994661 -0.5625 1.875 C-0.376875 1.25625 -0.19125 0.6375 0 0 Z " fill="#1C7094" transform="translate(620,246)"/>
<path d="M0 0 C1.13199353 0.9080162 2.25532363 1.82683826 3.375 2.75 C4.00148438 3.26046875 4.62796875 3.7709375 5.2734375 4.296875 C7.08312318 6.08199481 8.00117455 7.67949644 9 10 C7.1875 9.8125 7.1875 9.8125 5 9 C3.00074102 6.15490068 1.54902322 3.1046662 0 0 Z " fill="#2282A3" transform="translate(517,227)"/>
<path d="M0 0 C0.8971875 0.309375 0.8971875 0.309375 1.8125 0.625 C0.905 1.223125 -0.0025 1.82125 -0.9375 2.4375 C-3.41651481 4.10606766 -5.82067911 5.80436855 -8.1875 7.625 C-7.8575 6.305 -7.5275 4.985 -7.1875 3.625 C-6.5275 3.625 -5.8675 3.625 -5.1875 3.625 C-5.1875 2.965 -5.1875 2.305 -5.1875 1.625 C-2.1875 -0.375 -2.1875 -0.375 0 0 Z " fill="#1F819E" transform="translate(277.1875,197.375)"/>
<path d="M0 0 C1.98 0.99 1.98 0.99 4 2 C4.83886169 4.67790463 4.81766414 7.1737941 5 10 C4.34 10 3.68 10 3 10 C2.01 6.7 1.02 3.4 0 0 Z " fill="#14719C" transform="translate(179,169)"/>
<path d="M0 0 C0.99 0.33 1.98 0.66 3 1 C3 2.32 3 3.64 3 5 C2.38125 5.12375 1.7625 5.2475 1.125 5.375 C-1.19120832 5.87197356 -1.19120832 5.87197356 -3 8 C-2.37240135 5.07120629 -1.41377341 2.63904371 0 0 Z " fill="#0692D8" transform="translate(187,137)"/>
<path d="M0 0 C-0.33 1.32 -0.66 2.64 -1 4 C-1 3.34 -1 2.68 -1 2 C-1.66 2 -2.32 2 -3 2 C-3 1.34 -3 0.68 -3 0 C-5.97 0 -8.94 0 -12 0 C-12 -0.33 -12 -0.66 -12 -1 C-10.56465159 -1.2226746 -9.12654475 -1.42761906 -7.6875 -1.625 C-6.48673828 -1.79902344 -6.48673828 -1.79902344 -5.26171875 -1.9765625 C-3 -2 -3 -2 0 0 Z " fill="#198BBB" transform="translate(80,129)"/>
<path d="M0 0 C0.33 0 0.66 0 1 0 C1.66 3.96 2.32 7.92 3 12 C0 9 0 9 -1 6 C-0.72428861 3.99124558 -0.39764263 1.98821313 0 0 Z " fill="#1E7895" transform="translate(81,141)"/>
<path d="M0 0 C2.475 0.495 2.475 0.495 5 1 C5.33 2.98 5.66 4.96 6 7 C1.125 2.25 1.125 2.25 0 0 Z " fill="#168FC1" transform="translate(504,235)"/>
<path d="M0 0 C0 0.99 0 1.98 0 3 C-1.75 4.0625 -1.75 4.0625 -4 5 C-5.32 4.67 -6.64 4.34 -8 4 C-5.36 2.68 -2.72 1.36 0 0 Z " fill="#1B72B0" transform="translate(556,181)"/>
</svg>
