<?xml version="1.0" encoding="UTF-8"?>
<svg version="1.1" xmlns="http://www.w3.org/2000/svg" width="320" height="180">
<path d="M0 0 C105.6 0 211.2 0 320 0 C320 59.4 320 118.8 320 180 C214.4 180 108.8 180 0 180 C0 120.6 0 61.2 0 0 Z " fill="#FCFCFC" transform="translate(0,0)"/>
<path d="M0 0 C45.21 0 90.42 0 137 0 C137 59.4 137 118.8 137 180 C93.77 180 50.54 180 6 180 C6 178.68 6 177.36 6 176 C7.28970703 175.50693359 7.28970703 175.50693359 8.60546875 175.00390625 C17.68873814 171.34880657 25.18930447 166.92535523 33 161 C33.67675781 160.49726563 34.35351562 159.99453125 35.05078125 159.4765625 C50.83989748 146.91786316 61.68792007 125.540458 64.64453125 105.75390625 C67.0010591 80.86793635 62.6143821 57.46940097 46.72460938 37.38818359 C36.1609501 24.75587215 23.20661598 14.71160909 7.64453125 9.01953125 C6 8 6 8 5.26171875 5.88671875 C5.17535156 5.26410156 5.08898437 4.64148438 5 4 C3.35 3.67 1.7 3.34 0 3 C0 2.01 0 1.02 0 0 Z " fill="#FCFCFC" transform="translate(183,0)"/>
<path d="M0 0 C19.75835198 15.12519732 32.87841995 35.53648354 36.64501953 60.25927734 C36.9265662 63.82741652 36.979456 67.36858877 36.95751953 70.94677734 C36.95014771 72.38525024 36.95014771 72.38525024 36.94262695 73.8527832 C36.59918979 94.87642121 29.13740203 114.16664982 15.64501953 130.25927734 C15.07396484 130.98759766 14.50291016 131.71591797 13.91455078 132.46630859 C4.91700885 143.42067201 -11.68862794 155.90272472 -26.04248047 157.57177734 C-27.18716797 157.41708984 -27.18716797 157.41708984 -28.35498047 157.25927734 C-30.77195543 153.63381489 -30.63432952 150.96254626 -30.62841797 146.77490234 C-30.64871785 145.26708257 -30.66956883 143.75927013 -30.69091797 142.25146484 C-30.71344765 139.88388889 -30.72996228 137.51660375 -30.73583984 135.14892578 C-30.74542525 132.85705424 -30.77928201 130.56647977 -30.81591797 128.27490234 C-30.80834976 127.22764984 -30.80834976 127.22764984 -30.80062866 126.15924072 C-30.90859398 120.70129453 -32.53080889 117.74625269 -35.35498047 113.25927734 C-35.35498047 112.59927734 -35.35498047 111.93927734 -35.35498047 111.25927734 C-34.32759766 111.04013672 -33.30021484 110.82099609 -32.24169922 110.59521484 C-21.52067926 108.19186982 -10.57348972 105.39305888 -3.56201172 96.23974609 C-1.25259464 92.45050836 0.25597059 88.45981476 1.64501953 84.25927734 C2.05751953 83.02177734 2.47001953 81.78427734 2.89501953 80.50927734 C4.94169832 71.4006348 4.73629867 60.76299405 0.64501953 52.25927734 C-0.21961228 51.20746433 -1.08563879 50.1567971 -1.95263672 49.10693359 C-5.23232961 44.647055 -4.88941058 40.48314352 -4.60498047 35.13427734 C-4.54340066 33.38181861 -4.48597856 31.62920788 -4.43310547 29.87646484 C-4.40667969 29.07047852 -4.38025391 28.26449219 -4.35302734 27.43408203 C-4.35526743 24.9397456 -4.69623609 22.66469241 -5.35498047 20.25927734 C-11.75385689 20.98173113 -16.46192237 22.77775963 -22.04248047 26.00927734 C-28.57349347 29.60970759 -33.28179693 29.37142195 -40.50341797 27.95849609 C-44.48765823 27.23519081 -48.32033377 26.99754303 -52.35498047 27.00927734 C-53.01981445 27.00734375 -53.68464844 27.00541016 -54.36962891 27.00341797 C-59.0513947 27.0625944 -63.39681377 27.80007082 -67.97998047 28.69677734 C-75.46253223 29.85582382 -79.82294053 27.6564569 -86.10107422 24.02099609 C-90.40345779 21.69161435 -94.53082598 20.80393995 -99.35498047 20.25927734 C-100.25178703 23.53398009 -100.38715746 26.51225423 -100.27685547 29.87646484 C-100.25107422 30.73111328 -100.22529297 31.58576172 -100.19873047 32.46630859 C-100.13648288 34.23777111 -100.05847952 36.00875355 -99.96435547 37.77880859 C-99.80836585 44.26212722 -101.23688959 47.36997136 -105.35498047 52.25927734 C-110.45298849 61.7245209 -109.32460434 73.59232303 -106.72998047 83.63427734 C-103.65512173 93.15988868 -99.09457791 100.16507349 -90.35498047 105.25927734 C-83.62188573 108.65383259 -76.78283153 110.18605172 -69.35498047 111.25927734 C-69.66048828 111.99791016 -69.96599609 112.73654297 -70.28076172 113.49755859 C-71.35813084 116.13323631 -71.35813084 116.13323631 -71.96044922 118.42724609 C-72.5740059 120.55616425 -73.22294539 122.35111216 -74.35498047 124.25927734 C-79.25397566 126.56468685 -84.04304714 126.76517576 -89.35498047 126.25927734 C-94.93755824 123.52495354 -98.4258054 118.92817486 -102.35498047 114.25927734 C-107.02991274 109.18363659 -110.4751735 108.05310122 -117.35498047 107.25927734 C-115.75039459 110.37930545 -114.47164166 112.17443284 -111.60498047 114.25927734 C-107.3660661 117.51676819 -105.6248297 122.34391596 -103.45654297 127.10302734 C-100.71802813 131.21588977 -97.91780058 133.38437308 -93.35498047 135.25927734 C-90.00757023 135.92256422 -86.76119162 136.04823211 -83.35498047 136.07177734 C-82.48486328 136.09691406 -81.61474609 136.12205078 -80.71826172 136.14794922 C-78.59764348 136.20620796 -76.4762684 136.235755 -74.35498047 136.25927734 C-74.29706203 139.38419986 -74.26141301 142.508985 -74.22998047 145.63427734 C-74.21322266 146.52373047 -74.19646484 147.41318359 -74.17919922 148.32958984 C-74.17275391 149.18037109 -74.16630859 150.03115234 -74.15966797 150.90771484 C-74.14919434 151.6932373 -74.1387207 152.47875977 -74.12792969 153.28808594 C-74.35498047 155.25927734 -74.35498047 155.25927734 -76.35498047 157.25927734 C-82.39038946 157.00617955 -86.91484171 155.46521465 -92.22998047 152.69677734 C-93.270979 152.16540161 -93.270979 152.16540161 -94.33300781 151.62329102 C-100.26804874 148.49707962 -105.32777537 144.69561633 -110.35498047 140.25927734 C-111.87091797 139.11458984 -111.87091797 139.11458984 -113.41748047 137.94677734 C-130.29368191 122.50684836 -140.45823775 99.97079629 -141.64013672 77.29443359 C-142.53529994 52.22095642 -134.47367554 30.38191623 -117.93310547 11.49365234 C-87.13910888 -21.12247422 -36.3958557 -26.59247301 0 0 Z " fill="#040404" transform="translate(212.35498046875,19.74072265625)"/>
<path d="M0 0 C0.83426514 -0.00630432 1.66853027 -0.01260864 2.52807617 -0.019104 C3.43017822 -0.01505554 4.33228027 -0.01100708 5.26171875 -0.00683594 C6.64870972 -0.00970612 6.64870972 -0.00970612 8.0637207 -0.01263428 C10.02067334 -0.0139966 11.97763499 -0.0102969 13.93457031 -0.00195312 C16.93705465 0.00874572 19.93894062 -0.00184685 22.94140625 -0.01464844 C24.83984508 -0.01332685 26.73828353 -0.01076448 28.63671875 -0.00683594 C29.5388208 -0.0108844 30.44092285 -0.01493286 31.37036133 -0.019104 C32.62175903 -0.00964752 32.62175903 -0.00964752 33.8984375 0 C34.63408936 0.00159119 35.36974121 0.00318237 36.12768555 0.00482178 C37.94921875 0.25878906 37.94921875 0.25878906 39.94921875 2.25878906 C40.60921875 2.58878906 41.26921875 2.91878906 41.94921875 3.25878906 C42.44421875 4.74378906 42.44421875 4.74378906 42.94921875 6.25878906 C43.93921875 6.58878906 44.92921875 6.91878906 45.94921875 7.25878906 C42.41032746 8.4990547 40.23560568 7.98512099 36.69921875 6.88378906 C28.94457516 4.48567674 21.43548926 4.09524746 13.38671875 4.13378906 C12.57525391 4.12992187 11.76378906 4.12605469 10.92773438 4.12207031 C7.20903398 4.12807306 3.65216243 4.2428354 -0.01953125 4.85644531 C-3.05078125 5.25878906 -3.05078125 5.25878906 -4.98828125 3.82128906 C-5.51421875 3.04785156 -5.51421875 3.04785156 -6.05078125 2.25878906 C-3.68031594 -0.11167625 -3.21673953 0.00695768 0 0 Z " fill="#F9F9F9" transform="translate(145.05078125,-0.2587890625)"/>
<path d="M0 0 C5.46894531 -0.5696818 8.63582342 0.33826029 13.19921875 3.421875 C16.04481527 5.91562987 17.39702063 8.59366884 19 12 C18.01 12.495 18.01 12.495 17 13 C15.94647157 15.30965848 14.94280904 17.6429774 14 20 C12.00976962 18.00976962 11.43855387 16.84216785 10.375 14.3125 C8.29451302 9.9450655 5.40525905 7.45914975 1.609375 4.54296875 C1.07828125 4.03378906 0.5471875 3.52460938 0 3 C0 2.01 0 1.02 0 0 Z " fill="#F0F0F0" transform="translate(95,127)"/>
<path d="M0 0 C3 1 3 1 6 3 C6.33 3.99 6.66 4.98 7 6 C7.99 6.33 8.98 6.66 10 7 C6.34142468 8.31534494 3.91973519 7.65468309 0.25 6.5625 C-0.73484375 6.27503906 -1.7196875 5.98757812 -2.734375 5.69140625 C-3.85585937 5.34916016 -3.85585937 5.34916016 -5 5 C-5 4.01 -5 3.02 -5 2 C-3.35 2 -1.7 2 0 2 C0 1.34 0 0.68 0 0 Z " fill="#EDEDED" transform="translate(181,0)"/>
<path d="M0 0 C0.99 0.33 1.98 0.66 3 1 C2 4 2 4 0 5 C0.99 5.66 1.98 6.32 3 7 C-1.455 7.495 -1.455 7.495 -6 8 C-6 7.01 -6 6.02 -6 5 C-3.1875 2.25 -3.1875 2.25 0 0 Z " fill="#EBEBEB" transform="translate(218,159)"/>
<path d="M0 0 C2.01822917 0.06510417 4.03645833 0.13020833 6.0546875 0.1953125 C6.3846875 1.5153125 6.7146875 2.8353125 7.0546875 4.1953125 C4.0546875 5.1953125 4.0546875 5.1953125 1.0546875 5.1953125 C0.7246875 4.5353125 0.3946875 3.8753125 0.0546875 3.1953125 C-1.96994505 2.54317958 -1.96994505 2.54317958 -3.9453125 2.1953125 C-1.9453125 0.1953125 -1.9453125 0.1953125 0 0 Z " fill="#EBEBEB" transform="translate(200.9453125,39.8046875)"/>
<path d="M0 0 C2.31 0 4.62 0 7 0 C7 0.66 7 1.32 7 2 C6.01 2.495 6.01 2.495 5 3 C5 3.99 5 4.98 5 6 C3.0625 5.25 3.0625 5.25 1 4 C0.25 1.875 0.25 1.875 0 0 Z " fill="#E8E8E8" transform="translate(95,127)"/>
<path d="M0 0 C0.66 0 1.32 0 2 0 C2.66 2.31 3.32 4.62 4 7 C3.34 6.67 2.68 6.34 2 6 C1.34 6.66 0.68 7.32 0 8 C-0.38063221 5.6739143 -0.71269945 3.33944736 -1 1 C-0.67 0.67 -0.34 0.34 0 0 Z " fill="#EBEBEB" transform="translate(75,123)"/>
<path d="M0 0 C1.25541557 3.76624671 0.37061958 5.37188934 -1 9 C-1.99 8.67 -2.98 8.34 -4 8 C-2.87548273 5.0280615 -1.77706209 2.66559313 0 0 Z " fill="#EBEBEB" transform="translate(110,66)"/>
<path d="M0 0 C-0.33 0.99 -0.66 1.98 -1 3 C-2.98 3.33 -4.96 3.66 -7 4 C-7.33 3.01 -7.66 2.02 -8 1 C-2.25 0 -2.25 0 0 0 Z " fill="#1A1A1A" transform="translate(185,130)"/>
<path d="M0 0 C2.475 0.495 2.475 0.495 5 1 C4.34 3.31 3.68 5.62 3 8 C1.0549 5.08235 0.54723683 3.37462715 0 0 Z " fill="#181818" transform="translate(73,112)"/>
<path d="M0 0 C0.625 1.875 0.625 1.875 1 4 C-0.89353366 5.89353366 -2.84526801 7.4198632 -5 9 C-4.42647107 5.12867972 -2.51295648 2.91827204 0 0 Z " fill="#1C1C1C" transform="translate(210,114)"/>
</svg>
