<?xml version="1.0" encoding="UTF-8"?>
<svg version="1.1" xmlns="http://www.w3.org/2000/svg" width="319" height="180">
<path d="M0 0 C9.40790211 9.05090582 15.95693783 19.31776839 16.5625 32.5625 C16.2204346 42.18593999 11.90750419 48.33534335 5.515625 55.171875 C3.52194155 57.5766272 2.68079865 59.97422822 2 63 C1.34 63 0.68 63 0 63 C-0.350625 61.845 -0.70125 60.69 -1.0625 59.5 C-2.6801134 55.11154641 -5.20309736 52.33290157 -8.3515625 48.9453125 C-13.58121255 42.77382974 -14.54527694 34.83835596 -14 27 C-12.80015599 18.17841961 -10.10031708 12.00327537 -4.3125 5.125 C-3.50425781 4.15820312 -2.69601563 3.19140625 -1.86328125 2.1953125 C-1.24839844 1.47085938 -0.63351563 0.74640625 0 0 Z " fill="#10904D" transform="translate(55,58)"/>
<path d="M0 0 C2.6216384 3.93245761 2.20672719 7.20436468 2.08203125 11.75390625 C2.05516487 13.03889259 2.05516487 13.03889259 2.02775574 14.34983826 C1.9865805 16.15970392 1.94000203 17.96945355 1.88842773 19.77905273 C1.81270199 22.55509529 1.76377553 25.3307618 1.71679688 28.10742188 C1.67350124 29.86462416 1.62863281 31.62178854 1.58203125 33.37890625 C1.56936722 34.21224991 1.55670319 35.04559357 1.5436554 35.90419006 C1.46411133 38.24047852 1.46411133 38.24047852 1 42 C0.01 42.66 -0.98 43.32 -2 44 C-2 44.99 -2 45.98 -2 47 C-1.34 47 -0.68 47 0 47 C0.33 46.01 0.66 45.02 1 44 C3.44576827 47.66865241 3.23607254 49.67200343 3 54 C2.67 54.66 2.34 55.32 2 56 C1.34 56 0.68 56 0 56 C-0.350625 54.845 -0.70125 53.69 -1.0625 52.5 C-2.6801134 48.11154641 -5.20309736 45.33290157 -8.3515625 41.9453125 C-13.58239853 35.77243017 -14.54252287 27.83945552 -14 20 C-12.67626234 9.86137296 -12.67626234 9.86137296 -9 7 C-8.34 7 -7.68 7 -7 7 C-7 6.34 -7 5.68 -7 5 C-5.35666496 3.96210419 -3.68756133 2.96432076 -2 2 C-1.34 1.34 -0.68 0.68 0 0 Z " fill="#10A651" transform="translate(55,65)"/>
<path d="M0 0 C0.33 1.32 0.66 2.64 1 4 C0.01 4.495 0.01 4.495 -1 5 C-2.03101947 7.31979381 -3.02936517 9.65429915 -4 12 C-4.99 13.485 -4.99 13.485 -6 15 C-5.21625 15.268125 -4.4325 15.53625 -3.625 15.8125 C-1 17 -1 17 1 20 C1 23.7081495 0.01149014 24.98674215 -2.4375 27.8125 C-5.9966103 30.55094166 -9.36571624 30.52238751 -13.73046875 30.46875 C-16.4236959 29.91248966 -17.3983873 29.21477136 -19 27 C-18.75 24.3125 -18.75 24.3125 -18 21 C-16.95367691 15.1004416 -16.95367691 15.1004416 -18.125 9.3125 C-19 6 -19 6 -18 3.1875 C-12.96731702 -2.31699701 -6.72507519 -0.98350902 0 0 Z M-12 3 C-12.6878236 5.35367713 -12.6878236 5.35367713 -13 8 C-12.01 9.485 -12.01 9.485 -11 11 C-10.34 11 -9.68 11 -9 11 C-8.67 8.69 -8.34 6.38 -8 4 C-9.32 3.67 -10.64 3.34 -12 3 Z M-13 21 C-13.33 21.99 -13.66 22.98 -14 24 C-12.68 25.32 -11.36 26.64 -10 28 C-8.02 27.34 -6.04 26.68 -4 26 C-4.33 24.35 -4.66 22.7 -5 21 C-8.28976808 19.90341064 -9.71303767 20.20046862 -13 21 Z " fill="#FBFCF8" transform="translate(183,89)"/>
<path d="M0 0 C7.50992491 -0.36934057 7.50992491 -0.36934057 9.609375 1.21289062 C11.43838788 3.56337769 11.34667883 4.93266454 11.29296875 7.88671875 C11.28330078 8.82451172 11.27363281 9.76230469 11.26367188 10.72851562 C11.23853516 11.70498047 11.21339844 12.68144531 11.1875 13.6875 C11.17396484 14.67556641 11.16042969 15.66363281 11.14648438 16.68164062 C11.11112203 19.12164231 11.06177033 21.56054719 11 24 C13.87470493 25.43735246 15.81894588 25.38172649 19 25 C21.758765 22.82202763 22.81530354 21.13267929 23.3828125 17.65234375 C23.64510033 11.85578264 22.71872715 8.62023676 19 4 C18.67 3.01 18.34 2.02 18 1 C22.01349645 1.28001138 23.72035142 1.75763789 26.8125 4.4375 C30.4310338 8.67635388 30.40412935 11.77724214 30.33984375 17.234375 C29.79209759 21.69189549 28.41644532 23.09238696 25 26 C19.64000644 28.79276892 15.55073617 29.40116991 9.5625 29.1875 C8.83095703 29.17396484 8.09941406 29.16042969 7.34570312 29.14648438 C5.56347578 29.11153874 3.78163427 29.05774805 2 29 C2.33 28.01 2.66 27.02 3 26 C3.25519124 22.33761904 3.23127377 18.67034181 3.25 15 C3.270625 13.989375 3.29125 12.97875 3.3125 11.9375 C3.31765625 10.968125 3.3228125 9.99875 3.328125 9 C3.34214355 7.6696875 3.34214355 7.6696875 3.35644531 6.3125 C2.93131599 3.5544007 2.08839805 2.76445512 0 1 C0 0.67 0 0.34 0 0 Z " fill="#FBFCFA" transform="translate(211,79)"/>
<path d="M0 0 C2.97 0.495 2.97 0.495 6 1 C6 3.97 6 6.94 6 10 C6.66 10.33 7.32 10.66 8 11 C7.67 11.99 7.34 12.98 7 14 C6.34 14 5.68 14 5 14 C5.66 17.3 6.32 20.6 7 24 C8.65 24 10.3 24 12 24 C13.20561184 23.01732141 13.20561184 23.01732141 13.09765625 21.15234375 C13.08605469 20.42144531 13.07445312 19.69054687 13.0625 18.9375 C13.041875 17.638125 13.02125 16.33875 13 15 C11.68 14.34 10.36 13.68 9 13 C9 12.34 9 11.68 9 11 C9.99 10.34 10.98 9.68 12 9 C12.29071481 5.58410104 12.08719244 3.26157733 11 0 C15.57995227 1.44630072 15.57995227 1.44630072 17.375 3.8125 C18 6 18 6 17.375 8.3125 C16.93843729 11.44119945 17.36352556 11.93396354 19 14.5 C20.5204285 16.93374146 21 17.7340198 21 20.6875 C19.65277899 23.80294858 18.84241105 25.03738285 16 27 C9.14944892 29.07863377 3.00952552 29.14910254 -4 28 C-3.01 26.515 -3.01 26.515 -2 25 C-1.64978807 22.63175723 -1.64978807 22.63175723 -1.62109375 20 C-1.58693359 19.030625 -1.55277344 18.06125 -1.51757812 17.0625 C-1.49115234 16.051875 -1.46472656 15.04125 -1.4375 14 C-1.37754745 11.9998809 -1.31390842 9.99986796 -1.24609375 8 C-1.22216553 7.113125 -1.1982373 6.22625 -1.17358398 5.3125 C-1 3 -1 3 0 0 Z " fill="#FCFDFB" transform="translate(247,80)"/>
<path d="M0 0 C0.33 -0.33 0.66 -0.66 1 -1 C4.57503472 -1.15889043 7.55415188 -0.86146203 11 0 C11.66 -0.33 12.32 -0.66 13 -1 C15.875 -1.375 15.875 -1.375 19 -1 C23.00093863 2.84817552 23.54648602 5.86850106 23.75 11.3125 C23.80671875 12.56675781 23.8634375 13.82101563 23.921875 15.11328125 C23.94765625 16.06589844 23.9734375 17.01851562 24 18 C21.03 18 18.06 18 15 18 C15 17.34 15 16.68 15 16 C15.66 16 16.32 16 17 16 C17.19814261 9.91591528 17.19814261 9.91591528 16 4 C14.35 4 12.7 4 11 4 C11 8.62 11 13.24 11 18 C9.02 18 7.04 18 5 18 C3.44453388 14.88906776 3.98280891 11.73921708 4.0625 8.3125 C4.16235781 5.97231107 4.16235781 5.97231107 3 4 C1.68 4.33 0.36 4.66 -1 5 C-1 9.29 -1 13.58 -1 18 C-3.31 18 -5.62 18 -8 18 C-7.91621094 17.3709375 -7.83242187 16.741875 -7.74609375 16.09375 C-7.0768319 10.4685618 -7.06872311 5.58766133 -8 0 C-4.68589597 -1.10470134 -3.32050692 -0.69905409 0 0 Z " fill="#FCFDFB" transform="translate(88,90)"/>
<path d="M0 0 C2.23299256 0.03073274 2.23299256 0.03073274 5.375 -0.3125 C9 0 9 0 11.4375 1.8125 C13.42862037 5.87438555 13.26900255 9.0169767 13.04296875 13.4765625 C12.85801071 16.12792154 12.85801071 16.12792154 14 19 C11.03 19 8.06 19 5 19 C5 18.34 5 17.68 5 17 C5.66 17 6.32 17 7 17 C6.67 13.37 6.34 9.74 6 6 C4.35 5.67 2.7 5.34 1 5 C1 8.63 1 12.26 1 16 C1.66 16.33 2.32 16.66 3 17 C3 17.66 3 18.32 3 19 C0.03 19 -2.94 19 -6 19 C-5.98259766 17.67935547 -5.98259766 17.67935547 -5.96484375 16.33203125 C-5.95582031 15.17058594 -5.94679687 14.00914063 -5.9375 12.8125 C-5.92589844 11.66394531 -5.91429687 10.51539062 -5.90234375 9.33203125 C-5.98807168 6.40699414 -6.32150977 3.83683709 -7 1 C-4.5208901 -0.23955495 -2.7458063 -0.06864516 0 0 Z " fill="#FBFCFA" transform="translate(147,89)"/>
<path d="M0 0 C6.14962594 0.34164589 6.14962594 0.34164589 8.9375 2.5 C10.57620317 6.35577217 10.76994426 9.88629778 10 14 C7.45474088 17.70219508 5.81135075 18.7681855 1.5 20 C-3.32773113 20 -5.42288871 18.52272814 -8.8125 15.25 C-10.56355678 11.93220821 -10.51845997 9.69402725 -10 6 C-7.5 3.0625 -7.5 3.0625 -5 1 C-4.01 1.33 -3.02 1.66 -2 2 C-2.33 2.33 -2.66 2.66 -3 3 C-3.19989763 4.99990516 -3.19989763 4.99990516 -3.1875 7.3125 C-3.20167969 8.09238281 -3.21585937 8.87226562 -3.23046875 9.67578125 C-2.97984413 12.2032668 -2.26373772 13.81718031 -1 16 C0.32 16 1.64 16 3 16 C4.35900907 10.41275333 4.35900907 10.41275333 2.953125 5.06640625 C1.43842307 3.23522874 1.43842307 3.23522874 -1 1 C-0.67 0.67 -0.34 0.34 0 0 Z " fill="#FAFCFB" transform="translate(126,89)"/>
<path d="M0 0 C3.0605022 2.27909738 4.59842441 3.92913175 5.9375 7.5 C6.01535375 10.6141498 5.53374877 12.28108172 4 15 C0.9263941 17.99053547 -1.6222398 20 -6 20 C-9.04202579 18.38951576 -11.28466276 16.94294454 -13.375 14.1875 C-14.2990539 10.95331134 -14.35824331 8.34360422 -14 5 C-10.17122391 0.15021696 -6.08007213 -1.03664065 0 0 Z M-7 2 C-9.41230371 3.98098541 -9.41230371 3.98098541 -9.3125 7.8125 C-9.23655163 11.60301431 -8.30623182 13.92502424 -6 17 C-2.70924004 16.62095792 -2.70924004 16.62095792 0 15 C0.5438045 10.60498987 0.79377912 7.12223945 -1.8125 3.4375 C-3.98159458 1.72541106 -3.98159458 1.72541106 -7 2 Z " fill="#FCFDFB" transform="translate(201,89)"/>
<path d="M0 0 C1.0625 1.875 1.0625 1.875 2 4 C1.67 4.66 1.34 5.32 1 6 C0.76827173 8.54615009 0.58105471 11.07396225 0.4375 13.625 C0.39431641 14.33140625 0.35113281 15.0378125 0.30664062 15.765625 C0.20055249 17.51018537 0.09977111 19.25506697 0 21 C0.66 21 1.32 21 2 21 C2.26554687 21.71027344 2.53109375 22.42054687 2.8046875 23.15234375 C3.15789063 24.07144531 3.51109375 24.99054688 3.875 25.9375 C4.22304688 26.85402344 4.57109375 27.77054688 4.9296875 28.71484375 C5.7819086 31.14941056 5.7819086 31.14941056 8 32 C8 32.66 8 33.32 8 34 C8.66 34 9.32 34 10 34 C10 34.99 10 35.98 10 37 C10.66 37 11.32 37 12 37 C12.33 36.01 12.66 35.02 13 34 C15.44576827 37.66865241 15.23607254 39.67200343 15 44 C14.67 44.66 14.34 45.32 14 46 C13.34 46 12.68 46 12 46 C11.649375 44.845 11.29875 43.69 10.9375 42.5 C9.3198866 38.11154641 6.79690264 35.33290157 3.6484375 31.9453125 C-1.56663049 25.79103795 -2.57901257 17.8234024 -2 10 C-1.44853731 6.63847526 -0.76190245 3.31971781 0 0 Z " fill="#3C9761" transform="translate(43,75)"/>
<path d="M0 0 C0.33 0.66 0.66 1.32 1 2 C1.66 2 2.32 2 3 2 C5.14208407 9.26903938 5.19609465 17.42137361 1.9375 24.3125 C-0.76879311 29.06406635 -4.20475182 33.08444135 -8 37 C-8.33 35.68 -8.66 34.36 -9 33 C-8.34 33 -7.68 33 -7 33 C-6.67 31.68 -6.34 30.36 -6 29 C-5.34 29 -4.68 29 -4 29 C-1.86006767 23.72150025 -0.79366776 19.40314458 -0.4375 13.6875 C-0.35371094 12.39199219 -0.26992187 11.09648438 -0.18359375 9.76171875 C-0.02434302 6.498773 0.03544282 3.26580269 0 0 Z " fill="#347B53" transform="translate(67,78)"/>
<path d="M0 0 C3.09333676 2.95399727 5.70245421 6.06553086 8.25 9.5 C8.95640625 10.4384375 9.6628125 11.376875 10.390625 12.34375 C12 15 12 15 12 19 C11.34 19 10.68 19 10 19 C9.34 16.69 8.68 14.38 8 12 C7.01 12 6.02 12 5 12 C3.3125 9.5 3.3125 9.5 2 7 C1.2575 7.825 0.515 8.65 -0.25 9.5 C-3 12 -3 12 -7 12 C-7 12.66 -7 13.32 -7 14 C-7.66 14 -8.32 14 -9 14 C-9.33 15.65 -9.66 17.3 -10 19 C-10.33 19 -10.66 19 -11 19 C-10.63528761 12.84644841 -8.92593972 9.93497105 -4.9375 5.5625 C-4.46505859 5.02173828 -3.99261719 4.48097656 -3.50585938 3.92382812 C-2.35004031 2.6045599 -1.17675717 1.30062635 0 0 Z " fill="#3CA269" transform="translate(55,58)"/>
<path d="M0 0 C0.66 0 1.32 0 2 0 C1.67 5.61 1.34 11.22 1 17 C-0.98 17 -2.96 17 -5 17 C-6.50156874 13.99686252 -6.09281204 11.20932478 -6.0625 7.875 C-6.05347656 6.59367187 -6.04445313 5.31234375 -6.03515625 3.9921875 C-6.02355469 3.00476563 -6.01195313 2.01734375 -6 1 C-4.7934375 1.0309375 -4.7934375 1.0309375 -3.5625 1.0625 C-1.06645115 1.29633621 -1.06645115 1.29633621 0 0 Z " fill="#F7F6F3" transform="translate(98,91)"/>
<path d="M0 0 C2.375 -0.125 2.375 -0.125 5 0 C5.66 0.66 6.32 1.32 7 2 C6.625 5.125 6.625 5.125 6 8 C4.25 8.75 4.25 8.75 2 9 C-0.25 7.0625 -0.25 7.0625 -2 5 C-1.34 3.35 -0.68 1.7 0 0 Z M0 3 C1 6 1 6 1 6 Z " fill="#F5F9F3" transform="translate(271,100)"/>
<path d="M0 0 C3.09333676 2.95399727 5.70245421 6.06553086 8.25 9.5 C8.95640625 10.4384375 9.6628125 11.376875 10.390625 12.34375 C12 15 12 15 12 19 C11.34 19 10.68 19 10 19 C9.34 16.69 8.68 14.38 8 12 C7.01 12 6.02 12 5 12 C3.02431822 9.15501823 1.50098594 6.11743233 0 3 C-0.99 3.495 -0.99 3.495 -2 4 C-1.34 2.68 -0.68 1.36 0 0 Z " fill="#37875E" transform="translate(55,58)"/>
<path d="M0 0 C1.5 1.0625 1.5 1.0625 3 3 C3.43076923 9.13846154 3.43076923 9.13846154 2 12 C1.34 12 0.68 12 0 12 C-1.49498913 9.01002175 -1.11577446 6.29957225 -1 3 C-0.67 2.01 -0.34 1.02 0 0 Z " fill="#BBDFCC" transform="translate(55,109)"/>
<path d="M0 0 C1.21152503 2.86360461 1.02923711 3.92528295 -0.125 6.875 C-2.16306418 10.27177363 -4.38551778 13.03220937 -7 16 C-7.33 14.68 -7.66 13.36 -8 12 C-7.34 12 -6.68 12 -6 12 C-5.67 10.68 -5.34 9.36 -5 8 C-4.34 8 -3.68 8 -3 8 C-1.92474806 5.34771188 -0.90543849 2.71631546 0 0 Z " fill="#469166" transform="translate(66,99)"/>
<path d="M0 0 C0.33 1.32 0.66 2.64 1 4 C-2 5 -2 5 -6 5 C-6 4.01 -6 3.02 -6 2 C-6.66 1.67 -7.32 1.34 -8 1 C-5.29120665 -0.35439668 -2.99066732 -0.06501451 0 0 Z " fill="#209659" transform="translate(59,107)"/>
<path d="M0 0 C0.99 0.33 1.98 0.66 3 1 C1.625 3.5 1.625 3.5 0 6 C-0.66 6 -1.32 6 -2 6 C-2.33 7.65 -2.66 9.3 -3 11 C-3.33 11 -3.66 11 -4 11 C-3.56179109 6.44262737 -3.14958831 3.42346555 0 0 Z " fill="#419767" transform="translate(48,66)"/>
<path d="" fill="#FFFFFF" transform="translate(0,0)"/>
</svg>
