<?xml version="1.0" encoding="UTF-8"?>
<svg version="1.1" xmlns="http://www.w3.org/2000/svg" width="500" height="500">
<path d="M0 0 C3.91171265 0.02681426 7.82055089 0.00007749 11.73217773 -0.03173828 C49.19736355 -0.08351727 95.74557078 9.98620238 125.48022461 34.65185547 C126.49084961 35.20873047 127.50147461 35.76560547 128.54272461 36.33935547 C149.41473416 47.98989528 169.20964306 67.75367591 183.48022461 86.65185547 C183.93268555 87.2491748 184.38514648 87.84649414 184.85131836 88.46191406 C186.34053889 90.43552628 187.81923055 92.41647762 189.29272461 94.40185547 C189.74945557 95.01617432 190.20618652 95.63049316 190.67675781 96.26342773 C193.59324387 100.25415372 196.0759796 104.33340264 198.48022461 108.65185547 C199.35261269 110.02851412 200.22743878 111.40363224 201.10522461 112.77685547 C220.92673559 145.71183427 230.44827874 183.52083127 230.13208008 221.74438477 C230.1052642 225.58368763 230.13200639 229.42006182 230.16381836 233.25927734 C230.20464286 261.94239061 224.34574114 289.48783007 212.48022461 315.65185547 C212.19493896 316.30855225 211.90965332 316.96524902 211.61572266 317.6418457 C206.10699645 330.267555 199.81212468 342.65144363 191.48022461 353.65185547 C190.87952148 354.50392578 190.27881836 355.35599609 189.65991211 356.23388672 C179.3427916 370.83240339 167.26197552 385.22521389 153.48022461 396.65185547 C152.82795898 397.23064453 152.17569336 397.80943359 151.50366211 398.40576172 C150.87717773 398.96134766 150.25069336 399.51693359 149.60522461 400.08935547 C149.05092773 400.58306641 148.49663086 401.07677734 147.92553711 401.58544922 C146.48022461 402.65185547 146.48022461 402.65185547 144.48022461 402.65185547 C144.48022461 403.31185547 144.48022461 403.97185547 144.48022461 404.65185547 C143.1631028 405.58770517 141.83401349 406.50918529 140.46459961 407.36669922 C137.15262087 409.51166183 134.01646524 411.91158983 130.84741211 414.26123047 C128.48022461 415.65185547 128.48022461 415.65185547 124.48022461 415.65185547 C122.77408486 413.45910544 121.38091388 411.40276868 119.98022461 409.02685547 C119.22023123 407.78440895 118.45981786 406.54221923 117.69897461 405.30029297 C117.32828857 404.68629639 116.95760254 404.0722998 116.57568359 403.43969727 C113.3466396 398.16974202 109.73761995 393.15504311 106.16381836 388.11669922 C104.49847979 385.67858173 102.98836214 383.1896605 101.48022461 380.65185547 C96.91125313 373.4199865 92.23945713 366.25960725 87.48022461 359.15185547 C84.0791768 354.06461308 80.69288221 348.96847146 77.35522461 343.83935547 C76.96463867 343.24638672 76.57405273 342.65341797 76.17163086 342.04248047 C73.48022461 337.88303445 73.48022461 337.88303445 73.48022461 335.65185547 C72.82022461 335.65185547 72.16022461 335.65185547 71.48022461 335.65185547 C69.89147363 333.32677951 68.42336988 331.00315323 66.98022461 328.58935547 C66.07975169 327.11555453 65.1773588 325.64292521 64.27319336 324.17138672 C63.81090332 323.41809082 63.34861328 322.66479492 62.87231445 321.88867188 C60.74641071 318.4727599 58.53123761 315.11973033 56.29272461 311.77685547 C55.87821045 311.1575415 55.46369629 310.53822754 55.03662109 309.90014648 C52.07054065 305.48964205 49.04158921 301.12600245 45.95288086 296.80029297 C44.92035755 295.29395922 43.94106481 293.75040311 43.00366211 292.18310547 C41.4601762 289.61854427 39.7868871 287.20858313 38.04272461 284.77685547 C35.70438198 281.46420341 33.57599393 278.15156351 31.61694336 274.59716797 C29.15930734 270.39131663 26.35306861 266.39852147 23.63061523 262.36132812 C21.61158233 259.36105894 19.60950542 256.34949048 17.60522461 253.33935547 C15.0297527 249.47341461 12.4523698 245.60880434 9.86694336 241.74951172 C5.61296436 235.39423731 1.4179279 229.01396496 -2.66430664 222.54638672 C-6.15603641 217.09928827 -9.77311539 211.73466244 -13.37548828 206.36035156 C-15.09453051 203.79370818 -16.80623132 201.22217158 -18.51977539 198.65185547 C-18.97739258 197.97123047 -19.43500977 197.29060547 -19.90649414 196.58935547 C-22.58497405 192.59978779 -25.21163936 188.58143661 -27.79736328 184.53100586 C-32.31437955 177.45647039 -36.97304371 170.51255738 -41.92211914 163.72998047 C-43.96809146 160.91910057 -45.87484933 158.12036762 -47.58227539 155.08935547 C-50.62610708 148.98805263 -50.62610708 148.98805263 -55.51977539 144.65185547 C-58.66005719 144.41471019 -61.8090134 144.46667207 -64.95727539 144.46435547 C-65.82932617 144.45210937 -66.70137695 144.43986328 -67.59985352 144.42724609 C-68.43838867 144.4253125 -69.27692383 144.42337891 -70.14086914 144.42138672 C-70.90842529 144.41727783 -71.67598145 144.41316895 -72.46679688 144.40893555 C-74.82985452 144.53134572 -74.82985452 144.53134572 -77.51977539 146.65185547 C-78.03104277 149.46234443 -78.03104277 149.46234443 -78.02050781 152.87792969 C-78.04624217 153.87855124 -78.04624217 153.87855124 -78.07249641 154.89938736 C-78.1265925 157.21005762 -78.15749739 159.52044386 -78.18774414 161.83154297 C-78.21989608 163.53654054 -78.2526503 165.24152684 -78.28593445 166.94650269 C-78.73462385 192.14981118 -78.77802006 217.36428676 -78.80899239 242.57110977 C-78.81993665 251.33894964 -78.84479441 260.10649891 -78.88851959 268.87423909 C-78.91862845 275.12983105 -78.9334793 281.38534524 -78.93679971 287.64100826 C-78.93913965 291.34686829 -78.94797592 295.05243249 -78.97326088 298.75821304 C-79.00078081 302.85070648 -78.99672728 306.94257632 -78.98974609 311.03515625 C-79.00896118 312.85188843 -79.00896118 312.85188843 -79.02856445 314.70532227 C-79.02334662 321.07708342 -79.02334662 321.07708342 -76.72697449 326.90548706 C-73.48600536 329.46978953 -70.40232887 329.27045153 -66.45727539 329.08935547 C-65.73733398 329.08355469 -65.01739258 329.07775391 -64.27563477 329.07177734 C-60.53062703 328.98484587 -58.6973069 328.77020981 -55.51977539 326.65185547 C-54.53919616 323.71011779 -54.38614084 321.78682232 -54.36828613 318.72006226 C-54.35994247 317.70241791 -54.35159882 316.68477356 -54.34300232 315.6362915 C-54.33672569 313.9624942 -54.33672569 313.9624942 -54.33032227 312.25488281 C-54.32202896 311.07896576 -54.31373566 309.90304871 -54.30519104 308.6914978 C-54.28321652 305.46390979 -54.26551406 302.23632988 -54.24938393 299.00870848 C-54.23120633 295.62562028 -54.20676071 292.24257847 -54.18273926 288.85952759 C-54.12264984 280.24867043 -54.07088078 271.63776988 -54.01977539 263.02685547 C-53.96462554 253.75076095 -53.90790839 244.47468825 -53.84222651 235.19866145 C-53.8186338 231.83432821 -53.79704925 228.47000674 -53.78013611 225.10563278 C-53.76066467 221.34544768 -53.7355124 217.58533808 -53.70922852 213.82519531 C-53.70295189 212.16961609 -53.70295189 212.16961609 -53.69654846 210.48059082 C-53.64799786 204.46060882 -53.29927093 198.62257886 -52.51977539 192.65185547 C-48.63364726 194.4147813 -46.98031037 196.38405937 -44.51977539 199.90185547 C-43.85977539 200.83513672 -43.19977539 201.76841797 -42.51977539 202.72998047 C-39.37703286 207.32133088 -36.31280401 211.95439133 -33.32470703 216.64794922 C-28.47415526 224.26131255 -23.39357998 231.67179254 -18.10961914 238.99169922 C-13.62456732 245.21653156 -9.30703901 251.4694444 -5.24633789 257.98388672 C-2.76207819 261.82268621 -0.0506432 265.4804926 2.68334961 269.14404297 C4.43072546 271.58277187 5.94807381 274.07382844 7.48022461 276.65185547 C8.99030549 278.95161167 10.50942468 281.24273434 12.04272461 283.52685547 C12.94778534 284.87834243 13.85273027 286.22990694 14.75756836 287.58154297 C15.21502441 288.26442383 15.67248047 288.94730469 16.14379883 289.65087891 C17.36756323 291.48317212 18.58396688 293.32001644 19.79663086 295.15966797 C25.05963112 303.13041122 30.4640586 310.9978021 35.91772461 318.83935547 C36.61655762 319.84417969 37.31539063 320.84900391 38.03540039 321.88427734 C41.52066053 326.92816866 41.52066053 326.92816866 45.1953125 331.83276367 C46.48022461 333.65185547 46.48022461 333.65185547 46.48022461 335.65185547 C47.14022461 335.65185547 47.80022461 335.65185547 48.48022461 335.65185547 C49.40025335 336.96112714 50.30634785 338.28125445 51.16381836 339.63232422 C56.7983659 348.27642237 63.2777369 356.41255825 69.48022461 364.65185547 C71.05279671 366.75791655 72.62503565 368.86421319 74.19506836 370.97216797 C75.36876003 372.50617228 76.609053 373.98862593 77.85522461 375.46435547 C79.48022461 377.65185547 79.48022461 377.65185547 79.48022461 380.65185547 C80.47022461 380.98185547 81.46022461 381.31185547 82.48022461 381.65185547 C84.2602668 383.93388686 85.91735165 386.20216287 87.54272461 388.58935547 C90.74053733 393.33806505 90.74053733 393.33806505 94.48022461 397.65185547 C94.48022461 398.64185547 94.48022461 399.63185547 94.48022461 400.65185547 C95.14022461 400.65185547 95.80022461 400.65185547 96.48022461 400.65185547 C98.20906921 402.86999571 99.82689408 405.08792015 101.41772461 407.40185547 C102.30150829 408.66771156 103.18561478 409.93334234 104.07006836 411.19873047 C104.48498535 411.79878906 104.89990234 412.39884766 105.32739258 413.01708984 C106.27865961 414.36602759 107.28128498 415.67859092 108.29663086 416.97998047 C109.48022461 418.65185547 109.48022461 418.65185547 109.48022461 420.65185547 C110.14022461 420.65185547 110.80022461 420.65185547 111.48022461 420.65185547 C111.81022461 421.97185547 112.14022461 423.29185547 112.48022461 424.65185547 C111.04792276 425.5559766 109.60894486 426.44951964 108.16772461 427.33935547 C107.3672168 427.83822266 106.56670898 428.33708984 105.74194336 428.85107422 C97.23572608 433.54732112 88.29239146 436.98062286 79.10522461 440.08935547 C78.11006836 440.44578125 77.11491211 440.80220703 76.08959961 441.16943359 C53.90454784 448.68415437 31.58329892 451.64169375 8.23144531 451.37915039 C4.28267764 451.33925396 0.33725767 451.35864669 -3.61157227 451.38427734 C-28.15031295 451.37760789 -50.5507361 447.13706976 -73.51977539 438.65185547 C-74.71602539 438.23033203 -75.91227539 437.80880859 -77.14477539 437.37451172 C-90.23508788 432.61002298 -102.70136377 425.98899276 -114.51977539 418.65185547 C-115.35943848 418.13099365 -115.35943848 418.13099365 -116.21606445 417.59960938 C-127.03695855 410.81800131 -136.83540775 402.95696664 -146.51977539 394.65185547 C-147.23286865 394.04172607 -147.94596191 393.43159668 -148.68066406 392.80297852 C-149.38296143 392.19623291 -150.08525879 391.5894873 -150.80883789 390.96435547 C-151.43870605 390.42037109 -152.06857422 389.87638672 -152.7175293 389.31591797 C-155.24743347 386.97998911 -157.46099907 384.42545556 -159.68383789 381.80029297 C-161.67782756 379.4669008 -163.7513888 377.22047461 -165.83227539 374.96435547 C-201.74118574 335.08592271 -221.61567975 282.98836219 -221.17163086 229.48388672 C-221.1447866 225.65345437 -221.17158001 221.82595106 -221.20336914 217.99560547 C-221.24426479 189.31144226 -215.35132862 161.82341845 -203.51977539 135.65185547 C-203.2065332 134.90677734 -202.89329102 134.16169922 -202.57055664 133.39404297 C-198.57607709 123.98931896 -193.6457143 115.02624728 -187.84399414 106.62060547 C-186.35268591 104.46360188 -186.35268591 104.46360188 -184.64477539 101.27685547 C-179.05295546 91.34341926 -171.38136081 82.80932007 -163.9140625 74.26928711 C-162.54453201 72.68057419 -161.21387987 71.06527774 -159.88696289 69.44091797 C-157.95416509 67.16366115 -156.1085909 65.25027543 -153.83227539 63.33935547 C-150.76965245 60.73384043 -147.78841688 58.06514827 -144.83227539 55.33935547 C-105.11014654 19.66188108 -53.28049247 -0.43266063 0 0 Z M60.48022461 140.65185547 C59.27953499 143.05323471 59.33875312 144.57740244 59.31286621 147.26011658 C59.30137543 148.23142517 59.28988464 149.20273376 59.27804565 150.20347595 C59.27064362 151.27304031 59.26324158 152.34260468 59.25561523 153.44458008 C59.24422516 154.56837067 59.23283508 155.69216125 59.22109985 156.8500061 C59.12339341 167.23664279 59.07211535 177.62387428 59.03540802 188.01090145 C59.00789863 195.68090403 58.95727665 203.34997532 58.87493372 211.01959032 C58.81216015 217.07335243 58.78815689 223.12668606 58.77714539 229.18078804 C58.76675935 231.74794737 58.74437029 234.31508823 58.70954895 236.88203239 C58.66318933 240.48695463 58.66136219 244.08942429 58.66967773 247.69458008 C58.64608185 248.74592636 58.62248596 249.79727264 58.59817505 250.88047791 C58.68692893 258.87301092 61.2683065 264.55655402 66.48022461 270.65185547 C67.14022461 270.65185547 67.80022461 270.65185547 68.48022461 270.65185547 C68.97522461 273.12685547 68.97522461 273.12685547 69.48022461 275.65185547 C70.14022461 275.65185547 70.80022461 275.65185547 71.48022461 275.65185547 C71.70709961 276.33248047 71.93397461 277.01310547 72.16772461 277.71435547 C73.53483721 280.77408367 75.19709452 283.14031552 77.18334961 285.81591797 C78.46134377 287.62512657 79.54058203 289.46093016 80.60522461 291.40185547 C82.13618725 294.05552404 83.30997311 295.61647836 85.48022461 297.65185547 C85.52692141 277.51145855 85.56220207 257.37107259 85.58384895 237.23063278 C85.59416661 227.87932273 85.60823629 218.52804629 85.63110352 209.17675781 C85.65102242 201.02727748 85.66393749 192.87782149 85.6684016 184.7283175 C85.67101152 180.41222893 85.67715614 176.09621001 85.69168472 171.78014374 C85.70524494 167.71890649 85.70945041 163.65776767 85.70643997 159.59650993 C85.70699083 158.10495659 85.71097759 156.61340001 85.71863556 155.12186623 C85.72857181 153.08702594 85.72500526 151.05213301 85.72073364 149.01727295 C85.72257723 147.87793682 85.72442081 146.73860069 85.72632027 145.56473923 C85.48321796 142.68728597 85.04023292 141.05308498 83.48022461 138.65185547 C80.0865559 136.19085784 76.63423223 136.32052151 72.54272461 136.27685547 C71.33745117 136.24849609 70.13217773 136.22013672 68.89038086 136.19091797 C64.90296158 136.72988186 63.30690314 137.85120529 60.48022461 140.65185547 Z " fill="#020202" transform="translate(245.519775390625,24.34814453125)"/>
<path d="M0 0 C-2.71182212 2.60334924 -3.89133813 2.99456691 -7.75 3.1875 C-8.8225 3.125625 -9.895 3.06375 -11 3 C-7.68381684 -0.31618316 -4.50821267 -1.6697084 0 0 Z " fill="#525253" transform="translate(181,36)"/>
<path d="M0 0 C0.66 0.33 1.32 0.66 2 1 C0.35 2.65 -1.3 4.3 -3 6 C-3.99 5.34 -4.98 4.68 -6 4 C-4.02 2.68 -2.04 1.36 0 0 Z " fill="#474748" transform="translate(131,57)"/>
</svg>
