<?xml version="1.0" encoding="UTF-8"?>
<svg version="1.1" xmlns="http://www.w3.org/2000/svg" width="300" height="180">
<path d="M0 0 C2.390625 1.07421875 2.390625 1.07421875 5.25 2.6875 C6.18328125 3.20699219 7.1165625 3.72648437 8.078125 4.26171875 C9.04234375 4.83535156 10.0065625 5.40898437 11 6 C12.03261459 6.55435226 13.06522919 7.10870453 14.12913513 7.67985535 C17 10 17 10 17.79554749 13.12934875 C17.82532936 14.97631599 17.82532936 14.97631599 17.85571289 16.8605957 C17.87425827 17.54243927 17.89280365 18.22428284 17.91191101 18.92678833 C17.96373623 21.17716941 17.97065768 23.42484018 17.97265625 25.67578125 C17.98940469 27.24514375 18.00719676 28.81449544 18.02598572 30.38383484 C18.05738696 33.67340041 18.06452299 36.96201332 18.05688477 40.25170898 C18.05069121 44.45683035 18.12213394 48.65661405 18.21431828 52.86057758 C18.27370604 56.10288051 18.28250691 59.34390704 18.27728081 62.5866909 C18.28249615 64.13570333 18.30530822 65.68476464 18.3464222 67.23324013 C18.45997883 71.99025745 18.38997986 76.40041924 17 81 C13.7293156 84.3568338 10.27224855 86.16500241 6 88 C4.89785156 88.63550781 3.79570312 89.27101563 2.66015625 89.92578125 C1.80292969 90.38339844 0.94570312 90.84101562 0.0625 91.3125 C-0.81277344 91.78300781 -1.68804687 92.25351563 -2.58984375 92.73828125 C-3.38519531 93.15464844 -4.18054688 93.57101563 -5 94 C-5.68191406 94.40605469 -6.36382812 94.81210938 -7.06640625 95.23046875 C-9.53702199 96.2137239 -10.49114974 95.80102018 -13 95 C-14.39431285 94.32890866 -15.76629352 93.610159 -17.1171875 92.85546875 C-18.27541016 92.21061523 -18.27541016 92.21061523 -19.45703125 91.55273438 C-20.25496094 91.10220703 -21.05289063 90.65167969 -21.875 90.1875 C-22.66519531 89.74857422 -23.45539063 89.30964844 -24.26953125 88.85742188 C-26.52824544 87.59276743 -28.77765961 86.32771573 -31 85 C-32.06541016 84.42805908 -33.13082031 83.85611816 -34.22851562 83.2668457 C-37 81 -37 81 -37.74462891 77.85546875 C-37.73866699 76.64503906 -37.73270508 75.43460937 -37.7265625 74.1875 C-37.72755951 73.53676514 -37.72855652 72.88603027 -37.72958374 72.21557617 C-37.72491598 70.8437881 -37.70553699 69.47198078 -37.67236328 68.10058594 C-37.62512622 66.00559772 -37.6312444 63.91569862 -37.64453125 61.8203125 C-37.5600517 51.70217962 -37.5600517 51.70217962 -35.14135742 48.66967773 C-32.57364736 46.66756063 -29.94587541 45.38305732 -27 44 C-24.92773391 42.82962582 -22.86511185 41.64201114 -20.8125 40.4375 C-19.78769531 39.83808594 -18.76289063 39.23867188 -17.70703125 38.62109375 C-15.77414887 37.46359564 -13.8745774 36.24971827 -12 35 C-8.16896958 35.31925253 -6.23319447 35.84453702 -3 38 C-2.67 25.79 -2.34 13.58 -2 1 C-1.34 0.67 -0.68 0.34 0 0 Z M-18 61 C-19.02656646 64.21777558 -19.08389492 66.79395291 -18 70 C-15.59260098 72.26149605 -13.00622659 73.66464488 -10 75 C-8.865625 74.360625 -7.73125 73.72125 -6.5625 73.0625 C-5.92441406 72.70285156 -5.28632813 72.34320313 -4.62890625 71.97265625 C-3.02121854 71.1027487 -3.02121854 71.1027487 -2 70 C-1.92794489 68.31391034 -1.91613932 66.62499341 -1.9375 64.9375 C-1.94652344 64.01839844 -1.95554687 63.09929687 -1.96484375 62.15234375 C-1.97644531 61.44207031 -1.98804688 60.73179688 -2 60 C-8.81076189 56.91588141 -12.10908962 55.6327261 -18 61 Z " fill="#2D2B2C" transform="translate(192,14)"/>
<path d="M0 0 C3.82654833 2.10015211 7.38269609 4.56225171 11 7 C11.90862793 7.41685059 12.81725586 7.83370117 13.75341797 8.26318359 C18.40059052 10.61131612 21.40519662 12.24574237 23.12695312 17.32373047 C23.63344272 21.4053488 23.74991754 25.27331337 23.625 29.375 C23.61870575 30.07864685 23.6124115 30.7822937 23.60592651 31.50726318 C23.42775264 42.67464355 23.42775264 42.67464355 20.62451172 47.24023438 C17.24306113 50.47814664 13.29702755 52.02397363 8.87207031 53.37939453 C6.308259 54.22931737 4.195782 55.59966097 1.9375 57.0625 C-1.4900211 59.14424595 -4.00313573 59.27390374 -8 59 C-10.66894531 57.85424805 -10.66894531 57.85424805 -13.328125 56.26171875 C-14.29234375 55.68873047 -15.2565625 55.11574219 -16.25 54.52539062 C-17.24 53.91888672 -18.23 53.31238281 -19.25 52.6875 C-20.25546875 52.09259766 -21.2609375 51.49769531 -22.296875 50.88476562 C-29.72009396 46.41985906 -29.72009396 46.41985906 -32 43 C-32.47252607 38.36884745 -32.37035898 33.71512479 -32.375 29.0625 C-32.39949219 27.77408203 -32.42398438 26.48566406 -32.44921875 25.15820312 C-32.45308594 23.92134766 -32.45695312 22.68449219 -32.4609375 21.41015625 C-32.46915527 20.27715088 -32.47737305 19.14414551 -32.48583984 17.97680664 C-31.88636779 14.30376004 -30.88989147 13.27492758 -28 11 C-25.83349609 9.55200195 -25.83349609 9.55200195 -23.5234375 8.23828125 C-22.688125 7.75939453 -21.8528125 7.28050781 -20.9921875 6.78710938 C-20.12851563 6.30048828 -19.26484375 5.81386719 -18.375 5.3125 C-17.50359375 4.81427734 -16.6321875 4.31605469 -15.734375 3.80273438 C-5.81198244 -1.85733011 -5.81198244 -1.85733011 0 0 Z " fill="#46A757" transform="translate(123,50)"/>
<path d="M0 0 C1.94584782 1.01258748 3.72500431 2.15417762 5.53515625 3.39453125 C8.09669068 5.11892294 8.09669068 5.11892294 11.37109375 6.76171875 C20.38629805 11.53723371 20.38629805 11.53723371 22.08984375 15.59765625 C22.3701711 18.20508458 22.37906192 20.40827432 22 23 C21.92523438 23.69351563 21.85046875 24.38703125 21.7734375 25.1015625 C20.63090122 27.90596973 18.85053884 28.65546474 16.25 30.125 C15.38890625 30.62257813 14.5278125 31.12015625 13.640625 31.6328125 C11.11983058 32.93795754 8.69668596 34.11027708 6 35 C5.01 34.505 5.01 34.505 4 34 C1.98074133 34.76600582 1.98074133 34.76600582 -0.125 35.9375 C-0.84945312 36.31777344 -1.57390625 36.69804688 -2.3203125 37.08984375 C-2.87460938 37.39019531 -3.42890625 37.69054687 -4 38 C-1.93771746 39.27118733 0.12481891 40.54195965 2.1875 41.8125 C2.76564453 42.16892578 3.34378906 42.52535156 3.93945312 42.89257812 C7.28031978 44.94994799 10.63112259 46.9888246 14 49 C12.68088002 52.95735993 10.25567446 54.14646922 6.875 56.25 C6.318125 56.62640625 5.76125 57.0028125 5.1875 57.390625 C2.16798006 59.28304303 0.14931535 59.99982974 -3.42578125 60.00390625 C-7.74359314 58.79114379 -11.22577395 56.96909256 -15.0625 54.6875 C-15.74376953 54.29626953 -16.42503906 53.90503906 -17.12695312 53.50195312 C-19.100241 52.3589247 -21.04972302 51.18172489 -23 50 C-24.13308594 49.34644531 -25.26617187 48.69289062 -26.43359375 48.01953125 C-29.52455338 45.5872236 -29.50979243 44.78526673 -30 41 C-30.26463801 36.81506921 -30.27670796 32.62994151 -30.3125 28.4375 C-30.34150391 27.30119141 -30.37050781 26.16488281 -30.40039062 24.99414062 C-30.40876953 23.90166016 -30.41714844 22.80917969 -30.42578125 21.68359375 C-30.44036377 20.68900146 -30.45494629 19.69440918 -30.4699707 18.66967773 C-29.86826676 15.25168674 -28.65677996 14.16296023 -26 12 C-23.74473751 10.59355128 -21.5136653 9.27379319 -19.1875 8 C-18.59646484 7.67 -18.00542969 7.34 -17.39648438 7 C-16.20480918 6.33463719 -15.01136686 5.67242929 -13.81616211 5.01342773 C-11.93055646 3.96125015 -10.0677104 2.87406635 -8.203125 1.78515625 C-3.58712716 -0.78741816 -3.58712716 -0.78741816 0 0 Z M-5.82421875 21.77734375 C-6.43910156 22.16019531 -7.05398437 22.54304688 -7.6875 22.9375 C-8.780625 23.618125 -9.87375 24.29875 -11 25 C-11 27.97 -11 30.94 -11 34 C-10.01 34.495 -10.01 34.495 -9 35 C-9 32.03 -9 29.06 -9 26 C-1.57142857 23.57142857 -1.57142857 23.57142857 2 25 C-1.27395455 21.36961821 -1.27395455 21.36961821 -5.82421875 21.77734375 Z " fill="#2E2B2D" transform="translate(249,49)"/>
<path d="M0 0 C3.49093184 1.64900888 6.83429278 3.52658466 10.1875 5.4375 C11.08919922 5.94087891 11.99089844 6.44425781 12.91992188 6.96289062 C16.35527233 8.88904021 19.72161458 10.81440972 23 13 C23.266487 16.05075084 23.34757146 18.89626179 23.29296875 21.9453125 C23.28872391 22.8303244 23.28447906 23.7153363 23.28010559 24.62716675 C23.26328259 27.46008445 23.22562425 30.29229652 23.1875 33.125 C23.17245782 35.04295849 23.15876861 36.96092811 23.14648438 38.87890625 C23.11336727 43.58621031 23.06156055 48.29298544 23 53 C18.13519058 52.30472441 14.90634037 51.06387808 10.6875 48.5 C9.63949219 47.8709375 8.59148437 47.241875 7.51171875 46.59375 C5 45 5 45 4 44 C3.91330568 42.5112814 3.89296506 41.018555 3.90234375 39.52734375 C3.90556641 38.62822266 3.90878906 37.72910156 3.91210938 36.80273438 C3.92048828 35.85720703 3.92886719 34.91167969 3.9375 33.9375 C3.94201172 32.98810547 3.94652344 32.03871094 3.95117188 31.06054688 C3.9629989 28.70696935 3.97947975 26.35351523 4 24 C0.62625575 22.23314687 -2.15247758 21.24047015 -6 21 C-8.24755753 22.3516367 -8.24755753 22.3516367 -10 24 C-10.66 24 -11.32 24 -12 24 C-11.94763184 24.56920166 -11.89526367 25.13840332 -11.84130859 25.72485352 C-10.54076319 41.93557583 -10.54076319 41.93557583 -14.015625 46.8515625 C-18.5699496 50.05595256 -22.54710777 51.14707308 -28 52 C-28.1733082 46.39509847 -28.30018837 40.791762 -28.38452148 35.18481445 C-28.41968048 33.27861359 -28.46741871 31.37260092 -28.52807617 29.46704102 C-28.61320359 26.72364913 -28.65273088 23.98275473 -28.68359375 21.23828125 C-28.71972275 20.38913651 -28.75585175 19.53999176 -28.79307556 18.66511536 C-28.79690908 12.86135061 -28.79690908 12.86135061 -26.49873352 10.37733459 C-24.71647078 9.08504804 -22.94951853 8.0185709 -21 7 C-20.02675781 6.42894531 -19.05351563 5.85789062 -18.05078125 5.26953125 C-17.14714844 4.78871094 -16.24351563 4.30789062 -15.3125 3.8125 C-14.40113281 3.32394531 -13.48976563 2.83539063 -12.55078125 2.33203125 C-11.70902344 1.89246094 -10.86726563 1.45289063 -10 1 C-9.35417969 0.59136719 -8.70835938 0.18273438 -8.04296875 -0.23828125 C-4.90800206 -1.40715028 -3.23888796 -0.92272817 0 0 Z " fill="#2E2C2D" transform="translate(58,50)"/>
<path d="M0 0 C3.33440709 1.49507774 6.39842769 3.32437928 9.5 5.25 C10.31597656 5.74113281 11.13195312 6.23226562 11.97265625 6.73828125 C13.56971935 7.69959531 15.16359585 8.66622749 16.75390625 9.63867188 C19.80284839 11.48659594 22.89543825 13.24742482 26 15 C26.33 14.01 26.66 13.02 27 12 C30.465 11.505 30.465 11.505 34 11 C35.5625 12.6875 35.5625 12.6875 37 15 C36.875 17.625 36.875 17.625 36 20 C33 22 33 22 29.875 21.6875 C27 21 27 21 26 20 C24.75671688 22.48656625 24.91634062 24.09080181 24.97265625 26.8671875 C24.98490234 27.83527344 24.99714844 28.80335938 25.00976562 29.80078125 C25.04478912 31.8425212 25.08382105 33.8841965 25.12695312 35.92578125 C25.13791016 36.89644531 25.14886719 37.86710937 25.16015625 38.8671875 C25.17699463 39.75519043 25.19383301 40.64319336 25.21118164 41.55810547 C24.97414602 44.29894967 24.56463407 45.73788553 23 48 C19.48820254 50.5975676 15.62183349 52.61939553 11.8125 54.75 C10.78318359 55.35199219 9.75386719 55.95398438 8.69335938 56.57421875 C-0.96929503 62.03383514 -0.96929503 62.03383514 -7 61 C-9.63759283 59.95798802 -11.60296971 58.56540753 -14 57 C-14 55.68 -14 54.36 -14 53 C-14.969375 53.12375 -15.93875 53.2475 -16.9375 53.375 C-22.22904239 53.42910575 -25.9784941 50.11537259 -30 47 C-32.62185143 44.37814857 -31.27393883 37.08238397 -31.29516602 33.3269043 C-31.31234844 31.20620623 -31.35621292 29.08707988 -31.40039062 26.96679688 C-31.4105202 25.61719898 -31.41903548 24.2675878 -31.42578125 22.91796875 C-31.44036377 21.68844482 -31.45494629 20.4589209 -31.4699707 19.19213867 C-30.90403829 15.34820809 -30.02315571 14.35341548 -27 12 C-23.83760283 9.74220787 -20.50935546 7.7638297 -17.1875 5.75 C-16.31029297 5.19570312 -15.43308594 4.64140625 -14.52929688 4.0703125 C-5.89650668 -1.17263862 -5.89650668 -1.17263862 0 0 Z M-8 7 C-8 7.66 -8 8.32 -8 9 C-8.86882812 9.28746094 -9.73765625 9.57492188 -10.6328125 9.87109375 C-12.29957031 10.42990234 -12.29957031 10.42990234 -14 11 C-14.98742187 11.27972656 -15.97484375 11.55945313 -16.9921875 11.84765625 C-20.82018832 13.46081107 -22.5372629 14.58874757 -25 18 C-25.92330015 22.23452441 -26.05088276 26.36313487 -26.0625 30.6875 C-26.07071777 31.81744385 -26.07893555 32.9473877 -26.08740234 34.11157227 C-25.93214931 40.68384859 -25.93214931 40.68384859 -22.18359375 45.83203125 C-18.90316667 47.37375894 -18.90316667 47.37375894 -15 46 C-15 37.09 -15 28.18 -15 19 C-13.35 19.33 -11.7 19.66 -10 20 C-9.67 20.66 -9.34 21.32 -9 22 C-5.45481116 20.60240095 -5.45481116 20.60240095 -2 19 C-0.37834248 18.87851695 1.24884327 18.82456348 2.875 18.8125 C4.17050781 18.79123047 4.17050781 18.79123047 5.4921875 18.76953125 C8.19072383 19.01752758 9.77829988 19.45184697 12 21 C12.74439973 24.4118321 13 27.51394686 13 31 C13.33 31.33 13.66 31.66 14 32 C14.46740995 37.79588336 14.46740995 37.79588336 14 40 C11.72089176 42.43837123 10.29775523 42.96076094 6.9765625 43.3984375 C-4.1574919 43.32057698 -4.1574919 43.32057698 -9 40 C-9.66 44.29 -10.32 48.58 -11 53 C-8.09149335 54.58306831 -6.22055283 55.54167564 -3 56 C0.80798961 54.85671166 4.00340176 52.88942432 7.375 50.8125 C8.27605469 50.29107422 9.17710937 49.76964844 10.10546875 49.23242188 C14.84129813 46.49867065 14.84129813 46.49867065 19 43 C20.33751467 34.95882793 21.60927689 23.14284766 17.15234375 16.06640625 C14.50321147 14.24853893 12.00246173 13.13488275 9 12 C7.0110619 10.87121305 5.03158509 9.72557293 3.0625 8.5625 C-1.19011512 6.21897253 -3.24140817 5.41380272 -8 7 Z M-1 24 C-1 24.99 -1 25.98 -1 27 C2.3 27.66 5.6 28.32 9 29 C8.67 27.68 8.34 26.36 8 25 C5.04335481 23.5216774 2.25770263 23.93967217 -1 24 Z M-9 29 C-9 30.65 -9 32.3 -9 34 C-8.21625 34.103125 -7.4325 34.20625 -6.625 34.3125 C-4 35 -4 35 -2 38 C0.19454681 38.57993699 0.19454681 38.57993699 2.625 38.6875 C3.44226563 38.75324219 4.25953125 38.81898438 5.1015625 38.88671875 C5.72804688 38.92410156 6.35453125 38.96148437 7 39 C7.66 38.01 8.32 37.02 9 36 C6.00943664 34.00629109 4.5686746 33.61202254 1.125 33.0625 C-2.81589716 32.34230681 -5.71723347 31.40736212 -9 29 Z " fill="#417B4F" transform="translate(152,104)"/>
<path d="M0 0 C0 6.93 0 13.86 0 21 C0.99 21.33 1.98 21.66 3 22 C2.67 23.65 2.34 25.3 2 27 C1.34 27 0.68 27 0 27 C2.91851531 35.67185435 2.91851531 35.67185435 7.3125 43.625 C9 46 9 46 9 49 C3.6149532 48.11624861 -0.41318707 45.83080436 -5.125 43.1875 C-5.93582031 42.74857422 -6.74664062 42.30964844 -7.58203125 41.85742188 C-8.36191406 41.42365234 -9.14179687 40.98988281 -9.9453125 40.54296875 C-10.65187988 40.15133545 -11.35844727 39.75970215 -12.08642578 39.35620117 C-14.36565313 37.74085186 -15.61396583 36.4370503 -17 34 C-17.63362165 29.35675927 -17.46335311 24.68176386 -17.4375 20 C-17.45748047 18.71609375 -17.47746094 17.4321875 -17.49804688 16.109375 C-17.49740234 14.87703125 -17.49675781 13.6446875 -17.49609375 12.375 C-17.49794678 11.24835938 -17.4997998 10.12171875 -17.50170898 8.9609375 C-16.89054178 5.35401007 -15.84359877 4.2269732 -13 2 C-8.20286943 -0.13205803 -5.57755309 0 0 0 Z " fill="#29BA41" transform="translate(108,59)"/>
<path d="M0 0 C3.33440709 1.49507774 6.39842769 3.32437928 9.5 5.25 C10.31597656 5.74113281 11.13195312 6.23226562 11.97265625 6.73828125 C13.56971935 7.69959531 15.16359585 8.66622749 16.75390625 9.63867188 C19.80284839 11.48659594 22.89543825 13.24742482 26 15 C26.33 14.01 26.66 13.02 27 12 C30.465 11.505 30.465 11.505 34 11 C35.5625 12.6875 35.5625 12.6875 37 15 C36.875 17.625 36.875 17.625 36 20 C33 22 33 22 29.875 21.6875 C27 21 27 21 26 20 C24.75671688 22.48656625 24.91634062 24.09080181 24.97265625 26.8671875 C24.98490234 27.83527344 24.99714844 28.80335938 25.00976562 29.80078125 C25.04478912 31.8425212 25.08382105 33.8841965 25.12695312 35.92578125 C25.13791016 36.89644531 25.14886719 37.86710937 25.16015625 38.8671875 C25.17699463 39.75519043 25.19383301 40.64319336 25.21118164 41.55810547 C24.98601887 44.16166386 24.3173243 45.76558408 23 48 C22.01 47.505 22.01 47.505 21 47 C21.33 45.68 21.66 44.36 22 43 C21.67 43 21.34 43 21 43 C20.67 37.72 20.34 32.44 20 27 C19.34 27 18.68 27 18 27 C18.268125 25.845 18.53625 24.69 18.8125 23.5 C18.96585617 21.23458637 18.96585617 21.23458637 18 19 C13.99671377 15.71706911 9.55637945 13.40875265 5 11 C3.66315199 10.17231671 2.32882483 9.3405039 1 8.5 C-2.06451608 6.96774196 -3.64506786 6.62722976 -7 7 C-7.99 7 -8.98 7 -10 7 C-12.83931059 8.35278887 -15.46052603 10.08294775 -18.125 11.75 C-18.86621094 12.1934375 -19.60742188 12.636875 -20.37109375 13.09375 C-21.07621094 13.53203125 -21.78132812 13.9703125 -22.5078125 14.421875 C-23.15379395 14.81987305 -23.79977539 15.21787109 -24.46533203 15.62792969 C-26.42118877 17.37656393 -26.66293216 18.41698359 -27 21 C-27.04613606 22.68687121 -27.03907896 24.37564961 -26.9921875 26.0625 C-26.96705078 27.50496094 -26.96705078 27.50496094 -26.94140625 28.9765625 C-26.89713132 30.99237413 -26.84504564 33.00802933 -26.78515625 35.0234375 C-26.77097656 35.98507813 -26.75679688 36.94671875 -26.7421875 37.9375 C-26.7201123 38.81277344 -26.69803711 39.68804687 -26.67529297 40.58984375 C-27.06498804 43.48237737 -28.09345692 44.83686722 -30 47 C-32.62185143 44.37814857 -31.27393883 37.08238397 -31.29516602 33.3269043 C-31.31234844 31.20620623 -31.35621292 29.08707988 -31.40039062 26.96679688 C-31.4105202 25.61719898 -31.41903548 24.2675878 -31.42578125 22.91796875 C-31.44036377 21.68844482 -31.45494629 20.4589209 -31.4699707 19.19213867 C-30.90403829 15.34820809 -30.02315571 14.35341548 -27 12 C-23.83760283 9.74220787 -20.50935546 7.7638297 -17.1875 5.75 C-16.31029297 5.19570312 -15.43308594 4.64140625 -14.52929688 4.0703125 C-5.89650668 -1.17263862 -5.89650668 -1.17263862 0 0 Z " fill="#457C55" transform="translate(152,104)"/>
<path d="M0 0 C0.66 0 1.32 0 2 0 C2.12406007 4.03825066 2.21455045 8.07575638 2.2746582 12.11547852 C2.29972617 13.48807102 2.33379082 14.86053102 2.37719727 16.23266602 C2.43817531 18.21050696 2.46361009 20.18934184 2.48828125 22.16796875 C2.51446533 23.35672607 2.54064941 24.5454834 2.56762695 25.77026367 C1.72360836 30.57263874 -1.10298309 32.58808305 -4.87890625 35.3984375 C-9.45956075 38.05542967 -9.45956075 38.05542967 -12.4375 37.75 C-12.953125 37.5025 -13.46875 37.255 -14 37 C-14 36.01 -14 35.02 -14 34 C-14.020625 32.989375 -14.04125 31.97875 -14.0625 30.9375 C-13.81967213 15.63934426 -13.81967213 15.63934426 -11 10 C-9.906875 9.79375 -8.81375 9.5875 -7.6875 9.375 C-3.65552605 7.87155209 -3.34014103 7.50701477 -1.5625 3.875 C-1.01746072 2.59335952 -0.4883519 1.30429389 0 0 Z " fill="#07893A" transform="translate(142,65)"/>
<path d="M0 0 C3.78125 0.7109375 3.78125 0.7109375 5.75 3.3125 C7 6 7 6 7 10 C7.66 10 8.32 10 9 10 C10.15082685 12.24756784 11.29576858 14.49781748 12.4375 16.75 C12.76298828 17.38421875 13.08847656 18.0184375 13.42382812 18.671875 C14.97063665 21.73359908 16.3915078 24.60615621 17 28 C11.59100028 27.11056488 7.49739246 24.82117248 2.75 22.1875 C1.92242187 21.74857422 1.09484375 21.30964844 0.2421875 20.85742188 C-0.93730469 20.20676758 -0.93730469 20.20676758 -2.140625 19.54296875 C-2.85766602 19.15133545 -3.57470703 18.75970215 -4.31347656 18.35620117 C-6.3713112 16.70141376 -6.63890537 15.56888169 -7 13 C-6.34 13 -5.68 13 -5 13 C-4.9175 12.34 -4.835 11.68 -4.75 11 C-3.75240209 7.00960837 -1.92833317 3.61450357 0 0 Z " fill="#05842F" transform="translate(100,80)"/>
<path d="M0 0 C2.25 1.27734375 2.25 1.27734375 3.5625 3.33984375 C5.41653574 11.26163283 5.41653574 11.26163283 4.25 15.27734375 C0.18235096 19.44205166 -5.15647435 21.8431064 -10.75 23.27734375 C-11.89285714 18.70591518 -11.89285714 18.70591518 -11.0625 16.21484375 C-10.959375 15.57546875 -10.85625 14.93609375 -10.75 14.27734375 C-12.60432087 12.00590301 -12.60432087 12.00590301 -14.75 10.27734375 C-14.42 9.61734375 -14.09 8.95734375 -13.75 8.27734375 C-13.09 8.27734375 -12.43 8.27734375 -11.75 8.27734375 C-12.08 6.95734375 -12.41 5.63734375 -12.75 4.27734375 C-11.19997249 3.38043463 -9.63430082 2.51052405 -8.0625 1.65234375 C-7.19238281 1.16507813 -6.32226562 0.6778125 -5.42578125 0.17578125 C-2.75 -0.72265625 -2.75 -0.72265625 0 0 Z " fill="#2F2D2F" transform="translate(266.75,59.72265625)"/>
<path d="M0 0 C1.65 0 3.3 0 5 0 C5.33 0.99 5.66 1.98 6 3 C6.99 2.67 7.98 2.34 9 2 C9.33 4.31 9.66 6.62 10 9 C11.57201172 9.27263672 11.57201172 9.27263672 13.17578125 9.55078125 C14.55480095 9.80407058 15.93370119 10.05801096 17.3125 10.3125 C18.00279297 10.43044922 18.69308594 10.54839844 19.40429688 10.66992188 C22.27192673 11.21019996 24.58668041 11.70546911 26.984375 13.4140625 C28 15 28 15 27.9375 18.0625 C27 21 27 21 25.3125 22.375 C22.47268254 23.14251823 19.92814973 23.13309772 17 23 C19.66666667 21.66666667 22.33333333 20.33333333 25 19 C24.505 16.525 24.505 16.525 24 14 C22.85660156 13.86722656 21.71320313 13.73445312 20.53515625 13.59765625 C19.0442438 13.4194969 17.55335982 13.24109918 16.0625 13.0625 C14.93038086 12.93198242 14.93038086 12.93198242 13.77539062 12.79882812 C8.11328125 12.11328125 8.11328125 12.11328125 7 11 C6.67 12.32 6.34 13.64 6 15 C7.65 15 9.3 15 11 15 C10.67 15.66 10.34 16.32 10 17 C10.39938767 19.09821215 10.39938767 19.09821215 11 21 C10.34 21 9.68 21 9 21 C8.67 20.67 8.34 20.34 8 20 C6.515 25.445 6.515 25.445 5 31 C3.60010577 26.80031731 4.37425924 23.16595977 4.84375 18.8125 C5.17769561 15.91914621 5.17769561 15.91914621 4 13 C3.67 17.95 3.34 22.9 3 28 C2.67 28 2.34 28 2 28 C1.67 26.35 1.34 24.7 1 23 C0.34 23 -0.32 23 -1 23 C-1.02894547 19.54168414 -1.04678 16.08339928 -1.0625 12.625 C-1.07087891 11.64015625 -1.07925781 10.6553125 -1.08789062 9.640625 C-1.09111328 8.69960937 -1.09433594 7.75859375 -1.09765625 6.7890625 C-1.10289307 5.91975098 -1.10812988 5.05043945 -1.11352539 4.15478516 C-1 2 -1 2 0 0 Z " fill="#4B8A5A" transform="translate(137,123)"/>
<path d="M0 0 C1.875 1.6875 1.875 1.6875 3 4 C2.875 6.625 2.875 6.625 2 9 C-1 11 -1 11 -4.125 10.6875 C-7 10 -7 10 -8 9 C-9.24328312 11.48656625 -9.08365938 13.09080181 -9.02734375 15.8671875 C-9.01509766 16.83527344 -9.00285156 17.80335938 -8.99023438 18.80078125 C-8.95521088 20.8425212 -8.91617895 22.8841965 -8.87304688 24.92578125 C-8.86208984 25.89644531 -8.85113281 26.86710937 -8.83984375 27.8671875 C-8.82300537 28.75519043 -8.80616699 29.64319336 -8.78881836 30.55810547 C-9.01398113 33.16166386 -9.6826757 34.76558408 -11 37 C-11.66 36.67 -12.32 36.34 -13 36 C-12.67 34.68 -12.34 33.36 -12 32 C-12.33 32 -12.66 32 -13 32 C-13.33 26.72 -13.66 21.44 -14 16 C-14.66 16 -15.32 16 -16 16 C-16 12.33333333 -16 8.66666667 -16 5 C-17.9375006 2.81222534 -17.9375006 2.81222534 -20 1 C-15.80530429 1.59924224 -11.99000166 2.57499941 -8 4 C-7.67 3.01 -7.34 2.02 -7 1 C-4.4254716 -0.2872642 -2.85291355 -0.34791629 0 0 Z " fill="#4D875D" transform="translate(186,115)"/>
<path d="M0 0 C2.64 0 5.28 0 8 0 C8.02707139 2.24993359 8.04642829 4.49996095 8.0625 6.75 C8.07410156 8.00296875 8.08570312 9.2559375 8.09765625 10.546875 C8.02021027 13.28536501 7.82780815 15.41880293 7 18 C6.01 18 5.02 18 4 18 C3.71125 18.928125 3.4225 19.85625 3.125 20.8125 C2 24 2 24 0 27 C-0.66 27 -1.32 27 -2 27 C-2.05444001 23.99975053 -2.0938836 21.00050961 -2.125 18 C-2.14175781 17.16082031 -2.15851563 16.32164063 -2.17578125 15.45703125 C-2.21849117 9.94745123 -1.55502007 5.28951708 0 0 Z " fill="#0BB83C" transform="translate(96,62)"/>
<path d="M0 0 C0.33 0 0.66 0 1 0 C1.33 3.3 1.66 6.6 2 10 C1.01 9.67 0.02 9.34 -1 9 C-3.10234944 9.74851382 -3.10234944 9.74851382 -5.1875 10.9375 C-6.26064453 11.50791016 -6.26064453 11.50791016 -7.35546875 12.08984375 C-7.89816406 12.39019531 -8.44085938 12.69054687 -9 13 C-8.01 13.99 -7.02 14.98 -6 16 C-9.7910119 14.55049545 -13.3874638 12.84827434 -17 11 C-17 7.37 -17 3.74 -17 0 C-16.67 0 -16.34 0 -16 0 C-15.67 2.64 -15.34 5.28 -15 8 C-14.9071875 6.3603125 -14.9071875 6.3603125 -14.8125 4.6875 C-14 1 -14 1 -12 -1.0625 C-7.63562714 -2.42636652 -4.29573474 -1.23369241 0 0 Z " fill="#518A61" transform="translate(254,74)"/>
<path d="M0 0 C0.33 0.66 0.66 1.32 1 2 C-1.79042625 5.28834617 -5.47328176 7.12735689 -9.1875 9.1875 C-9.84169922 9.55552734 -10.49589844 9.92355469 -11.16992188 10.30273438 C-12.77746961 11.2062466 -14.38840651 12.1037241 -16 13 C-16.08729047 17.06236402 -16.14048992 21.12448589 -16.1875 25.1875 C-16.21263672 26.33798828 -16.23777344 27.48847656 -16.26367188 28.67382812 C-16.27333984 29.78564453 -16.28300781 30.89746094 -16.29296875 32.04296875 C-16.3086792 33.06414795 -16.32438965 34.08532715 -16.34057617 35.13745117 C-15.94974253 38.4224149 -14.8743096 40.30851735 -13 43 C-14.32 42.67 -15.64 42.34 -17 42 C-15.47899977 43.52100023 -13.72490426 44.72023232 -12 46 C-14.9625559 46.24687966 -16.62056017 46.21079991 -19.25 44.75 C-21.18001672 42.81998328 -21.63206382 41.66753731 -22 39 C-21.01 38.505 -21.01 38.505 -20 38 C-20.00523682 37.32420898 -20.01047363 36.64841797 -20.01586914 35.95214844 C-20.03668007 32.88477511 -20.04967329 29.81741667 -20.0625 26.75 C-20.07087891 25.68652344 -20.07925781 24.62304688 -20.08789062 23.52734375 C-20.09111328 22.50253906 -20.09433594 21.47773438 -20.09765625 20.421875 C-20.10289307 19.47924805 -20.10812988 18.53662109 -20.11352539 17.56542969 C-19.92153429 13.2268438 -19.92153429 13.2268438 -19 11 C-17.14233398 9.53613281 -17.14233398 9.53613281 -14.74609375 8.203125 C-13.89208984 7.71972656 -13.03808594 7.23632812 -12.15820312 6.73828125 C-11.26037109 6.24714844 -10.36253906 5.75601563 -9.4375 5.25 C-8.53580078 4.74339844 -7.63410156 4.23679687 -6.70507812 3.71484375 C-4.47626239 2.46482011 -2.24141119 1.22725099 0 0 Z " fill="#357147" transform="translate(144,109)"/>
<path d="M0 0 C0.99 0.66 1.98 1.32 3 2 C1.68 2.33 0.36 2.66 -1 3 C-1 9.27 -1 15.54 -1 22 C1.31 22.33 3.62 22.66 6 23 C3.62590004 25.62400522 1.18635171 27.44568209 -2 29 C-4.3125 28.6875 -4.3125 28.6875 -6 28 C-6 27.01 -6 26.02 -6 25 C-6.020625 23.989375 -6.04125 22.97875 -6.0625 21.9375 C-5.81967213 6.63934426 -5.81967213 6.63934426 -3 1 C-2.01 0.67 -1.02 0.34 0 0 Z " fill="#2C9A4E" transform="translate(134,74)"/>
<path d="M0 0 C2.66856153 1.33428077 2.87171973 2.65126092 4 5.375 C5.17597659 8.19550635 6.28919072 10.43378609 8 13 C8 13.99 8 14.98 8 16 C4.46501266 15.42570028 1.73564959 14.52247968 -1.390625 12.78515625 C-2.18210937 12.34623047 -2.97359375 11.90730469 -3.7890625 11.45507812 C-4.60117188 10.99552734 -5.41328125 10.53597656 -6.25 10.0625 C-7.07757813 9.60681641 -7.90515625 9.15113281 -8.7578125 8.68164062 C-14.87012664 5.25974673 -14.87012664 5.25974673 -16 3 C-9.84765625 3.5859375 -9.84765625 3.5859375 -8 4 C-7.67 4.66 -7.34 5.32 -7 6 C-6.01 6 -5.02 6 -4 6 C-3.34 5.01 -2.68 4.02 -2 3 C-1.34 2.67 -0.68 2.34 0 2 C0 1.34 0 0.68 0 0 Z " fill="#0C8433" transform="translate(109,92)"/>
<path d="M0 0 C0.66 0.33 1.32 0.66 2 1 C3.63138808 7.2536543 2.36207066 12.77499937 1 19 C0.01 19.33 -0.98 19.66 -2 20 C-2 20.66 -2 21.32 -2 22 C-5.375 22.125 -5.375 22.125 -9 22 C-9.66 21.34 -10.32 20.68 -11 20 C-10.67 19.67 -10.34 19.34 -10 19 C-11.32 18.34 -12.64 17.68 -14 17 C-13.67 16.34 -13.34 15.68 -13 15 C-12.01 15.33 -11.02 15.66 -10 16 C-9.67 15.34 -9.34 14.68 -9 14 C-7.35 14.33 -5.7 14.66 -4 15 C-3.34 13.35 -2.68 11.7 -2 10 C-1.67 10 -1.34 10 -1 10 C-0.67 6.7 -0.34 3.4 0 0 Z " fill="#3E7F55" transform="translate(140,135)"/>
<path d="M0 0 C0.66 0.33 1.32 0.66 2 1 C1.67257813 2.0725 1.34515625 3.145 1.0078125 4.25 C-0.38321661 9.81411642 -0.2177638 15.29859385 -0.125 21 C-0.11597656 22.06089844 -0.10695313 23.12179688 -0.09765625 24.21484375 C-0.07427524 26.81013638 -0.04150556 29.40494465 0 32 C-0.66 32 -1.32 32 -2 32 C-2.33 32.66 -2.66 33.32 -3 34 C-5.28379183 29.43241635 -4.27522605 23.13958876 -4.3125 18.125 C-4.34150391 16.83207031 -4.37050781 15.53914063 -4.40039062 14.20703125 C-4.40876953 12.96566406 -4.41714844 11.72429687 -4.42578125 10.4453125 C-4.44036377 9.30594238 -4.45494629 8.16657227 -4.4699707 6.99267578 C-3.90565697 3.39924317 -2.78056104 2.25045532 0 0 Z " fill="#2D8851" transform="translate(95,61)"/>
<path d="M0 0 C2.4375 0.5 2.4375 0.5 4.3125 2.1875 C5.4375 4.5 5.4375 4.5 5.3125 7.125 C4.4375 9.5 4.4375 9.5 1.4375 11.5 C-2.39353042 11.18074747 -4.32930553 10.65546298 -7.5625 8.5 C-6.90496576 3.89726031 -4.66198605 0.90965581 0 0 Z " fill="#658165" transform="translate(183.5625,114.5)"/>
<path d="M0 0 C0.33 0 0.66 0 1 0 C1.12403121 4.18080601 1.21453601 8.36062502 1.2746582 12.54272461 C1.29973147 13.96381291 1.33379999 15.38477313 1.37719727 16.80541992 C1.43817858 18.85367462 1.46627762 20.90021883 1.48828125 22.94921875 C1.51446533 24.17987061 1.54064941 25.41052246 1.56762695 26.6784668 C0.83688954 30.95445929 -0.68021799 32.29529999 -4 35 C-6.85401297 36.99548074 -9.88874557 38.63257409 -12.9375 40.3125 C-13.72318359 40.76689453 -14.50886719 41.22128906 -15.31835938 41.68945312 C-19.70385184 44.12991546 -22.83363628 45.6219539 -28 45 C-28 44.34 -28 43.68 -28 43 C-27.45601562 42.89042969 -26.91203125 42.78085938 -26.3515625 42.66796875 C-18.04746672 40.30916413 -8.90623754 35.16881929 -2 30 C-0.92044788 26.76134365 -0.79558259 24.20844162 -0.68359375 20.80078125 C-0.64169922 19.59228516 -0.59980469 18.38378906 -0.55664062 17.13867188 C-0.51732422 15.87603516 -0.47800781 14.61339844 -0.4375 13.3125 C-0.39431641 12.03826172 -0.35113281 10.76402344 -0.30664062 9.45117188 C-0.2004514 6.30089148 -0.09840467 3.15053161 0 0 Z " fill="#2B653B" transform="translate(174,120)"/>
<path d="M0 0 C0.268125 0.639375 0.53625 1.27875 0.8125 1.9375 C1.88667752 4.33131686 1.88667752 4.33131686 5 5 C5 6.65 5 8.3 5 10 C5.66 10 6.32 10 7 10 C7 10.66 7 11.32 7 12 C6.34 12 5.68 12 5 12 C4.71125 12.928125 4.4225 13.85625 4.125 14.8125 C3 18 3 18 1 21 C0.34 21 -0.32 21 -1 21 C-1.02895976 17.87501937 -1.04678483 14.7500731 -1.0625 11.625 C-1.07087891 10.73554687 -1.07925781 9.84609375 -1.08789062 8.9296875 C-1.09111328 8.07890625 -1.09433594 7.228125 -1.09765625 6.3515625 C-1.10289307 5.56604004 -1.10812988 4.78051758 -1.11352539 3.97119141 C-1 2 -1 2 0 0 Z " fill="#049C40" transform="translate(95,68)"/>
<path d="M0 0 C0.33 0 0.66 0 1 0 C1.33 2.64 1.66 5.28 2 8 C2.33 5.69 2.66 3.38 3 1 C3.33 1 3.66 1 4 1 C4.33 3.31 4.66 5.62 5 8 C9.53140653 8.93380961 9.53140653 8.93380961 14 8 C14 5.69 14 3.38 14 1 C15.32 0.67 16.64 0.34 18 0 C18.33 3.3 18.66 6.6 19 10 C18.01 9.67 17.02 9.34 16 9 C13.89765056 9.74851382 13.89765056 9.74851382 11.8125 10.9375 C10.73935547 11.50791016 10.73935547 11.50791016 9.64453125 12.08984375 C9.10183594 12.39019531 8.55914062 12.69054687 8 13 C8.99 13.99 9.98 14.98 11 16 C7.2089881 14.55049545 3.6125362 12.84827434 0 11 C0 7.37 0 3.74 0 0 Z " fill="#7D897A" transform="translate(237,74)"/>
<path d="M0 0 C2.9375 2 2.9375 2 5 4 C3.36587557 5.70840281 2.13093906 6.93453047 0 8 C-3.50511213 7.61762413 -6.65202371 7.1159921 -10 6 C-12.43419051 6.45641072 -14.64473528 7.21491176 -17 8 C-17 7.34 -17 6.68 -17 6 C-11.85350834 2.002926 -6.67146383 -1.30813016 0 0 Z " fill="#457A52" transform="translate(152,104)"/>
<path d="M0 0 C0.66 0 1.32 0 2 0 C2.01981934 1.08007324 2.03963867 2.16014648 2.06005859 3.27294922 C2.13601623 7.27253913 2.22474816 11.27176052 2.31738281 15.27099609 C2.35571341 17.00334407 2.39055906 18.73577274 2.421875 20.46826172 C2.46743765 22.95569749 2.52544503 25.44257566 2.5859375 27.9296875 C2.59748871 28.70682098 2.60903992 29.48395447 2.62094116 30.28463745 C2.58793768 34.60650975 2.58793768 34.60650975 5 38 C4.34 38 3.68 38 3 38 C3 38.66 3 39.32 3 40 C2.01 40 1.02 40 0 40 C0 26.8 0 13.6 0 0 Z " fill="#291F25" transform="translate(30,62)"/>
<path d="M0 0 C2.6015625 1.21484375 2.6015625 1.21484375 5.625 2.9375 C6.62789062 3.50339844 7.63078125 4.06929687 8.6640625 4.65234375 C9.43492187 5.09707031 10.20578125 5.54179687 11 6 C10.01 6.495 10.01 6.495 9 7 C8.34 6.67 7.68 6.34 7 6 C7 6.66 7 7.32 7 8 C5.68 7.67 4.36 7.34 3 7 C2.67 7.99 2.34 8.98 2 10 C1.690625 9.05125 1.38125 8.1025 1.0625 7.125 C0.12605258 4.13919592 0.12605258 4.13919592 -1 2 C-1 14.54 -1 27.08 -1 40 C-1.66 39.67 -2.32 39.34 -3 39 C-2.67 26.46 -2.34 13.92 -2 1 C-1.34 0.67 -0.68 0.34 0 0 Z " fill="#53454D" transform="translate(192,14)"/>
<path d="M0 0 C0.99 0 1.98 0 3 0 C3.19627391 1.58226965 3.38165538 3.16589271 3.5625 4.75 C3.66691406 5.63171875 3.77132813 6.5134375 3.87890625 7.421875 C4.00071638 10.01525201 4.04954692 11.62861805 3 14 C0.85546875 15.66796875 0.85546875 15.66796875 -1.8125 17.1875 C-2.68519531 17.69667969 -3.55789063 18.20585938 -4.45703125 18.73046875 C-6.67971191 19.84010195 -8.57488184 20.53080464 -11 21 C-11.33 19.68 -11.66 18.36 -12 17 C-11.67 17.66 -11.34 18.32 -11 19 C-6.545 16.525 -6.545 16.525 -2 14 C-2.33 13.34 -2.66 12.68 -3 12 C-1.68 12 -0.36 12 1 12 C0.67 8.04 0.34 4.08 0 0 Z " fill="#281C23" transform="translate(267,62)"/>
<path d="M0 0 C1.6975594 0.58353604 3.35544725 1.28050817 5 2 C5.66837891 2.21978516 6.33675781 2.43957031 7.02539062 2.66601562 C9.67016625 3.81749905 11.14279012 4.7662069 13 7 C14.03373889 12.28273265 13.75240843 17.47084711 13.5 22.8125 C13.45984691 24.28310689 13.42334924 25.75381843 13.390625 27.22460938 C13.3027065 30.81858854 13.16481436 34.40863172 13 38 C12.01 38 11.02 38 10 38 C10.495 37.505 10.495 37.505 11 37 C11.15858842 34.85613343 11.25129298 32.70733162 11.31640625 30.55859375 C11.35830078 29.25341797 11.40019531 27.94824219 11.44335938 26.60351562 C11.48317608 25.2148467 11.52288825 23.82617478 11.5625 22.4375 C11.60567989 21.04490817 11.649294 19.65232972 11.69335938 18.25976562 C11.79985876 14.83995199 11.90186923 11.42006237 12 8 C9.69 7.67 7.38 7.34 5 7 C4.731875 6.195625 4.46375 5.39125 4.1875 4.5625 C3.795625 3.716875 3.40375 2.87125 3 2 C2.01 1.67 1.02 1.34 0 1 C0 0.67 0 0.34 0 0 Z " fill="#4A755D" transform="translate(132,57)"/>
<path d="M0 0 C7.7528462 0.6354792 7.7528462 0.6354792 11 4 C14.08457421 5.8766583 17.22944771 7.62073523 20.3828125 9.37890625 C23 11 23 11 24 13 C20.46501266 12.42570028 17.73564959 11.52247968 14.609375 9.78515625 C13.81789063 9.34623047 13.02640625 8.90730469 12.2109375 8.45507812 C11.39882812 7.99552734 10.58671875 7.53597656 9.75 7.0625 C8.92242187 6.60681641 8.09484375 6.15113281 7.2421875 5.68164062 C1.12987336 2.25974673 1.12987336 2.25974673 0 0 Z " fill="#1D6135" transform="translate(93,95)"/>
<path d="M0 0 C0.99 0.33 1.98 0.66 3 1 C2.83701416 1.55268555 2.67402832 2.10537109 2.50610352 2.67480469 C1.94455523 5.25473034 1.8869974 7.56355224 1.90234375 10.203125 C1.90556641 11.1828125 1.90878906 12.1625 1.91210938 13.171875 C1.92048828 14.18765625 1.92886719 15.2034375 1.9375 16.25 C1.94201172 17.28125 1.94652344 18.3125 1.95117188 19.375 C1.96293912 21.91672573 1.97937989 24.45833319 2 27 C1.01 27.33 0.02 27.66 -1 28 C-0.67 18.76 -0.34 9.52 0 0 Z " fill="#398857" transform="translate(123,120)"/>
<path d="M0 0 C4.66248914 1.68215295 8.83419863 4.05369612 13.125 6.5 C13.84042969 6.90347656 14.55585938 7.30695313 15.29296875 7.72265625 C18.26640058 9.40667465 21.15408274 11.10272183 24 13 C21.39588034 13.99988932 20.32761334 14.13680826 17.70996094 13.04370117 C16.89301758 12.54845947 16.07607422 12.05321777 15.234375 11.54296875 C14.34492188 11.00736328 13.45546875 10.47175781 12.5390625 9.91992188 C11.15847656 9.06237305 11.15847656 9.06237305 9.75 8.1875 C8.81414062 7.62740234 7.87828125 7.06730469 6.9140625 6.49023438 C1.83358094 3.39084439 1.83358094 3.39084439 0 2 C0 1.34 0 0.68 0 0 Z " fill="#231A1C" transform="translate(160,96)"/>
<path d="M0 0 C1.32 0 2.64 0 4 0 C4 6.93 4 13.86 4 21 C4.99 21.33 5.98 21.66 7 22 C6.67 23.65 6.34 25.3 6 27 C5.34 27 4.68 27 4 27 C4 26.34 4 25.68 4 25 C3.34 24.67 2.68 24.34 2 24 C2.01047363 23.37955811 2.02094727 22.75911621 2.03173828 22.11987305 C2.07330886 19.30912323 2.09932933 16.4984381 2.125 13.6875 C2.14175781 12.71103516 2.15851563 11.73457031 2.17578125 10.72851562 C2.18222656 9.79072266 2.18867187 8.85292969 2.1953125 7.88671875 C2.20578613 7.02264404 2.21625977 6.15856934 2.22705078 5.26831055 C2.15090168 2.71819279 2.15090168 2.71819279 0 0 Z " fill="#37B749" transform="translate(104,59)"/>
<path d="M0 0 C0.33 0 0.66 0 1 0 C1.04947698 3.93265896 1.08575578 7.86519714 1.10986328 11.7980957 C1.12485495 13.79319618 1.15026731 15.78820946 1.17578125 17.78320312 C1.18222656 19.03681641 1.18867188 20.29042969 1.1953125 21.58203125 C1.20578613 22.73936768 1.21625977 23.8967041 1.22705078 25.08911133 C1 28 1 28 -1 31 C-4.125 31.6875 -4.125 31.6875 -7 32 C-6.67 31.34 -6.34 30.68 -6 30 C-5.34 30 -4.68 30 -4 30 C-3.67 28.35 -3.34 26.7 -3 25 C-2.01 24.67 -1.02 24.34 0 24 C0 16.08 0 8.16 0 0 Z " fill="#055423" transform="translate(143,66)"/>
<path d="M0 0 C6.52307692 0.61538462 6.52307692 0.61538462 8.9375 2.5625 C9.288125 3.036875 9.63875 3.51125 10 4 C8.68 4 7.36 4 6 4 C6.99 4.99 7.98 5.98 9 7 C8.278125 6.773125 7.55625 6.54625 6.8125 6.3125 C3.23302798 5.91478089 1.94951545 7.08680079 -1 9 C-1.66 8.67 -2.32 8.34 -3 8 C-2.45276317 4.62537285 -1.9451 2.91765 0 0 Z " fill="#342E32" transform="translate(241,65)"/>
<path d="M0 0 C0.99 0.66 1.98 1.32 3 2 C1.68 2.33 0.36 2.66 -1 3 C-1 9.27 -1 15.54 -1 22 C0.32 22.33 1.64 22.66 3 23 C0.125 23.625 0.125 23.625 -3 24 C-3.66 23.34 -4.32 22.68 -5 22 C-4.01 22 -3.02 22 -2 22 C-2.165 20.948125 -2.33 19.89625 -2.5 18.8125 C-3.25711395 12.89421488 -3.08169679 6.95478821 -3 1 C-2.01 0.67 -1.02 0.34 0 0 Z " fill="#1C9447" transform="translate(134,74)"/>
<path d="M0 0 C0.33 0.66 0.66 1.32 1 2 C-1.58361933 4.89543545 -4.55290162 6.7116385 -7.875 8.6875 C-8.90367187 9.31011719 -9.93234375 9.93273437 -10.9921875 10.57421875 C-14.01086897 12.00515218 -15.71947204 12.32078963 -19 12 C-15.12678305 8.71183876 -11.10466735 6.20650914 -6.6875 3.75 C-6.04232422 3.38648437 -5.39714844 3.02296875 -4.73242188 2.6484375 C-3.15718584 1.76163795 -1.57890286 0.88025437 0 0 Z " fill="#356540" transform="translate(144,109)"/>
<path d="M0 0 C-1.98 0.99 -1.98 0.99 -4 2 C-3.01 2.66 -2.02 3.32 -1 4 C-1.66 4 -2.32 4 -3 4 C-3.33 4.66 -3.66 5.32 -4 6 C-7.01996783 6.54908506 -9.92619395 7 -13 7 C-15.0078864 7.64252365 -17.00882592 8.30741771 -19 9 C-16.53815995 6.24901766 -13.84266858 4.5976449 -10.625 2.8125 C-9.68914062 2.28269531 -8.75328125 1.75289062 -7.7890625 1.20703125 C-4.9185992 -0.03522808 -3.08584761 -0.25247844 0 0 Z " fill="#6BA370" transform="translate(121,49)"/>
<path d="M0 0 C-0.99 0.66 -1.98 1.32 -3 2 C-1.68 3.32 -0.36 4.64 1 6 C-5.93 5.505 -5.93 5.505 -13 5 C-12.01 4.01 -11.02 3.02 -10 2 C-10.33 1.34 -10.66 0.68 -11 0 C-9.54263913 -0.19491452 -8.08405407 -0.38069358 -6.625 -0.5625 C-5.81289062 -0.66691406 -5.00078125 -0.77132812 -4.1640625 -0.87890625 C-2 -1 -2 -1 0 0 Z " fill="#2D292D" transform="translate(189,67)"/>
<path d="M0 0 C0.66 0.33 1.32 0.66 2 1 C0.515 3.475 0.515 3.475 -1 6 C0.32 6.99 1.64 7.98 3 9 C2.34 10.32 1.68 11.64 1 13 C0.34 12.01 -0.32 11.02 -1 10 C-2.97956942 8.30911778 -4.97945196 6.64169528 -7 5 C-7.66 4.34 -8.32 3.68 -9 3 C-8.443125 2.87625 -7.88625 2.7525 -7.3125 2.625 C-4.90746492 2.03308138 -4.90746492 2.03308138 -2.375 0.875 C-1.59125 0.58625 -0.8075 0.2975 0 0 Z " fill="#241B21" transform="translate(254,65)"/>
<path d="M0 0 C4.36399838 0.57637714 7.07777386 2.51859031 10.3125 5.4375 C10.3125 5.7675 10.3125 6.0975 10.3125 6.4375 C7.3425 6.4375 4.3725 6.4375 1.3125 6.4375 C0.9825 5.4475 0.6525 4.4575 0.3125 3.4375 C-1.3375 3.1075 -2.9875 2.7775 -4.6875 2.4375 C-2.6875 0.4375 -2.6875 0.4375 0 0 Z " fill="#4E8958" transform="translate(119.6875,49.5625)"/>
<path d="M0 0 C0.33 0 0.66 0 1 0 C1 8.58 1 17.16 1 26 C0.67 26 0.34 26 0 26 C-0.33 24.35 -0.66 22.7 -1 21 C-1.66 21 -2.32 21 -3 21 C-3.125 17.625 -3.125 17.625 -3 14 C-2.34 13.34 -1.68 12.68 -1 12 C-0.53603307 9.10776497 -0.53603307 9.10776497 -0.375 5.875 C-0.30023438 4.77929688 -0.22546875 3.68359375 -0.1484375 2.5546875 C-0.09945312 1.71164063 -0.05046875 0.86859375 0 0 Z " fill="#44A15A" transform="translate(139,125)"/>
<path d="M0 0 C2.0625 0.4375 2.0625 0.4375 4 1 C4.33 3.31 4.66 5.62 5 8 C3.125 8.625 3.125 8.625 1 9 C-1 7 -1 7 -1.1875 3.9375 C-1 1 -1 1 0 0 Z " fill="#92AD99" transform="translate(181,115)"/>
<path d="M0 0 C-5.22583202 4.35486002 -8.09012671 6.31408515 -15 6 C-13 4 -13 4 -10 2 C-9.34 1.34 -8.68 0.68 -8 0 C-4.71023192 -1.09658936 -3.28696233 -0.79953138 0 0 Z " fill="#508559" transform="translate(130,103)"/>
<path d="M0 0 C0.33 0.66 0.66 1.32 1 2 C-0.98 2 -2.96 2 -5 2 C-5.33 2.99 -5.66 3.98 -6 5 C-7.0725 5.12375 -8.145 5.2475 -9.25 5.375 C-12.37863615 5.89643936 -14.33480424 6.40088254 -17 8 C-17 7.34 -17 6.68 -17 6 C-11.61348855 1.81651223 -6.85848737 -0.89458531 0 0 Z " fill="#578260" transform="translate(152,104)"/>
<path d="M0 0 C0.99 0 1.98 0 3 0 C3.66 2.97 4.32 5.94 5 9 C4.01 9.33 3.02 9.66 2 10 C1.67 13.3 1.34 16.6 1 20 C0.67 20 0.34 20 0 20 C0 13.4 0 6.8 0 0 Z " fill="#307543" transform="translate(138,124)"/>
<path d="M0 0 C0.33 0 0.66 0 1 0 C1 6.93 1 13.86 1 21 C0.67 21 0.34 21 0 21 C0 19.35 0 17.7 0 16 C-0.66 16 -1.32 16 -2 16 C-2 12.7 -2 9.4 -2 6 C-1.34 6 -0.68 6 0 6 C0 4.02 0 2.04 0 0 Z " fill="#3C7D4C" transform="translate(172,125)"/>
<path d="M0 0 C1.65 0.33 3.3 0.66 5 1 C5 2.98 5 4.96 5 7 C3.35 7 1.7 7 0 7 C-0.33 6.01 -0.66 5.02 -1 4 C-3.64 3.67 -6.28 3.34 -9 3 C-9 2.67 -9 2.34 -9 2 C-7.5629191 1.94577053 -6.12524538 1.90710277 -4.6875 1.875 C-3.88699219 1.85179688 -3.08648437 1.82859375 -2.26171875 1.8046875 C0 2 0 2 3 4 C2.01 2.68 1.02 1.36 0 0 Z " fill="#356D40" transform="translate(160,124)"/>
<path d="M0 0 C0.66 0.33 1.32 0.66 2 1 C1.67 4.96 1.34 8.92 1 13 C0.34 11.68 -0.32 10.36 -1 9 C-1.99 9.99 -2.98 10.98 -4 12 C-3.5317879 7.22423661 -2.75668002 3.95523655 0 0 Z " fill="#0F7B34" transform="translate(142,65)"/>
<path d="M0 0 C1.98738098 0.01761863 3.97253109 0.16698176 5.953125 0.33203125 C3.57902504 2.95603647 1.13947671 4.77771334 -2.046875 6.33203125 C-4.359375 6.01953125 -4.359375 6.01953125 -6.046875 5.33203125 C-3.15469741 0.51173527 -3.15469741 0.51173527 0 0 Z " fill="#2F7B45" transform="translate(134.046875,96.66796875)"/>
<path d="M0 0 C0.66 0.66 1.32 1.32 2 2 C1.67 2.33 1.34 2.66 1 3 C0.76712992 4.68183948 0.58735834 6.3712416 0.4375 8.0625 C0.35371094 8.98160156 0.26992187 9.90070313 0.18359375 10.84765625 C0.12300781 11.55792969 0.06242187 12.26820312 0 13 C-0.33 13 -0.66 13 -1 13 C-1.33 9.7 -1.66 6.4 -2 3 C-3.65 3 -5.3 3 -7 3 C-7.33 2.34 -7.66 1.68 -8 1 C-4.9553071 -0.84856355 -3.35670253 -1.34268101 0 0 Z " fill="#20B242" transform="translate(105,60)"/>
<path d="M0 0 C4.77609498 1.64178265 8.79382904 4.26546702 13 7 C12.67 7.66 12.34 8.32 12 9 C8.625 8.3125 8.625 8.3125 5 7 C3.75 4.4375 3.75 4.4375 3 2 C2.01 1.67 1.02 1.34 0 1 C0 0.67 0 0.34 0 0 Z " fill="#588662" transform="translate(132,57)"/>
<path d="M0 0 C4.54394294 0.53458152 7.29512312 2.39870347 11 5 C12.3191582 5.69429379 13.64649406 6.37530495 15 7 C13.359375 7.68359375 13.359375 7.68359375 11 8 C8.203125 6.78515625 8.203125 6.78515625 5.25 5.0625 C4.26515625 4.49660156 3.2803125 3.93070312 2.265625 3.34765625 C1.51796875 2.90292969 0.7703125 2.45820312 0 2 C0 1.34 0 0.68 0 0 Z " fill="#231C1F" transform="translate(64,94)"/>
<path d="M0 0 C0.66 0.66 1.32 1.32 2 2 C-0.31 2.66 -2.62 3.32 -5 4 C-5 3.34 -5 2.68 -5 2 C-6.65 2 -8.3 2 -10 2 C-7.87796313 -2.24407375 -3.91713209 -0.9167756 0 0 Z " fill="#42383E" transform="translate(58,50)"/>
<path d="M0 0 C0.66 0.99 1.32 1.98 2 3 C0.125 5.0625 0.125 5.0625 -3 7 C-6.40453547 7.0571754 -9.65331142 6.59785505 -13 6 C-13 5.67 -13 5.34 -13 5 C-9.04 4.34 -5.08 3.68 -1 3 C-0.67 2.01 -0.34 1.02 0 0 Z " fill="#2C6B35" transform="translate(165,141)"/>
<path d="M0 0 C0.99 0 1.98 0 3 0 C3 0.66 3 1.32 3 2 C4.98 2.66 6.96 3.32 9 4 C8.01 4.495 8.01 4.495 7 5 C6.67 5.66 6.34 6.32 6 7 C2.535 5.02 2.535 5.02 -1 3 C-0.67 2.01 -0.34 1.02 0 0 Z " fill="#397A47" transform="translate(154,108)"/>
<path d="M0 0 C2.475 0.99 2.475 0.99 5 2 C4.67 2.99 4.34 3.98 4 5 C2.35 5 0.7 5 -1 5 C-1 4.34 -1 3.68 -1 3 C-2.32 2.67 -3.64 2.34 -5 2 C-4.360625 1.855625 -3.72125 1.71125 -3.0625 1.5625 C-1.02454854 1.18992819 -1.02454854 1.18992819 0 0 Z " fill="#393033" transform="translate(258,96)"/>
<path d="M0 0 C0.66 0 1.32 0 2 0 C1.67 2.31 1.34 4.62 1 7 C-0.98 7.33 -2.96 7.66 -5 8 C-4.67 7.34 -4.34 6.68 -4 6 C-3.34 6 -2.68 6 -2 6 C-1.855625 5.195625 -1.71125 4.39125 -1.5625 3.5625 C-1 1 -1 1 0 0 Z " fill="#13682F" transform="translate(141,90)"/>
<path d="M0 0 C4.75 0.75 4.75 0.75 7 3 C5.68 3.33 4.36 3.66 3 4 C3 4.99 3 5.98 3 7 C2.34 7 1.68 7 1 7 C0.67 4.69 0.34 2.38 0 0 Z " fill="#3F9252" transform="translate(128,57)"/>
<path d="M0 0 C2.31386295 0.28064918 4.62609008 0.57481689 6.9375 0.875 C8.86916016 1.11863281 8.86916016 1.11863281 10.83984375 1.3671875 C12.40412109 1.68042969 12.40412109 1.68042969 14 2 C14.33 2.66 14.66 3.32 15 4 C8.07 3.505 8.07 3.505 1 3 C0.67 2.01 0.34 1.02 0 0 Z " fill="#306F41" transform="translate(147,134)"/>
<path d="M0 0 C2.64 0.33 5.28 0.66 8 1 C8.66 2.65 9.32 4.3 10 6 C6.40992874 4.66654496 3.20429093 3.1056769 0 1 C0 0.67 0 0.34 0 0 Z " fill="#296F3A" transform="translate(93,95)"/>
<path d="M0 0 C6.75 -0.125 6.75 -0.125 9 1 C8.67 1.66 8.34 2.32 8 3 C6.34608154 3.39171753 4.67654729 3.72057545 3 4 C2.01 4.33 1.02 4.66 0 5 C-0.66 4.34 -1.32 3.68 -2 3 C-1.01 2.67 -0.02 2.34 1 2 C0.67 1.34 0.34 0.68 0 0 Z " fill="#393739" transform="translate(243,90)"/>
<path d="M0 0 C0.99 0 1.98 0 3 0 C3 0.99 3 1.98 3 3 C3.66 3 4.32 3 5 3 C4.67 4.32 4.34 5.64 4 7 C2.68 6.67 1.36 6.34 0 6 C0 4.02 0 2.04 0 0 Z " fill="#45B551" transform="translate(107,57)"/>
<path d="M0 0 C0.33 0 0.66 0 1 0 C1.625 3.375 1.625 3.375 2 7 C1.34 7.66 0.68 8.32 0 9 C-0.33 8.67 -0.66 8.34 -1 8 C-2.66617115 7.95936168 -4.33388095 7.957279 -6 8 C-4.68 7.67 -3.36 7.34 -2 7 C-1.34 4.69 -0.68 2.38 0 0 Z " fill="#3C8257" transform="translate(138,145)"/>
<path d="M0 0 C3.99500618 1.3697164 6.80009492 3.25722422 10 6 C5.76907828 6.36265043 3.37362154 5.60250805 0 3 C0 2.01 0 1.02 0 0 Z " fill="#396F49" transform="translate(162,115)"/>
<path d="M0 0 C1.32 0.66 2.64 1.32 4 2 C2.36587557 3.70840281 1.13093906 4.93453047 -1 6 C-1.99 5.01 -2.98 4.02 -4 3 C-2.68 2.01 -1.36 1.02 0 0 Z " fill="#4D8058" transform="translate(153,106)"/>
<path d="M0 0 C0.33 3.3 0.66 6.6 1 10 C0.34 9.67 -0.32 9.34 -1 9 C-1.625 6.4375 -1.625 6.4375 -2 4 C-2.66 4 -3.32 4 -4 4 C-4 3.01 -4 2.02 -4 1 C-1 0 -1 0 0 0 Z " fill="#807E7C" transform="translate(255,74)"/>
<path d="M0 0 C0.99 0.33 1.98 0.66 3 1 C3.99 0.67 4.98 0.34 6 0 C6 0.66 6 1.32 6 2 C4.03533587 3.06775224 2.03144641 4.06553465 0 5 C-0.66 4.67 -1.32 4.34 -2 4 C-2 3.01 -2 2.02 -2 1 C-1.34 0.67 -0.68 0.34 0 0 Z " fill="#4B915B" transform="translate(165,150)"/>
<path d="M0 0 C2 0 2 0 3.875 1.8125 C4.57625 2.534375 5.2775 3.25625 6 4 C7.31558703 5.02323436 8.64377755 6.03126968 10 7 C7.0374441 7.24687966 5.37943983 7.21079991 2.75 5.75 C0.81998328 3.81998328 0.36793618 2.66753731 0 0 Z " fill="#3C6E4B" transform="translate(122,148)"/>
<path d="M0 0 C0.99 0.33 1.98 0.66 3 1 C2.67 1.99 2.34 2.98 2 4 C1.77674186 6.05893621 1.59294241 8.12233653 1.4375 10.1875 C1.35371094 11.27417969 1.26992187 12.36085937 1.18359375 13.48046875 C1.12300781 14.31191406 1.06242187 15.14335937 1 16 C0.67 16 0.34 16 0 16 C0 10.72 0 5.44 0 0 Z " fill="#38935E" transform="translate(123,120)"/>
<path d="M0 0 C1.32 1.65 2.64 3.3 4 5 C3.67 5.66 3.34 6.32 3 7 C0.36 5.35 -2.28 3.7 -5 2 C-4.01 1.67 -3.02 1.34 -2 1 C-1.34 1.33 -0.68 1.66 0 2 C0 1.34 0 0.68 0 0 Z " fill="#197E37" transform="translate(113,100)"/>
<path d="M0 0 C-0.66 0.66 -1.32 1.32 -2 2 C-1.67 2.66 -1.34 3.32 -1 4 C-2.98 4 -4.96 4 -7 4 C-7 3.01 -7 2.02 -7 1 C-4.53721199 -0.231394 -2.7204945 -0.07159196 0 0 Z " fill="#2A2025" transform="translate(246,52)"/>
<path d="M0 0 C3.48539917 0.64544429 6.02819057 2.10134397 9 4 C7.3125 4.8125 7.3125 4.8125 5 5 C2.25 2.5625 2.25 2.5625 0 0 Z " fill="#261D23" transform="translate(223,95)"/>
<path d="M0 0 C2.9375 0.375 2.9375 0.375 6 1 C6.33 1.66 6.66 2.32 7 3 C5.68 2.67 4.36 2.34 3 2 C3 2.66 3 3.32 3 4 C1.35 3.67 -0.3 3.34 -2 3 C-1.34 2.01 -0.68 1.02 0 0 Z " fill="#393337" transform="translate(196,18)"/>
<path d="M0 0 C0.33 0.99 0.66 1.98 1 3 C1.99 3.33 2.98 3.66 4 4 C2 5 0 6 -2 7 C-2 5.02 -2 3.04 -2 1 C-1.34 0.67 -0.68 0.34 0 0 Z " fill="#568064" transform="translate(140,154)"/>
<path d="M0 0 C0.66 0 1.32 0 2 0 C1.45773019 3.79588866 -0.20127563 5.47211993 -3 8 C-3.66 7.67 -4.32 7.34 -5 7 C-4.0409375 6.1028125 -4.0409375 6.1028125 -3.0625 5.1875 C-0.79689611 3.09189663 -0.79689611 3.09189663 0 0 Z " fill="#347744" transform="translate(173,147)"/>
<path d="M0 0 C2 1.8125 2 1.8125 4 4 C4 4.99 4 5.98 4 7 C3.01 6.67 2.02 6.34 1 6 C0.67 5.01 0.34 4.02 0 3 C-0.99 2.34 -1.98 1.68 -3 1 C-2.01 0.67 -1.02 0.34 0 0 Z " fill="#7C8D81" transform="translate(185,115)"/>
<path d="M0 0 C2.97 0.495 2.97 0.495 6 1 C5 3 5 3 2 5 C-0.1875 4.625 -0.1875 4.625 -2 4 C-1.01 3.34 -0.02 2.68 1 2 C0.67 1.34 0.34 0.68 0 0 Z " fill="#191418" transform="translate(178,67)"/>
<path d="M0 0 C1.32 1.32 2.64 2.64 4 4 C3.01 4.495 3.01 4.495 2 5 C-0.625 4.0625 -0.625 4.0625 -3 3 C-3 2.34 -3 1.68 -3 1 C-2.01 0.67 -1.02 0.34 0 0 Z " fill="#458055" transform="translate(127,147)"/>
<path d="M0 0 C0.33 0 0.66 0 1 0 C1.20086443 3.71599191 1.1519437 4.77208445 -1 8 C-1.66 7.67 -2.32 7.34 -3 7 C-2.38722388 4.03824877 -1.74627478 2.61941217 0 0 Z " fill="#7C8B7E" transform="translate(179,116)"/>
<path d="M0 0 C-1 3 -1 3 -3.375 4.25 C-6 5 -6 5 -9 4 C-2.25 0 -2.25 0 0 0 Z " fill="#1D1618" transform="translate(194,102)"/>
<path d="M0 0 C-2.8125 2.0625 -2.8125 2.0625 -6 4 C-6.99 3.67 -7.98 3.34 -9 3 C-8 1 -8 1 -5.0625 -0.1875 C-2 -1 -2 -1 0 0 Z " fill="#1E171A" transform="translate(261,101)"/>
<path d="M0 0 C1.65 0.33 3.3 0.66 5 1 C3.35 2.32 1.7 3.64 0 5 C-0.99 4.34 -1.98 3.68 -3 3 C-2.01 2.67 -1.02 2.34 0 2 C0 1.34 0 0.68 0 0 Z " fill="#49894B" transform="translate(125,102)"/>
<path d="M0 0 C3.37503669 1.1858237 5.64722731 2.27573689 8 5 C4.40142046 5 2.90548882 4.04169485 0 2 C0 1.34 0 0.68 0 0 Z " fill="#292124" transform="translate(160,96)"/>
<path d="M0 0 C0.144375 0.639375 0.28875 1.27875 0.4375 1.9375 C0.81007181 3.97545146 0.81007181 3.97545146 2 5 C2.04080783 6.99958364 2.04254356 9.00045254 2 11 C0.66666667 8.33333333 -0.66666667 5.66666667 -2 3 C-1.34 2.01 -0.68 1.02 0 0 Z " fill="#2CB348" transform="translate(106,79)"/>
<path d="M0 0 C2.91517292 1.07401108 4.77810176 1.77810176 7 4 C6.34 4 5.68 4 5 4 C5 4.66 5 5.32 5 6 C3.68 5.67 2.36 5.34 1 5 C1.66 4.67 2.32 4.34 3 4 C3 3.34 3 2.68 3 2 C2.01 1.67 1.02 1.34 0 1 C0 0.67 0 0.34 0 0 Z " fill="#464142" transform="translate(69,57)"/>
<path d="M0 0 C0.33 0.66 0.66 1.32 1 2 C0.0625 4.625 0.0625 4.625 -1 7 C-1.66 7 -2.32 7 -3 7 C-3.1875 4.625 -3.1875 4.625 -3 2 C-2.01 1.34 -1.02 0.68 0 0 Z " fill="#568D57" transform="translate(145,125)"/>
<path d="M0 0 C4.31392226 0.4793247 6.16569547 1.7457985 9 5 C6.69 4.67 4.38 4.34 2 4 C2 3.34 2 2.68 2 2 C1.34 1.34 0.68 0.68 0 0 Z " fill="#1E1717" transform="translate(238,86)"/>
</svg>
