<?xml version="1.0" encoding="UTF-8"?>
<svg version="1.1" xmlns="http://www.w3.org/2000/svg" width="174" height="180">
<path d="M0 0 C4.58541712 3.25260763 8.61947704 6.30534279 10 12 C10.66 12 11.32 12 12 12 C13.03544174 13.90881434 14.05290085 15.82739204 15.0625 17.75 C15.63097656 18.81734375 16.19945312 19.8846875 16.78515625 20.984375 C18.01044806 24.02593537 18.25348607 25.04893565 17 28 C16.01 27.95875 15.02 27.9175 14 27.875 C9.76164134 27.8576652 6.06806015 28.85808838 2 30 C2 30.66 2 31.32 2 32 C1.34 32 0.68 32 0 32 C-0.22750966 33.78933272 -0.43076886 35.58174974 -0.625 37.375 C-0.74101563 38.37273438 -0.85703125 39.37046875 -0.9765625 40.3984375 C-1.04020447 50.17808671 2.53451417 58.0435891 6.8125 66.6875 C7.59463867 68.32041992 7.59463867 68.32041992 8.39257812 69.98632812 C11.18619752 75.72353649 14.09254966 80.95137192 18 86 C17.21625 86.515625 16.4325 87.03125 15.625 87.5625 C9.7390199 93.02805295 10.30378807 102.44874556 9.5625 110 C6.46204875 139.35696774 6.46204875 139.35696774 1 146 C-5.51926536 150.34169631 -12.24903719 151.75009318 -20 151 C-23.65894238 149.53642305 -26.10913229 147.41292664 -28.16333008 144.00708008 C-32.51318617 133.57224875 -31.42459052 120.28830615 -31.625 109.1875 C-31.66328169 107.41599858 -31.70233889 105.64451374 -31.7421875 103.87304688 C-31.83705004 99.58216963 -31.92147313 95.291206 -32 91 C-32.66 91 -33.32 91 -34 91 C-34.433125 90.54625 -34.86625 90.0925 -35.3125 89.625 C-37.35784127 87.65541211 -39.36284645 86.98947034 -42 86 C-41.79318604 85.45174561 -41.58637207 84.90349121 -41.37329102 84.33862305 C-35.74382326 70.0728458 -35.74382326 70.0728458 -34 55 C-34.02578125 53.92234375 -34.0515625 52.8446875 -34.078125 51.734375 C-34.45796359 44.17213396 -35.35635364 37.96546954 -39.625 31.5625 C-43.27954471 29.15819427 -46.66815137 28.80493228 -51 29 C-54.43961002 29.74060967 -57.69758864 30.79587167 -61 32 C-62.485 32.495 -62.485 32.495 -64 33 C-64.93637604 21.52939354 -61.42208 10.25339899 -54.27734375 1.3125 C-38.87369685 -14.32893904 -17.11612018 -10.2821353 0 0 Z " fill="#366790" transform="translate(120,20)"/>
<path d="M0 0 C0.8247583 -0.00128906 1.6495166 -0.00257812 2.49926758 -0.00390625 C10.12381867 0.1258859 16.76007883 1.75225556 23.9375 4.375 C22.60416667 7.04166667 21.27083333 9.70833333 19.9375 12.375 C19.2775 12.375 18.6175 12.375 17.9375 12.375 C17.75574219 13.06464844 17.57398438 13.75429688 17.38671875 14.46484375 C15.98518322 19.70443041 14.51154772 24.84121836 12.5859375 29.9140625 C10.1895222 39.00889164 10.65160262 48.83477177 10.58740234 58.16723633 C10.57081637 59.9290892 10.54349144 61.69087406 10.50537109 63.45239258 C10.18406999 77.62950886 10.18406999 77.62950886 15.9375 90.375 C16.62140204 91.69957549 17.29353368 93.03055603 17.9375 94.375 C17.27363281 95.09945312 16.60976563 95.82390625 15.92578125 96.5703125 C15.04277344 97.53710938 14.15976562 98.50390625 13.25 99.5 C12.78883789 100.00265381 12.32767578 100.50530762 11.85253906 101.02319336 C9.51381709 103.5857739 7.27853485 106.17015684 5.1875 108.9375 C2.56227808 111.78149041 0.71224408 112.63646312 -3.0625 113.375 C-4.5475 112.88 -4.5475 112.88 -6.0625 112.375 C-6.0625 111.715 -6.0625 111.055 -6.0625 110.375 C-6.7225 110.375 -7.3825 110.375 -8.0625 110.375 C-17.02368736 99.80256467 -20.46062542 87.44926714 -24.0625 74.375 C-24.28615234 73.56546875 -24.50980469 72.7559375 -24.74023438 71.921875 C-26.24907731 66.42259644 -27.67946809 60.90712763 -29.0625 55.375 C-29.31257813 54.4159375 -29.56265625 53.456875 -29.8203125 52.46875 C-32.57362804 40.21455688 -33.58450669 23.49251294 -27.0625 12.375 C-20.37727598 2.52116296 -11.42795646 -0.01860284 0 0 Z " fill="#34658E" transform="translate(41.0625,11.625)"/>
<path d="M0 0 C1.45962158 0.00845947 1.45962158 0.00845947 2.94873047 0.01708984 C16.34200911 0.2440184 29.6143237 4.29389273 39.59765625 13.69140625 C47.24469701 21.80783059 49.61270219 28.97287582 49.37890625 40.1015625 C47.62814713 62.24193166 39.55931263 84.34313343 28.125 103.3125 C28.82367188 103.15265625 29.52234375 102.9928125 30.2421875 102.828125 C33.28818513 102.28331242 36.15696006 102.10901188 39.25 102.0625 C40.28382813 102.03671875 41.31765625 102.0109375 42.3828125 101.984375 C45.125 102.3125 45.125 102.3125 46.9296875 103.703125 C49.65053496 107.36648825 49.35092399 110.91567162 49.125 115.3125 C48.625 117.8125 48.625 117.8125 48.125 119.3125 C47.135 119.3125 46.145 119.3125 45.125 119.3125 C44.795 120.3025 44.465 121.2925 44.125 122.3125 C43.465 122.3125 42.805 122.3125 42.125 122.3125 C41.795 122.9725 41.465 123.6325 41.125 124.3125 C39.3359375 125.3046875 39.3359375 125.3046875 37.125 126.3125 C36.43664062 126.66570312 35.74828125 127.01890625 35.0390625 127.3828125 C27.7319754 130.74955912 21.07115611 130.72469254 13.125 130.3125 C13.31320313 130.92996094 13.50140625 131.54742187 13.6953125 132.18359375 C15.26053454 143.58125608 11.94452566 158.43642264 6.125 168.3125 C4.56442301 170.33666015 3.12781729 171.67862274 1.125 173.3125 C0.66609375 173.80234375 0.2071875 174.2921875 -0.265625 174.796875 C-5.84798353 180.0540476 -13.31095954 180.71557833 -20.625 180.8125 C-21.34574707 180.83078857 -22.06649414 180.84907715 -22.80908203 180.86791992 C-27.97326339 180.80884274 -30.88647234 179.52118121 -34.875 176.3125 C-42.74690056 168.20907296 -43.80716023 158.11454234 -44.875 147.3125 C-45.04322266 145.62447266 -45.04322266 145.62447266 -45.21484375 143.90234375 C-45.45305214 141.37341904 -45.67495206 138.84468574 -45.875 136.3125 C-46.865 136.6425 -47.855 136.9725 -48.875 137.3125 C-58.77423403 137.92312891 -67.98235797 138.21856178 -75.875 131.3125 C-75.875 131.9725 -75.875 132.6325 -75.875 133.3125 C-82.04931063 135.54576129 -87.62201779 135.87109777 -93.87890625 133.578125 C-96.55498862 131.88135262 -98.17291464 129.79960135 -100.125 127.3125 C-101.18460938 125.9821875 -101.18460938 125.9821875 -102.265625 124.625 C-103.875 122.3125 -103.875 122.3125 -103.875 120.3125 C-104.535 120.3125 -105.195 120.3125 -105.875 120.3125 C-118.24411905 91.26916592 -133.12718182 53.67259091 -120.7265625 22.41796875 C-116.53630188 13.5651349 -109.56702177 7.96402945 -100.5 4.375 C-94.62648202 2.65345163 -89.28105436 2.05687977 -83.1875 2 C-82.35605469 1.99129883 -81.52460937 1.98259766 -80.66796875 1.97363281 C-73.90119316 2.03240768 -67.7151674 3.15789709 -61.27856445 5.2409668 C-55.5502785 6.87383721 -52.19506578 5.49405765 -46.78417969 3.2734375 C-41.80987569 1.63036428 -36.9302731 1.96973056 -31.75 2.1875 C-25.23472331 2.4098925 -19.46753877 2.40265205 -13.14013672 0.78417969 C-8.80057785 -0.11946633 -4.4164696 -0.02676648 0 0 Z M-19.33203125 7.91796875 C-23.09437522 8.33692877 -26.42525586 8.12741626 -30.1875 7.75 C-37.84967008 7.1670088 -44.19982441 7.4749122 -51.125 10.9375 C-54.99828581 12.8741429 -57.82707455 12.94175084 -61.97265625 11.66796875 C-63.52007372 11.12915958 -65.06693011 10.58873689 -66.61328125 10.046875 C-77.09263396 6.6442527 -91.39672101 6.70364963 -101.4765625 11.0625 C-109.48190459 15.23466526 -113.73970913 19.73298311 -116.875 28.3125 C-122.27750263 46.79978738 -117.59835022 65.16352449 -112.875 83.3125 C-112.65118652 84.18165039 -112.42737305 85.05080078 -112.19677734 85.94628906 C-105.94787097 110.27203798 -105.94787097 110.27203798 -89.875 128.3125 C-86.38360403 129.42677531 -84.50833693 129.50525472 -81 128.4375 C-76.55865369 125.41738451 -73.087707 121.60969947 -69.875 117.3125 C-69.875 116.6525 -69.875 115.9925 -69.875 115.3125 C-69.215 115.3125 -68.555 115.3125 -67.875 115.3125 C-66.29659428 113.75544806 -66.29659428 113.75544806 -64.75 111.8125 C-63.80125 110.6575 -62.8525 109.5025 -61.875 108.3125 C-58.905 108.9725 -55.935 109.6325 -52.875 110.3125 C-52.875 112.3125 -52.875 112.3125 -54.4609375 114.3046875 C-57.38153323 116.73379139 -59.84430235 117.45549544 -63.5 118.4375 C-68.155586 119.55549125 -68.155586 119.55549125 -71.875 122.3125 C-71.875 123.6325 -71.875 124.9525 -71.875 126.3125 C-71.215 126.3125 -70.555 126.3125 -69.875 126.3125 C-69.545 127.3025 -69.215 128.2925 -68.875 129.3125 C-62.40993841 131.98285153 -54.90371732 132.61417621 -48.203125 130.44921875 C-44.25690299 128.82447017 -44.25690299 128.82447017 -40.875 126.3125 C-40.845271 127.30092896 -40.845271 127.30092896 -40.81494141 128.30932617 C-41.42247255 151.87015002 -41.42247255 151.87015002 -31.875 172.3125 C-26.77956155 176.22295277 -21.03676485 176.02441705 -14.875 175.3125 C-7.99641195 173.84445235 -2.56464617 171.3971557 1.765625 165.7265625 C4.49235489 160.88426632 5.33156189 155.75048309 6.125 150.3125 C6.25890137 149.39726562 6.39280273 148.48203125 6.53076172 147.5390625 C8.40074786 135.47204492 8.40074786 135.47204492 9.125 123.3125 C9.98544922 123.55419922 9.98544922 123.55419922 10.86328125 123.80078125 C21.61920481 126.23433218 30.80305909 122.91765289 39.83984375 117.26171875 C42.3786719 115.09612004 43.17327317 113.47223306 44.125 110.3125 C42.87078445 108.7136293 42.87078445 108.7136293 41.125 107.3125 C39.06247118 107.48155974 36.99897437 107.67275556 34.953125 107.984375 C29.37307668 108.63178392 23.73457269 108.3843153 18.125 108.3125 C18.74246094 107.25675781 19.35992187 106.20101562 19.99609375 105.11328125 C28.61106765 90.14367245 36.86265827 74.41087261 40.125 57.3125 C40.53685547 55.49685547 40.53685547 55.49685547 40.95703125 53.64453125 C44.37271114 38.16397075 44.37271114 38.16397075 40.125 23.3125 C37.72954619 20.33003216 37.72954619 20.33003216 35.125 18.3125 C34.465 18.3125 33.805 18.3125 33.125 18.3125 C33.125 17.6525 33.125 16.9925 33.125 16.3125 C17.37255688 3.66788898 -0.47685273 4.61564935 -19.33203125 7.91796875 Z " fill="#2B2A2A" transform="translate(124.875,-0.3125)"/>
<path d="M0 0 C4.64052448 3.84919293 8.10356486 7.20942752 8.79296875 13.4140625 C10.07175726 32.59589019 2.59231005 51.63254515 -5.33203125 68.7265625 C-5.64422607 69.40138672 -5.9564209 70.07621094 -6.27807617 70.77148438 C-8.48984589 75.35988338 -11.04757827 79.41036225 -14.20703125 83.4140625 C-14.86703125 83.4140625 -15.52703125 83.4140625 -16.20703125 83.4140625 C-15.99509125 82.8174028 -15.78315125 82.2207431 -15.56478882 81.60600281 C-13.42656952 75.14304283 -12.76444266 69.40165428 -12.80859375 62.62109375 C-12.80572357 61.63082687 -12.80285339 60.64056 -12.79989624 59.62028503 C-12.79786918 57.54380719 -12.8033031 55.46730965 -12.81591797 53.39086914 C-12.83204258 50.22433735 -12.81599604 47.05907176 -12.796875 43.89257812 C-12.79885667 41.86458054 -12.80269876 39.83658374 -12.80859375 37.80859375 C-12.80252106 36.86989944 -12.79644836 35.93120514 -12.79019165 34.96406555 C-12.92503472 22.29965898 -20.52307119 11.29371743 -29.20703125 2.4140625 C-33.38053868 -1.42105244 -38.23174349 -3.94112222 -43.20703125 -6.5859375 C-33.26239668 -16.53057207 -9.09208074 -6.53342439 0 0 Z " fill="#366890" transform="translate(155.20703125,18.5859375)"/>
<path d="M0 0 C0.53625 0.268125 1.0725 0.53625 1.625 0.8125 C0.965 1.4725 0.305 2.1325 -0.375 2.8125 C-1.08908334 4.79606483 -1.76117742 6.79565437 -2.375 8.8125 C-3.035 8.8125 -3.695 8.8125 -4.375 8.8125 C-5.04583254 10.47749427 -5.71149034 12.144574 -6.375 13.8125 C-6.72820313 14.68003906 -7.08140625 15.54757813 -7.4453125 16.44140625 C-14.32566564 35.5789811 -9.32748689 54.78309099 -4.375 73.8125 C-4.15118652 74.68165039 -3.92737305 75.55080078 -3.69677734 76.44628906 C2.35677073 99.97991715 2.35677073 99.97991715 17.625 117.8125 C21.05086614 118.85515491 23.04695843 118.97585957 26.5 118 C30.49605045 115.20276468 33.00874904 111.79846787 35.890625 107.89453125 C36.74914063 106.86392578 36.74914063 106.86392578 37.625 105.8125 C38.285 105.8125 38.945 105.8125 39.625 105.8125 C39.851875 105.235 40.07875 104.6575 40.3125 104.0625 C42.06529803 101.05770338 43.60218076 99.55901779 46.625 97.8125 C50.66589105 98.50920535 53.21544318 99.53946212 56.625 101.8125 C51.99251538 107.63619495 47.64514408 109.00993269 40.453125 110.66015625 C37.40557827 111.54948434 37.40557827 111.54948434 36.234375 114.43359375 C36.03328125 115.21863281 35.8321875 116.00367187 35.625 116.8125 C36.285 116.8125 36.945 116.8125 37.625 116.8125 C37.955 117.4725 38.285 118.1325 38.625 118.8125 C46.48044547 121.88636997 54.47463717 121.94320442 62.3125 118.8125 C63.75863419 118.16477582 65.19977375 117.50501774 66.625 116.8125 C66.70569658 119.77137459 66.76534665 122.7280659 66.8125 125.6875 C66.83763672 126.52925781 66.86277344 127.37101562 66.88867188 128.23828125 C66.89833984 129.04394531 66.90800781 129.84960938 66.91796875 130.6796875 C66.9336792 131.42331543 66.94938965 132.16694336 66.96557617 132.93310547 C66.85318604 133.55330566 66.7407959 134.17350586 66.625 134.8125 C65.635 135.4725 64.645 136.1325 63.625 136.8125 C63.625 132.8525 63.625 128.8925 63.625 124.8125 C62.965 124.8125 62.305 124.8125 61.625 124.8125 C61.625 125.4725 61.625 126.1325 61.625 126.8125 C54.99264087 129.02328638 45.55478503 128.89375273 38.9375 126.5 C36.22304018 125.11716198 33.91174088 123.81339827 31.625 121.8125 C31.625 122.4725 31.625 123.1325 31.625 123.8125 C25.45068937 126.04576129 19.87798221 126.37109777 13.62109375 124.078125 C10.94501138 122.38135262 9.32708536 120.29960135 7.375 117.8125 C6.31539062 116.4821875 6.31539062 116.4821875 5.234375 115.125 C3.625 112.8125 3.625 112.8125 3.625 110.8125 C2.965 110.8125 2.305 110.8125 1.625 110.8125 C-9.99967472 83.51715987 -25.6558982 45.55689076 -14.375 15.8125 C-7.14623274 -0.56417627 -7.14623274 -0.56417627 0 0 Z " fill="#292828" transform="translate(17.375,9.1875)"/>
<path d="M0 0 C1.16015625 0.10054687 1.16015625 0.10054687 2.34375 0.203125 C5.0148199 0.88057027 5.88442609 1.51965017 7.5 3.75 C12.96801599 19.5914949 10.59762879 33.9506889 3.5 48.75 C2.82165413 50.41194738 2.14800425 52.07598903 1.5 53.75 C-5.90556677 52.52380594 -10.15623314 50.94012712 -14.75 44.6875 C-17.48215789 40.10137783 -17.63556411 36.42618416 -17.59765625 31.23828125 C-17.5962413 30.51005661 -17.59482635 29.78183197 -17.59336853 29.03153992 C-17.58777659 26.70848461 -17.57522562 24.38552612 -17.5625 22.0625 C-17.55748396 20.48632952 -17.55292123 18.91015752 -17.54882812 17.33398438 C-17.5378098 13.47261902 -17.52055074 9.61132592 -17.5 5.75 C-15.8970947 4.93501438 -14.29262722 4.12310073 -12.6875 3.3125 C-11.79417969 2.86003906 -10.90085937 2.40757813 -9.98046875 1.94140625 C-6.3773803 0.21078896 -3.93930039 -0.39393004 0 0 Z M-2.5 3.75 C-2.5 4.74 -2.5 5.73 -2.5 6.75 C-1.84 7.41 -1.18 8.07 -0.5 8.75 C2.10280568 8.42958603 2.10280568 8.42958603 4.5 7.75 C4.5 6.76 4.5 5.77 4.5 4.75 C2.19 4.42 -0.12 4.09 -2.5 3.75 Z " fill="#386891" transform="translate(72.5,52.25)"/>
<path d="M0 0 C5.445 1.485 5.445 1.485 11 3 C6.53263683 9.63722528 2.58118125 11.16581146 -5.171875 12.8828125 C-8.22160471 13.73393323 -8.22160471 13.73393323 -9.390625 16.6171875 C-9.59171875 17.40351562 -9.7928125 18.18984375 -10 19 C-9.34 19 -8.68 19 -8 19 C-7.505 19.99 -7.505 19.99 -7 21 C0.85544547 24.07386997 8.84963717 24.13070442 16.6875 21 C18.13363419 20.35227582 19.57477375 19.69251774 21 19 C21.08069658 21.95887459 21.14034665 24.9155659 21.1875 27.875 C21.21263672 28.71675781 21.23777344 29.55851562 21.26367188 30.42578125 C21.27333984 31.23144531 21.28300781 32.03710938 21.29296875 32.8671875 C21.3086792 33.61081543 21.32438965 34.35444336 21.34057617 35.12060547 C21.17199097 36.05090576 21.17199097 36.05090576 21 37 C20.01 37.66 19.02 38.32 18 39 C18 35.04 18 31.08 18 27 C17.34 27 16.68 27 16 27 C16 27.66 16 28.32 16 29 C9.36764087 31.21078638 -0.07021497 31.08125273 -6.6875 28.6875 C-9.40195982 27.30466198 -11.71325912 26.00089827 -14 24 C-14 24.66 -14 25.32 -14 26 C-20.15214163 28.22524272 -25.87518031 28.66084422 -32.06640625 26.16796875 C-34.22704972 24.8628528 -35.61599206 23.48122145 -37.25 21.5625 C-37.77078125 20.96566406 -38.2915625 20.36882812 -38.828125 19.75390625 C-40 18 -40 18 -40 15 C-39.34 15 -38.68 15 -38 15 C-37.67 14.34 -37.34 13.68 -37 13 C-36.41992188 13.49371094 -35.83984375 13.98742187 -35.2421875 14.49609375 C-29.37018312 19.58565203 -29.37018312 19.58565203 -22 21 C-16.05655947 19.32033202 -13.25085965 14.84564127 -9.734375 10.08203125 C-9.16203125 9.39496094 -8.5896875 8.70789063 -8 8 C-7.34 8 -6.68 8 -6 8 C-5.7525 7.4225 -5.505 6.845 -5.25 6.25 C-4 4 -4 4 0 0 Z " fill="#282828" transform="translate(63,107)"/>
<path d="M0 0 C0.04946121 5.62335936 0.08574868 11.2465919 0.10986328 16.87011719 C0.1199169 18.78290004 0.13356173 20.69566755 0.15087891 22.60839844 C0.17515522 25.35876252 0.1864895 28.10892328 0.1953125 30.859375 C0.20563507 31.71368103 0.21595764 32.56798706 0.22659302 33.44818115 C0.22674408 34.24870911 0.22689514 35.04923706 0.22705078 35.87402344 C0.231492 36.57573669 0.23593323 37.27744995 0.24050903 38.00042725 C-0.04074209 40.33872645 -0.84714899 41.96267675 -2 44 C-2.66 44 -3.32 44 -4 44 C-19.44778908 15.84409383 -19.44778908 15.84409383 -17.3125 5.75 C-15.84095753 2.66676816 -15.02525275 1.55350817 -12 0 C-7.60652014 -0.95857742 -4.34525444 -0.9838312 0 0 Z M-12 3 C-12 3.99 -12 4.98 -12 6 C-8.95086772 7.01111093 -8.95086772 7.01111093 -6 6 C-6 5.01 -6 4.02 -6 3 C-7.98 3 -9.96 3 -12 3 Z " fill="#416D91" transform="translate(139,52)"/>
<path d="M0 0 C0.33 0 0.66 0 1 0 C1.01981934 0.68924561 1.03963867 1.37849121 1.06005859 2.08862305 C0.24932828 25.44054949 0.24932828 25.44054949 9 46 C14.11039339 49.89363306 19.84091644 49.71883203 26 49 C32.30063066 47.59614595 37.85946009 45.54251791 41.8515625 40.28125 C44.25504365 35.50698813 45.10315363 30.23160383 46 25 C46.28875 25.598125 46.5775 26.19625 46.875 26.8125 C48.04742026 29.19327792 48.04742026 29.19327792 50 32 C50.33 32.66 50.66 33.32 51 34 C47.48054354 43.27109737 43.57871569 48.93459177 34.6875 53.3125 C29.8833037 55.10401917 25.32425061 55.42314219 20.25 55.5 C19.52901123 55.51844971 18.80802246 55.53689941 18.06518555 55.5559082 C12.90132985 55.49562044 9.98842303 54.20859703 6 51 C-4.67781784 40.0081287 -4.08115807 23.33877018 -5 9 C-4.34 9 -3.68 9 -3 9 C-2.67 12.63 -2.34 16.26 -2 20 C-0.45049732 18.45049732 -0.78344807 16.90009406 -0.68359375 14.74609375 C-0.64169922 13.89208984 -0.59980469 13.03808594 -0.55664062 12.15820312 C-0.51732422 11.26037109 -0.47800781 10.36253906 -0.4375 9.4375 C-0.39431641 8.53580078 -0.35113281 7.63410156 -0.30664062 6.70507812 C-0.20021858 4.47021515 -0.09820012 2.23523692 0 0 Z " fill="#1D1D1C" transform="translate(84,125)"/>
<path d="M0 0 C0.33 0 0.66 0 1 0 C1.33 5.28 1.66 10.56 2 16 C2.99 15.67 3.98 15.34 5 15 C5.66 15.33 6.32 15.66 7 16 C7 16.66 7 17.32 7 18 C8.98 18.33 10.96 18.66 13 19 C12.34 18.01 11.68 17.02 11 16 C11.30185427 13.04182816 11.66718829 10.66562342 13 8 C13.66 8 14.32 8 15 8 C15.66 8.66 16.32 9.32 17 10 C16.70164905 15.9364189 14.67098981 21.04047518 12.4375 26.5 C12.08397461 27.37060059 11.73044922 28.24120117 11.36621094 29.13818359 C9.04300504 34.74694903 6.55306282 40.23948268 3.75 45.625 C3.43345459 46.24568359 3.11690918 46.86636719 2.79077148 47.50585938 C0.93365858 50.93677202 -0.46635183 52.4493348 -4 54 C-3.7848877 53.4622998 -3.56977539 52.92459961 -3.34814453 52.37060547 C-0.51067339 44.33962236 -0.69035159 36.51581233 -0.875 28.125 C-1.03530228 18.69351631 -1.01846927 9.39354042 0 0 Z " fill="#436F91" transform="translate(143,48)"/>
<path d="M0 0 C0 1.32 0 2.64 0 4 C-3.59099332 5.27422343 -5.84097991 4.86826066 -9.3125 3.625 C-20.89138441 -0.51842432 -35.23894807 -0.86556623 -46.66796875 3.83203125 C-49.19686072 5.09859523 -51.59672985 6.51022863 -54 8 C-54.20203351 4.36339679 -54.01700836 2.06512146 -52 -1 C-49.79296875 -2.23046875 -49.79296875 -2.23046875 -47.1875 -3.1875 C-46.33542969 -3.51105469 -45.48335937 -3.83460937 -44.60546875 -4.16796875 C-30.71336162 -8.60427882 -12.62872462 -7.36675603 0 0 Z " fill="#323333" transform="translate(70,8)"/>
<path d="M0 0 C0.08069658 2.95887459 0.14034665 5.9155659 0.1875 8.875 C0.21263672 9.71675781 0.23777344 10.55851563 0.26367188 11.42578125 C0.27333984 12.23144531 0.28300781 13.03710938 0.29296875 13.8671875 C0.3086792 14.61081543 0.32438965 15.35444336 0.34057617 16.12060547 C0.17199097 17.05090576 0.17199097 17.05090576 0 18 C-0.99 18.66 -1.98 19.32 -3 20 C-3 16.04 -3 12.08 -3 8 C-3.66 8 -4.32 8 -5 8 C-5 8.66 -5 9.32 -5 10 C-11.70256611 12.2341887 -21.14314096 12.06140791 -27.8125 9.625 C-31 8 -31 8 -33 6 C-32.75 3.9375 -32.75 3.9375 -32 2 C-30 1 -30 1 -28.22265625 1.55859375 C-27.50980469 1.84863281 -26.79695313 2.13867188 -26.0625 2.4375 C-18.77906837 4.96273472 -11.97389748 5.16633364 -4.875 2 C-0.97222222 0 -0.97222222 0 0 0 Z " fill="#1D1C1D" transform="translate(84,126)"/>
<path d="M0 0 C12.05487063 1.08184736 24.70789253 5.78140007 33 15 C34.79669028 17.27580769 36.39999339 19.57574757 38 22 C37.01 22.495 37.01 22.495 36 23 C36 22.34 36 21.68 36 21 C35.01 21 34.02 21 33 21 C32.34 21.66 31.68 22.32 31 23 C28.95880212 21.38405168 26.95927063 19.7143618 25 18 C25 17.34 25 16.68 25 16 C24.43796875 15.7215625 23.8759375 15.443125 23.296875 15.15625 C21.75716811 14.38115945 20.22583595 13.58921908 18.703125 12.78125 C10.12405617 8.30046246 2.60479813 6.74791461 -7 6 C-7 5.67 -7 5.34 -7 5 C-4.36 4.34 -1.72 3.68 1 3 C0.67 2.01 0.34 1.02 0 0 Z " fill="#2D2C2C" transform="translate(133,0)"/>
<path d="M0 0 C2 0.75 2 0.75 4 3.75 C4.07981478 6.70314681 3.49885443 8.22052535 1.47265625 10.37109375 C-3.79175193 15.01223162 -7.51730699 15.96894358 -14.48046875 15.91796875 C-17.55827223 15.71278185 -20.16362026 14.94426515 -23 13.75 C-22 11.75 -22 11.75 -19.3125 10.75 C-17.22738759 10.1205321 -15.12302061 9.54902556 -13 9.0625 C-9.34191195 7.46208648 -7.70341007 5.42026947 -5.296875 2.30859375 C-3.58272219 0.24851251 -2.69091437 -0.3363643 0 0 Z " fill="#5F839D" transform="translate(81,111.25)"/>
<path d="M0 0 C1.670625 0.061875 1.670625 0.061875 3.375 0.125 C3.375 0.785 3.375 1.445 3.375 2.125 C4.035 2.455 4.695 2.785 5.375 3.125 C4.375 4.125 4.375 4.125 1.8125 4.1875 C0.6059375 4.1565625 0.6059375 4.1565625 -0.625 4.125 C-0.43421875 4.89328125 -0.2434375 5.6615625 -0.046875 6.453125 C0.52375021 11.41967772 -0.15411904 15.95010296 -0.875 20.875 C-0.99746094 21.83277344 -1.11992187 22.79054687 -1.24609375 23.77734375 C-1.37628906 24.69128906 -1.50648438 25.60523438 -1.640625 26.546875 C-1.75696289 27.37799805 -1.87330078 28.20912109 -1.99316406 29.06542969 C-2.625 31.125 -2.625 31.125 -5.625 33.125 C-9.54939855 26.1950105 -7.5790532 17.73932544 -6.75 10.125 C-6.63253418 8.99348511 -6.63253418 8.99348511 -6.51269531 7.83911133 C-5.60696725 0.1933437 -5.60696725 0.1933437 0 0 Z " fill="#272726" transform="translate(138.625,124.875)"/>
<path d="M0 0 C0.28875 0.598125 0.5775 1.19625 0.875 1.8125 C2.04742026 4.19327792 2.04742026 4.19327792 4 7 C4.495 7.99 4.495 7.99 5 9 C1.88845299 17.19656546 -1.45145408 23.49232384 -9.6015625 27.17578125 C-12.04999373 28.1792932 -14.50572364 29.11763742 -17 30 C-17.66 28.68 -18.32 27.36 -19 26 C-22.63 26 -26.26 26 -30 26 C-30 25.67 -30 25.34 -30 25 C-28.62328125 24.85304687 -28.62328125 24.85304687 -27.21875 24.703125 C-18.36589563 23.62441585 -11.96679131 22.4378858 -5.1875 16.5625 C-1.61889384 11.92090077 -1.02520562 5.6177934 0 0 Z " fill="#2E2E2E" transform="translate(130,150)"/>
<path d="M0 0 C4.37677382 1.36122137 8.26900019 1.28959684 12.81640625 1.1953125 C14.06357422 1.18177734 14.06357422 1.18177734 15.3359375 1.16796875 C17.37121962 1.1445747 19.40635189 1.10870975 21.44140625 1.0703125 C15.98773462 7.05270633 10.57973723 8.68050808 2.609375 9.28515625 C-1.10390378 9.33408672 -4.01516948 9.25145392 -7.55859375 8.0703125 C-7.2629371 4.74417524 -7.05548364 2.65921903 -4.87109375 0.0703125 C-2.55859375 -0.9296875 -2.55859375 -0.9296875 0 0 Z " fill="#62829C" transform="translate(141.55859375,110.9296875)"/>
<path d="M0 0 C0.66 0.33 1.32 0.66 2 1 C1.71989589 7.30234253 0.63126933 10.72880259 -3 16 C-3.33594133 19.25177852 -3.33594133 19.25177852 -3 22 C-6.3 22 -9.6 22 -13 22 C-11.42632842 16.020048 -8.23347467 11.19166035 -5 6 C-4.48308594 5.09378906 -3.96617187 4.18757813 -3.43359375 3.25390625 C-2 1 -2 1 0 0 Z " fill="#212021" transform="translate(156,86)"/>
<path d="M0 0 C2.93804996 -0.08086376 5.87388075 -0.1404283 8.8125 -0.1875 C9.64587891 -0.21263672 10.47925781 -0.23777344 11.33789062 -0.26367188 C12.54155273 -0.27817383 12.54155273 -0.27817383 13.76953125 -0.29296875 C14.87711792 -0.31653442 14.87711792 -0.31653442 16.00708008 -0.34057617 C18.58259789 0.09956193 19.413369 0.95979007 21 3 C21.33 3.99 21.66 4.98 22 6 C21.38125 6.144375 20.7625 6.28875 20.125 6.4375 C17.96741678 6.93152225 17.96741678 6.93152225 16 8 C16 7.34 16 6.68 16 6 C15.33355469 6.0721875 14.66710937 6.144375 13.98046875 6.21875 C7.29489465 6.89198264 0.7169852 7.11693011 -6 7 C-6 6.67 -6 6.34 -6 6 C-4.02 5.67 -2.04 5.34 0 5 C0 3.35 0 1.7 0 0 Z " fill="#353535" transform="translate(152,102)"/>
<path d="M0 0 C5.445 1.485 5.445 1.485 11 3 C5.375 9.875 5.375 9.875 2 11 C-0.33299825 11.03954234 -2.66708189 11.04401732 -5 11 C-5.875 8.875 -5.875 8.875 -6 6 C-4.2159869 3.65608125 -2.23319598 1.95974341 0 0 Z " fill="#141415" transform="translate(63,107)"/>
<path d="M0 0 C0.33 0.66 0.66 1.32 1 2 C4.04581269 2.46954261 4.04581269 2.46954261 7.5625 2.625 C8.76003906 2.69976562 9.95757812 2.77453125 11.19140625 2.8515625 C12.11824219 2.90054687 13.04507813 2.94953125 14 3 C14 3.33 14 3.66 14 4 C13.11699219 4.02578125 12.23398437 4.0515625 11.32421875 4.078125 C0.99887307 4.56611126 -7.20693041 6.5141277 -16 12 C-16.20215565 8.36119835 -16.01645663 6.06720059 -14 3 C-11.7578125 1.69921875 -11.7578125 1.69921875 -9.125 0.6875 C-8.26132812 0.34074219 -7.39765625 -0.00601562 -6.5078125 -0.36328125 C-3.83611988 -1.04160819 -2.52522498 -1.05878267 0 0 Z " fill="#41403F" transform="translate(32,4)"/>
<path d="M0 0 C2.99924574 2.57719619 4.4171183 5.53087529 6.125 9.0625 C6.64320312 10.12597656 7.16140625 11.18945312 7.6953125 12.28515625 C8.12585937 13.18105469 8.55640625 14.07695313 9 15 C9.33 15.66 9.66 16.32 10 17 C9.195625 17.12375 8.39125 17.2475 7.5625 17.375 C6.716875 17.58125 5.87125 17.7875 5 18 C4.67 18.66 4.34 19.32 4 20 C3.67 18.68 3.34 17.36 3 16 C2.34 16 1.68 16 1 16 C-3.85808581 6.04526167 -3.85808581 6.04526167 -3 2 C-2.01 1.34 -1.02 0.68 0 0 Z " fill="#302D29" transform="translate(18,104)"/>
<path d="M0 0 C0.33 0 0.66 0 1 0 C1 2.64 1 5.28 1 8 C1.66 8 2.32 8 3 8 C3 8.99 3 9.98 3 11 C4.32 11.33 5.64 11.66 7 12 C7.33 10.68 7.66 9.36 8 8 C8.66 8.33 9.32 8.66 10 9 C8.566285 13.83600241 6.55377027 17.96534766 4.0625 22.3125 C3.54139648 23.26092773 3.54139648 23.26092773 3.00976562 24.22851562 C0.36303323 28.87898892 0.36303323 28.87898892 -3 30 C-2.7834375 29.51015625 -2.566875 29.0203125 -2.34375 28.515625 C1.08201458 19.3168127 0.27414217 9.65823936 0 0 Z " fill="#6E8FA6" transform="translate(142,72)"/>
<path d="M0 0 C-0.3125 1.9375 -0.3125 1.9375 -1 4 C-1.99 4.33 -2.98 4.66 -4 5 C-3.67 15.23 -3.34 25.46 -3 36 C-4.32 36 -5.64 36 -7 36 C-7.12359943 31.35532361 -7.21433399 26.71160374 -7.2746582 22.06567383 C-7.2998033 20.48542611 -7.33392474 18.90529471 -7.37719727 17.32543945 C-7.43785708 15.05390768 -7.46620678 12.78391256 -7.48828125 10.51171875 C-7.51408768 9.80536789 -7.5398941 9.09901703 -7.56648254 8.3712616 C-7.56762695 6.36987305 -7.56762695 6.36987305 -7 3 C-4.58686435 1.02428039 -3.1428606 0 0 0 Z " fill="#56728A" transform="translate(62,55)"/>
<path d="M0 0 C0.99 0.66 1.98 1.32 3 2 C2.67 3.32 2.34 4.64 2 6 C2.99 6.33 3.98 6.66 5 7 C0.37630977 8.80679587 -3.42528653 9.21839082 -8.375 9.125 C-9.62023437 9.10695312 -10.86546875 9.08890625 -12.1484375 9.0703125 C-13.55996094 9.03550781 -13.55996094 9.03550781 -15 9 C-15 8.67 -15 8.34 -15 8 C-13.35 7.67 -11.7 7.34 -10 7 C-10.33 6.01 -10.66 5.02 -11 4 C-15.12973628 4.56739868 -15.12973628 4.56739868 -19 6 C-19 4.68 -19 3.36 -19 2 C-12.73 2 -6.46 2 0 2 C0 1.34 0 0.68 0 0 Z " fill="#3B3A3A" transform="translate(153,121)"/>
<path d="M0 0 C0 3.10621332 -0.48996746 4.45445957 -1.75 7.23046875 C-2.1109375 8.03291016 -2.471875 8.83535156 -2.84375 9.66210938 C-3.2253125 10.49548828 -3.606875 11.32886719 -4 12.1875 C-4.57234375 13.4549707 -4.57234375 13.4549707 -5.15625 14.74804688 C-6.09920767 16.83434073 -7.04728319 18.91814908 -8 21 C-10 18 -10 18 -9.625 15.8125 C-9.41875 15.214375 -9.2125 14.61625 -9 14 C-9.99 14 -10.98 14 -12 14 C-11.36281399 11.99041337 -10.68836513 9.99263591 -10 8 C-9.4121875 6.1128125 -9.4121875 6.1128125 -8.8125 4.1875 C-8.214375 3.135625 -7.61625 2.08375 -7 1 C-3.3125 0.0625 -3.3125 0.0625 0 0 Z " fill="#3D3C3C" transform="translate(166,73)"/>
<path d="M0 0 C1.89693861 0.28438952 3.79252027 0.57783792 5.6875 0.875 C6.74324219 1.03742187 7.79898438 1.19984375 8.88671875 1.3671875 C11.79794914 1.95893069 14.28955607 2.8031806 17 4 C16.67 5.32 16.34 6.64 16 8 C16.66 8.33 17.32 8.66 18 9 C18 9.66 18 10.32 18 11 C17.45214844 10.80664062 16.90429688 10.61328125 16.33984375 10.4140625 C8.64564318 7.88686166 1.02042098 6.90898104 -7 6 C-7 5.67 -7 5.34 -7 5 C-4.36 4.34 -1.72 3.68 1 3 C0.67 2.01 0.34 1.02 0 0 Z " fill="#3F3E3C" transform="translate(133,0)"/>
<path d="M0 0 C0.33 1.32 0.66 2.64 1 4 C0.34644531 3.84660156 -0.30710938 3.69320313 -0.98046875 3.53515625 C-4.75492159 2.86620406 -8.48905996 2.64592703 -12.3125 2.4375 C-13.05306641 2.39431641 -13.79363281 2.35113281 -14.55664062 2.30664062 C-16.37091464 2.20129568 -18.1854355 2.10021684 -20 2 C-20 2.66 -20 3.32 -20 4 C-26.75 2.25 -26.75 2.25 -29 0 C-18.76666512 -2.70953548 -10.32005171 -2.16045942 0 0 Z " fill="#395E7A" transform="translate(141,11)"/>
<path d="M0 0 C1.60893811 3.10086255 2.980352 6.24540934 4.25 9.5 C4.62640625 10.4384375 5.0028125 11.376875 5.390625 12.34375 C6 15 6 15 5.109375 17.34375 C4.74328125 17.8903125 4.3771875 18.436875 4 19 C3.34 19 2.68 19 2 19 C1.67 19.66 1.34 20.32 1 21 C0.13020539 18.77585391 -0.72083184 16.54727408 -1.5625 14.3125 C-1.9327832 13.37374023 -1.9327832 13.37374023 -2.31054688 12.41601562 C-3.74841632 8.5479443 -4.26575069 5.96399767 -3 2 C-2.34 2 -1.68 2 -1 2 C-0.67 1.34 -0.34 0.68 0 0 Z " fill="#282828" transform="translate(13,87)"/>
<path d="M0 0 C0.53625 0.268125 1.0725 0.53625 1.625 0.8125 C0.965 1.4725 0.305 2.1325 -0.375 2.8125 C-1.08908334 4.79606483 -1.76117742 6.79565437 -2.375 8.8125 C-3.035 8.8125 -3.695 8.8125 -4.375 8.8125 C-6.12349671 13.1164919 -7.7520361 17.46000591 -9.375 21.8125 C-10.8356285 19.16511084 -11.375 17.91801666 -11.375 14.8125 C-12.035 14.8125 -12.695 14.8125 -13.375 14.8125 C-11.27916071 9.16985576 -7.31703878 -0.57766096 0 0 Z " fill="#3C3C3C" transform="translate(17.375,9.1875)"/>
<path d="M0 0 C1.9375 0.875 1.9375 0.875 3.9375 3.875 C3.77110745 7.11965474 3.13807464 8.61909443 1.125 11.1875 C-1.0625 12.875 -1.0625 12.875 -5.0625 12.875 C-5.0625 11.555 -5.0625 10.235 -5.0625 8.875 C-5.7225 8.875 -6.3825 8.875 -7.0625 8.875 C-4.42120285 -0.26795169 -4.42120285 -0.26795169 0 0 Z " fill="#436B89" transform="translate(81.0625,111.125)"/>
<path d="M0 0 C0.68513672 -0.01224609 1.37027344 -0.02449219 2.07617188 -0.03710938 C3.86484112 -0.04237533 5.65298848 0.06549979 7.4375 0.1875 C9.4375 2.1875 9.4375 2.1875 9.4375 4.1875 C6.61338235 5.12887255 4.90831968 5.30475382 1.98828125 5.28515625 C1.14072266 5.28193359 0.29316406 5.27871094 -0.58007812 5.27539062 C-1.46115234 5.26701172 -2.34222656 5.25863281 -3.25 5.25 C-4.14267578 5.24548828 -5.03535156 5.24097656 -5.95507812 5.23632812 C-8.15761987 5.22454983 -10.36002599 5.20810164 -12.5625 5.1875 C-11.75 3.25 -11.75 3.25 -10.5625 1.1875 C-6.99164986 -0.00278338 -3.7164317 0.00351602 0 0 Z " fill="#040304" transform="translate(125.5625,-0.1875)"/>
<path d="M0 0 C0.33 0 0.66 0 1 0 C1.33 10.89 1.66 21.78 2 33 C1.34 33 0.68 33 0 33 C-0.66 34.32 -1.32 35.64 -2 37 C-3.32867987 27.67344131 -4.3972149 18.40662007 -5 9 C-4.34 9 -3.68 9 -3 9 C-2.67 12.63 -2.34 16.26 -2 20 C-0.45049732 18.45049732 -0.78344807 16.90009406 -0.68359375 14.74609375 C-0.64169922 13.89208984 -0.59980469 13.03808594 -0.55664062 12.15820312 C-0.51732422 11.26037109 -0.47800781 10.36253906 -0.4375 9.4375 C-0.39431641 8.53580078 -0.35113281 7.63410156 -0.30664062 6.70507812 C-0.20021858 4.47021515 -0.09820012 2.23523692 0 0 Z " fill="#585756" transform="translate(84,125)"/>
<path d="M0 0 C0.33 0.99 0.66 1.98 1 3 C3.475 3.495 3.475 3.495 6 4 C6 4.33 6 4.66 6 5 C5.34773438 5.10957031 4.69546875 5.21914062 4.0234375 5.33203125 C-0.1226909 6.08420499 -3.57959829 6.78979915 -7.375 8.6875 C-10 10 -10 10 -12.375 9.6875 C-12.91125 9.460625 -13.4475 9.23375 -14 9 C-13.01 9 -12.02 9 -11 9 C-11 7.68 -11 6.36 -11 5 C-12.65 4.67 -14.3 4.34 -16 4 C-15.01 3.67 -14.02 3.34 -13 3 C-12.30003906 2.75121094 -11.60007812 2.50242187 -10.87890625 2.24609375 C-10.11449219 1.97925781 -9.35007812 1.71242188 -8.5625 1.4375 C-7.41974609 1.03337891 -7.41974609 1.03337891 -6.25390625 0.62109375 C-4 0 -4 0 0 0 Z " fill="#424140" transform="translate(81,3)"/>
<path d="M0 0 C-3.86584289 4.83230362 -3.86584289 4.83230362 -7.0078125 5.296875 C-9.00716824 5.25260882 -11.00430335 5.12875462 -13 5 C-13.99 5.33 -14.98 5.66 -16 6 C-18.1875 5.5625 -18.1875 5.5625 -20 5 C-20 4.01 -20 3.02 -20 2 C-21.32 2.33 -22.64 2.66 -24 3 C-24.33 2.34 -24.66 1.68 -25 1 C-21.95843125 0.83135856 -18.91676547 0.66502247 -15.875 0.5 C-15.0190625 0.45230469 -14.163125 0.40460938 -13.28125 0.35546875 C-8.84778214 0.11674356 -4.44201651 -0.05825595 0 0 Z " fill="#336080" transform="translate(163,112)"/>
<path d="M0 0 C0 6.53110048 0 6.53110048 -1 9 C-3.28515625 10.265625 -3.28515625 10.265625 -6.0625 11.25 C-6.98160156 11.58515625 -7.90070313 11.9203125 -8.84765625 12.265625 C-9.91306641 12.62914062 -9.91306641 12.62914062 -11 13 C-11.66 11.68 -12.32 10.36 -13 9 C-16.63 9 -20.26 9 -24 9 C-24 8.67 -24 8.34 -24 8 C-23.0821875 7.90203125 -22.164375 7.8040625 -21.21875 7.703125 C-9.57937656 6.33386256 -9.57937656 6.33386256 0 0 Z " fill="#41403F" transform="translate(124,167)"/>
<path d="M0 0 C3.32604248 1.66302124 3.80042476 4.62976481 5 8 C4.58203125 10.23046875 4.58203125 10.23046875 4 12 C2.20906809 12.08086147 0.41710372 12.13912702 -1.375 12.1875 C-2.87160156 12.23970703 -2.87160156 12.23970703 -4.3984375 12.29296875 C-5.25695312 12.19628906 -6.11546875 12.09960938 -7 12 C-7.66 11.01 -8.32 10.02 -9 9 C-8.21625 8.7525 -7.4325 8.505 -6.625 8.25 C-3.61694992 6.8175952 -3.24509643 5.9690761 -2 3 C-1.34 2.67 -0.68 2.34 0 2 C0 1.34 0 0.68 0 0 Z " fill="#3A688D" transform="translate(133,36)"/>
<path d="M0 0 C1.08753639 3.62562479 0.73576847 6.51410174 0.2578125 10.25732422 C-0.26706502 15.84110645 -0.05900523 21.45995325 0 27.0625 C0.15446779 41.77555703 0.15446779 41.77555703 -1 49 C-1.33 49 -1.66 49 -2 49 C-2.70471198 33.94217456 -3.39571701 19.03079854 -2 4 C-1.34 3.67 -0.68 3.34 0 3 C0 2.01 0 1.02 0 0 Z " fill="#92ACBE" transform="translate(52,40)"/>
<path d="M0 0 C1.16015625 0.10054687 1.16015625 0.10054687 2.34375 0.203125 C4.92955647 0.85894548 5.89167814 1.64374568 7.5 3.75 C8.1875 6.9375 8.1875 6.9375 8.5 9.75 C8.17 8.76 7.84 7.77 7.5 6.75 C6.51 7.08 5.52 7.41 4.5 7.75 C4.5 6.76 4.5 5.77 4.5 4.75 C2.19 4.75 -0.12 4.75 -2.5 4.75 C-2.17 5.74 -1.84 6.73 -1.5 7.75 C-2.49 7.42 -3.48 7.09 -4.5 6.75 C-5.1875 4.6875 -5.1875 4.6875 -5.5 2.75 C-7.15 2.75 -8.8 2.75 -10.5 2.75 C-6.72248573 0.23165716 -4.42385734 -0.44238573 0 0 Z " fill="#6F8592" transform="translate(72.5,52.25)"/>
<path d="M0 0 C0.80179688 0.00451172 1.60359375 0.00902344 2.4296875 0.01367188 C4.41149006 0.02546832 6.39325433 0.04340395 8.375 0.0625 C7.715 1.7125 7.055 3.3625 6.375 5.0625 C1.095 5.0625 -4.185 5.0625 -9.625 5.0625 C-9.955 3.7425 -10.285 2.4225 -10.625 1.0625 C-7.31505287 -0.59247356 -3.63377 -0.03834335 0 0 Z " fill="#0F0E0E" transform="translate(105.625,174.9375)"/>
<path d="M0 0 C0.99 0.99 1.98 1.98 3 3 C2.21625 3.515625 1.4325 4.03125 0.625 4.5625 C-4.31667283 9.1511962 -4.18024461 15.25450397 -4.71484375 21.62109375 C-5.07003311 24.58424881 -5.90655986 27.22995165 -7 30 C-7.33 30 -7.66 30 -8 30 C-7.94782273 26.62377072 -7.85267982 23.25004113 -7.75 19.875 C-7.73582031 18.92367187 -7.72164063 17.97234375 -7.70703125 16.9921875 C-7.45823142 9.82675232 -6.15870157 6.38432312 -1.25 1.125 C-0.8375 0.75375 -0.425 0.3825 0 0 Z " fill="#58778C" transform="translate(135,103)"/>
<path d="M0 0 C0.66 0 1.32 0 2 0 C1.719172 1.98073365 1.42503386 3.95958448 1.125 5.9375 C0.96257812 7.03964844 0.80015625 8.14179687 0.6328125 9.27734375 C0.42398438 10.17582031 0.21515625 11.07429688 0 12 C-0.99 12.495 -0.99 12.495 -2 13 C-2.33 13.66 -2.66 14.32 -3 15 C-5.1875 15.375 -5.1875 15.375 -8 15 C-9.99022836 13.16038352 -11.38989899 11.20813852 -13 9 C-11.35 9 -9.7 9 -8 9 C-8 9.66 -8 10.32 -8 11 C-6.35 10.34 -4.7 9.68 -3 9 C-2.87625 7.88625 -2.7525 6.7725 -2.625 5.625 C-2 2 -2 2 0 0 Z " fill="#366284" transform="translate(76,89)"/>
<path d="M0 0 C1.7824918 3.33311475 2.48792856 6.24480943 3 10 C3.66 9.01 4.32 8.02 5 7 C5 8.65 5 10.3 5 12 C6.98 12 8.96 12 11 12 C11 12.33 11 12.66 11 13 C10.31292969 13.20496094 9.62585938 13.40992188 8.91796875 13.62109375 C8.01691406 13.89050781 7.11585937 14.15992188 6.1875 14.4375 C4.84751953 14.83775391 4.84751953 14.83775391 3.48046875 15.24609375 C1.64526945 15.80387873 -0.18033726 16.39344575 -2 17 C-2.21824777 10.9981863 -1.5056904 5.80766296 0 0 Z " fill="#5C7F96" transform="translate(58,36)"/>
<path d="M0 0 C6.875 0.875 6.875 0.875 8 2 C8 4.66666667 8 7.33333333 8 10 C5.69 10 3.38 10 1 10 C-1.125 3.375 -1.125 3.375 0 0 Z " fill="#306085" transform="translate(37,112)"/>
<path d="M0 0 C0.33 0 0.66 0 1 0 C1.95458649 8.35263176 2.11039334 16.59784035 2 25 C2.66 25 3.32 25 4 25 C6.66110623 34.50395083 6.66110623 34.50395083 5.01953125 38.21875 C4.68308594 38.8065625 4.34664062 39.394375 4 40 C0.53417316 26.46161391 -0.49992357 13.95619953 0 0 Z " fill="#7894A7" transform="translate(10,35)"/>
<path d="M0 0 C1.46489049 0.56666546 2.92178003 1.15404228 4.375 1.75 C5.18710937 2.07484375 5.99921875 2.3996875 6.8359375 2.734375 C9.36778575 4.21509491 9.80538867 5.39745389 11 8 C13.55519921 8.81171228 13.55519921 8.81171228 16 9 C13.83704973 11.16295027 12.94755143 11.5534013 10 12 C9.01 11.67 8.02 11.34 7 11 C7 10.34 7 9.68 7 9 C6.34 9 5.68 9 5 9 C3.7109375 7.5390625 3.7109375 7.5390625 2.375 5.625 C1.92898437 4.99851562 1.48296875 4.37203125 1.0234375 3.7265625 C0 2 0 2 0 0 Z " fill="#547591" transform="translate(28,113)"/>
<path d="M0 0 C1.74965358 -0.05429959 3.49979787 -0.09292823 5.25 -0.125 C6.22453125 -0.14820312 7.1990625 -0.17140625 8.203125 -0.1953125 C11.0196498 0.00137219 12.60949036 0.55431084 15 2 C14.67 2.66 14.34 3.32 14 4 C8.96109772 5.0283474 4.11310018 5.08970351 -1 5 C-0.67 3.35 -0.34 1.7 0 0 Z " fill="#171919" transform="translate(81,2)"/>
<path d="M0 0 C3.67782355 4.59727943 7 8.97421744 7 15 C6.01 15.66 5.02 16.32 4 17 C3.67 15.02 3.34 13.04 3 11 C1.35 11 -0.3 11 -2 11 C-2 8.66666667 -2 6.33333333 -2 4 C-1.34 4.33 -0.68 4.66 0 5 C0 3.35 0 1.7 0 0 Z " fill="#496D8A" transform="translate(51,92)"/>
<path d="M0 0 C4.87664009 -0.34833144 7.77050005 0.58314288 12 3 C12 4.32 12 5.64 12 7 C9.39517051 7.94721072 7.69325299 8.30222393 5.109375 7.17578125 C3.37417127 6.17063275 1.68359577 5.0893855 0 4 C0 2.68 0 1.36 0 0 Z " fill="#201F20" transform="translate(58,5)"/>
<path d="M0 0 C0.042721 1.66611905 0.04063832 3.33382885 0 5 C-0.33 5.33 -0.66 5.66 -1 6 C-1 7.155 -1 8.31 -1 9.5 C-1 10.655 -1 11.81 -1 13 C-1.33 13.33 -1.66 13.66 -2 14 C-2.04092937 16.33297433 -2.04241723 18.66705225 -2 21 C-2.99 21.33 -3.98 21.66 -5 22 C-4.91293747 19.08190419 -4.80605266 16.16684289 -4.6875 13.25 C-4.66494141 12.425 -4.64238281 11.6 -4.61914062 10.75 C-4.14232611 0 -4.14232611 0 0 0 Z " fill="#305B79" transform="translate(127,136)"/>
<path d="M0 0 C2.97 0.495 2.97 0.495 6 1 C4.02 1.99 4.02 1.99 2 3 C2 3.66 2 4.32 2 5 C1.34 5 0.68 5 0 5 C-0.16930395 6.89559964 -0.33532864 8.79149231 -0.5 10.6875 C-0.5928125 11.74324219 -0.685625 12.79898438 -0.78125 13.88671875 C-0.9723415 16.60636025 -1.04043935 19.27539856 -1 22 C-3.17330391 18.74004414 -3.24921459 17.77020034 -3.1875 14 C-3.18105469 13.13375 -3.17460938 12.2675 -3.16796875 11.375 C-3 9 -3 9 -2 6 C-2.99 5.67 -3.98 5.34 -5 5 C-4.34 5 -3.68 5 -3 5 C-3 4.01 -3 3.02 -3 2 C-2.01 2 -1.02 2 0 2 C0 1.34 0 0.68 0 0 Z " fill="#8AA6B9" transform="translate(120,47)"/>
<path d="M0 0 C0 0.33 0 0.66 0 1 C-2.31 1.33 -4.62 1.66 -7 2 C-7 1.34 -7 0.68 -7 0 C-8.04800781 0.08378906 -9.09601563 0.16757813 -10.17578125 0.25390625 C-11.55466381 0.35708794 -12.93357143 0.45993506 -14.3125 0.5625 C-15.00279297 0.61857422 -15.69308594 0.67464844 -16.40429688 0.73242188 C-19.62512274 0.96581505 -21.90327345 1.03224218 -25 0 C-24.67 0.99 -24.34 1.98 -24 3 C-26.475 2.01 -26.475 2.01 -29 1 C-22.62305696 -5.37694304 -7.842553 -1.64180549 0 0 Z " fill="#8EA3AF" transform="translate(141,11)"/>
<path d="M0 0 C1.32 0.33 2.64 0.66 4 1 C4.125 4.375 4.125 4.375 4 8 C3.34 8.66 2.68 9.32 2 10 C1.01 9.01 0.02 8.02 -1 7 C-1.28875 7.639375 -1.5775 8.27875 -1.875 8.9375 C-3 11 -3 11 -5 12 C-3.41037341 7.96479403 -1.71767682 3.98188718 0 0 Z " fill="#1E1E1E" transform="translate(170,107)"/>
<path d="M0 0 C2 1 4 2 6 3 C5.49202991 7.3177458 4.80317221 11.03302114 3 15 C2.67 15 2.34 15 2 15 C1.67 12.03 1.34 9.06 1 6 C0.01 6.33 -0.98 6.66 -2 7 C-1.42415568 4.61435923 -0.77772405 2.33317216 0 0 Z " fill="#527A9A" transform="translate(51,25)"/>
<path d="M0 0 C3.26460973 1.80412643 4.88929795 2.83394693 7 6 C5.68 7.32 4.36 8.64 3 10 C0.5 7.6875 0.5 7.6875 -2 5 C-2 4.01 -2 3.02 -2 2 C-1.34 2 -0.68 2 0 2 C0 1.34 0 0.68 0 0 Z " fill="#1F1F1F" transform="translate(25,120)"/>
<path d="M0 0 C0.33 0 0.66 0 1 0 C1.05411124 2.41696872 1.09372278 4.83271787 1.125 7.25 C1.15013672 8.27287109 1.15013672 8.27287109 1.17578125 9.31640625 C1.21213482 13.0608235 1.07944349 15.82352727 -1 19 C-1.66 19 -2.32 19 -3 19 C-3.67154933 17.71086513 -4.33708859 16.41859796 -5 15.125 C-5.37125 14.40570313 -5.7425 13.68640625 -6.125 12.9453125 C-7 11 -7 11 -7 9 C-6.01 9 -5.02 9 -4 9 C-4 10.32 -4 11.64 -4 13 C-3.01 13 -2.02 13 -1 13 C-0.67 8.71 -0.34 4.42 0 0 Z " fill="#7F98A8" transform="translate(138,77)"/>
<path d="M0 0 C-0.639375 0.28875 -1.27875 0.5775 -1.9375 0.875 C-4.15206079 1.82823451 -4.15206079 1.82823451 -5 4 C-1.7 4 1.6 4 5 4 C5 4.33 5 4.66 5 5 C-0.61 5.66 -6.22 6.32 -12 7 C-11.67 5.68 -11.34 4.36 -11 3 C-10.01 2.67 -9.02 2.34 -8 2 C-8.33 1.34 -8.66 0.68 -9 0 C-5.62182575 -0.84454356 -3.32534757 -1.10844919 0 0 Z " fill="#5A5C5C" transform="translate(118,1)"/>
<path d="M0 0 C0.66 0 1.32 0 2 0 C2.66 0.66 3.32 1.32 4 2 C3.67176873 6.34906427 2.80260764 10.0342632 1 14 C-1.34075925 10.48886112 -1.70663502 8.1804509 -2 4 C-1.0625 1.5625 -1.0625 1.5625 0 0 Z " fill="#517691" transform="translate(156,56)"/>
<path d="M0 0 C-2.91708924 1.98362069 -4.12380904 1.9876191 -7.75 1.625 C-8.8225 1.41875 -9.895 1.2125 -11 1 C-11 1.33 -11 1.66 -11 2 C-15.62 2.33 -20.24 2.66 -25 3 C-18.79393732 -3.20606268 -7.8755661 -1.34052189 0 0 Z " fill="#7A96AD" transform="translate(101,12)"/>
<path d="M0 0 C6.70212766 1.93617021 6.70212766 1.93617021 9 5 C9 5.66 9 6.32 9 7 C10.98 6.34 12.96 5.68 15 5 C14.01 4.67 13.02 4.34 12 4 C13.32 4 14.64 4 16 4 C15.67 5.65 15.34 7.3 15 9 C9.39316124 8.07163454 5.10476223 7.23303605 1 3 C0.67 2.01 0.34 1.02 0 0 Z " fill="#50718A" transform="translate(59,97)"/>
<path d="M0 0 C5.68093647 -0.11139091 10.53750736 0.58379821 16 2 C15.67 2.66 15.34 3.32 15 4 C9.26157749 4.20413361 4.39460953 4.27141454 -1 2 C-0.67 1.34 -0.34 0.68 0 0 Z " fill="#627C8B" transform="translate(59,123)"/>
<path d="M0 0 C0.556875 0.268125 1.11375 0.53625 1.6875 0.8125 C1.0275 1.4725 0.3675 2.1325 -0.3125 2.8125 C-1.02658334 4.79606483 -1.69867742 6.79565437 -2.3125 8.8125 C-3.9625 9.1425 -5.6125 9.4725 -7.3125 9.8125 C-7.625 7.625 -7.625 7.625 -7.3125 4.8125 C-3.33459945 -0.27037293 -3.33459945 -0.27037293 0 0 Z " fill="#1B1A19" transform="translate(17.3125,9.1875)"/>
<path d="M0 0 C0 3.96 0 7.92 0 12 C-1.32 11.67 -2.64 11.34 -4 11 C-4.33 8.36 -4.66 5.72 -5 3 C-1.125 0 -1.125 0 0 0 Z " fill="#2A5C87" transform="translate(138,79)"/>
<path d="M0 0 C1.65 0 3.3 0 5 0 C6.36253236 4.93917979 5.84963268 9.62727568 5.5 14.6875 C5.45230469 15.38939453 5.40460938 16.09128906 5.35546875 16.81445312 C5.23787848 18.54303016 5.11905865 20.27152348 5 22 C4.67 22 4.34 22 4 22 C3.96261719 21.16597656 3.92523438 20.33195312 3.88671875 19.47265625 C3.47618784 12.4453331 2.55765031 6.56092905 0 0 Z " fill="#809AAD" transform="translate(82,53)"/>
<path d="M0 0 C0.66 1.32 1.32 2.64 2 4 C2.99 5.485 2.99 5.485 4 7 C4.33 7.66 4.66 8.32 5 9 C4.06421005 11.35981813 3.06652192 13.69631264 2 16 C1.67 16 1.34 16 1 16 C1 14.02 1 12.04 1 10 C0.34 10 -0.32 10 -1 10 C-0.67 6.7 -0.34 3.4 0 0 Z " fill="#464646" transform="translate(130,150)"/>
<path d="M0 0 C0.66 0 1.32 0 2 0 C2 0.99 2 1.98 2 3 C1.01 3.33 0.02 3.66 -1 4 C-0.67 4.66 -0.34 5.32 0 6 C-1.1875 8.625 -1.1875 8.625 -3 11 C-4.32 11 -5.64 11 -7 11 C-5.51131293 6.39860359 -3.25370145 3.49772906 0 0 Z " fill="#6A899E" transform="translate(69,18)"/>
<path d="M0 0 C0.66 0.33 1.32 0.66 2 1 C2.12036664 6.77759884 1.8320582 12.27959989 1 18 C0.67 18 0.34 18 0 18 C-0.66 12.39 -1.32 6.78 -2 1 C-1.34 0.67 -0.68 0.34 0 0 Z " fill="#6F8EA5" transform="translate(162,31)"/>
<path d="M0 0 C2.56919192 2.25886817 3.68000131 4.20020805 4.75 7.4375 C5.01296875 8.19933594 5.2759375 8.96117187 5.546875 9.74609375 C6.04123949 12.20513089 5.79335904 13.64672554 5 16 C1.05084735 10.26735905 -0.13152404 6.97077402 0 0 Z " fill="#6B879E" transform="translate(90,152)"/>
<path d="M0 0 C2.34058637 2.12780579 3.70700306 4.11562221 5 7 C4.195625 7.12375 3.39125 7.2475 2.5625 7.375 C1.2940625 7.684375 1.2940625 7.684375 0 8 C-0.33 8.66 -0.66 9.32 -1 10 C-1.33 8.68 -1.66 7.36 -2 6 C-2.66 6 -3.32 6 -4 6 C-4 5.34 -4 4.68 -4 4 C-2.68 4 -1.36 4 0 4 C0 2.68 0 1.36 0 0 Z " fill="#4A4641" transform="translate(23,114)"/>
<path d="M0 0 C0.99 0.66 1.98 1.32 3 2 C-2.16923077 7.78461538 -2.16923077 7.78461538 -6.375 8.875 C-7.674375 8.936875 -7.674375 8.936875 -9 9 C-9 8.34 -9 7.68 -9 7 C-8.34 7 -7.68 7 -7 7 C-6.67 6.01 -6.34 5.02 -6 4 C-6 4.66 -6 5.32 -6 6 C-4.68 5.01 -3.36 4.02 -2 3 C-2.33 2.34 -2.66 1.68 -3 1 C-2.01 0.67 -1.02 0.34 0 0 Z " fill="#32302F" transform="translate(71,109)"/>
<path d="M0 0 C1.32 0 2.64 0 4 0 C4 1.65 4 3.3 4 5 C4.66 5.33 5.32 5.66 6 6 C6.75 8.4375 6.75 8.4375 7 11 C6.34 11.66 5.68 12.32 5 13 C4.15930585 11.39967863 3.32768495 9.79458829 2.5 8.1875 C1.80390625 6.84751953 1.80390625 6.84751953 1.09375 5.48046875 C0 3 0 3 0 0 Z " fill="#6D92A8" transform="translate(22,100)"/>
<path d="M0 0 C-0.99 0.495 -0.99 0.495 -2 1 C-2.65772428 4.02934491 -2.65772428 4.02934491 -3 7 C-3.66 7 -4.32 7 -5 7 C-4.67 7.99 -4.34 8.98 -4 10 C-4.66 10 -5.32 10 -6 10 C-6 9.34 -6 8.68 -6 8 C-6.99 7.67 -7.98 7.34 -9 7 C-7.35 6.67 -5.7 6.34 -4 6 C-4 5.01 -4 4.02 -4 3 C-5.65 3 -7.3 3 -9 3 C-9.33 2.01 -9.66 1.02 -10 0 C-3.375 -1.125 -3.375 -1.125 0 0 Z " fill="#7D98AC" transform="translate(137,52)"/>
<path d="M0 0 C0.66 0 1.32 0 2 0 C2 0.66 2 1.32 2 2 C2.66 2 3.32 2 4 2 C4.33 2.99 4.66 3.98 5 5 C4.34 5 3.68 5 3 5 C3 5.99 3 6.98 3 8 C0.69 8 -1.62 8 -4 8 C-3.67 7.01 -3.34 6.02 -3 5 C-2.34 4.67 -1.68 4.34 -1 4 C-0.34786708 1.97536745 -0.34786708 1.97536745 0 0 Z " fill="#326186" transform="translate(148,16)"/>
<path d="M0 0 C2 0.75 2 0.75 4 3.75 C3.75 6.375 3.75 6.375 3 8.75 C2.01 9.245 2.01 9.245 1 9.75 C0 6.75 0 6.75 0 4.75 C-1.32 4.09 -2.64 3.43 -4 2.75 C-4 2.09 -4 1.43 -4 0.75 C-2 -0.25 -2 -0.25 0 0 Z " fill="#607C90" transform="translate(81,111.25)"/>
<path d="M0 0 C0.66 0.33 1.32 0.66 2 1 C2 2.98 2 4.96 2 7 C0.1875 7.625 0.1875 7.625 -2 8 C-2.99 7.34 -3.98 6.68 -5 6 C-5 5.34 -5 4.68 -5 4 C-4.34 4 -3.68 4 -3 4 C-3 3.34 -3 2.68 -3 2 C-2.34 2 -1.68 2 -1 2 C-0.67 1.34 -0.34 0.68 0 0 Z " fill="#376284" transform="translate(132,16)"/>
<path d="M0 0 C4.75 0.875 4.75 0.875 7 2 C6.67 3.32 6.34 4.64 6 6 C4.68 6 3.36 6 2 6 C2 5.34 2 4.68 2 4 C1.01 3.67 0.02 3.34 -1 3 C-0.67 2.01 -0.34 1.02 0 0 Z " fill="#201F1E" transform="translate(149,5)"/>
<path d="M0 0 C0.99 0.33 1.98 0.66 3 1 C1.68938409 5.23429756 0.05643741 9.07407404 -2 13 C-3.04005702 9.61981469 -3.08004482 6.5219721 -3 3 C-2.01 3.33 -1.02 3.66 0 4 C0 2.68 0 1.36 0 0 Z " fill="#587D98" transform="translate(149,80)"/>
<path d="M0 0 C2.97 0 5.94 0 9 0 C9 0.33 9 0.66 9 1 C6.69 1.66 4.38 2.32 2 3 C2.33 3.99 2.66 4.98 3 6 C2.01 6.33 1.02 6.66 0 7 C-0.33 7.66 -0.66 8.32 -1 9 C-2.16552619 4.80410573 -2.08954032 4.17908064 0 0 Z " fill="#4A6275" transform="translate(125,53)"/>
<path d="M0 0 C1.875 0.25 1.875 0.25 4 1 C5.72101535 3.58152302 6 4.84918025 6 8 C2.66666667 6 -0.66666667 4 -4 2 C-3.34 1.67 -2.68 1.34 -2 1 C-1.34 1.33 -0.68 1.66 0 2 C0 1.34 0 0.68 0 0 Z " fill="#5C7D99" transform="translate(121,13)"/>
<path d="M0 0 C3.32604248 1.66302124 3.80042476 4.62976481 5 8 C4.6875 10.4375 4.6875 10.4375 4 12 C2.35 11.67 0.7 11.34 -1 11 C-0.01 10.67 0.98 10.34 2 10 C1.67 8.35 1.34 6.7 1 5 C0.01 5 -0.98 5 -2 5 C-2 4.34 -2 3.68 -2 3 C-1.34 2.67 -0.68 2.34 0 2 C0 1.34 0 0.68 0 0 Z " fill="#5E7E96" transform="translate(133,36)"/>
<path d="M0 0 C1.32 0.66 2.64 1.32 4 2 C3 5 3 5 1 6 C1.33 6.66 1.66 7.32 2 8 C-0.88437779 6.70700306 -2.87219421 5.34058637 -5 3 C-4.360625 2.87625 -3.72125 2.7525 -3.0625 2.625 C-2.0415625 2.315625 -2.0415625 2.315625 -1 2 C-0.67 1.34 -0.34 0.68 0 0 Z " fill="#4C4C4D" transform="translate(156,8)"/>
<path d="M0 0 C-1.65 1.65 -3.3 3.3 -5 5 C-5.99 4.67 -6.98 4.34 -8 4 C-7.67 3.67 -7.34 3.34 -7 3 C-9.64 2.67 -12.28 2.34 -15 2 C-15 1.67 -15 1.34 -15 1 C-9.9752761 0.37470103 -5.07471573 -0.13012092 0 0 Z " fill="#879AA7" transform="translate(163,112)"/>
<path d="M0 0 C1.65 0 3.3 0 5 0 C5.33 1.98 5.66 3.96 6 6 C4.35 6 2.7 6 1 6 C1 5.01 1 4.02 1 3 C0.34 2.67 -0.32 2.34 -1 2 C-0.67 1.34 -0.34 0.68 0 0 Z " fill="#323131" transform="translate(165,54)"/>
<path d="M0 0 C0.66 0.33 1.32 0.66 2 1 C2 2.32 2 3.64 2 5 C0.35 5.33 -1.3 5.66 -3 6 C-3.33 7.32 -3.66 8.64 -4 10 C-5.0625 8.125 -5.0625 8.125 -6 6 C-5.67 5.34 -5.34 4.68 -5 4 C-4.01 4 -3.02 4 -2 4 C-2 3.01 -2 2.02 -2 1 C-1.34 0.67 -0.68 0.34 0 0 Z " fill="#365F7D" transform="translate(73,17)"/>
<path d="M0 0 C1.65 0.33 3.3 0.66 5 1 C5.33 1.99 5.66 2.98 6 4 C3.69 4.33 1.38 4.66 -1 5 C-0.67 3.35 -0.34 1.7 0 0 Z " fill="#15161A" transform="translate(156,122)"/>
<path d="M0 0 C-0.4794463 4.21912747 -1.16625119 6.79663178 -4 10 C-4.83241855 6.67032582 -5.2757381 4.24733335 -4 1 C-2 0 -2 0 0 0 Z " fill="#35617E" transform="translate(139,52)"/>
<path d="M0 0 C0.99 0 1.98 0 3 0 C2.67 4.62 2.34 9.24 2 14 C0.06604999 10.13209997 -0.23289353 8.8499541 -0.125 4.75 C-0.09792969 3.41195312 -0.09792969 3.41195312 -0.0703125 2.046875 C-0.04710938 1.37140625 -0.02390625 0.6959375 0 0 Z " fill="#325773" transform="translate(115,53)"/>
<path d="M0 0 C2.475 0.495 2.475 0.495 5 1 C5.33 2.65 5.66 4.3 6 6 C4.68 6.33 3.36 6.66 2 7 C1.34 4.69 0.68 2.38 0 0 Z " fill="#50748B" transform="translate(157,25)"/>
<path d="M0 0 C0 0.33 0 0.66 0 1 C-1.65 1 -3.3 1 -5 1 C-4.34 3.31 -3.68 5.62 -3 8 C-3.99 7.67 -4.98 7.34 -6 7 C-6.6875 4.9375 -6.6875 4.9375 -7 3 C-8.65 3 -10.3 3 -12 3 C-7.78372195 0.18914797 -4.97048208 -0.11045516 0 0 Z " fill="#8EA3B4" transform="translate(74,52)"/>
<path d="M0 0 C1.98 0 3.96 0 6 0 C6.33 1.32 6.66 2.64 7 4 C4.36 4 1.72 4 -1 4 C-0.67 2.68 -0.34 1.36 0 0 Z " fill="#020402" transform="translate(81,3)"/>
<path d="M0 0 C-2 2 -2 2 -4.1640625 2.1953125 C-5.38222656 2.16050781 -5.38222656 2.16050781 -6.625 2.125 C-7.44226563 2.10695312 -8.25953125 2.08890625 -9.1015625 2.0703125 C-9.72804688 2.04710937 -10.35453125 2.02390625 -11 2 C-11 1.34 -11 0.68 -11 0 C-6.94952424 -1.35015859 -4.2079832 -0.62084998 0 0 Z " fill="#325670" transform="translate(112,168)"/>
<path d="M0 0 C0.99 0 1.98 0 3 0 C3 0.66 3 1.32 3 2 C3.66 2.33 4.32 2.66 5 3 C2.35261084 4.4606285 1.10551666 5 -2 5 C-1.125 1.125 -1.125 1.125 0 0 Z " fill="#2E5F95" transform="translate(128,60)"/>
<path d="M0 0 C0 2.77996107 -0.21297929 5.42492567 -0.5 8.1875 C-0.5928125 9.08855469 -0.685625 9.98960938 -0.78125 10.91796875 C-0.88953125 11.94857422 -0.88953125 11.94857422 -1 13 C-0.34 13.33 0.32 13.66 1 14 C0.01 15.485 0.01 15.485 -1 17 C-3.69136475 6.52438028 -3.69136475 6.52438028 -1 1 C-0.67 0.67 -0.34 0.34 0 0 Z " fill="#8294A2" transform="translate(124,54)"/>
<path d="M0 0 C4.455 0.99 4.455 0.99 9 2 C8.67 2.99 8.34 3.98 8 5 C3.545 4.01 3.545 4.01 -1 3 C-0.67 2.01 -0.34 1.02 0 0 Z " fill="#5B7992" transform="translate(56,14)"/>
<path d="M0 0 C-0.33 1.32 -0.66 2.64 -1 4 C-2.65 4.33 -4.3 4.66 -6 5 C-5.625 3.0625 -5.625 3.0625 -5 1 C-3 0 -3 0 0 0 Z " fill="#446E8E" transform="translate(82,119)"/>
<path d="M0 0 C0.99 0.33 1.98 0.66 3 1 C3 1.66 3 2.32 3 3 C3.99 3.33 4.98 3.66 6 4 C3.69 4.66 1.38 5.32 -1 6 C-1.66 5.34 -2.32 4.68 -3 4 C-2.01 2.68 -1.02 1.36 0 0 Z " fill="#41403F" transform="translate(55,115)"/>
<path d="M0 0 C0.99 0.99 1.98 1.98 3 3 C1.824375 3.928125 1.824375 3.928125 0.625 4.875 C-1.96837647 6.89858661 -1.96837647 6.89858661 -4 9 C-3.38461538 3.46153846 -3.38461538 3.46153846 -1.4375 1.125 C-0.963125 0.75375 -0.48875 0.3825 0 0 Z " fill="#7790A0" transform="translate(135,103)"/>
<path d="M0 0 C0.33 0.66 0.66 1.32 1 2 C1.66 2 2.32 2 3 2 C3 2.99 3 3.98 3 5 C1.125 6.0625 1.125 6.0625 -1 7 C-1.66 6.67 -2.32 6.34 -3 6 C-1.125 1.125 -1.125 1.125 0 0 Z " fill="#4A7089" transform="translate(83,95)"/>
<path d="M0 0 C3 3.625 3 3.625 3 7 C2.34 7 1.68 7 1 7 C0.67 7.66 0.34 8.32 0 9 C0 8.34 0 7.68 0 7 C-0.99 6.67 -1.98 6.34 -3 6 C-2.67 5.34 -2.34 4.68 -2 4 C-1.34 4.33 -0.68 4.66 0 5 C0 3.35 0 1.7 0 0 Z " fill="#6286A4" transform="translate(51,92)"/>
<path d="M0 0 C-0.3125 1.9375 -0.3125 1.9375 -1 4 C-1.99 4.33 -2.98 4.66 -4 5 C-4.66 4.67 -5.32 4.34 -6 4 C-6.33 4.99 -6.66 5.98 -7 7 C-6.75 4.625 -6.75 4.625 -6 2 C-3.84898936 0.54286376 -2.59713506 0 0 0 Z " fill="#718EAA" transform="translate(62,55)"/>
<path d="M0 0 C2.475 0.99 2.475 0.99 5 2 C4.34 2.66 3.68 3.32 3 4 C3.33 4.66 3.66 5.32 4 6 C2.1875 6.6875 2.1875 6.6875 0 7 C-1.75 5.5625 -1.75 5.5625 -3 4 C-2.01 3.67 -1.02 3.34 0 3 C0 2.01 0 1.02 0 0 Z " fill="#515050" transform="translate(94,172)"/>
<path d="M0 0 C0.99 0.33 1.98 0.66 3 1 C3 2.98 3 4.96 3 7 C1.68 7 0.36 7 -1 7 C-0.67 4.69 -0.34 2.38 0 0 Z " fill="#18130E" transform="translate(20,111)"/>
<path d="M0 0 C0.66 0.33 1.32 0.66 2 1 C0.25 6.75 0.25 6.75 -2 9 C-2.33 6.69 -2.66 4.38 -3 2 C-2.01 1.34 -1.02 0.68 0 0 Z " fill="#323234" transform="translate(18,104)"/>
<path d="M0 0 C2 3 2 3 1.625 6.1875 C1.41875 7.115625 1.2125 8.04375 1 9 C0.34 9 -0.32 9 -1 9 C-1.09765625 2.84765625 -1.09765625 2.84765625 -1 1 C-0.67 0.67 -0.34 0.34 0 0 Z " fill="#446C8C" transform="translate(117,66)"/>
<path d="M0 0 C2.97 0.99 5.94 1.98 9 3 C8.01 3.495 8.01 3.495 7 4 C6.67 4.66 6.34 5.32 6 6 C5.01 5.67 4.02 5.34 3 5 C3 4.34 3 3.68 3 3 C2.34 3 1.68 3 1 3 C0.67 2.01 0.34 1.02 0 0 Z " fill="#5F7E99" transform="translate(141,12)"/>
<path d="M0 0 C0.99 0.66 1.98 1.32 3 2 C2.34 3.32 1.68 4.64 1 6 C0.01 6 -0.98 6 -2 6 C-2 3 -2 3 0 0 Z " fill="#161514" transform="translate(125,167)"/>
<path d="M0 0 C1.5625 1.125 1.5625 1.125 3 3 C2.6875 6.1875 2.6875 6.1875 2 9 C1.01 8.67 0.02 8.34 -1 8 C-1.04241723 5.66705225 -1.04092937 3.33297433 -1 1 C-0.67 0.67 -0.34 0.34 0 0 Z " fill="#316082" transform="translate(29,105)"/>
<path d="M0 0 C0.66 0 1.32 0 2 0 C2.2226746 1.43534841 2.42761906 2.87345525 2.625 4.3125 C2.74101563 5.11300781 2.85703125 5.91351563 2.9765625 6.73828125 C3 9 3 9 1 12 C0.83278881 10.18755015 0.66624559 8.37503867 0.5 6.5625 C0.36078125 5.04849609 0.36078125 5.04849609 0.21875 3.50390625 C0 1 0 1 0 0 Z " fill="#2C597D" transform="translate(50,31)"/>
<path d="M0 0 C3.36591866 1.44253657 5.51047079 3.33264727 8 6 C5.69 6 3.38 6 1 6 C1.33 4.68 1.66 3.36 2 2 C1.34 2 0.68 2 0 2 C0 1.34 0 0.68 0 0 Z " fill="#7590A1" transform="translate(150,16)"/>
<path d="M0 0 C4.08718695 -0.24042276 7.17679443 0.57741188 11 2 C6.8204355 4.78637633 4.85331323 3.79562512 0 3 C0 2.01 0 1.02 0 0 Z " fill="#3B6387" transform="translate(88,12)"/>
<path d="M0 0 C0.66 0.66 1.32 1.32 2 2 C1.01 3.98 0.02 5.96 -1 8 C-1.33 7.34 -1.66 6.68 -2 6 C-2.66 6 -3.32 6 -4 6 C-2.84826645 3.53199953 -1.95216435 1.95216435 0 0 Z " fill="#323230" transform="translate(61,109)"/>
<path d="M0 0 C2 4 2 4 1.3125 6.6875 C0 9 0 9 -3 10 C-2.01 6.7 -1.02 3.4 0 0 Z " fill="#8597A2" transform="translate(142,92)"/>
<path d="M0 0 C2.14418558 3.21627837 2.67582137 5.19090105 3 9 C2.34 9.66 1.68 10.32 1 11 C0.63743142 9.5437328 0.28520207 8.08488815 -0.0625 6.625 C-0.35833984 5.40683594 -0.35833984 5.40683594 -0.66015625 4.1640625 C-1 2 -1 2 0 0 Z " fill="#6A889E" transform="translate(18,81)"/>
<path d="M0 0 C1.9375 0.6875 1.9375 0.6875 4 2 C4.75 4.625 4.75 4.625 5 7 C4.01 7 3.02 7 2 7 C0.25 5.1875 0.25 5.1875 -1 3 C-0.67 2.01 -0.34 1.02 0 0 Z " fill="#305F80" transform="translate(121,24)"/>
<path d="M0 0 C1.88343932 3.76687864 2.22057835 5.02958963 2 9 C1.01 9 0.02 9 -1 9 C-0.67 6.03 -0.34 3.06 0 0 Z " fill="#0A0706" transform="translate(84,154)"/>
<path d="M0 0 C2.125 0.9375 2.125 0.9375 4 2 C3.34 3.32 2.68 4.64 2 6 C0.68 5.34 -0.64 4.68 -2 4 C-2 3.01 -2 2.02 -2 1 C-1.34 0.67 -0.68 0.34 0 0 Z " fill="#386281" transform="translate(79,113)"/>
<path d="M0 0 C1.32 0 2.64 0 4 0 C3.67 1.65 3.34 3.3 3 5 C0.69 4.67 -1.62 4.34 -4 4 C-1.66785852 2.79371992 0.49642139 1.8345262 3 1 C2.01 0.67 1.02 0.34 0 0 Z " fill="#7A95A4" transform="translate(71,101)"/>
<path d="M0 0 C0.66 0 1.32 0 2 0 C2.99 1.98 3.98 3.96 5 6 C3.35 5.67 1.7 5.34 0 5 C0 3.35 0 1.7 0 0 Z " fill="#557693" transform="translate(130,97)"/>
<path d="M0 0 C2 3 2 3 2 6 C0.35 5.67 -1.3 5.34 -3 5 C-2.625 3.0625 -2.625 3.0625 -2 1 C-1.34 0.67 -0.68 0.34 0 0 Z " fill="#537793" transform="translate(132,80)"/>
<path d="M0 0 C0.33 0 0.66 0 1 0 C1.02712066 1.43739513 1.04645067 2.87493863 1.0625 4.3125 C1.07410156 5.11300781 1.08570313 5.91351563 1.09765625 6.73828125 C1 9 1 9 0 12 C-0.66 12 -1.32 12 -2 12 C-2 10.35 -2 8.7 -2 7 C-1.34 7 -0.68 7 0 7 C0 4.69 0 2.38 0 0 Z " fill="#2A546E" transform="translate(161,41)"/>
<path d="M0 0 C0.66 0.66 1.32 1.32 2 2 C1.8125 4.5 1.8125 4.5 1 7 C0.01 7.66 -0.98 8.32 -2 9 C-1.125 2.25 -1.125 2.25 0 0 Z " fill="#718EA4" transform="translate(13,26)"/>
<path d="M0 0 C-0.33 1.65 -0.66 3.3 -1 5 C-2.32 5 -3.64 5 -5 5 C-4.625 3.0625 -4.625 3.0625 -4 1 C-2 0 -2 0 0 0 Z " fill="#252423" transform="translate(16,13)"/>
<path d="M0 0 C2.00720923 0.28674418 4.0085944 0.61866701 6 1 C1.25 4.875 1.25 4.875 -1 6 C-1.042721 4.33388095 -1.04063832 2.66617115 -1 1 C-0.67 0.67 -0.34 0.34 0 0 Z " fill="#494848" transform="translate(17,10)"/>
<path d="M0 0 C0.99 0.33 1.98 0.66 3 1 C2.67 1.99 2.34 2.98 2 4 C-0.5625 5.1875 -0.5625 5.1875 -3 6 C-2 4 -1 2 0 0 Z " fill="#5C7B8F" transform="translate(119,162)"/>
<path d="M0 0 C1.485 0.99 1.485 0.99 3 2 C2.67 3.65 2.34 5.3 2 7 C1.34 6.67 0.68 6.34 0 6 C-0.6875 3.5 -0.6875 3.5 -1 1 C-0.67 0.67 -0.34 0.34 0 0 Z " fill="#050505" transform="translate(132,151)"/>
<path d="M0 0 C-2.16295027 2.16295027 -3.05244857 2.5534013 -6 3 C-6.99 2.67 -7.98 2.34 -9 2 C-6.98558063 -2.02883874 -3.72407517 -0.90585612 0 0 Z " fill="#6A89A3" transform="translate(44,122)"/>
<path d="M0 0 C0.66 0 1.32 0 2 0 C2.33 1.65 2.66 3.3 3 5 C2.01 5.66 1.02 6.32 0 7 C-0.38133299 5.0085944 -0.71325582 3.00720923 -1 1 C-0.67 0.67 -0.34 0.34 0 0 Z " fill="#3B5D7A" transform="translate(60,35)"/>
<path d="M0 0 C-0.6875 1.9375 -0.6875 1.9375 -2 4 C-4.625 4.75 -4.625 4.75 -7 5 C-2.25 0 -2.25 0 0 0 Z " fill="#6C88A0" transform="translate(24,16)"/>
<path d="M0 0 C2 3.75 2 3.75 2 6 C0.02 6.99 0.02 6.99 -2 8 C-2.33 6.68 -2.66 5.36 -3 4 C-2.01 4 -1.02 4 0 4 C0 2.68 0 1.36 0 0 Z " fill="#504F4F" transform="translate(86,159)"/>
<path d="M0 0 C0.99 0 1.98 0 3 0 C2.67 1.65 2.34 3.3 2 5 C0 5 -2 5 -4 5 C-2.1875 2.5 -2.1875 2.5 0 0 Z " fill="#333030" transform="translate(51,120)"/>
<path d="M0 0 C1.32 0 2.64 0 4 0 C4 1.32 4 2.64 4 4 C2.35 3.67 0.7 3.34 -1 3 C-0.67 2.01 -0.34 1.02 0 0 Z " fill="#2B6693" transform="translate(39,116)"/>
<path d="M0 0 C1.98 0.495 1.98 0.495 4 1 C3.67 1.99 3.34 2.98 3 4 C0.9375 4.6875 0.9375 4.6875 -1 5 C-0.67 3.35 -0.34 1.7 0 0 Z " fill="#060606" transform="translate(170,107)"/>
<path d="M0 0 C2.03833424 1.2739589 4.03852126 2.61061923 6 4 C6 4.66 6 5.32 6 6 C3.69 5.34 1.38 4.68 -1 4 C-0.67 2.68 -0.34 1.36 0 0 Z " fill="#6F8697" transform="translate(79,102)"/>
<path d="M0 0 C1.32 0 2.64 0 4 0 C3.67 2.31 3.34 4.62 3 7 C0 3.375 0 3.375 0 0 Z " fill="#7B9AB0" transform="translate(22,100)"/>
<path d="M0 0 C0.66 0.66 1.32 1.32 2 2 C1.625 4.625 1.625 4.625 1 7 C0.34 7 -0.32 7 -1 7 C-1.04254356 5.00045254 -1.04080783 2.99958364 -1 1 C-0.67 0.67 -0.34 0.34 0 0 Z " fill="#4A6A7E" transform="translate(144,89)"/>
<path d="M0 0 C1.65 0 3.3 0 5 0 C5.33 1.32 5.66 2.64 6 4 C5.401875 3.835 4.80375 3.67 4.1875 3.5 C1.88655664 2.8885876 1.88655664 2.8885876 -1 3 C-0.67 2.01 -0.34 1.02 0 0 Z " fill="#395D7A" transform="translate(62,55)"/>
<path d="M0 0 C1.61949011 2.57213134 2.04408751 3.67669159 1.625 6.75 C1.41875 7.4925 1.2125 8.235 1 9 C0.34 8.67 -0.32 8.34 -1 8 C-0.67 5.36 -0.34 2.72 0 0 Z " fill="#718A9C" transform="translate(58,36)"/>
<path d="M0 0 C4.75 0.875 4.75 0.875 7 2 C7 2.66 7 3.32 7 4 C6.01 4.33 5.02 4.66 4 5 C2.68 3.35 1.36 1.7 0 0 Z " fill="#7B96A8" transform="translate(128,23)"/>
<path d="M0 0 C2 1 2 1 2 1 Z " fill="#FFFFFF" transform="translate(163,108)"/>
<path d="M0 0 C2 1 2 1 2 1 Z " fill="#EDEDED" transform="translate(18,5)"/>
<path d="" fill="#FFFFFF" transform="translate(0,0)"/>
<path d="" fill="#FFFFFF" transform="translate(0,0)"/>
<path d="" fill="#FFFFFF" transform="translate(0,0)"/>
<path d="" fill="#D2E1E1" transform="translate(0,0)"/>
<path d="" fill="#FFFFFF" transform="translate(0,0)"/>
<path d="" fill="#FFFFFF" transform="translate(0,0)"/>
<path d="" fill="#FFFFFF" transform="translate(0,0)"/>
<path d="" fill="#E3E3E3" transform="translate(0,0)"/>
<path d="" fill="#D4D4D4" transform="translate(0,0)"/>
<path d="" fill="#FFFFFF" transform="translate(0,0)"/>
<path d="" fill="#FFFFFF" transform="translate(0,0)"/>
</svg>
