<?xml version="1.0" encoding="UTF-8"?>
<svg version="1.1" xmlns="http://www.w3.org/2000/svg" width="345" height="180">
<path d="M0 0 C0.88300781 0.48210938 1.76601562 0.96421875 2.67578125 1.4609375 C17.15287742 9.99101076 25.83139594 23.59746751 30 39.6875 C32.98727254 55.41917549 30.37188995 70.33385142 22 84 C13.38156525 96.53285053 1.32483628 105.61615794 -13.5625 109.3125 C-32.44558709 112.4446229 -48.99015829 108.98467955 -64.625 97.875 C-76.05617184 88.52965916 -83.70508413 74.35304555 -85.75 59.76171875 C-87.23472313 43.36016793 -83.96930095 28.30826977 -73.77734375 15.125 C-55.48871497 -6.20690298 -25.18910613 -13.82057151 0 0 Z M-5.875 19.0625 C-8.34375 21.88541667 -8.34375 21.88541667 -8.0625 25.625 C-7.26092189 28.99211781 -7.26092189 28.99211781 -5.1875 31 C-3.05273445 32.21255387 -3.05273445 32.21255387 -0.75 31.6875 C-0.1725 31.460625 0.405 31.23375 1 31 C0.505 30.608125 0.01 30.21625 -0.5 29.8125 C-2 28 -2 28 -2.4375 25.5625 C-1.87356309 22.25944097 -0.4346337 21.20638679 2 19 C2 18.34 2 17.68 2 17 C-1.64336355 16.47951949 -2.82477699 16.87429654 -5.875 19.0625 Z M-35 47 C-34.67 48.32 -34.34 49.64 -34 51 C-30.79574378 50.42661132 -29.2418957 49.59568064 -27.0546875 47.19921875 C-26.53519531 46.63396484 -26.01570313 46.06871094 -25.48046875 45.48632812 C-24.95066406 44.89271484 -24.42085937 44.29910156 -23.875 43.6875 C-23.06869141 42.81448242 -23.06869141 42.81448242 -22.24609375 41.92382812 C-19.69568941 39.11583931 -17.42808364 36.57020911 -16 33 C-22.337722 33 -30.41049755 42.88570489 -35 47 Z M-14 47 C-14.886875 47.7425 -15.77375 48.485 -16.6875 49.25 C-19.4298846 51.53640616 -22.20383213 53.77951375 -25 56 C-24.67 57.32 -24.34 58.64 -24 60 C-19.47384007 56.32167983 -15.60575001 52.58913637 -12 48 C-12.66 47.67 -13.32 47.34 -14 47 Z M-39 51 C-39.99 52.485 -39.99 52.485 -41 54 C-39.68 53.67 -38.36 53.34 -37 53 C-37 52.34 -37 51.68 -37 51 C-37.66 51 -38.32 51 -39 51 Z M-44 67 C-45.35158203 68.33224609 -45.35158203 68.33224609 -46.73046875 69.69140625 C-49.17093535 72.1112201 -51.59217371 74.54776708 -54 77 C-53.67 77.99 -53.34 78.98 -53 80 C-48.25564747 77.71289257 -43.886666 74.86951321 -39.4375 72.0625 C-38.57447266 71.52431641 -37.71144531 70.98613281 -36.82226562 70.43164062 C-35.99275391 69.90892578 -35.16324219 69.38621094 -34.30859375 68.84765625 C-33.55376709 68.37336182 -32.79894043 67.89906738 -32.02124023 67.41040039 C-30.09779455 66.06824002 -28.51891683 64.78587979 -27 63 C-27 62.34 -27 61.68 -27 61 C-34.56172511 57.21913744 -38.9610887 61.90738805 -44 67 Z " fill="#F96A33" transform="translate(200,14)"/>
<path d="M0 0 C7.17671833 1.73231132 7.17671833 1.73231132 9.4375 5.3125 C17.02641858 18.06004903 18.79343912 33.56723119 16 48 C14.88040364 51.11807587 13.49271655 54.04492723 12 57 C11.47599609 58.09828125 11.47599609 58.09828125 10.94140625 59.21875 C7.25780673 66.45848885 1.72813842 74.79308542 -6 78 C-5.01 78.66 -4.02 79.32 -3 80 C-3.99 80.66 -4.98 81.32 -6 82 C-6 81.34 -6 80.68 -6 80 C-6.67933594 80.47308594 -7.35867187 80.94617188 -8.05859375 81.43359375 C-11.48324457 83.25734538 -14.21741496 83.63892379 -18.0625 84.0625 C-23.82414994 84.63124905 -23.82414994 84.63124905 -29 87 C-29.33 87.66 -29.66 88.32 -30 89 C-32.79889717 89.96664909 -35.38482508 90.11867982 -38.328125 90.09765625 C-39.12734375 90.09443359 -39.9265625 90.09121094 -40.75 90.08789062 C-41.575 90.07951172 -42.4 90.07113281 -43.25 90.0625 C-44.09046875 90.05798828 -44.9309375 90.05347656 -45.796875 90.04882812 C-47.86461401 90.03707961 -49.93231624 90.01914522 -52 90 C-52 89.34 -52 88.68 -52 88 C-53.8871875 87.9071875 -53.8871875 87.9071875 -55.8125 87.8125 C-58.04296875 87.546875 -58.04296875 87.546875 -60 87 C-61.625 84.5625 -61.625 84.5625 -63 82 C-66.07561246 80.64019119 -66.07561246 80.64019119 -69 80 C-69.1705771 76.80679663 -69.10085434 74.023399 -68 71 C-65.7415233 69.62150558 -63.51866363 68.88137796 -61.01953125 68.02734375 C-60.35308594 67.68832031 -59.68664062 67.34929687 -59 67 C-58.09308537 63.48618881 -58.09308537 63.48618881 -58 60 C-56.1875 58.0625 -56.1875 58.0625 -54 57 C-52.68 57 -51.36 57 -50 57 C-50 56.34 -50 55.68 -50 55 C-49.30132812 54.75765625 -48.60265625 54.5153125 -47.8828125 54.265625 C-46.97273438 53.93046875 -46.06265625 53.5953125 -45.125 53.25 C-44.22007812 52.92515625 -43.31515625 52.6003125 -42.3828125 52.265625 C-39.6390574 50.80828623 -39.18432125 49.78258003 -38 47 C-36.66666667 46.66666667 -35.33333333 46.33333333 -34 46 C-33.29605388 44.68596724 -32.63654342 43.3479743 -32 42 C-30.33333333 40.33333333 -28.66666667 38.66666667 -27 37 C-25.14296667 34.6586972 -23.33867816 32.285059 -21.55078125 29.890625 C-20 28 -20 28 -18 27 C-17.08968728 24.65613191 -17.08968728 24.65613191 -16.375 21.9375 C-15.92125 20.308125 -15.4675 18.67875 -15 17 C-10.71 16.01 -6.42 15.02 -2 14 C-0.4087311 9.126739 0.21192221 5.19209404 0 0 Z " fill="#F96A33" transform="translate(212,32)"/>
<path d="M0 0 C3.78679913 3.58749391 4.33320362 8.26123523 5.375 13.25 C2.60492038 16.37586967 0.74644371 17.7726864 -3.375 18.5 C-4.57382813 18.72429688 -4.57382813 18.72429688 -5.796875 18.953125 C-6.40015625 19.05109375 -7.0034375 19.1490625 -7.625 19.25 C-7.563125 19.95125 -7.50125 20.6525 -7.4375 21.375 C-7.8047649 27.00639514 -10.6531898 30.5118257 -14.625 34.25 C-15.8315625 35.7040625 -15.8315625 35.7040625 -17.0625 37.1875 C-19.4568732 40.04906798 -21.95457028 42.64804284 -24.625 45.25 C-25.346875 46.013125 -26.06875 46.77625 -26.8125 47.5625 C-28.625 49.25 -28.625 49.25 -30.625 49.25 C-30.83125 50.013125 -31.0375 50.77625 -31.25 51.5625 C-33.0778387 55.13509382 -34.92903757 55.84553428 -38.625 57.25 C-39.945 57.25 -41.265 57.25 -42.625 57.25 C-42.625 57.91 -42.625 58.57 -42.625 59.25 C-45.27728812 60.32525194 -47.90868454 61.34456151 -50.625 62.25 C-50.625 64.56 -50.625 66.87 -50.625 69.25 C-53.595 70.57 -56.565 71.89 -59.625 73.25 C-59.955 72.92 -60.285 72.59 -60.625 72.25 C-62.47099688 71.85545777 -64.32725822 71.50823134 -66.1875 71.1875 C-67.19941406 71.01089844 -68.21132812 70.83429688 -69.25390625 70.65234375 C-70.03636719 70.51957031 -70.81882813 70.38679688 -71.625 70.25 C-69.54946352 69.6965236 -67.78134036 69.25 -65.625 69.25 C-65.70492187 68.50363281 -65.78484375 67.75726563 -65.8671875 66.98828125 C-65.625 64.25 -65.625 64.25 -63.9453125 62.23046875 C-63.22085938 61.63878906 -62.49640625 61.04710937 -61.75 60.4375 C-61.03070313 59.83292969 -60.31140625 59.22835937 -59.5703125 58.60546875 C-57.625 57.25 -57.625 57.25 -55.625 57.25 C-55.625 56.59 -55.625 55.93 -55.625 55.25 C-54.965 55.25 -54.305 55.25 -53.625 55.25 C-52.965 53.6 -52.305 51.95 -51.625 50.25 C-50.965 50.25 -50.305 50.25 -49.625 50.25 C-49.295 49.26 -48.965 48.27 -48.625 47.25 C-47.635 47.25 -46.645 47.25 -45.625 47.25 C-44.965 45.93 -44.305 44.61 -43.625 43.25 C-42.965 43.25 -42.305 43.25 -41.625 43.25 C-41.625 42.59 -41.625 41.93 -41.625 41.25 C-42.285 41.25 -42.945 41.25 -43.625 41.25 C-43.955 40.26 -44.285 39.27 -44.625 38.25 C-43.14 37.755 -43.14 37.755 -41.625 37.25 C-41.625 36.59 -41.625 35.93 -41.625 35.25 C-42.285 34.92 -42.945 34.59 -43.625 34.25 C-42.965 34.25 -42.305 34.25 -41.625 34.25 C-41.295 33.26 -40.965 32.27 -40.625 31.25 C-39.965 32.24 -39.305 33.23 -38.625 34.25 C-34.07838726 33.88281512 -31.76763088 30.57623413 -28.9375 27.375 C-28.43927734 26.83230469 -27.94105469 26.28960937 -27.42773438 25.73046875 C-25.20187575 23.25997709 -23.68738005 21.43714014 -22.625 18.25 C-23.23988281 18.74371094 -23.85476562 19.23742187 -24.48828125 19.74609375 C-25.29652344 20.38675781 -26.10476562 21.02742188 -26.9375 21.6875 C-27.73800781 22.32558594 -28.53851563 22.96367188 -29.36328125 23.62109375 C-31.625 25.25 -31.625 25.25 -34.625 26.25 C-35.75 21.5 -35.75 21.5 -34.625 19.25 C-32.315 19.25 -30.005 19.25 -27.625 19.25 C-27.41875 18.63125 -27.2125 18.0125 -27 17.375 C-25.07650753 14.40232982 -22.95180765 14.17018084 -19.625 13.25 C-19.295 12.92 -18.965 12.59 -18.625 12.25 C-16.95882885 12.20936168 -15.29111905 12.207279 -13.625 12.25 C-13.625 9.94 -13.625 7.63 -13.625 5.25 C-12.965 4.92 -12.305 4.59 -11.625 4.25 C-11.625 7.22 -11.625 10.19 -11.625 13.25 C-7.9231424 15.4736068 -7.9231424 15.4736068 -4.625 15.25 C-5.12 14.858125 -5.615 14.46625 -6.125 14.0625 C-7.625 12.25 -7.625 12.25 -8.125 9.9375 C-7.39127436 5.9937247 -5.33884214 4.1673803 -2.625 1.25 C-4.275 1.25 -5.925 1.25 -7.625 1.25 C-7.625 0.92 -7.625 0.59 -7.625 0.25 C-4.69576214 -0.67061761 -2.97513815 -0.85003947 0 0 Z M-18.625 31.25 C-19.511875 31.9925 -20.39875 32.735 -21.3125 33.5 C-24.0548846 35.78640616 -26.82883213 38.02951375 -29.625 40.25 C-29.295 41.57 -28.965 42.89 -28.625 44.25 C-24.09884007 40.57167983 -20.23075001 36.83913637 -16.625 32.25 C-17.285 31.92 -17.945 31.59 -18.625 31.25 Z M-48.625 51.25 C-49.97658203 52.58224609 -49.97658203 52.58224609 -51.35546875 53.94140625 C-53.79593535 56.3612201 -56.21717371 58.79776708 -58.625 61.25 C-58.295 62.24 -57.965 63.23 -57.625 64.25 C-52.88064747 61.96289257 -48.511666 59.11951321 -44.0625 56.3125 C-43.19947266 55.77431641 -42.33644531 55.23613281 -41.44726562 54.68164062 C-40.61775391 54.15892578 -39.78824219 53.63621094 -38.93359375 53.09765625 C-38.17876709 52.62336182 -37.42394043 52.14906738 -36.64624023 51.66040039 C-34.72279455 50.31824002 -33.14391683 49.03587979 -31.625 47.25 C-31.625 46.59 -31.625 45.93 -31.625 45.25 C-39.18672511 41.46913744 -43.5860887 46.15738805 -48.625 51.25 Z " fill="#C27457" transform="translate(204.625,29.75)"/>
<path d="M0 0 C-0.66 0.33 -1.32 0.66 -2 1 C-3.9453125 0.22265625 -3.9453125 0.22265625 -6.125 -0.9375 C-7.21167969 -1.50791016 -7.21167969 -1.50791016 -8.3203125 -2.08984375 C-8.87460938 -2.39019531 -9.42890625 -2.69054688 -10 -3 C-10 -3.66 -10 -4.32 -10 -5 C-25.33401258 -7.95087527 -39.82408597 -10.05863801 -55 -5 C-55 -4.34 -55 -3.68 -55 -3 C-59.455 -2.505 -59.455 -2.505 -64 -2 C-64 -0.35 -64 1.3 -64 3 C-66.475 2.505 -66.475 2.505 -69 2 C-69.33 3.32 -69.66 4.64 -70 6 C-70.928125 6.12375 -70.928125 6.12375 -71.875 6.25 C-74.18437567 6.81258459 -74.18437567 6.81258459 -75.25 9.0625 C-75.4975 9.701875 -75.745 10.34125 -76 11 C-76.99 11 -77.98 11 -79 11 C-79.268125 11.763125 -79.53625 12.52625 -79.8125 13.3125 C-81 16 -81 16 -82.50390625 17.33203125 C-84.52093133 19.58077723 -84.67828254 21.41042052 -85.125 24.375 C-85.27195312 25.31085937 -85.41890625 26.24671875 -85.5703125 27.2109375 C-85.71210937 28.13132813 -85.85390625 29.05171875 -86 30 C-86.42384926 32.56621459 -86.75972719 34.57524806 -88.04296875 36.84375 C-89.444188 40.00078275 -89.3389464 43.10724728 -89.3125 46.5 C-89.30976074 47.20471436 -89.30702148 47.90942871 -89.30419922 48.63549805 C-89.15714341 56.10407369 -88.2071766 63.6892351 -84 70 C-83.690625 71.155 -83.38125 72.31 -83.0625 73.5 C-82.05142447 76.83060175 -81.51140501 77.83105931 -79 80 C-79 80.66 -79 81.32 -79 82 C-78.38125 82.04125 -77.7625 82.0825 -77.125 82.125 C-76.42375 82.41375 -75.7225 82.7025 -75 83 C-73.75 86.0625 -73.75 86.0625 -73 89 C-71.02 89 -69.04 89 -67 89 C-66.67 90.32 -66.34 91.64 -66 93 C-64.3603125 93.0928125 -64.3603125 93.0928125 -62.6875 93.1875 C-61.470625 93.455625 -60.25375 93.72375 -59 94 C-58.525625 94.804375 -58.05125 95.60875 -57.5625 96.4375 C-56.28280595 99.1147559 -56.28280595 99.1147559 -54.046875 99.7734375 C-52.04756432 100.25578868 -50.02402795 100.63501135 -48 101 C-48 101.66 -48 102.32 -48 103 C-40.74 102.67 -33.48 102.34 -26 102 C-25.01 100.02 -25.01 100.02 -24 98 C-21.64453125 97.2421875 -21.64453125 97.2421875 -18.8125 96.875 C-14.36917907 96.21780724 -10.28912472 95.31299736 -6 94 C-4.66869885 93.65864073 -3.33641852 93.32074044 -2 93 C-3.04510594 96.01774341 -3.91081055 96.94581222 -6.6875 98.6328125 C-21.71961405 105.40435444 -38.13760377 107.8061848 -54.265625 103.0390625 C-70.57475274 96.84159396 -82.24907807 85.84973495 -89.4375 69.9375 C-95.93880977 53.51313847 -95.54501822 37.34270009 -88.75 20.9921875 C-80.87872915 5.29436894 -67.38216288 -4.5034945 -51 -10 C-32.62304223 -14.77452759 -15.57531175 -10.35524814 0 0 Z " fill="#D96D49" transform="translate(208,19)"/>
<path d="M0 0 C0.99 0.33 1.98 0.66 3 1 C4.7426714 5.52981445 4.18425909 10.72290415 4.1875 15.5 C4.19974609 16.45003906 4.21199219 17.40007812 4.22460938 18.37890625 C4.22750977 19.75369141 4.22750977 19.75369141 4.23046875 21.15625 C4.23457764 21.98962891 4.23868652 22.82300781 4.24291992 23.68164062 C3.97926986 26.19784261 3.26216419 27.82646384 2 30 C0.68 29.34 -0.64 28.68 -2 28 C-2 24.04 -2 20.08 -2 16 C-3.32 17.32 -4.64 18.64 -6 20 C-8.125 20 -8.125 20 -10 19 C-10.710001 17.68922893 -11.3819029 16.35653168 -12 15 C-12.02578125 15.91523438 -12.0515625 16.83046875 -12.078125 17.7734375 C-12.13484375 18.96195313 -12.1915625 20.15046875 -12.25 21.375 C-12.29640625 22.55835938 -12.3428125 23.74171875 -12.390625 24.9609375 C-13 28 -13 28 -15.046875 29.4140625 C-16.01367188 29.70410156 -16.01367188 29.70410156 -17 30 C-19.18576709 27.81423291 -18.47030607 22.97905562 -18.625 19.9375 C-18.70234375 18.68549805 -18.70234375 18.68549805 -18.78125 17.40820312 C-19.06157793 12.11907476 -18.81098357 7.2350805 -18 2 C-16.35 1.67 -14.7 1.34 -13 1 C-9 7.625 -9 7.625 -9 11 C-8.01 11 -7.02 11 -6 11 C-5.62875 9.6696875 -5.62875 9.6696875 -5.25 8.3125 C-3.96065232 4.89572865 -2.40019871 2.7202252 0 0 Z " fill="#CD6B4B" transform="translate(205,143)"/>
<path d="M0 0 C3.19002763 1.54104718 3.8664554 3.9105287 5.328125 7.06640625 C5.84890625 8.17113281 6.3696875 9.27585938 6.90625 10.4140625 C7.29296875 11.26871094 7.6796875 12.12335938 8.078125 13.00390625 C8.10390625 12.23304688 8.1296875 11.4621875 8.15625 10.66796875 C8.21296875 9.66507813 8.2696875 8.6621875 8.328125 7.62890625 C8.39773438 6.13230469 8.39773438 6.13230469 8.46875 4.60546875 C9.078125 2.00390625 9.078125 2.00390625 11.125 0.65234375 C11.76953125 0.43835938 12.4140625 0.224375 13.078125 0.00390625 C15.71919098 2.64497223 15.33559188 3.88173079 15.34375 7.5625 C15.34761719 9.22442383 15.34761719 9.22442383 15.3515625 10.91992188 C15.34382813 12.08201172 15.33609375 13.24410156 15.328125 14.44140625 C15.33585937 15.59962891 15.34359375 16.75785156 15.3515625 17.95117188 C15.34898437 19.06041016 15.34640625 20.16964844 15.34375 21.3125 C15.34149414 22.33142334 15.33923828 23.35034668 15.33691406 24.40014648 C15.078125 27.00390625 15.078125 27.00390625 13.078125 30.00390625 C8.95146426 28.51471998 7.7807887 26.19547621 5.828125 22.37890625 C5.30734375 21.37601563 4.7865625 20.373125 4.25 19.33984375 C3.66992188 18.18355469 3.66992188 18.18355469 3.078125 17.00390625 C3.02914062 17.69097656 2.98015625 18.37804687 2.9296875 19.0859375 C2.85492188 19.98699219 2.78015625 20.88804687 2.703125 21.81640625 C2.63351563 22.70972656 2.56390625 23.60304687 2.4921875 24.5234375 C2.078125 27.00390625 2.078125 27.00390625 0.078125 30.00390625 C-0.911875 29.67390625 -1.901875 29.34390625 -2.921875 29.00390625 C-5.03877093 24.77011439 -4.10680505 19.15550843 -4.109375 14.50390625 C-4.12162109 13.33730469 -4.13386719 12.17070312 -4.14648438 10.96875 C-4.14841797 9.85628906 -4.15035156 8.74382812 -4.15234375 7.59765625 C-4.15645264 6.57349609 -4.16056152 5.54933594 -4.16479492 4.49414062 C-3.86983604 1.4704415 -3.24547532 0.00659649 0 0 Z " fill="#D17254" transform="translate(249.921875,142.99609375)"/>
<path d="M0 0 C3.84817678 4.47603721 4.50424693 7.74051344 4.375 13.5625 C4.35566406 15.48255859 4.35566406 15.48255859 4.3359375 17.44140625 C3.93908164 21.64530958 3.21248753 24.64761006 0.375 27.8125 C-3.08505348 29.54252674 -6.20352511 29.58467272 -10 29 C-13.23613354 27.25746655 -13.82395315 26.52814056 -15 23 C-15.14854388 20.19480593 -15.23104204 17.43077873 -15.25 14.625 C-15.270625 13.86960938 -15.29125 13.11421875 -15.3125 12.3359375 C-15.34487867 7.70578803 -14.94476993 4.79130085 -12 1 C-8.60049302 -1.76996865 -3.91849563 -1.71434184 0 0 Z M-8 5 C-9.44388571 6.21428988 -9.44388571 6.21428988 -9.09765625 9.81640625 C-9.09098089 11.39846682 -9.07901875 12.98051159 -9.0625 14.5625 C-9.05798828 15.36880859 -9.05347656 16.17511719 -9.04882812 17.00585938 C-9.03700518 19.00393756 -9.01906914 21.00197783 -9 23 C-7.08623917 23.59761228 -7.08623917 23.59761228 -5 24 C-3.10497043 23.08778115 -3.10497043 23.08778115 -2 21 C-1.56011125 17.63985806 -1.56011125 17.63985806 -1.6875 13.9375 C-1.69136719 12.68839844 -1.69523437 11.43929687 -1.69921875 10.15234375 C-1.67158121 6.90392133 -1.67158121 6.90392133 -4 5 C-5.32 5 -6.64 5 -8 5 Z " fill="#C6866B" transform="translate(122,144)"/>
<path d="M0 0 C-0.66 0.33 -1.32 0.66 -2 1 C-3.9453125 0.22265625 -3.9453125 0.22265625 -6.125 -0.9375 C-7.21167969 -1.50791016 -7.21167969 -1.50791016 -8.3203125 -2.08984375 C-8.87460938 -2.39019531 -9.42890625 -2.69054688 -10 -3 C-10 -3.66 -10 -4.32 -10 -5 C-25.33401258 -7.95087527 -39.82408597 -10.05863801 -55 -5 C-55 -4.34 -55 -3.68 -55 -3 C-59.455 -2.505 -59.455 -2.505 -64 -2 C-64 -0.35 -64 1.3 -64 3 C-66.475 2.505 -66.475 2.505 -69 2 C-69.33 3.32 -69.66 4.64 -70 6 C-70.928125 6.12375 -70.928125 6.12375 -71.875 6.25 C-74.18437567 6.81258459 -74.18437567 6.81258459 -75.25 9.0625 C-75.4975 9.701875 -75.745 10.34125 -76 11 C-76.99 11 -77.98 11 -79 11 C-79.268125 11.763125 -79.53625 12.52625 -79.8125 13.3125 C-81 16 -81 16 -82.4375 17.375 C-86.51255974 21.61306213 -87.42401263 27.35532374 -88 33 C-88.66 33 -89.32 33 -90 33 C-90 33.66 -90 34.32 -90 35 C-90.66 35 -91.32 35 -92 35 C-92 42.92 -92 50.84 -92 59 C-92.33 59 -92.66 59 -93 59 C-95.79867715 43.9571103 -93.69000366 28.88579563 -85.81640625 15.625 C-76.05010104 1.51111376 -62.22515603 -7.91581594 -45.3125 -11.3125 C-28.6775542 -13.77693641 -13.82769281 -9.19334345 0 0 Z " fill="#D66A48" transform="translate(208,19)"/>
<path d="M0 0 C2.0625 1.1875 2.0625 1.1875 4.0625 4.1875 C4.48994603 9.48783079 4.56572554 12.9057799 1.0625 17.1875 C-2.41075181 18.3452506 -5.29817448 18.25616652 -8.9375 18.1875 C-8.90269531 18.87457031 -8.86789063 19.56164062 -8.83203125 20.26953125 C-8.80496094 21.17058594 -8.77789062 22.07164062 -8.75 23 C-8.71519531 23.89332031 -8.68039063 24.78664062 -8.64453125 25.70703125 C-8.98668998 28.60397515 -9.69143573 29.41305028 -11.9375 31.1875 C-15.9529634 26.29497485 -15.31249187 21.12070379 -15.1875 15.125 C-15.18234375 14.13177734 -15.1771875 13.13855469 -15.171875 12.11523438 C-15.07846096 3.44524379 -15.07846096 3.44524379 -13.9375 0.1875 C-9.75476356 -1.90386822 -4.38902365 -1.21398526 0 0 Z M-8.9375 5.1875 C-8.9375 7.8275 -8.9375 10.4675 -8.9375 13.1875 C-6.93795254 13.23004356 -4.93708364 13.22830783 -2.9375 13.1875 C-1.66746677 12.13439723 -1.66746677 12.13439723 -1.75 9.75 C-1.66910017 7.02015325 -1.66910017 7.02015325 -3.9375 5.1875 C-6.52104218 5.02062552 -6.52104218 5.02062552 -8.9375 5.1875 Z " fill="#D66F48" transform="translate(94.9375,143.8125)"/>
<path d="M0 0 C0.99 0.33 1.98 0.66 3 1 C4.09082031 3.25317383 4.09082031 3.25317383 5.078125 6.20703125 C5.61179688 7.7993457 5.61179688 7.7993457 6.15625 9.42382812 C6.5171875 10.54208984 6.878125 11.66035156 7.25 12.8125 C7.62640625 13.91916016 8.0028125 15.02582031 8.390625 16.16601562 C11.36882252 25.21557538 11.36882252 25.21557538 10 29 C8.68 29.33 7.36 29.66 6 30 C5.34 28.35 4.68 26.7 4 25 C0.62599422 24.58274322 0.62599422 24.58274322 -3 25 C-5.00864359 27.3726974 -5.00864359 27.3726974 -6 30 C-7.32 29.67 -8.64 29.34 -10 29 C-9.42790897 22.89537012 -8.09403195 17.48413796 -6.125 11.6875 C-5.74021484 10.49157227 -5.74021484 10.49157227 -5.34765625 9.27148438 C-4.96287109 8.12196289 -4.96287109 8.12196289 -4.5703125 6.94921875 C-4.34102051 6.26174561 -4.11172852 5.57427246 -3.87548828 4.8659668 C-2.89364077 2.77331188 -1.71302063 1.53133663 0 0 Z M0 12 C-1.4606285 14.64738916 -2 15.89448334 -2 19 C-0.68 19 0.64 19 2 19 C1.67 16.69 1.34 14.38 1 12 C0.67 12 0.34 12 0 12 Z " fill="#C46D4A" transform="translate(227,143)"/>
<path d="M0 0 C0.5625 1.9375 0.5625 1.9375 1 4 C0 5 0 5 -2.06640625 5.09765625 C-2.89011719 5.08605469 -3.71382812 5.07445312 -4.5625 5.0625 C-5.38878906 5.05347656 -6.21507812 5.04445312 -7.06640625 5.03515625 C-7.70449219 5.02355469 -8.34257812 5.01195312 -9 5 C-8.42557356 7.44278263 -8.42557356 7.44278263 -7 10 C-4.08333333 11.66666667 -4.08333333 11.66666667 -1 13 C0.875 14.1875 0.875 14.1875 2 16 C2.63025284 20.88445953 2.74637221 22.88044169 0 27 C-3.85159984 29.56773323 -6.5015322 29.83439322 -11 29 C-14 27.75 -14 27.75 -16 26 C-16 24.68 -16 23.36 -16 22 C-12.70303895 20.90101298 -11.59505097 21.12875556 -8.3125 21.9375 C-7.10013672 22.22947266 -7.10013672 22.22947266 -5.86328125 22.52734375 C-5.24839844 22.68332031 -4.63351563 22.83929688 -4 23 C-4.03093173 20.58414426 -4.03093173 20.58414426 -5 18 C-7.8331162 16.37492804 -7.8331162 16.37492804 -11 15 C-13.375 13.25 -13.375 13.25 -15 11 C-15.5 7.5 -15.5 7.5 -15 4 C-10.60165127 -1.7633535 -6.51311007 -0.96095067 0 0 Z " fill="#C27960" transform="translate(150,144)"/>
<path d="M0 0 C10.55041572 5.11535308 15.78569354 16.65119948 20 27 C25.10720087 42.11731456 24.08597964 57.67775216 17.375 72.125 C13.61576885 79.21006724 8.74328572 86.50447619 2 91 C-0.6875 91.125 -0.6875 91.125 -3 91 C-2 89 -2 89 0.3125 87.6328125 C9.79203808 81.87344198 16.01037001 70.4532517 19 60 C20.70127948 50.56563197 20.6573468 41.23238203 18 32 C17.74347656 31.05125 17.48695313 30.1025 17.22265625 29.125 C14.22433161 19.03621666 9.10905699 11.47117845 1.28515625 4.47265625 C0 3 0 3 0 0 Z " fill="#B46644" transform="translate(208,20)"/>
<path d="M0 0 C1.87365234 -0.00386719 1.87365234 -0.00386719 3.78515625 -0.0078125 C6.9375 0.125 6.9375 0.125 8.9375 1.125 C8.6075 2.775 8.2775 4.425 7.9375 6.125 C6.2875 6.455 4.6375 6.785 2.9375 7.125 C2.94797363 7.71514893 2.95844727 8.30529785 2.96923828 8.91333008 C3.01082044 11.58801004 3.0368329 14.26262197 3.0625 16.9375 C3.07925781 17.86626953 3.09601563 18.79503906 3.11328125 19.75195312 C3.11972656 20.64462891 3.12617188 21.53730469 3.1328125 22.45703125 C3.14328613 23.27921143 3.15375977 24.1013916 3.16455078 24.94848633 C2.9375 27.125 2.9375 27.125 0.9375 30.125 C-0.3825 29.795 -1.7025 29.465 -3.0625 29.125 C-3.0625 21.535 -3.0625 13.945 -3.0625 6.125 C-5.3725 5.795 -7.6825 5.465 -10.0625 5.125 C-10.0625 3.805 -10.0625 2.485 -10.0625 1.125 C-6.54512679 -0.04745774 -3.7049868 -0.00766285 0 0 Z " fill="#C96F4B" transform="translate(169.0625,142.875)"/>
<path d="M0 0 C0 3 0 3 -1.875 5.1875 C-4 7 -4 7 -6 7 C-6.20625 7.763125 -6.4125 8.52625 -6.625 9.3125 C-8.4528387 12.88509382 -10.30403757 13.59553428 -14 15 C-15.32 15 -16.64 15 -18 15 C-18 15.66 -18 16.32 -18 17 C-20.65228812 18.07525194 -23.28368454 19.09456151 -26 20 C-26 22.31 -26 24.62 -26 27 C-28.97 28.32 -31.94 29.64 -35 31 C-35.33 30.67 -35.66 30.34 -36 30 C-37.84599688 29.60545777 -39.70225822 29.25823134 -41.5625 28.9375 C-43.08037109 28.67259766 -43.08037109 28.67259766 -44.62890625 28.40234375 C-45.41136719 28.26957031 -46.19382813 28.13679688 -47 28 C-44.92446352 27.4465236 -43.15634036 27 -41 27 C-41 26.01 -41 25.02 -41 24 C-40.195625 23.731875 -39.39125 23.46375 -38.5625 23.1875 C-37.716875 22.795625 -36.87125 22.40375 -36 22 C-35.67 21.01 -35.34 20.02 -35 19 C-33.68 19.66 -32.36 20.32 -31 21 C-30.55011719 20.64808594 -30.10023438 20.29617187 -29.63671875 19.93359375 C-16.08611502 9.53303017 -16.08611502 9.53303017 -9.29296875 6.984375 C-6.67850251 6.1089842 -6.67850251 6.1089842 -5 3 C-3.36504293 1.94895617 -1.70116376 0.94011682 0 0 Z " fill="#D1734E" transform="translate(180,72)"/>
<path d="M0 0 C1.1055189 0.93590504 2.20935453 1.87379858 3.3125 2.8125 C4.23482422 3.59560547 4.23482422 3.59560547 5.17578125 4.39453125 C8.51952278 7.3373102 8.51952278 7.3373102 10 9 C10 9.66 10 10.32 10 11 C8.02 10.34 6.04 9.68 4 9 C4.3403125 10.8871875 4.3403125 10.8871875 4.6875 12.8125 C5.1995826 16.72231986 5.1995826 16.72231986 3.5625 19 C3.046875 19.33 2.53125 19.66 2 20 C0.1502853 17.22542794 -0.30402134 16.05457736 -0.875 12.9375 C-1.57518511 9.76988027 -1.57518511 9.76988027 -3.8125 7.5 C-6.27855943 6.93632927 -8.47838649 6.85991036 -11 7 C-11 7.66 -11 8.32 -11 9 C-11.804375 9.391875 -12.60875 9.78375 -13.4375 10.1875 C-16.40122736 11.8525473 -16.40122736 11.8525473 -16.8125 15.6875 C-16.874375 16.780625 -16.93625 17.87375 -17 19 C-18.65 19 -20.3 19 -22 19 C-21.34 18.67 -20.68 18.34 -20 18 C-19.855625 17.071875 -19.71125 16.14375 -19.5625 15.1875 C-18.95735541 11.75834735 -18.43515866 10.43515866 -16 8 C-10.71717652 4.43409415 -5.18477617 4.31914325 1 4 C0.67 2.68 0.34 1.36 0 0 Z M1 20 C1.66 20.33 2.32 20.66 3 21 C2.67 21.99 2.34 22.98 2 24 C0.02 24.33 -1.96 24.66 -4 25 C-2.35 23.35 -0.7 21.7 1 20 Z " fill="#F36C3F" transform="translate(208,23)"/>
<path d="M0 0 C1.22793367 3.9843442 0.38646591 6.08527272 -1 10 C-1 11.32 -1 12.64 -1 14 C-1.66 14 -2.32 14 -3 14 C-3 14.66 -3 15.32 -3 16 C-0.72921141 15.13749343 -0.72921141 15.13749343 0.0625 12.4375 C1.11149615 8.59118078 1.59011382 4.96223307 2 1 C5.23616246 5.85424369 7.09864057 11.23129963 8 17 C7.01 17.33 6.02 17.66 5 18 C6.65 17.67 8.3 17.34 10 17 C9.67 19.64 9.34 22.28 9 25 C8.34 24.01 7.68 23.02 7 22 C3.54250051 21.33323122 3.54250051 21.33323122 0 22 C-2.00864359 24.3726974 -2.00864359 24.3726974 -3 27 C-4.32 26.67 -5.64 26.34 -7 26 C-6.43737174 19.78972353 -4.99833221 14.37169827 -2.9375 8.5 C-2.65583984 7.67757812 -2.37417969 6.85515625 -2.08398438 6.0078125 C-1.39622757 4.00282657 -0.69908924 2.00106277 0 0 Z M3 9 C1.5393715 11.64738916 1 12.89448334 1 16 C2.32 16 3.64 16 5 16 C4.67 13.69 4.34 11.38 4 9 C3.67 9 3.34 9 3 9 Z " fill="#CB7A61" transform="translate(224,146)"/>
<path d="M0 0 C1.32 0.66 2.64 1.32 4 2 C4.05796132 6.10410755 4.09358313 10.20811016 4.125 14.3125 C4.14175781 15.47974609 4.15851563 16.64699219 4.17578125 17.84960938 C4.18222656 18.96787109 4.18867188 20.08613281 4.1953125 21.23828125 C4.20578613 22.26993408 4.21625977 23.30158691 4.22705078 24.36450195 C4 27 4 27 2 30 C-2.12666074 28.51081373 -3.2973363 26.19156996 -5.25 22.375 C-5.77078125 21.37210938 -6.2915625 20.36921875 -6.828125 19.3359375 C-7.40820312 18.17964844 -7.40820312 18.17964844 -8 17 C-8.33 20.3 -8.66 23.6 -9 27 C-11 25 -11 25 -11.125 22.75 C-11.08375 21.8425 -11.0425 20.935 -11 20 C-10.88218261 14.42576494 -11.6876874 9.4015724 -13 4 C-12.01 4.33 -11.02 4.66 -10 5 C-9.32215008 7.33010909 -8.65583207 9.66359824 -8 12 C-7.01 12.66 -6.02 13.32 -5 14 C-4.65725594 15.66475686 -4.32635698 17.33195323 -4 19 C-1.99444514 24.35904591 -1.99444514 24.35904591 2 28 C2 19.42 2 10.84 2 2 C1.34 2 0.68 2 0 2 C-0.33 4.31 -0.66 6.62 -1 9 C-1.33 9 -1.66 9 -2 9 C-2.125 5.625 -2.125 5.625 -2 2 C-1.34 1.34 -0.68 0.68 0 0 Z " fill="#B87E64" transform="translate(261,143)"/>
<path d="M0 0 C2.0625 1.1875 2.0625 1.1875 4.0625 4.1875 C4.50012929 9.6141032 4.43139008 12.69564656 1.0625 17.1875 C0.0725 16.8575 -0.9175 16.5275 -1.9375 16.1875 C-1.4425 15.713125 -0.9475 15.23875 -0.4375 14.75 C1.17792197 13.42826302 1.17792197 13.42826302 1.0625 12.1875 C0.4025 12.8475 -0.2575 13.5075 -0.9375 14.1875 C-4.25970821 14.76480175 -7.57037151 14.92849012 -10.9375 15.1875 C-10.6075 11.2275 -10.2775 7.2675 -9.9375 3.1875 C-7.2975 3.1875 -4.6575 3.1875 -1.9375 3.1875 C-3.60092837 1.52407163 -5.7200709 1.82701903 -8 1.625 C-9.37865234 1.49931641 -9.37865234 1.49931641 -10.78515625 1.37109375 C-11.85056641 1.28021484 -11.85056641 1.28021484 -12.9375 1.1875 C-12.751875 1.93 -12.56625 2.6725 -12.375 3.4375 C-11.94546892 6.13740963 -12.08627026 7.63381077 -12.9375 10.1875 C-13.5975 10.1875 -14.2575 10.1875 -14.9375 10.1875 C-14.8239371 8.54083797 -14.69632619 6.89513918 -14.5625 5.25 C-14.49289063 4.33347656 -14.42328125 3.41695312 -14.3515625 2.47265625 C-14.21492188 1.71855469 -14.07828125 0.96445313 -13.9375 0.1875 C-9.75476356 -1.90386822 -4.38902365 -1.21398526 0 0 Z M-8.9375 5.1875 C-8.9375 7.8275 -8.9375 10.4675 -8.9375 13.1875 C-6.93795254 13.23004356 -4.93708364 13.22830783 -2.9375 13.1875 C-1.66746677 12.13439723 -1.66746677 12.13439723 -1.75 9.75 C-1.66910017 7.02015325 -1.66910017 7.02015325 -3.9375 5.1875 C-6.52104218 5.02062552 -6.52104218 5.02062552 -8.9375 5.1875 Z " fill="#CF816D" transform="translate(94.9375,143.8125)"/>
<path d="M0 0 C0.99 0.33 1.98 0.66 3 1 C4.7426714 5.52981445 4.18425909 10.72290415 4.1875 15.5 C4.19974609 16.45003906 4.21199219 17.40007812 4.22460938 18.37890625 C4.22750977 19.75369141 4.22750977 19.75369141 4.23046875 21.15625 C4.23457764 21.98962891 4.23868652 22.82300781 4.24291992 23.68164062 C3.97926986 26.19784261 3.26216419 27.82646384 2 30 C0.68 29.34 -0.64 28.68 -2 28 C-2 24.04 -2 20.08 -2 16 C-3.98 16.99 -3.98 16.99 -6 18 C-4.68 15.03 -3.36 12.06 -2 9 C-1.34 9 -0.68 9 0 9 C0.33 9.99 0.66 10.98 1 12 C1.33 8.7 1.66 5.4 2 2 C1.01 1.67 0.02 1.34 -1 1 C-0.67 0.67 -0.34 0.34 0 0 Z " fill="#C37959" transform="translate(205,143)"/>
<path d="M0 0 C1.19211438 3.57634313 1.25926574 6.24064683 1 10 C0.50757812 10.74378906 0.01515625 11.48757812 -0.4921875 12.25390625 C-4.79306569 20.0868528 -2.09805564 32.41873568 0.1484375 40.64453125 C0.97275099 43.21779188 0.97275099 43.21779188 3 46 C2.67 46.99 2.34 47.98 2 49 C1.16121545 47.71186658 0.32913217 46.41936744 -0.5 45.125 C-0.9640625 44.40570313 -1.428125 43.68640625 -1.90625 42.9453125 C-3 41 -3 41 -3 39 C-3.66 39 -4.32 39 -5 39 C-6.90883268 19.46855133 -6.90883268 19.46855133 -5 11 C-4.34 11 -3.68 11 -3 11 C-3 10.34 -3 9.68 -3 9 C-2.34 9 -1.68 9 -1 9 C-1.020625 7.88625 -1.04125 6.7725 -1.0625 5.625 C-1 2 -1 2 0 0 Z " fill="#D96B44" transform="translate(121,43)"/>
<path d="M0 0 C-1.04445555 2.99064602 -1.92575403 3.95330923 -4.65234375 5.66796875 C-11.92581933 9.03227553 -17.98714403 10.96633254 -26 11 C-27.65902344 11.02126953 -27.65902344 11.02126953 -29.3515625 11.04296875 C-32.23580409 11.05985541 -35.11616264 11.04529587 -38 11 C-38 10.67 -38 10.34 -38 10 C-37.01257813 9.97421875 -36.02515625 9.9484375 -35.0078125 9.921875 C-33.72648438 9.86515625 -32.44515625 9.8084375 -31.125 9.75 C-29.84882813 9.70359375 -28.57265625 9.6571875 -27.2578125 9.609375 C-26.18273437 9.40828125 -25.10765625 9.2071875 -24 9 C-22.84839411 7.0509937 -22.84839411 7.0509937 -22 5 C-19.64453125 4.2421875 -19.64453125 4.2421875 -16.8125 3.875 C-11.43430966 3.07744684 -5.16019128 0 0 0 Z " fill="#DF6532" transform="translate(206,112)"/>
<path d="M0 0 C0 0.66 0 1.32 0 2 C-1.67721041 3.56958193 -3.46794114 4.9480525 -5.2734375 6.3671875 C-7.71424817 8.67546546 -8.757834 10.94052374 -9.5 14.1875 C-9.665 14.785625 -9.83 15.38375 -10 16 C-10.66 16.33 -11.32 16.66 -12 17 C-14.34981281 21.69962561 -15.46147465 25.72245155 -16 31 C-16.66 31 -17.32 31 -18 31 C-18 31.66 -18 32.32 -18 33 C-18.66 33 -19.32 33 -20 33 C-20 40.92 -20 48.84 -20 57 C-20.33 57 -20.66 57 -21 57 C-23.8016945 41.94089204 -21.65431653 26.95703973 -13.8515625 13.65234375 C-4.32106038 0 -4.32106038 0 0 0 Z " fill="#C77F65" transform="translate(136,21)"/>
<path d="M0 0 C1.87365234 0.00966797 1.87365234 0.00966797 3.78515625 0.01953125 C6.9375 0.1875 6.9375 0.1875 8.9375 1.1875 C8.6075 2.8375 8.2775 4.4875 7.9375 6.1875 C6.2875 6.5175 4.6375 6.8475 2.9375 7.1875 C2.94797363 7.77764893 2.95844727 8.36779785 2.96923828 8.97583008 C3.01082044 11.65051004 3.0368329 14.32512197 3.0625 17 C3.07925781 17.92876953 3.09601563 18.85753906 3.11328125 19.81445312 C3.11972656 20.70712891 3.12617188 21.59980469 3.1328125 22.51953125 C3.14328613 23.34171143 3.15375977 24.1638916 3.16455078 25.01098633 C2.9375 27.1875 2.9375 27.1875 0.9375 30.1875 C-0.3825 29.8575 -1.7025 29.5275 -3.0625 29.1875 C-3.0625 22.2575 -3.0625 15.3275 -3.0625 8.1875 C-2.7325 8.1875 -2.4025 8.1875 -2.0625 8.1875 C-2.0625 14.7875 -2.0625 21.3875 -2.0625 28.1875 C-1.0725 28.1875 -0.0825 28.1875 0.9375 28.1875 C0.9375 20.2675 0.9375 12.3475 0.9375 4.1875 C3.2475 4.1875 5.5575 4.1875 7.9375 4.1875 C4.22320102 3.0713344 0.54588492 2.8750805 -3.3125 2.625 C-4.57578125 2.54121094 -5.8390625 2.45742187 -7.140625 2.37109375 C-8.10484375 2.31050781 -9.0690625 2.24992188 -10.0625 2.1875 C-6.36008718 -0.28077522 -4.4033889 -0.05009026 0 0 Z " fill="#C98767" transform="translate(169.0625,142.8125)"/>
<path d="M0 0 C0.66 0 1.32 0 2 0 C2.49710142 11.8551156 -2.73833022 21.93956797 -10 31 C-10.47953125 31.61875 -10.9590625 32.2375 -11.453125 32.875 C-13.48853693 35.42539568 -15.26195504 37.17463669 -18 39 C-20.6875 39.125 -20.6875 39.125 -23 39 C-22 37 -22 37 -19.6875 35.6328125 C-10.24914144 29.89846094 -3.92274629 18.44421926 -1 8 C-0.52729954 5.32442361 -0.24203162 2.71075416 0 0 Z " fill="#B76843" transform="translate(228,72)"/>
<path d="M0 0 C2.875 1.0625 2.875 1.0625 5 3 C6.46234446 8.51191375 6.10277112 14.32475014 6 20 C5.34 20 4.68 20 4 20 C3.67 21.32 3.34 22.64 3 24 C2.34 23.67 1.68 23.34 1 23 C0.97309896 20.20826945 0.95320947 17.41679652 0.9375 14.625 C0.92912109 13.8309375 0.92074219 13.036875 0.91210938 12.21875 C0.88671875 6.2265625 0.88671875 6.2265625 2 4 C-3.4844267 3.25669086 -3.4844267 3.25669086 -9 3 C-9 2.34 -9 1.68 -9 1 C-5.93570224 -0.53214888 -3.3834358 -0.22938548 0 0 Z " fill="#CB754C" transform="translate(120,145)"/>
<path d="M0 0 C0.99 0.33 1.98 0.66 3 1 C3 1.66 3 2.32 3 3 C2.34 3 1.68 3 1 3 C1.33 3.99 1.66 4.98 2 6 C-5.94337812 14.14419386 -5.94337812 14.14419386 -9 16 C-9.99 16 -10.98 16 -12 16 C-12.33 16.99 -12.66 17.98 -13 19 C-13.66 17.68 -14.32 16.36 -15 15 C-10.05 10.05 -5.1 5.1 0 0 Z " fill="#B3917F" transform="translate(184,52)"/>
<path d="M0 0 C-0.66 0.33 -1.32 0.66 -2 1 C-3.9453125 0.22265625 -3.9453125 0.22265625 -6.125 -0.9375 C-6.84945312 -1.31777344 -7.57390625 -1.69804687 -8.3203125 -2.08984375 C-8.87460938 -2.39019531 -9.42890625 -2.69054688 -10 -3 C-10 -3.66 -10 -4.32 -10 -5 C-11.74985354 -5.47970123 -13.49988891 -5.95873924 -15.25 -6.4375 C-16.71179688 -6.83775391 -16.71179688 -6.83775391 -18.203125 -7.24609375 C-19.12609375 -7.49488281 -20.0490625 -7.74367188 -21 -8 C-21.94891113 -8.26453979 -21.94891113 -8.26453979 -22.91699219 -8.53442383 C-35.86439272 -11.42831656 -50.4025657 -8.94740221 -62 -3 C-62.99 -3.33 -63.98 -3.66 -65 -4 C-42.64305806 -15.54348227 -20.78029969 -13.81578508 0 0 Z " fill="#CB8C76" transform="translate(208,19)"/>
<path d="M0 0 C0 0.99 0 1.98 0 3 C-1.66220581 4.00739746 -3.33020674 5.00522955 -5 6 C-7.42866877 8.24300607 -9.72254728 10.60440853 -12 13 C-12 9.09161134 -10.49432124 7.88405893 -8 5 C-12.34245104 7.33824287 -15.55988192 9.43247014 -19 13 C-19.66 13 -20.32 13 -21 13 C-22.125 8.25 -22.125 8.25 -21 6 C-18.69 6 -16.38 6 -14 6 C-13.62875 5.071875 -13.62875 5.071875 -13.25 4.125 C-10.21465665 -1.0350837 -5.35759245 -0.17858641 0 0 Z " fill="#D47350" transform="translate(191,43)"/>
<path d="M0 0 C4.5351917 1.15602926 8.02907522 2.5787044 12 5 C15.921842 6.66166398 19.85383795 8.02117333 24 9 C24 9.66 24 10.32 24 11 C32.91 11 41.82 11 51 11 C51 11.33 51 11.66 51 12 C35.43919627 15.06276137 20.25004296 13.34042576 6.375 5.59765625 C3.92909421 3.95230186 2.00696252 2.15098066 0 0 Z " fill="#C17157" transform="translate(136,111)"/>
<path d="M0 0 C0.99 0.33 1.98 0.66 3 1 C3.66666667 4.33333333 4.33333333 7.66666667 5 11 C4.01 10.67 3.02 10.34 2 10 C2 10.99 2 11.98 2 13 C-2.75 12.25 -2.75 12.25 -5 10 C-5.4375 7.6875 -5.4375 7.6875 -5 5 C-2.5 2.1875 -2.5 2.1875 0 0 Z " fill="#906F68" transform="translate(202,32)"/>
<path d="M0 0 C0.33 0 0.66 0 1 0 C1.33 1.65 1.66 3.3 2 5 C2.99 5 3.98 5 5 5 C5 9.62 5 14.24 5 19 C3.02 19.99 3.02 19.99 1 21 C-0.90102197 19.09897803 -0.43865789 15.86006285 -0.625 13.3125 C-0.72039062 12.09175781 -0.81578125 10.87101563 -0.9140625 9.61328125 C-0.99439011 6.23587023 -0.67913434 3.29937655 0 0 Z " fill="#C77B5E" transform="translate(187,152)"/>
<path d="M0 0 C2.3145363 3.47180445 3.44955764 6.99795123 4.6875 10.9375 C4.92533203 11.65357422 5.16316406 12.36964844 5.40820312 13.10742188 C6.58772664 16.83969715 7.18041207 19.26865804 6 23 C4.68 23.33 3.36 23.66 2 24 C2 21.03 2 18.06 2 15 C1.67 15.33 1.34 15.66 1 16 C-0.51928038 16.07179964 -2.04167482 16.08392007 -3.5625 16.0625 C-4.38878906 16.05347656 -5.21507812 16.04445312 -6.06640625 16.03515625 C-7.02353516 16.01775391 -7.02353516 16.01775391 -8 16 C-5 14 -5 14 -2.4375 14.0625 C-1.633125 14.041875 -0.82875 14.02125 0 14 C0.66 13.01 1.32 12.02 2 11 C1.40138258 8.64828869 0.73075648 6.3140622 0 4 C0 2.68 0 1.36 0 0 Z " fill="#BE705C" transform="translate(231,149)"/>
<path d="M0 0 C0 6.27 0 12.54 0 19 C-0.99 19 -1.98 19 -3 19 C-3 18.34 -3 17.68 -3 17 C-3.66 17 -4.32 17 -5 17 C-5 11.72 -5 6.44 -5 1 C-3 0 -3 0 0 0 Z " fill="#C2775D" transform="translate(112,149)"/>
<path d="M0 0 C0 0.66 0 1.32 0 2 C-2.10464793 1.69075786 -4.2087053 1.3774944 -6.3125 1.0625 C-8.07013672 0.80146484 -8.07013672 0.80146484 -9.86328125 0.53515625 C-13 0 -13 0 -16 -1 C-17.9920303 -1.08291953 -19.98673713 -1.10738177 -21.98046875 -1.09765625 C-23.72553711 -1.09282227 -23.72553711 -1.09282227 -25.50585938 -1.08789062 C-27.32827148 -1.07532227 -27.32827148 -1.07532227 -29.1875 -1.0625 C-31.02731445 -1.05573242 -31.02731445 -1.05573242 -32.90429688 -1.04882812 C-35.93624668 -1.03703065 -38.96809906 -1.02056921 -42 -1 C-32.32543586 -7.44970943 -10.42866711 -5.21433355 0 0 Z " fill="#ED6C42" transform="translate(198,14)"/>
<path d="M0 0 C-0.84304687 0.36738281 -0.84304687 0.36738281 -1.703125 0.7421875 C-8.79312797 4.62480818 -14.5366211 11.49151933 -20.1796875 17.203125 C-27.06521739 24 -27.06521739 24 -30 24 C-30 22 -30 22 -28.3203125 20.2734375 C-27.59585938 19.64695312 -26.87140625 19.02046875 -26.125 18.375 C-25.40570313 17.74335937 -24.68640625 17.11171875 -23.9453125 16.4609375 C-22 15 -22 15 -20 15 C-20 14.34 -20 13.68 -20 13 C-19.34 13 -18.68 13 -18 13 C-17.34 11.35 -16.68 9.7 -16 8 C-15.34 8 -14.68 8 -14 8 C-13.67 7.01 -13.34 6.02 -13 5 C-12.01 5 -11.02 5 -10 5 C-9.731875 4.360625 -9.46375 3.72125 -9.1875 3.0625 C-7.07129989 -0.61300545 -3.8426845 -0.10385634 0 0 Z " fill="#BD6648" transform="translate(169,72)"/>
<path d="M0 0 C0.33 1.32 0.66 2.64 1 4 C-0.65 4.33 -2.3 4.66 -4 5 C-4 4.34 -4 3.68 -4 3 C-6.97 3.66 -9.94 4.32 -13 5 C-13.33 6.98 -13.66 8.96 -14 11 C-14.33 11 -14.66 11 -15 11 C-15.48915663 4.64096386 -15.48915663 4.64096386 -13.1875 1.625 C-8.63312815 -1.75824766 -5.29088478 -0.78062235 0 0 Z " fill="#BB6C51" transform="translate(150,144)"/>
<path d="M0 0 C0.99 0.33 1.98 0.66 3 1 C3.67784992 3.33010909 4.34416793 5.66359824 5 8 C5.99 8.66 6.98 9.32 8 10 C8.625 12.25 8.625 12.25 9 15 C9.185625 16.093125 9.37125 17.18625 9.5625 18.3125 C9.706875 19.199375 9.85125 20.08625 10 21 C7.92885326 18.36399506 6.52475697 16.04951395 5 13 C4.67 16.3 4.34 19.6 4 23 C2 21 2 21 1.875 18.75 C1.91625 17.8425 1.9575 16.935 2 16 C2.11781739 10.42576494 1.3123126 5.4015724 0 0 Z " fill="#D48260" transform="translate(248,147)"/>
<path d="M0 0 C2.8125 -0.25 2.8125 -0.25 6 0 C7.6875 1.875 7.6875 1.875 9 4 C9.99 4.66 10.98 5.32 12 6 C11.34 6 10.68 6 10 6 C9.87625 6.61875 9.7525 7.2375 9.625 7.875 C9 10 9 10 7 12 C6.3574765 14.06874034 6.3574765 14.06874034 6 16 C5.34 16 4.68 16 4 16 C3.67 16.66 3.34 17.32 3 18 C1.67511887 18.36548445 0.33981486 18.6937566 -1 19 C-2.3479743 19.63654342 -3.68596724 20.29605388 -5 21 C-1.13242719 16.04467233 3.18876004 12.03523352 8 8 C7.67 7.01 7.34 6.02 7 5 C6.34 4.67 5.68 4.34 5 4 C5 3.01 5 2.02 5 1 C3.35 1 1.7 1 0 1 C0 0.67 0 0.34 0 0 Z " fill="#A3654F" transform="translate(186,42)"/>
<path d="M0 0 C2.46800047 1.15173355 4.04783565 2.04783565 6 4 C5 7 5 7 3 8 C1.45976004 8.06950541 -0.08334988 8.08452357 -1.625 8.0625 C-2.85089844 8.04896484 -2.85089844 8.04896484 -4.1015625 8.03515625 C-5.04128906 8.01775391 -5.04128906 8.01775391 -6 8 C-6 7.01 -6 6.02 -6 5 C-5.195625 4.731875 -4.39125 4.46375 -3.5625 4.1875 C-2.716875 3.795625 -1.87125 3.40375 -1 3 C-0.67 2.01 -0.34 1.02 0 0 Z " fill="#CE9282" transform="translate(145,91)"/>
<path d="M0 0 C1.32 0.66 2.64 1.32 4 2 C2.59257936 5.51855159 1.33533477 6.38612834 -2 8 C-2.33 8.99 -2.66 9.98 -3 11 C-3.99 11 -4.98 11 -6 11 C-6 10.34 -6 9.68 -6 9 C-5.34 9 -4.68 9 -4 9 C-4.66 7.68 -5.32 6.36 -6 5 C-4.02 3.35 -2.04 1.7 0 0 Z " fill="#A07E71" transform="translate(191,46)"/>
<path d="M0 0 C0.66 0 1.32 0 2 0 C2 8.58 2 17.16 2 26 C1.01 25.67 0.02 25.34 -1 25 C-1 23.35 -1 21.7 -1 20 C-0.34 20 0.32 20 1 20 C0.855625 18.88625 0.71125 17.7725 0.5625 16.625 C0.37258113 15.08362945 0.18532804 13.54192927 0 12 C-0.10699219 11.113125 -0.21398437 10.22625 -0.32421875 9.3125 C-0.47310547 7.9821875 -0.47310547 7.9821875 -0.625 6.625 C-0.72039062 5.79226562 -0.81578125 4.95953125 -0.9140625 4.1015625 C-1 2 -1 2 0 0 Z " fill="#C56543" transform="translate(261,145)"/>
<path d="M0 0 C0.66 0.99 1.32 1.98 2 3 C-0.97 2.67 -3.94 2.34 -7 2 C-7 2.66 -7 3.32 -7 4 C-7.804375 4.391875 -8.60875 4.78375 -9.4375 5.1875 C-12.40122736 6.8525473 -12.40122736 6.8525473 -12.8125 10.6875 C-12.874375 11.780625 -12.93625 12.87375 -13 14 C-14.65 14 -16.3 14 -18 14 C-17.34 13.67 -16.68 13.34 -16 13 C-15.855625 12.071875 -15.71125 11.14375 -15.5625 10.1875 C-14.95735541 6.75834735 -14.43515866 5.43515866 -12 3 C-7.92526989 0.46461237 -4.80764245 -0.65558761 0 0 Z " fill="#CE6745" transform="translate(204,28)"/>
<path d="M0 0 C0.33 1.32 0.66 2.64 1 4 C-1.21368294 6.21368294 -2.93016625 7.86552921 -6.11328125 8.265625 C-8.07746787 8.25166986 -10.0402625 8.13286356 -12 8 C-12 6.68 -12 5.36 -12 4 C-9.69 4 -7.38 4 -5 4 C-5 3.34 -5 2.68 -5 2 C-4.01 2.33 -3.02 2.66 -2 3 C-0.84188612 1.94729537 -0.84188612 1.94729537 0 0 Z " fill="#C77F61" transform="translate(124,165)"/>
<path d="M0 0 C1.43088528 2.86177057 0.59991697 4.93375773 0 8 C-0.66 7.01 -1.32 6.02 -2 5 C-5.45749949 4.33323122 -5.45749949 4.33323122 -9 5 C-11.00864359 7.3726974 -11.00864359 7.3726974 -12 10 C-13.32 9.67 -14.64 9.34 -16 9 C-16 7.35 -16 5.7 -16 4 C-14.68 5.32 -13.36 6.64 -12 8 C-11.67 6.02 -11.34 4.04 -11 2 C-9.93458984 1.90912109 -9.93458984 1.90912109 -8.84765625 1.81640625 C-7.46900391 1.69072266 -7.46900391 1.69072266 -6.0625 1.5625 C-5.14597656 1.48128906 -4.22945312 1.40007812 -3.28515625 1.31640625 C-1.03840268 1.23955024 -1.03840268 1.23955024 0 0 Z " fill="#C3826E" transform="translate(233,163)"/>
<path d="M0 0 C0 0.66 0 1.32 0 2 C-1.65 2 -3.3 2 -5 2 C-3.60240095 5.54518884 -3.60240095 5.54518884 -2 9 C-2.66 9.66 -3.32 10.32 -4 11 C-5.98 10.01 -7.96 9.02 -10 8 C-9.6875 5.125 -9.6875 5.125 -9 2 C-5.5647952 -0.29013653 -4.014669 -0.17842973 0 0 Z " fill="#D47459" transform="translate(146,147)"/>
<path d="M0 0 C0.99 0.33 1.98 0.66 3 1 C2.32517578 1.56654297 2.32517578 1.56654297 1.63671875 2.14453125 C-4.56479626 7.45123848 -10.2807538 13.18613392 -16 19 C-16.33 18.01 -16.66 17.02 -17 16 C-15.92578125 14.24609375 -15.92578125 14.24609375 -14.3125 12.4375 C-13.79300781 11.83808594 -13.27351562 11.23867188 -12.73828125 10.62109375 C-10.91382652 8.91963597 -9.21894425 8.10733441 -7 7 C-5.0500371 5.29004456 -5.0500371 5.29004456 -3.25 3.375 C-2.63640625 2.74335937 -2.0228125 2.11171875 -1.390625 1.4609375 C-0.93171875 0.97882812 -0.4728125 0.49671875 0 0 Z " fill="#8E6D60" transform="translate(188,46)"/>
<path d="M0 0 C0.33 0 0.66 0 1 0 C1 1.65 1 3.3 1 5 C-1.97 6.32 -4.94 7.64 -8 9 C-8.33 8.67 -8.66 8.34 -9 8 C-10.84599688 7.60545777 -12.70225822 7.25823134 -14.5625 6.9375 C-16.08037109 6.67259766 -16.08037109 6.67259766 -17.62890625 6.40234375 C-18.41136719 6.26957031 -19.19382813 6.13679688 -20 6 C-15.86213371 4.82335556 -11.73478342 4.6020749 -7.4609375 4.28125 C-4.99897515 4.14230514 -4.99897515 4.14230514 -3 3 C-2.01 3.33 -1.02 3.66 0 4 C0 2.68 0 1.36 0 0 Z " fill="#E87145" transform="translate(153,94)"/>
<path d="M0 0 C0.99 0 1.98 0 3 0 C2.67 1.65 2.34 3.3 2 5 C1.34 4.34 0.68 3.68 0 3 C-0.886875 3.7425 -1.77375 4.485 -2.6875 5.25 C-3.50734375 5.92869141 -3.50734375 5.92869141 -4.34375 6.62109375 C-5.80403919 7.83685339 -7.24717641 9.07315179 -8.6875 10.3125 C-11 12 -11 12 -14 12 C-14 11.01 -14 10.02 -14 9 C-12.96875 8.4225 -11.9375 7.845 -10.875 7.25 C-5.10211034 4.08032234 -5.10211034 4.08032234 0 0 Z " fill="#9F806A" transform="translate(186,59)"/>
<path d="M0 0 C6.27444079 3.04215311 11.13698005 8.69571469 14 15 C10.23456806 14.45380548 8.81182464 13.02518177 6.4375 10.125 C3.99147926 7.15433103 3.99147926 7.15433103 1.28515625 4.4296875 C0 3 0 3 0 0 Z " fill="#C77956" transform="translate(208,20)"/>
<path d="M0 0 C5.86020568 5.24794539 9.31892284 13.43515278 11 21 C7.08708763 17.44038296 4.83356036 14.19947679 2.6875 9.375 C2.17574219 8.24835938 1.66398437 7.12171875 1.13671875 5.9609375 C0 3 0 3 0 0 Z " fill="#C77057" transform="translate(117,82)"/>
<path d="M0 0 C0.99 0.33 1.98 0.66 3 1 C1.37660195 2.70884005 -0.29319053 4.37446717 -2 6 C-2.66 6 -3.32 6 -4 6 C-4.68707555 8.49064888 -5 10.37886292 -5 13 C-6.32 13 -7.64 13 -9 13 C-9.33 12.01 -9.66 11.02 -10 10 C-6.66666667 6.66666667 -3.33333333 3.33333333 0 0 Z " fill="#D56240" transform="translate(165,58)"/>
<path d="M0 0 C1.58294782 -0.05437607 3.16644256 -0.09296271 4.75 -0.125 C5.63171875 -0.14820313 6.5134375 -0.17140625 7.421875 -0.1953125 C10.1135858 0.00860498 11.69904974 0.63448279 14 2 C13.34 2.66 12.68 3.32 12 4 C11.67 3.67 11.34 3.34 11 3 C9.48071962 2.92820036 7.95832518 2.91607993 6.4375 2.9375 C5.19806641 2.95103516 5.19806641 2.95103516 3.93359375 2.96484375 C2.97646484 2.98224609 2.97646484 2.98224609 2 3 C2 5.31 2 7.62 2 10 C0.68 10.33 -0.64 10.66 -2 11 C-1.67 9.9275 -1.34 8.855 -1 7.75 C0.1717751 4.00268399 0.1717751 4.00268399 0 0 Z " fill="#D36240" transform="translate(82,145)"/>
<path d="M0 0 C1.984375 0.08984375 1.984375 0.08984375 4 1 C5.265625 3.06640625 5.265625 3.06640625 6.25 5.5625 C6.58515625 6.38878906 6.9203125 7.21507812 7.265625 8.06640625 C7.50796875 8.70449219 7.7503125 9.34257812 8 10 C7.34 10 6.68 10 6 10 C3 4.25 3 4.25 3 2 C2.01 2 1.02 2 0 2 C0 2.74765625 0 3.4953125 0 4.265625 C0 8.51041667 0 12.75520833 0 17 C-0.66 17.33 -1.32 17.66 -2 18 C-2.05382106 15.37472811 -2.09358313 12.75055287 -2.125 10.125 C-2.14175781 9.37863281 -2.15851563 8.63226563 -2.17578125 7.86328125 C-2.1933959 5.90805539 -2.10320189 3.95257979 -2 2 C-1.34 1.34 -0.68 0.68 0 0 Z " fill="#C7836A" transform="translate(248,143)"/>
<path d="M0 0 C0 0.99 0 1.98 0 3 C-1.66220581 4.00739746 -3.33020674 5.00522955 -5 6 C-7.42866877 8.24300607 -9.72254728 10.60440853 -12 13 C-12 9.07620945 -10.39593058 7.99491322 -8 5 C-8 4.01 -8 3.02 -8 2 C-5.09399739 0.74335022 -3.20395416 0 0 0 Z " fill="#A48F80" transform="translate(191,43)"/>
<path d="M0 0 C0.33 0 0.66 0 1 0 C1.47990402 7.07858428 1.47990402 7.07858428 -0.5625 11 C-3.80595565 13.66129695 -5.91765377 13.39253329 -10 13 C-10 12.01 -10 11.02 -10 10 C-7.03 9.01 -4.06 8.02 -1 7 C-1.020625 6.030625 -1.04125 5.06125 -1.0625 4.0625 C-1 1 -1 1 0 0 Z " fill="#C16249" transform="translate(96,149)"/>
<path d="M0 0 C0.33 2.97 0.66 5.94 1 9 C-0.65 8.67 -2.3 8.34 -4 8 C-4 5.69 -4 3.38 -4 1 C-2 0 -2 0 0 0 Z " fill="#C66549" transform="translate(84,162)"/>
<path d="M0 0 C0.66 0.33 1.32 0.66 2 1 C1.01 1.33 0.02 1.66 -1 2 C-2.20882096 4.00016466 -2.20882096 4.00016466 -3 6 C-3.66 6 -4.32 6 -5 6 C-5.33 7.98 -5.66 9.96 -6 12 C-6.66 12 -7.32 12 -8 12 C-8.33 10.02 -8.66 8.04 -9 6 C-6.03 4.02 -3.06 2.04 0 0 Z " fill="#D07658" transform="translate(159,86)"/>
<path d="M0 0 C0.66 0.66 1.32 1.32 2 2 C1.34 2 0.68 2 0 2 C0.33 3.98 0.66 5.96 1 8 C-2.75 9.125 -2.75 9.125 -5 8 C-4.64950425 4.75791433 -4.43778819 3.38472296 -1.9375 1.1875 C-1.298125 0.795625 -0.65875 0.40375 0 0 Z " fill="#EB643A" transform="translate(169,49)"/>
<path d="M0 0 C2.625 0.625 2.625 0.625 5 2 C5.8125 4.125 5.8125 4.125 6 6 C4.02 6.33 2.04 6.66 0 7 C0 6.34 0 5.68 0 5 C-0.66 5 -1.32 5 -2 5 C-2.33 4.01 -2.66 3.02 -3 2 C-2.01 1.34 -1.02 0.68 0 0 Z " fill="#D27B5A" transform="translate(163,66)"/>
<path d="M0 0 C2.875 0.1875 2.875 0.1875 6 1 C7.5625 3.3125 7.5625 3.3125 8 6 C7.125 8.3125 7.125 8.3125 5 10 C2.24451018 10.34105277 -0.204766 10.18329403 -3 10 C-2.67 9.34 -2.34 8.68 -2 8 C0.31 8 2.62 8 5 8 C4.64950425 4.75791433 4.43778819 3.38472296 1.9375 1.1875 C1.298125 0.795625 0.65875 0.40375 0 0 Z " fill="#CB856E" transform="translate(141,159)"/>
<path d="M0 0 C2.875 1.3125 2.875 1.3125 5 3 C5.33 3.99 5.66 4.98 6 6 C5.01 6.495 5.01 6.495 4 7 C4 6.34 4 5.68 4 5 C-0.50353262 3.24252386 -4.17639811 2.80705592 -9 3 C-9 2.34 -9 1.68 -9 1 C-5.93570224 -0.53214888 -3.3834358 -0.22938548 0 0 Z " fill="#BE7564" transform="translate(120,145)"/>
<path d="M0 0 C-1.05749024 3.15187025 -1.98950922 3.99370836 -4.8984375 5.73828125 C-6.04570312 6.25777344 -7.19296875 6.77726562 -8.375 7.3125 C-9.51710937 7.84488281 -10.65921875 8.37726563 -11.8359375 8.92578125 C-14.91589777 9.97144678 -16.06745672 10.23513522 -19 9 C-18.35933594 8.76925781 -17.71867188 8.53851563 -17.05859375 8.30078125 C-12.27632358 6.4976302 -4.52494049 0 0 0 Z " fill="#C3744D" transform="translate(206,112)"/>
<path d="M0 0 C0.66 0.99 1.32 1.98 2 3 C3.65 2.67 5.3 2.34 7 2 C6.79375 2.9075 6.5875 3.815 6.375 4.75 C5.9872755 8.11027897 6.19588033 9.24075815 8 12 C7.01 11.67 6.02 11.34 5 11 C4.731875 10.38125 4.46375 9.7625 4.1875 9.125 C2.48423076 6.07704451 0.1262325 5.35923152 -3 4 C-2.34 3.67 -1.68 3.34 -1 3 C-0.67 2.01 -0.34 1.02 0 0 Z " fill="#A9745C" transform="translate(164,61)"/>
<path d="M0 0 C2 1 2 1 4 3 C3.625 5.125 3.625 5.125 3 7 C2.34 6.67 1.68 6.34 1 6 C1 6.66 1 7.32 1 8 C-0.9375 7.1875 -0.9375 7.1875 -3 6 C-3.33 5.01 -3.66 4.02 -4 3 C-3.01 3 -2.02 3 -1 3 C-0.67 2.01 -0.34 1.02 0 0 Z " fill="#A97E7A" transform="translate(203,36)"/>
<path d="M0 0 C1.60725635 3.21451269 1.05748185 6.43612536 1 10 C-1.0625 7.75 -1.0625 7.75 -3 5 C-2.67 3.68 -2.34 2.36 -2 1 C-4.64 0.34 -7.28 -0.32 -10 -1 C-10 -1.33 -10 -1.66 -10 -2 C-5.59509968 -3.38439724 -3.66751118 -2.75063338 0 0 Z " fill="#CB7969" transform="translate(207,32)"/>
<path d="M0 0 C0.99 0.33 1.98 0.66 3 1 C2.34 2.32 1.68 3.64 1 5 C0.01 5 -0.98 5 -2 5 C-2.66 6.32 -3.32 7.64 -4 9 C-4.99 9 -5.98 9 -7 9 C-7.33 9.99 -7.66 10.98 -8 12 C-8.66 11.67 -9.32 11.34 -10 11 C-8.71520959 9.49410612 -7.42195918 7.99542625 -6.125 6.5 C-5.04605469 5.24703125 -5.04605469 5.24703125 -3.9453125 3.96875 C-3.30335938 3.3190625 -2.66140625 2.669375 -2 2 C-1.34 2 -0.68 2 0 2 C0 1.34 0 0.68 0 0 Z " fill="#DC6942" transform="translate(136,21)"/>
<path d="M0 0 C0.33 0.99 0.66 1.98 1 3 C-1.10078511 6.07614963 -2.88621595 7.92414397 -6 10 C-8.6875 10.125 -8.6875 10.125 -11 10 C-10 8 -10 8 -7.75 6.6875 C-4.68854024 4.80887696 -2.46050137 2.60110145 0 0 Z " fill="#C3633B" transform="translate(216,101)"/>
<path d="M0 0 C0.33 0 0.66 0 1 0 C1.48736475 6.70126536 0.07708804 11.06561592 -3 17 C-4.72801723 11.8159483 -3.28371557 6.64294382 -0.9375 1.8125 C-0.628125 1.214375 -0.31875 0.61625 0 0 Z " fill="#EC6D3A" transform="translate(227,72)"/>
<path d="M0 0 C0.99 0 1.98 0 3 0 C3.64910154 1.58199631 4.29414694 3.16565724 4.9375 4.75 C5.29714844 5.63171875 5.65679687 6.5134375 6.02734375 7.421875 C6.85356576 9.61186104 7.49369943 11.71898271 8 14 C4.51668565 10.98112756 3.20842856 8.43090471 2 4 C1.34 4 0.68 4 0 4 C0 2.68 0 1.36 0 0 Z " fill="#E56A4B" transform="translate(116,78)"/>
<path d="M0 0 C2.8894378 1.04564237 3.89539794 1.82817297 5.51953125 4.49609375 C5.94621094 5.46675781 6.37289062 6.43742187 6.8125 7.4375 C7.25207031 8.40558594 7.69164062 9.37367187 8.14453125 10.37109375 C9 13 9 13 8 16 C6.85121668 13.89739659 5.70588808 11.79303461 4.5625 9.6875 C4.23701172 9.09259766 3.91152344 8.49769531 3.57617188 7.88476562 C2.16262616 5.27626374 0.94051367 2.82154101 0 0 Z " fill="#BD6C48" transform="translate(219,34)"/>
<path d="M0 0 C2.64 0.99 5.28 1.98 8 3 C8 3.99 8 4.98 8 6 C5.36 6 2.72 6 0 6 C0 4.02 0 2.04 0 0 Z " fill="#EA6C45" transform="translate(200,17)"/>
<path d="M0 0 C0.66 0.33 1.32 0.66 2 1 C2.25 3.75 2.25 3.75 2 7 C0 9.375 0 9.375 -2 11 C-2.66 10.67 -3.32 10.34 -4 10 C-3.525625 9.0925 -3.05125 8.185 -2.5625 7.25 C-1.35371179 4.73572051 -0.52006114 2.70431791 0 0 Z " fill="#C46652" transform="translate(149,160)"/>
<path d="M0 0 C6.21668598 2.18424102 6.21668598 2.18424102 8 5 C8.36798487 7.8001349 8.22703781 10.13932363 8 13 C7.34 13.66 6.68 14.32 6 15 C6 12 6 12 6.3125 9 C6.209375 8.01 6.10625 7.02 6 6 C3.60775041 4.26461808 3.60775041 4.26461808 1 3 C0.67 2.01 0.34 1.02 0 0 Z " fill="#B47362" transform="translate(144,155)"/>
<path d="M0 0 C0.99 0 1.98 0 3 0 C6 5.75 6 5.75 6 8 C6.66 8.33 7.32 8.66 8 9 C7.01 9.99 6.02 10.98 5 12 C4.80664062 11.36191406 4.61328125 10.72382813 4.4140625 10.06640625 C4.15367187 9.24011719 3.89328125 8.41382813 3.625 7.5625 C3.36976563 6.73878906 3.11453125 5.91507813 2.8515625 5.06640625 C2.19117773 2.82201984 2.19117773 2.82201984 0 2 C0 1.34 0 0.68 0 0 Z " fill="#C3683C" transform="translate(248,145)"/>
<path d="M0 0 C1.67542976 0.28604898 3.34385343 0.61781233 5 1 C5 2.98 5 4.96 5 7 C4.67 6.34 4.34 5.68 4 5 C2.35 5.33 0.7 5.66 -1 6 C-1.042721 4.33388095 -1.04063832 2.66617115 -1 1 C-0.67 0.67 -0.34 0.34 0 0 Z " fill="#E6794C" transform="translate(187,147)"/>
<path d="M0 0 C0.66 0.33 1.32 0.66 2 1 C2.27429625 6.39449293 2.36055646 9.51925805 -1 14 C-1.99 13.67 -2.98 13.34 -4 13 C-3.27876953 12.41798828 -3.27876953 12.41798828 -2.54296875 11.82421875 C-0.54250502 9.45911353 -0.51123932 7.87308547 -0.3125 4.8125 C-0.21388672 3.46091797 -0.21388672 3.46091797 -0.11328125 2.08203125 C-0.05720703 1.05142578 -0.05720703 1.05142578 0 0 Z " fill="#C6896F" transform="translate(97,147)"/>
<path d="M0 0 C0.33 0 0.66 0 1 0 C1.3125 2.75 1.3125 2.75 1 6 C-1.375 8.125 -1.375 8.125 -4 10 C-4.350625 10.721875 -4.70125 11.44375 -5.0625 12.1875 C-5.5265625 13.0846875 -5.5265625 13.0846875 -6 14 C-8.05859375 14.61328125 -8.05859375 14.61328125 -10 15 C-9.06981474 13.53699018 -8.13055973 12.07974421 -7.1875 10.625 C-6.66542969 9.81289062 -6.14335937 9.00078125 -5.60546875 8.1640625 C-4 6 -4 6 -1 4 C-0.27617533 1.94074861 -0.27617533 1.94074861 0 0 Z " fill="#F27041" transform="translate(195,55)"/>
<path d="M0 0 C0.66 0 1.32 0 2 0 C2.17655168 4.50206785 2.17699288 7.98974995 0 12 C-0.99 12.66 -1.98 13.32 -3 14 C-2.5359375 12.7625 -2.5359375 12.7625 -2.0625 11.5 C-0.88122417 7.60873845 -0.41775832 4.03833047 0 0 Z " fill="#BD5F3E" transform="translate(228,72)"/>
<path d="M0 0 C-3.20336822 2.83374881 -5.78087253 3.5205537 -10 4 C-10 4.66 -10 5.32 -10 6 C-11.32 5.67 -12.64 5.34 -14 5 C-5.92255125 -0.74031891 -5.92255125 -0.74031891 0 0 Z " fill="#DA6B44" transform="translate(172,83)"/>
<path d="M0 0 C1.32 0 2.64 0 4 0 C6.125 5.625 6.125 5.625 5 9 C3 6 3 6 3 4 C1.68 3.67 0.36 3.34 -1 3 C-0.67 2.01 -0.34 1.02 0 0 Z " fill="#B9664D" transform="translate(188,144)"/>
<path d="M0 0 C0.69222656 0.06703125 1.38445312 0.1340625 2.09765625 0.203125 C3.9375 0.75 3.9375 0.75 5.9375 3.75 C5.421875 3.585 4.90625 3.42 4.375 3.25 C-0.13958398 2.32393149 -4.65613721 2.33996391 -9.0625 3.75 C-6.42860393 -0.2008441 -4.46797233 -0.50108101 0 0 Z " fill="#C68F7B" transform="translate(118.0625,143.25)"/>
<path d="M0 0 C1.46184058 0.22860058 2.91955419 0.48370392 4.375 0.75 C5.59316406 0.95882812 5.59316406 0.95882812 6.8359375 1.171875 C9 2 9 2 10.2890625 4.078125 C10.64097656 5.02945313 10.64097656 5.02945313 11 6 C5.64951939 5.62671065 3.49087093 4.0042343 0 0 Z " fill="#ED6F44" transform="translate(140,111)"/>
<path d="M0 0 C1.4783226 2.95664519 1.06032783 5.74229737 1 9 C1.86625 9.433125 1.86625 9.433125 2.75 9.875 C4.83333333 10.91666667 6.91666667 11.95833333 9 13 C6.25 13.3125 6.25 13.3125 3 13 C-0.28365644 10.14840362 -0.94955992 8.60528097 -1.3125 4.25 C-1 1 -1 1 0 0 Z " fill="#BF816B" transform="translate(192,34)"/>
<path d="M0 0 C0 0.33 0 0.66 0 1 C-0.59167969 1.04898438 -1.18335938 1.09796875 -1.79296875 1.1484375 C-6.19104472 1.56456867 -9.96928897 2.04965595 -14 4 C-13 1 -13 1 -10.9375 -0.25 C-6.96390064 -1.26453601 -4.03364941 -0.68366939 0 0 Z " fill="#C48B68" transform="translate(150,144)"/>
<path d="M0 0 C1.32 0 2.64 0 4 0 C3.67 1.65 3.34 3.3 3 5 C1.35 5 -0.3 5 -2 5 C-1.125 1.125 -1.125 1.125 0 0 Z " fill="#B39B8B" transform="translate(178,58)"/>
<path d="M0 0 C2.125 0.9375 2.125 0.9375 4 2 C3.67 2.99 3.34 3.98 3 5 C2.01 4.67 1.02 4.34 0 4 C-0.99 4.66 -1.98 5.32 -3 6 C-2.625 3.5625 -2.625 3.5625 -2 1 C-1.34 0.67 -0.68 0.34 0 0 Z " fill="#B5846B" transform="translate(191,46)"/>
<path d="M0 0 C2.64 0 5.28 0 8 0 C8.33 1.32 8.66 2.64 9 4 C6.03 3.67 3.06 3.34 0 3 C0 2.01 0 1.02 0 0 Z " fill="#DB966F" transform="translate(85,147)"/>
<path d="M0 0 C0.33 0.99 0.66 1.98 1 3 C3.01508358 3.73323796 3.01508358 3.73323796 5 4 C4.01 4.66 3.02 5.32 2 6 C2 5.34 2 4.68 2 4 C0.02 4.99 -1.96 5.98 -4 7 C-3.67 5.68 -3.34 4.36 -3 3 C-2.34 3 -1.68 3 -1 3 C-0.67 2.01 -0.34 1.02 0 0 Z " fill="#E6773E" transform="translate(204,108)"/>
<path d="M0 0 C2.97 0.33 5.94 0.66 9 1 C9 1.66 9 2.32 9 3 C6.03 3 3.06 3 0 3 C0 2.01 0 1.02 0 0 Z " fill="#F0A68D" transform="translate(139,96)"/>
<path d="M0 0 C2.6465335 2.6465335 3.59941997 5.56221264 5 9 C3.68 9 2.36 9 1 9 C-0.4783226 6.04335481 -0.06032783 3.25770263 0 0 Z " fill="#C0825F" transform="translate(246,163)"/>
<path d="M0 0 C0.33 0 0.66 0 1 0 C1.33 5.28 1.66 10.56 2 16 C1.01 16 0.02 16 -1 16 C-0.67 10.72 -0.34 5.44 0 0 Z " fill="#C56B43" transform="translate(110,152)"/>
<path d="M0 0 C1.4540625 0.0309375 1.4540625 0.0309375 2.9375 0.0625 C2.9375 0.7225 2.9375 1.3825 2.9375 2.0625 C1.2875 2.0625 -0.3625 2.0625 -2.0625 2.0625 C-2.3925 3.7125 -2.7225 5.3625 -3.0625 7.0625 C-3.3925 7.0625 -3.7225 7.0625 -4.0625 7.0625 C-4.10504356 5.06295254 -4.10330783 3.06208364 -4.0625 1.0625 C-3.0625 0.0625 -3.0625 0.0625 0 0 Z " fill="#D59677" transform="translate(143.0625,146.9375)"/>
<path d="M0 0 C1.18823797 3.56471391 1.26274852 6.2558336 1 10 C-0.515625 12.22265625 -0.515625 12.22265625 -2 14 C-1.85923685 12.0412957 -1.7122324 10.08303907 -1.5625 8.125 C-1.48128906 7.03445312 -1.40007812 5.94390625 -1.31640625 4.8203125 C-1 2 -1 2 0 0 Z " fill="#EF6E39" transform="translate(121,43)"/>
<path d="M0 0 C0 0.99 0 1.98 0 3 C-4.455 3.495 -4.455 3.495 -9 4 C-5.73092573 0.73092573 -4.54139841 0 0 0 Z " fill="#CA8973" transform="translate(191,43)"/>
<path d="M0 0 C2.4375 1.1875 2.4375 1.1875 5 3 C5.8125 5.6875 5.8125 5.6875 6 8 C1.3125 4.38671875 1.3125 4.38671875 0 3 C0 2.01 0 1.02 0 0 Z " fill="#CF7054" transform="translate(208,20)"/>
<path d="M0 0 C4.43090471 1.20842856 6.98112756 2.51668565 10 6 C8.5164999 5.57742724 7.03823576 5.13643678 5.5625 4.6875 C4.73878906 4.44386719 3.91507813 4.20023438 3.06640625 3.94921875 C2.04353516 3.47935547 2.04353516 3.47935547 1 3 C0.67 2.01 0.34 1.02 0 0 Z " fill="#C87B5F" transform="translate(198,14)"/>
<path d="M0 0 C0.33 0 0.66 0 1 0 C1.08131463 1.43655854 1.13933559 2.8744483 1.1875 4.3125 C1.22230469 5.11300781 1.25710937 5.91351563 1.29296875 6.73828125 C0.93801608 9.47851584 0.10633718 10.29171079 -2 12 C-2.66 10.68 -3.32 9.36 -4 8 C-2.68 8 -1.36 8 0 8 C0 5.36 0 2.72 0 0 Z " fill="#C18F76" transform="translate(85,163)"/>
<path d="M0 0 C0.66 0 1.32 0 2 0 C2 0.66 2 1.32 2 2 C3.32 2 4.64 2 6 2 C6.33 2.99 6.66 3.98 7 5 C5.68 5.33 4.36 5.66 3 6 C2.01 4.02 1.02 2.04 0 0 Z " fill="#B36F55" transform="translate(193,157)"/>
<path d="M0 0 C0.99 0.33 1.98 0.66 3 1 C2.34 2.65 1.68 4.3 1 6 C0.01 6 -0.98 6 -2 6 C-2.33 5.34 -2.66 4.68 -3 4 C-2.01 2.68 -1.02 1.36 0 0 Z " fill="#F47240" transform="translate(220,88)"/>
<path d="M0 0 C0.66 0.33 1.32 0.66 2 1 C1.01 1.33 0.02 1.66 -1 2 C-0.67 3.98 -0.34 5.96 0 8 C-1.32 7.67 -2.64 7.34 -4 7 C-3.6875 4.625 -3.6875 4.625 -3 2 C-2.01 1.34 -1.02 0.68 0 0 Z " fill="#F2703D" transform="translate(157,64)"/>
<path d="M0 0 C0 0.99 0 1.98 0 3 C-2.5 4.6875 -2.5 4.6875 -5 6 C-5.66 5.34 -6.32 4.68 -7 4 C-2.25 0 -2.25 0 0 0 Z " fill="#CB765D" transform="translate(143,16)"/>
<path d="M0 0 C1.9955516 3.99110319 2.19546065 5.69986566 2 10 C1.01 10 0.02 10 -1 10 C-0.67 6.7 -0.34 3.4 0 0 Z " fill="#C56348" transform="translate(189,161)"/>
<path d="M0 0 C0.66 0 1.32 0 2 0 C2 2.64 2 5.28 2 8 C1.01 8.495 1.01 8.495 0 9 C-1.125 2.25 -1.125 2.25 0 0 Z " fill="#C36B4B" transform="translate(261,145)"/>
<path d="M0 0 C0.66 0.99 1.32 1.98 2 3 C-0.97 3 -3.94 3 -7 3 C-7 2.34 -7 1.68 -7 1 C-4.46578263 -0.26710868 -2.80561762 -0.28056176 0 0 Z " fill="#B96C4F" transform="translate(118,145)"/>
<path d="M0 0 C0.99 0.33 1.98 0.66 3 1 C-0.465 3.97 -0.465 3.97 -4 7 C-4.66 6.67 -5.32 6.34 -6 6 C-4.02 4.02 -2.04 2.04 0 0 Z " fill="#C3663C" transform="translate(165,58)"/>
<path d="M0 0 C2 3 2 3 2 7 C0.35 7 -1.3 7 -3 7 C-2.34 6.67 -1.68 6.34 -1 6 C-0.34227572 2.97065509 -0.34227572 2.97065509 0 0 Z " fill="#E37141" transform="translate(189,35)"/>
<path d="M0 0 C-0.1875 1.875 -0.1875 1.875 -1 4 C-3.5625 5.25 -3.5625 5.25 -6 6 C-3.84615385 0 -3.84615385 0 0 0 Z " fill="#CD7E5C" transform="translate(127,33)"/>
<path d="M0 0 C0.99 0 1.98 0 3 0 C3 1.98 3 3.96 3 6 C2.01 5.67 1.02 5.34 0 5 C0 3.35 0 1.7 0 0 Z " fill="#D7653A" transform="translate(260,165)"/>
<path d="M0 0 C0.33 0.99 0.66 1.98 1 3 C2.32 2.67 3.64 2.34 5 2 C4.67 3.65 4.34 5.3 4 7 C3.67 6.01 3.34 5.02 3 4 C1.68 4.33 0.36 4.66 -1 5 C-0.67 3.35 -0.34 1.7 0 0 Z " fill="#D27E57" transform="translate(81,158)"/>
<path d="M0 0 C1.65 0 3.3 0 5 0 C5 0.66 5 1.32 5 2 C5.66 2.33 6.32 2.66 7 3 C4.69 3 2.38 3 0 3 C0 2.01 0 1.02 0 0 Z " fill="#BA685E" transform="translate(86,159)"/>
<path d="M0 0 C2.64 0.33 5.28 0.66 8 1 C8 1.99 8 2.98 8 4 C5.36 3.34 2.72 2.68 0 2 C0 1.34 0 0.68 0 0 Z " fill="#BE6B4D" transform="translate(87,145)"/>
<path d="M0 0 C1.32 0 2.64 0 4 0 C3.67 1.32 3.34 2.64 3 4 C1.68 4 0.36 4 -1 4 C-0.67 2.68 -0.34 1.36 0 0 Z " fill="#A07462" transform="translate(147,145)"/>
<path d="M0 0 C0 3.25811062 -0.5522078 5.10441559 -2 8 C-2.99 8.33 -3.98 8.66 -5 9 C-3.7508258 5.54074837 -2.32472205 2.85306797 0 0 Z " fill="#D4653B" transform="translate(196,52)"/>
</svg>
