<?xml version="1.0" encoding="UTF-8"?>
<svg version="1.1" xmlns="http://www.w3.org/2000/svg" width="180" height="180">
<path d="M0 0 C0.64297445 -0.00594224 1.28594889 -0.01188449 1.94840741 -0.0180068 C4.10085076 -0.03533659 6.25307107 -0.0383934 8.40557861 -0.04138184 C9.94982374 -0.05064142 11.4940643 -0.06069118 13.03829956 -0.07147217 C17.23267924 -0.09769472 21.42699492 -0.1106052 25.62144375 -0.11949348 C28.24339849 -0.1253595 30.86533583 -0.13357 33.4872818 -0.14250183 C41.6949476 -0.16984597 49.90257352 -0.18918168 58.11028171 -0.19690561 C67.57709776 -0.20586395 77.04333582 -0.24094766 86.50997615 -0.2989068 C93.8324262 -0.34217806 101.15471387 -0.36231617 108.47729039 -0.36498785 C112.84841597 -0.36708144 117.21899802 -0.37884099 121.58998871 -0.41462708 C125.70408329 -0.44765488 129.81722778 -0.45186943 133.93140793 -0.43434906 C135.43743057 -0.4328117 136.94350498 -0.44144979 138.44939804 -0.46126556 C145.93991846 -0.55401466 152.14476306 -0.62197959 158.07115555 4.5051651 C161.7964624 8.90534878 162.94976002 12.01505463 162.95547485 17.80210876 C162.96393433 19.12133331 162.9723938 20.44055786 162.98110962 21.79975891 C162.97527712 23.25497561 162.96913264 24.71019108 162.96270752 26.16540527 C162.96677416 27.70318983 162.97211657 29.24097146 162.9786377 30.77874756 C162.99230727 34.95028186 162.98701386 39.12159342 162.97750044 43.29313159 C162.96990061 47.66121184 162.97695048 52.02927312 162.98165894 56.39735413 C162.98711612 63.73364685 162.97992645 71.06984896 162.96563721 78.40612793 C162.94931683 86.88300642 162.95459486 95.35966837 162.97111642 103.83654159 C162.9847396 111.1182234 162.9866467 118.3998401 162.97880042 125.68153054 C162.97412769 130.02891307 162.97348791 134.3761939 162.98340988 138.72356987 C162.99208917 142.81204209 162.98604018 146.90023578 162.96872711 150.98867798 C162.96476713 152.48744813 162.96588797 153.98624179 162.97251511 155.48500252 C162.98074063 157.53454099 162.97039826 159.58319284 162.95547485 161.63267517 C162.95434378 162.77842231 162.9532127 163.92416945 162.95204735 165.10463619 C162.34548959 170.2078364 160.27951962 174.28870961 156.33760071 177.60934448 C150.33395467 181.78157683 143.36648526 181.10321441 136.36529541 181.0255127 C134.82868465 181.03037465 133.29208024 181.03781924 131.75549316 181.04763794 C127.60032977 181.06637935 123.44611491 181.04767276 119.29102588 181.02097368 C114.93411371 180.99826524 110.57724553 181.0065657 106.22029114 181.01046753 C98.90600165 181.01223081 91.59208383 180.99012631 84.27789307 180.95324707 C75.83099871 180.91089947 67.38464824 180.90389678 58.93766922 180.91637099 C50.79828388 180.92777385 42.65908935 180.91644981 34.51973152 180.8940239 C31.06174236 180.88475401 27.6038703 180.88297455 24.14587212 180.88719559 C20.07200836 180.89097261 15.99869544 180.87466908 11.92495728 180.8430748 C10.43307334 180.83461562 8.94113338 180.83287019 7.44923592 180.8384552 C-7.06687075 180.88453969 -7.06687075 180.88453969 -12.42547607 176.28088379 C-18.85379352 169.7846999 -18.14928944 161.70194519 -18.10418701 153.10339355 C-18.11424906 151.57002315 -18.12640053 150.03666526 -18.14047241 148.50332642 C-18.17169848 144.3564692 -18.17121904 140.21019406 -18.16296673 136.06324887 C-18.15879508 132.59413341 -18.16979657 129.12513085 -18.1806109 125.65603489 C-18.20571707 117.46863627 -18.20465141 109.28152639 -18.18719482 101.09411621 C-18.16967325 92.66295781 -18.19606828 84.23274512 -18.24416137 75.80172688 C-18.28399393 68.5479169 -18.29656178 61.29440487 -18.28744721 54.04049152 C-18.28227556 49.71464827 -18.28722798 45.38943957 -18.31841278 41.06369209 C-18.34655201 36.99448312 -18.3404716 32.92670082 -18.30869675 28.8575325 C-18.30266791 27.36969 -18.30841627 25.8817428 -18.32720566 24.39400673 C-18.42273831 16.21688121 -17.9362791 10.26828263 -12.31662369 3.90681362 C-8.28617983 0.44160612 -5.29189183 0.02735127 0 0 Z M97.57452393 94.28088379 C93.38167425 99.87135002 93.87106246 106.60617965 94.57452393 113.28088379 C96.056358 119.28725124 99.75820657 122.97541322 104.66436768 126.54650879 C109.55407585 129.46064359 114.74421846 131.63633174 120.00030518 133.80041504 C121.17979736 134.28896973 122.35928955 134.77752441 123.57452393 135.28088379 C124.37503174 135.58510254 125.17553955 135.88932129 126.00030518 136.20275879 C127.57452393 137.28088379 127.57452393 137.28088379 128.25421143 139.33947754 C128.31866455 140.1245166 128.38311768 140.90955566 128.44952393 141.71838379 C128.5294458 142.50084473 128.60936768 143.28330566 128.69171143 144.08947754 C128.57452393 146.28088379 128.57452393 146.28088379 126.57452393 149.28088379 C117.46649122 152.74193622 109.522768 151.41405859 100.57452393 148.28088379 C98.59452393 147.29088379 96.61452393 146.30088379 94.57452393 145.28088379 C94.57452393 150.56088379 94.57452393 155.84088379 94.57452393 161.28088379 C96.12139893 161.75525879 97.66827393 162.22963379 99.26202393 162.71838379 C100.13214111 162.98521973 101.0022583 163.25205566 101.89874268 163.52697754 C113.47231698 166.78785322 126.82723268 166.4630388 137.80499268 161.21447754 C142.7555998 158.01611089 145.21081864 153.80378912 147.32452393 148.34338379 C148.13340162 141.67014281 147.76678945 136.25350961 144.57452393 130.28088379 C140.02542168 124.69198674 133.99638594 121.43944931 127.60577393 118.32775879 C126.8933252 117.98011475 126.18087646 117.6324707 125.44683838 117.27429199 C124.01030286 116.58002268 122.56879553 115.89593175 121.12213135 115.22302246 C114.55243736 112.06934876 114.55243736 112.06934876 112.57452393 108.28088379 C112.64635863 104.76098312 112.86869169 102.98671603 115.38702393 100.46838379 C120.90157754 97.47476897 127.27139412 97.50283443 133.27764893 98.91760254 C135.73185138 99.65314567 138.1552939 100.43808344 140.57452393 101.28088379 C141.56452393 101.61088379 142.55452393 101.94088379 143.57452393 102.28088379 C143.57452393 97.33088379 143.57452393 92.38088379 143.57452393 87.28088379 C137.55512396 84.8731238 132.78589608 84.91334603 126.38702393 84.90588379 C124.75797119 84.86914551 124.75797119 84.86914551 123.0960083 84.83166504 C113.13729384 84.79577778 104.6577217 87.02492509 97.57452393 94.28088379 Z M24.57452393 87.28088379 C24.5020834 89.30052578 24.49075204 91.32255502 24.51202393 93.34338379 C24.53264893 95.30275879 24.55327393 97.26213379 24.57452393 99.28088379 C31.50452393 99.61088379 38.43452393 99.94088379 45.57452393 100.28088379 C46.28060521 104.51737147 46.71536373 108.06725985 46.77984619 112.28625488 C46.79979141 113.44700531 46.81973663 114.60775574 46.84028625 115.80368042 C46.85699875 117.04139191 46.87371124 118.27910339 46.89093018 119.55432129 C46.91171127 120.83320221 46.93249237 122.11208313 46.9539032 123.42971802 C47.00807613 126.81293583 47.05836619 130.19616543 47.10675049 133.57946777 C47.15718324 137.03858523 47.2127551 140.4976198 47.2678833 143.95666504 C47.37481531 150.73134036 47.47615039 157.506079 47.57452393 164.28088379 C52.85452393 164.28088379 58.13452393 164.28088379 63.57452393 164.28088379 C63.90452393 143.16088379 64.23452393 122.04088379 64.57452393 100.28088379 C71.83452393 100.28088379 79.09452393 100.28088379 86.57452393 100.28088379 C86.57452393 95.66088379 86.57452393 91.04088379 86.57452393 86.28088379 C78.63838183 86.25832906 70.70226447 86.23996656 62.76609898 86.22907162 C59.08137894 86.22384371 55.3966819 86.21674774 51.7119751 86.20544434 C48.15881562 86.19461217 44.6056783 86.18860626 41.05250359 86.18600655 C39.69406726 86.18415289 38.33563221 86.18053341 36.97720528 86.17515373 C35.08070169 86.16793904 33.184176 86.1674757 31.28765869 86.1673584 C30.20622086 86.16513779 29.12478302 86.16291718 28.01057434 86.16062927 C25.62654921 86.00506409 25.62654921 86.00506409 24.57452393 87.28088379 Z " fill="#2E76C4" transform="translate(17.42547607421875,-0.2808837890625)"/>
<path d="M0 0 C21.78 0 43.56 0 66 0 C66 4.95 66 9.9 66 15 C63 18 63 18 59.6015625 18.328125 C58.28929687 18.30234375 56.97703125 18.2765625 55.625 18.25 C54.31789062 18.23453125 53.01078125 18.2190625 51.6640625 18.203125 C48 18 48 18 43 17 C43 38.45 43 59.9 43 82 C28 83 28 83 24 82 C22.62667306 79.25334611 22.88035108 77.06375932 22.88647461 73.98974609 C22.88655014 72.72858978 22.88662567 71.46743347 22.88670349 70.1680603 C22.89181051 68.78651897 22.89702651 67.40497804 22.90234375 66.0234375 C22.90420856 64.6138209 22.90563217 63.20420366 22.90663147 61.79458618 C22.91045167 58.08246068 22.92027772 54.37037422 22.93133545 50.65826416 C22.94156025 46.87113981 22.94613138 43.08400917 22.95117188 39.296875 C22.96190043 31.86456346 22.97949321 24.43229217 23 17 C15.41 17 7.82 17 0 17 C0 11.39 0 5.78 0 0 Z M2 3 C1.92755947 5.01964199 1.91622812 7.04167124 1.9375 9.0625 C1.958125 11.021875 1.97875 12.98125 2 15 C8.93 15.33 15.86 15.66 23 16 C23.70608128 20.23648768 24.14083981 23.78637606 24.20532227 28.00537109 C24.22526749 29.16612152 24.24521271 30.32687195 24.26576233 31.52279663 C24.28247482 32.76050812 24.29918732 33.9982196 24.31640625 35.2734375 C24.33718735 36.55231842 24.35796844 37.83119934 24.37937927 39.14883423 C24.4335522 42.53205204 24.48384226 45.91528165 24.53222656 49.29858398 C24.58265932 52.75770144 24.63823117 56.21673601 24.69335938 59.67578125 C24.80029139 66.45045657 24.90162647 73.22519521 25 80 C30.28 80 35.56 80 41 80 C41.33 58.88 41.66 37.76 42 16 C49.26 16 56.52 16 64 16 C64 11.38 64 6.76 64 2 C56.0638579 1.97744527 48.12774054 1.95908277 40.19157505 1.94818783 C36.50685502 1.94295992 32.82215797 1.93586395 29.13745117 1.92456055 C25.58429169 1.91372838 22.03115437 1.90772247 18.47797966 1.90512276 C17.11954334 1.9032691 15.76110829 1.89964962 14.40268135 1.89426994 C12.50617777 1.88705525 10.60965207 1.88659191 8.71313477 1.88647461 C7.63169693 1.884254 6.55025909 1.88203339 5.43605042 1.87974548 C3.05202528 1.7241803 3.05202528 1.7241803 2 3 Z " fill="#204E88" transform="translate(40,84)"/>
<path d="M0 0 C0.7113208 0.08677002 1.4226416 0.17354004 2.15551758 0.26293945 C7.2454808 0.9329808 7.2454808 0.9329808 8.375 2.0625 C8.46151611 3.47820123 8.48204904 4.898095 8.47265625 6.31640625 C8.46943359 7.17041016 8.46621094 8.02441406 8.46289062 8.90429688 C8.45032227 10.25104492 8.45032227 10.25104492 8.4375 11.625 C8.43298828 12.52669922 8.42847656 13.42839844 8.42382812 14.35742188 C8.41200225 16.59251314 8.3955222 18.82747437 8.375 21.0625 C5.7453046 20.61169507 3.4280889 20.08474923 0.9609375 19.05078125 C-4.98010788 16.78026088 -12.81681898 15.96281527 -18.875 18.1875 C-21.78975921 19.80025099 -21.78975921 19.80025099 -22.625 22.5625 C-22.75676157 25.19426157 -22.75676157 25.19426157 -21.625 28.0625 C-19.31331919 29.21578481 -19.31331919 29.21578481 -16.625 30.0625 C-8.7608005 32.93831645 -1.76827681 36.69307295 5.375 41.0625 C5.045 42.0525 4.715 43.0425 4.375 44.0625 C3.83875 43.7221875 3.3025 43.381875 2.75 43.03125 C-1.31920987 40.51476495 -5.39984205 38.13619399 -9.7109375 36.05859375 C-10.41863281 35.71699219 -11.12632812 35.37539062 -11.85546875 35.0234375 C-13.26174708 34.35231742 -14.67312024 33.69174868 -16.08984375 33.04296875 C-20.31403124 31.02593989 -23.07079659 29.15183844 -25.625 25.0625 C-25.6875 22 -25.6875 22 -24.625 19.0625 C-20.60775301 15.04525301 -17.04843408 13.93534356 -11.5 13.8125 C-5.62178935 13.86124138 0.11898926 15.43449463 5.375 18.0625 C5.705 13.4425 6.035 8.8225 6.375 4.0625 C0.56054383 2.89960877 -4.90206048 2.80169481 -10.8125 2.75 C-11.89853516 2.72099609 -12.98457031 2.69199219 -14.10351562 2.66210938 C-22.7107254 2.59490594 -29.29581733 4.29919191 -36.5625 8.9375 C-40.93253623 13.43996157 -41.84854567 17.26848351 -42.0625 23.4375 C-41.87132639 30.15916406 -40.79542918 34.70851965 -36.140625 39.6328125 C-31.21022337 43.79965635 -25.30597775 46.11622134 -19.34863281 48.43969727 C-14.81355803 50.27074743 -11.92763281 52.32449186 -8.625 56.0625 C-8.295 56.3925 -7.965 56.7225 -7.625 57.0625 C-7.34353173 60.229018 -7.31894928 62.4143926 -8.6875 65.3125 C-12.71952595 68.95432989 -18.09361831 69.46455038 -23.37890625 69.3203125 C-30.16914229 68.54091149 -35.77838858 66.57046685 -41.625 63.0625 C-41.955 67.6825 -42.285 72.3025 -42.625 77.0625 C-43.285 77.0625 -43.945 77.0625 -44.625 77.0625 C-44.625 71.7825 -44.625 66.5025 -44.625 61.0625 C-42.645 60.5675 -42.645 60.5675 -40.625 60.0625 C-38.61801025 61.3852887 -36.61908077 62.72033025 -34.625 64.0625 C-26.77101294 66.72486849 -18.71040769 66.88353777 -10.625 65.0625 C-10.625 62.0925 -10.625 59.1225 -10.625 56.0625 C-11.945 55.7325 -13.265 55.4025 -14.625 55.0625 C-14.625 54.4025 -14.625 53.7425 -14.625 53.0625 C-15.58212891 52.88074219 -15.58212891 52.88074219 -16.55859375 52.6953125 C-17.38488281 52.52773437 -18.21117187 52.36015625 -19.0625 52.1875 C-19.88621094 52.02507812 -20.70992187 51.86265625 -21.55859375 51.6953125 C-22.24050781 51.48648438 -22.92242187 51.27765625 -23.625 51.0625 C-23.955 50.4025 -24.285 49.7425 -24.625 49.0625 C-25.429375 48.835625 -26.23375 48.60875 -27.0625 48.375 C-33.09319269 46.15316585 -38.73765787 43.16794815 -42.15625 37.54296875 C-45.37461549 29.50854918 -46.19672541 21.25310909 -42.9375 13.125 C-41.11722876 9.51036886 -39.14286065 7.19173144 -35.625 5.0625 C-34.965 5.0625 -34.305 5.0625 -33.625 5.0625 C-33.625 4.4025 -33.625 3.7425 -33.625 3.0625 C-32.23050891 2.579441 -30.83433293 2.10124483 -29.4375 1.625 C-28.27154297 1.22474609 -28.27154297 1.22474609 -27.08203125 0.81640625 C-18.10714033 -1.9374156 -9.18880658 -1.12848589 0 0 Z " fill="#275288" transform="translate(154.625,82.9375)"/>
<path d="M0 0 C0.66 0 1.32 0 2 0 C5.01143142 5.80776059 6.81530116 10.43996147 6 17 C5.85884766 18.15048828 5.85884766 18.15048828 5.71484375 19.32421875 C4.79909355 24.7031398 3.3112836 27.42478921 -1 31 C-1.46664062 31.5053125 -1.93328125 32.010625 -2.4140625 32.53125 C-4.19621548 34.1817168 -5.65468487 34.82754826 -7.9375 35.625 C-8.60652344 35.86476562 -9.27554688 36.10453125 -9.96484375 36.3515625 C-15.73203628 38.18909409 -21.09761034 38.21948157 -27.125 38.25 C-28.12015625 38.270625 -29.1153125 38.29125 -30.140625 38.3125 C-36.92374155 38.34792097 -42.62971735 37.33020546 -49 35 C-49 34.34 -49 33.68 -49 33 C-48.06800781 33.2165625 -47.13601562 33.433125 -46.17578125 33.65625 C-33.25838843 36.47743994 -20.74186282 37.63970005 -8 33 C-6.30645642 31.7009751 -4.63407756 30.37307906 -3 29 C-2.34 29 -1.68 29 -1 29 C2.82563459 22.16850967 4.20693832 14.87658894 2.32421875 7.26953125 C1.59732827 4.82704144 0.82946033 2.40938478 0 0 Z " fill="#2B5585" transform="translate(161,128)"/>
<path d="M0 0 C0.33 0 0.66 0 1 0 C1 15.18 1 30.36 1 46 C6.94 46 12.88 46 19 46 C19 46.66 19 47.32 19 48 C16.58373582 48.19534474 14.16734771 48.38153404 11.75 48.5625 C10.72712891 48.64661133 10.72712891 48.64661133 9.68359375 48.73242188 C2.95679048 49.22223765 2.95679048 49.22223765 0 48 C-1.15920492 45.68159016 -1.12673288 44.34560869 -1.12939453 41.765625 C-1.13254669 40.89131836 -1.13569885 40.01701172 -1.13894653 39.11621094 C-1.1369223 38.17036133 -1.13489807 37.22451172 -1.1328125 36.25 C-1.13376923 35.28094727 -1.13472595 34.31189453 -1.13571167 33.31347656 C-1.1363929 31.26236913 -1.13454261 29.21125955 -1.13037109 27.16015625 C-1.12502205 24.01297177 -1.13031804 20.86593002 -1.13671875 17.71875 C-1.13605796 15.72916635 -1.13477677 13.73958279 -1.1328125 11.75 C-1.13483673 10.80415039 -1.13686096 9.85830078 -1.13894653 8.88378906 C-1.13579437 8.00948242 -1.13264221 7.13517578 -1.12939453 6.234375 C-1.12859894 5.46319336 -1.12780334 4.69201172 -1.12698364 3.89746094 C-1 2 -1 2 0 0 Z " fill="#275794" transform="translate(64,118)"/>
<path d="M0 0 C0 4.95 0 9.9 0 15 C-0.66 15.33 -1.32 15.66 -2 16 C-2 11.38 -2 6.76 -2 2 C-22.13 2 -42.26 2 -63 2 C-63 1.67 -63 1.34 -63 1 C-55.08113223 0.86942365 -47.1622616 0.73902311 -39.24338722 0.60884857 C-35.56655359 0.54840133 -31.88972098 0.48789295 -28.21289062 0.42724609 C-24.66621506 0.36874828 -21.11953692 0.31040945 -17.5728569 0.25218201 C-16.21804078 0.22991121 -14.86322562 0.2075826 -13.50841141 0.18519592 C-11.61449683 0.15391102 -9.72057858 0.12284856 -7.82666016 0.09179688 C-6.20783432 0.06514954 -6.20783432 0.06514954 -4.55630493 0.03796387 C-3.03765137 0.01541023 -1.51882103 0 0 0 Z " fill="#315B91" transform="translate(106,84)"/>
<path d="M0 0 C1.39773359 2.09660038 2.74855023 4.22490038 4.0625 6.375 C7.59246996 11.34427319 12.72066628 13.50721372 18.13671875 15.97265625 C20.79467756 17.43815555 22.22057417 19.58506494 24 22 C21.5625 21.625 21.5625 21.625 19 21 C18.67 20.34 18.34 19.68 18 19 C17.195625 18.773125 16.39125 18.54625 15.5625 18.3125 C9.93224333 16.23819491 3.49605569 12.96491036 0.7109375 7.4453125 C-0.04531657 4.84413093 -0.15398056 2.69465988 0 0 Z " fill="#2F5D95" transform="translate(112,113)"/>
<path d="M0 0 C0.7528125 -0.01417969 1.505625 -0.02835937 2.28125 -0.04296875 C4.74864173 0.21332722 6.36356256 0.95904847 8.5 2.1875 C5.56738974 2.89843582 3.16140072 3.17495929 0.125 3.0625 C-4.34704099 3.21670831 -6.63405414 3.9452514 -10.5 6.1875 C-11.49077298 8.64036596 -11.49077298 8.64036596 -11.5 11.1875 C-11.83 12.1775 -12.16 13.1675 -12.5 14.1875 C-14.5 11.1875 -14.5 11.1875 -14.4375 8.25 C-13.26338107 4.41454482 -11.85950074 3.29695395 -8.5 1.1875 C-5.63572069 0.28611189 -2.99594496 0.02565021 0 0 Z " fill="#355985" transform="translate(143.5,96.8125)"/>
<path d="M0 0 C5.96781863 1.59921937 9.89600447 3.12650531 14 8 C14.33 8.33 14.66 8.66 15 9 C15.04080783 10.99958364 15.04254356 13.00045254 15 15 C12.64046906 12.64046906 12.50858587 11.22104383 12 8 C10.68 7.67 9.36 7.34 8 7 C8 6.34 8 5.68 8 5 C7.05125 4.731875 6.1025 4.46375 5.125 4.1875 C2 3 2 3 0 0 Z " fill="#2E5883" transform="translate(132,131)"/>
<path d="M0 0 C0.99 0 1.98 0 3 0 C4.68236471 0.62599617 6.3523962 1.28752268 8 2 C8 2.33 8 2.66 8 3 C1.2718373 3.22262303 -4.53991163 2.95021536 -11 1 C-11 0.67 -11 0.34 -11 0 C-3.85 -1.2375 -3.85 -1.2375 0 0 Z " fill="#3672BA" transform="translate(131,147)"/>
<path d="M0 0 C3.76384777 -0.55350702 4.93717714 -0.043976 8.125 2.1875 C10.68033842 4.5183384 12.57285001 6.80990002 14 10 C13.67 10.99 13.34 11.98 13 13 C10.10067643 10.60490662 9.49831724 8.68754757 9 5 C7.68 4.67 6.36 4.34 5 4 C5 3.34 5 2.68 5 2 C3.35 1.67 1.7 1.34 0 1 C0 0.67 0 0.34 0 0 Z " fill="#295285" transform="translate(166,1)"/>
<path d="M0 0 C0.8125 1.625 0.8125 1.625 1 4 C-1.42141555 7.36307715 -3.5471426 9.69809507 -7 12 C-7.99 11.67 -8.98 11.34 -10 11 C-7.42215154 8.35247996 -5.08351902 6.05567935 -2 4 C-0.80767387 1.94996045 -0.80767387 1.94996045 0 0 Z " fill="#244D82" transform="translate(178,167)"/>
<path d="M0 0 C0.33 0.66 0.66 1.32 1 2 C5.47491308 4.09761551 10.30621781 5.46608425 15 7 C14.67 7.66 14.34 8.32 14 9 C8.58961609 8.59422121 4.07142845 6.57541686 0 3 C0 2.01 0 1.02 0 0 Z " fill="#29548E" transform="translate(132,109)"/>
<path d="M0 0 C-1.423125 0.8971875 -1.423125 0.8971875 -2.875 1.8125 C-6.13964197 3.81562526 -6.13964197 3.81562526 -8 7 C-9.31387169 8.35251497 -10.64426252 9.68945377 -12 11 C-11.55396127 5.94489444 -9.35299176 3.59833262 -6 0 C-3.50907189 -1.24546405 -2.58919267 -0.7767578 0 0 Z " fill="#335482" transform="translate(13,2)"/>
<path d="M0 0 C1.65 0 3.3 0 5 0 C4.01 1.485 4.01 1.485 3 3 C2.835 4.19625 2.67 5.3925 2.5 6.625 C2.335 7.73875 2.17 8.8525 2 10 C1.01 10.495 1.01 10.495 0 11 C0 7.37 0 3.74 0 0 Z " fill="#3971BC" transform="translate(83,101)"/>
<path d="M0 0 C1.65 0.33 3.3 0.66 5 1 C4.67 5.95 4.34 10.9 4 16 C3.67 16 3.34 16 3 16 C3 11.71 3 7.42 3 3 C1.35 2.67 -0.3 2.34 -2 2 C-1.34 1.34 -0.68 0.68 0 0 Z " fill="#39618D" transform="translate(158,84)"/>
<path d="M0 0 C4 4 4 4 5.4375 5.5625 C7.43780708 7.40278252 9.64266462 8.66205289 12 10 C10.375 10.8125 10.375 10.8125 8 11 C3.28907967 7.89079259 1.3119876 5.64154669 0 0 Z " fill="#244F7B" transform="translate(1,168)"/>
<path d="M0 0 C0.66 0.33 1.32 0.66 2 1 C2 1.66 2 2.32 2 3 C1.01 3.33 0.02 3.66 -1 4 C-2.22520264 7.00847418 -2.22520264 7.00847418 -3 10 C-3.99 10 -4.98 10 -6 10 C-5.58578031 5.16743695 -3.53586014 3.17320782 0 0 Z " fill="#3B72B6" transform="translate(9,3)"/>
<path d="M0 0 C1.65 0 3.3 0 5 0 C5 0.66 5 1.32 5 2 C5.66 2.33 6.32 2.66 7 3 C7 3.66 7 4.32 7 5 C4.69 4.67 2.38 4.34 0 4 C0 2.68 0 1.36 0 0 Z " fill="#3876B9" transform="translate(164,0)"/>
<path d="M0 0 C0.66 0 1.32 0 2 0 C2.93065133 2.60582371 3.14917407 3.64198224 2.0625 6.25 C1.5365625 7.11625 1.5365625 7.11625 1 8 C-0.32 7.34 -1.64 6.68 -3 6 C-2.01 6 -1.02 6 0 6 C0 4.02 0 2.04 0 0 Z " fill="#3373B8" transform="translate(83,160)"/>
<path d="M0 0 C0.33 0.66 0.66 1.32 1 2 C0.01 3.32 -0.98 4.64 -2 6 C-3.32 5.67 -4.64 5.34 -6 5 C-4.62308038 2.24616077 -2.63279958 1.48516899 0 0 Z " fill="#3171B6" transform="translate(159,159)"/>
</svg>
